<svg width="18" height="21" viewBox="0 0 18 21" fill="none" xmlns="http://www.w3.org/2000/svg">
<path d="M8.78906 0.762207C5.88129 0.762207 3.51562 3.12787 3.51562 6.03564C3.51562 8.94342 5.88129 11.3091 8.78906 11.3091C11.6968 11.3091 14.0625 8.94342 14.0625 6.03564C14.0625 3.12787 11.6968 0.762207 8.78906 0.762207ZM8.78906 10.1372C6.52746 10.1372 4.6875 8.29725 4.6875 6.03564C4.6875 3.77404 6.52746 1.93408 8.78906 1.93408C11.0507 1.93408 12.8906 3.77404 12.8906 6.03564C12.8906 8.29725 11.0507 10.1372 8.78906 10.1372Z" fill="#6D7175"/>
<path d="M15.3502 14.7542C13.9065 13.2883 11.9925 12.481 9.96094 12.481H7.61719C5.58563 12.481 3.67164 13.2883 2.22789 14.7542C0.791211 16.2129 0 18.1385 0 20.1763C0 20.4999 0.262344 20.7622 0.585938 20.7622H16.9922C17.3158 20.7622 17.5781 20.4999 17.5781 20.1763C17.5781 18.1385 16.7869 16.2129 15.3502 14.7542ZM1.19766 19.5903C1.49121 16.2667 4.25824 13.6528 7.61719 13.6528H9.96094C13.3199 13.6528 16.0869 16.2667 16.3805 19.5903H1.19766Z" fill="#6D7175"/>
</svg>
