<svg width="20" height="21" viewBox="0 0 20 21" fill="none" xmlns="http://www.w3.org/2000/svg">
<path d="M14.5437 5.7456C13.0954 5.13744 11.3888 5.52041 10 6.73994C8.61117 5.52037 6.90453 5.13736 5.45609 5.74572C4.08562 6.32134 3.25262 7.68123 3.28207 9.2947C3.34781 12.8977 8.69465 16.1625 9.76578 16.7804C9.83824 16.8222 9.91914 16.8431 10 16.8431C10.0809 16.8431 10.1618 16.8222 10.2342 16.7804C11.3055 16.1624 16.6529 12.8972 16.718 9.29408C16.7472 7.68076 15.914 6.32107 14.5437 5.7456ZM15.7806 9.27712C15.76 10.419 14.995 11.7541 13.5682 13.1379C12.2567 14.4101 10.7666 15.3727 9.99996 15.8307C9.23336 15.3727 7.74348 14.4103 6.43195 13.1382C5.00531 11.7544 4.2402 10.4194 4.21934 9.27755C4.19668 8.03751 4.79469 7.04033 5.81906 6.61005C6.15598 6.46853 6.51359 6.39962 6.87992 6.39962C7.82422 6.39962 8.82469 6.85818 9.6657 7.71334C9.75383 7.80294 9.87422 7.85341 9.99992 7.85341C10.1256 7.85341 10.246 7.80294 10.3341 7.71334C11.5014 6.52654 12.9752 6.10384 14.1807 6.60998C15.205 7.04009 15.8031 8.03716 15.7806 9.27712ZM16.9378 0.762085H3.06223C1.37371 0.762085 0 2.1358 0 3.82431V17.6999C0 19.3884 1.37371 20.7621 3.06223 20.7621H16.9378C18.6263 20.7621 20 19.3884 20 17.6999V3.82431C20 2.1358 18.6263 0.762085 16.9378 0.762085V0.762085ZM19.0625 17.6999C19.0625 18.8714 18.1094 19.8246 16.9378 19.8246H3.06223C1.89062 19.8246 0.9375 18.8714 0.9375 17.6999V3.82431C0.9375 2.65275 1.89062 1.69958 3.06223 1.69958H16.9378C18.1094 1.69958 19.0625 2.65275 19.0625 3.82431V17.6999Z" fill="#6D7175"/>
</svg>
