<svg width="31" height="19" viewBox="0 0 31 19" fill="none" xmlns="http://www.w3.org/2000/svg">
<rect x="0.792969" y="0.81543" width="29" height="17" rx="3.5" fill="#006FCF" stroke="#F3F3F3"/>
<path fill-rule="evenodd" clip-rule="evenodd" d="M6.42896 13.3177V9.61212H11.2515L11.769 10.1609L12.3035 9.61212H29.8083V13.0621C29.8083 13.0621 29.3505 13.314 28.821 13.3177H19.1283L18.5449 12.7335V13.3177H16.6333V12.3205C16.6333 12.3205 16.3722 12.4597 15.8076 12.4597H15.1569V13.3177H12.2626L11.7459 12.7571L11.2213 13.3177H6.42896ZM0.810059 6.81928L1.8951 4.75659H3.77158L4.38735 5.91203V4.75659H6.71998L7.08655 5.59171L7.44193 4.75659H17.913V5.17643C17.913 5.17643 18.4635 4.75659 19.3681 4.75659L22.7656 4.76627L23.3707 5.90659V4.75659H25.3228L25.8601 5.41161V4.75659H27.83V8.46213H25.8601L25.3452 7.80499V8.46213H22.4772L22.1888 7.878H21.4177L21.134 8.46213H19.189C18.4106 8.46213 17.913 8.05086 17.913 8.05086V8.46213H14.9804L14.3984 7.878V8.46213H3.49359L3.20537 7.878H2.43681L2.15062 8.46213H0.810059V6.81928ZM0.815655 7.98799L2.27914 5.2134H3.38865L4.85074 7.98799H3.87695L3.60832 7.43239H2.03849L1.76846 7.98799H0.815655ZM3.29911 6.83002L2.82061 5.85913L2.34071 6.83002H3.29911ZM4.95148 7.98753V5.21294L6.30547 5.21704L7.093 7.00592L7.86167 5.21294H9.20483V7.98753H8.35416V5.94309L7.45243 7.98753H6.70639L5.80215 5.94309V7.98753H4.95148ZM9.78687 7.98753V5.21294H12.5627V5.83357H10.6465V6.30817H12.518V6.89229H10.6465V7.38515H12.5627V7.98753H9.78687ZM13.0552 7.98799V5.2134H14.9483C15.5755 5.2134 16.1375 5.52968 16.1375 6.11355C16.1375 6.61268 15.6637 6.93417 15.2043 6.96578L16.3236 7.98799H15.2841L14.2641 7.00228H13.9059V7.98799H13.0552ZM14.8783 5.83404H13.9059V6.41816H14.8909C15.0614 6.41816 15.2813 6.31043 15.2813 6.1261C15.2813 5.98282 15.1116 5.83404 14.8783 5.83404ZM17.3534 7.98753H16.4848V5.21294H17.3534V7.98753ZM19.4129 7.98753H19.2254C18.3183 7.98753 17.7675 7.40478 17.7675 6.61164C17.7675 5.79891 18.3121 5.21294 19.4577 5.21294H20.3979V5.87008H19.4233C18.9582 5.87008 18.6294 6.166 18.6294 6.61849C18.6294 7.15582 19.0054 7.3815 19.5472 7.3815H19.7711L19.4129 7.98753ZM19.8004 7.98799L21.2639 5.2134H22.3734L23.8355 7.98799H22.8617L22.5931 7.43239H21.0233L20.7532 7.98799H19.8004ZM22.2839 6.83002L21.8054 5.85913L21.3255 6.83002H22.2839ZM23.9349 7.98753V5.21294H25.0164L26.3973 6.95618V5.21294H27.248V7.98753H26.2015L24.7855 6.19865V7.98753H23.9349ZM7.011 12.8431V10.0685H9.78687V10.6891H7.87062V11.1637H9.7421V11.7478H7.87062V12.2407H9.78687V12.8431H7.011ZM20.6128 12.8431V10.0685H23.3886V10.6891H21.4724V11.1637H23.3349V11.7478H21.4724V12.2407H23.3886V12.8431H20.6128ZM9.8946 12.8431L11.2462 11.4729L9.86242 10.0685H10.9342L11.7582 10.9367L12.5851 10.0685H13.6149L12.2493 11.4558L13.6034 12.8431H12.5318L11.7317 11.9885L10.9509 12.8431H9.8946ZM13.7044 12.8435V10.0689H15.5835C16.3545 10.0689 16.8049 10.4741 16.8049 11.0022C16.8049 11.6396 16.2306 11.9673 15.4729 11.9673H14.5775V12.8435H13.7044ZM15.5205 10.6964H14.5775V11.3353H15.5177C15.7662 11.3353 15.9402 11.201 15.9402 11.0159C15.9402 10.8187 15.7653 10.6964 15.5205 10.6964ZM17.1743 12.8431V10.0685H19.0673C19.6945 10.0685 20.2566 10.3847 20.2566 10.9686C20.2566 11.4677 19.7827 11.7892 19.3233 11.8208L20.4426 12.8431H19.4031L18.3831 11.8573H18.0249V12.8431H17.1743ZM18.9973 10.6891H18.0249V11.2732H19.0099C19.1804 11.2732 19.4003 11.1655 19.4003 10.9812C19.4003 10.8379 19.2306 10.6891 18.9973 10.6891ZM23.7826 12.8431V12.2407H25.4851C25.737 12.2407 25.8461 12.1297 25.8461 12.0079C25.8461 11.8913 25.7374 11.7734 25.4851 11.7734H24.7158C24.0471 11.7734 23.6746 11.4412 23.6746 10.9424C23.6746 10.4975 24.0157 10.0685 25.0094 10.0685H26.666L26.3078 10.6927H24.8751C24.6012 10.6927 24.5169 10.8099 24.5169 10.9218C24.5169 11.0369 24.6211 11.1637 24.8303 11.1637H25.6362C26.3817 11.1637 26.7051 11.5085 26.7051 11.96C26.7051 12.4455 26.3447 12.8431 25.5956 12.8431H23.7826ZM26.7801 12.8431V12.2407H28.4826C28.7345 12.2407 28.8436 12.1297 28.8436 12.0079C28.8436 11.8913 28.7348 11.7734 28.4826 11.7734H27.7133C27.0446 11.7734 26.6721 11.4412 26.6721 10.9424C26.6721 10.4975 27.0132 10.0685 28.0069 10.0685H29.6635L29.3053 10.6927H27.8726C27.5987 10.6927 27.5144 10.8099 27.5144 10.9218C27.5144 11.0369 27.6186 11.1637 27.8278 11.1637H28.6337C29.3792 11.1637 29.7026 11.5085 29.7026 11.96C29.7026 12.4455 29.3422 12.8431 28.5931 12.8431H26.7801Z" fill="white"/>
</svg>
