<svg width="25" height="25" viewBox="0 0 25 25" fill="none" xmlns="http://www.w3.org/2000/svg">
<g clip-path="url(#clip0_171_4272)">
<path d="M19.3505 14.0134C18.6628 10.5525 21.9479 8.52267 21.9479 8.52267C21.9479 8.52267 20.668 6.67096 18.5169 6.19459C16.367 5.71718 15.2909 6.31366 14.217 6.76103C13.142 7.20949 12.6056 7.20949 12.6056 7.20949C11.0543 7.20949 9.92027 5.56697 6.96463 6.31475C4.9284 6.82862 2.78484 9.17923 2.39755 11.9847C2.01026 14.7913 2.84602 18.3724 4.4574 21.1478C6.06879 23.9254 7.71027 24.9693 8.87533 24.9993C10.0404 25.0283 11.2034 24.1646 12.6056 23.9544C14.0089 23.7462 14.8725 24.4629 16.2489 24.8502C17.62 25.2365 18.1007 24.8781 19.6799 23.5349C21.2633 22.1917 22.6967 18.3392 22.6967 18.3392C22.6967 18.3392 20.0382 17.4765 19.3505 14.0134Z" fill="black"/>
<path d="M16.3062 3.95553C17.8296 2.40318 17.3136 0 17.3136 0C17.3136 0 15.1744 0.375505 13.7411 1.86673C12.3088 3.35905 12.5459 5.71607 12.5459 5.71607C12.5459 5.71607 14.7828 5.50689 16.3062 3.95553Z" fill="black"/>
</g>
<defs>
<clipPath id="clip0_171_4272">
<rect width="25" height="25" fill="white"/>
</clipPath>
</defs>
</svg>
