<svg width="43" height="18" viewBox="0 0 43 18" fill="none" xmlns="http://www.w3.org/2000/svg">
<path d="M8.58688 2.32118C9.08645 1.6963 9.42541 0.857348 9.33607 0C8.60478 0.0363824 7.71237 0.482501 7.19573 1.1078C6.73179 1.64334 6.32122 2.51743 6.4283 3.33881C7.2491 3.41 8.06932 2.92849 8.58688 2.32118Z" fill="#202223"/>
<path d="M9.32679 3.49914C8.13462 3.42812 7.12097 4.17574 6.55161 4.17574C5.98201 4.17574 5.11016 3.53495 4.1672 3.55218C2.9399 3.57025 1.8011 4.26417 1.17829 5.36782C-0.102717 7.57571 0.840242 10.8508 2.08595 12.6489C2.69085 13.5385 3.41999 14.5181 4.3806 14.4829C5.28826 14.4473 5.64404 13.8951 6.74728 13.8951C7.84978 13.8951 8.17026 14.4829 9.13103 14.4651C10.1274 14.4473 10.7503 13.575 11.3552 12.6845C12.0492 11.6703 12.3333 10.6912 12.3512 10.6374C12.3333 10.6196 10.4299 9.88935 10.4122 7.69986C10.3942 5.86657 11.9066 4.99447 11.9778 4.94043C11.1239 3.67741 9.7894 3.53495 9.32679 3.49914Z" fill="#202223"/>
<path d="M19.7079 1.01807C22.299 1.01807 24.1033 2.8042 24.1033 5.40467C24.1033 8.01442 22.2618 9.80984 19.6429 9.80984H16.774V14.3722H14.7012V1.01807H19.7079ZM16.7739 8.06995H19.1523C20.957 8.06995 21.984 7.09832 21.984 5.41395C21.984 3.72976 20.957 2.76724 19.1615 2.76724H16.7739V8.06995Z" fill="#202223"/>
<path d="M24.6445 11.6053C24.6445 9.90235 25.9494 8.85662 28.2632 8.72709L30.9283 8.56979V7.82026C30.9283 6.73749 30.1972 6.08965 28.9759 6.08965C27.8187 6.08965 27.0969 6.64484 26.9213 7.51486H25.0334C25.1444 5.75641 26.6435 4.46082 29.0498 4.46082C31.4096 4.46082 32.918 5.71017 32.918 7.6628V14.3722H31.0023V12.7712H30.9562C30.3917 13.8541 29.1608 14.5388 27.8837 14.5388C25.9773 14.5388 24.6445 13.3542 24.6445 11.6053ZM30.9282 10.7261V9.95804L28.5313 10.1061C27.3375 10.1894 26.662 10.7169 26.662 11.5498C26.662 12.4011 27.3653 12.9565 28.4388 12.9565C29.8362 12.9563 30.9282 11.9939 30.9282 10.7261Z" fill="#202223"/>
<path d="M34.7272 17.9538V16.3342C34.875 16.3712 35.2081 16.3712 35.3748 16.3712C36.3001 16.3712 36.8 15.9826 37.1052 14.9831C37.1052 14.9646 37.2812 14.3908 37.2812 14.3815L33.7646 4.6366H35.9299L38.3919 12.5584H38.4287L40.8907 4.6366H43.0005L39.3539 14.8812C38.5214 17.2412 37.5589 18 35.5414 18C35.3748 18 34.8749 17.9815 34.7272 17.9538Z" fill="#202223"/>
</svg>
