<svg width="84" height="41" viewBox="0 0 84 41" fill="none" xmlns="http://www.w3.org/2000/svg">
<path d="M20.8827 1.27172H1.06803C0.431059 4.69163 3.75012 6.03268 3.75012 6.03268H24.9062L20.8827 1.27172ZM26.6618 8.16305H6.84683C6.20986 11.583 9.52893 12.924 9.52893 12.924H30.685L26.6618 8.16305ZM83.4331 1.27172H63.6184L59.5949 6.03268H80.7506C80.7517 6.03268 84.0704 4.69163 83.4331 1.27172ZM57.8396 8.16305L53.8161 12.924H74.9718C74.9718 12.924 78.2909 11.583 77.6543 8.16305H57.8396ZM52.0601 15.0547L50.2863 17.1535C49.8173 16.695 48.9754 15.8321 48.4498 15.0547H34.8993C34.8104 15.9496 34.6907 16.7937 34.5351 17.5326L32.4414 15.0547H12.626C11.989 18.4743 15.3085 19.8157 15.3085 19.8157H69.1927C69.1927 19.8157 72.5117 18.4746 71.8751 15.0547H52.0601ZM47.5672 12.924L45.9625 8.16305H35.052C35.077 8.90884 35.1147 9.62271 35.1147 10.292C35.1147 11.1462 35.0952 12.0389 35.0527 12.924H47.5672ZM51.8211 4.93974C51.8211 4.93974 51.3096 2.03021 47.9728 0.939453H36.5519C35.4234 2.77818 35.1031 4.62815 35.0437 6.36531H46.9513C47.1044 5.20454 47.2712 4.93974 51.8211 4.93974ZM45.5892 27.0509H46.7554L46.1725 25.5981L45.5892 27.0509ZM35.1695 23.7895C33.5488 23.7895 32.1472 24.9122 31.479 27.0505H38.304C38.1088 24.9626 37.4435 23.7895 35.1695 23.7895Z" fill="#202223"/>
<path d="M18.6084 21.7582V23.4602C18.6084 25.4432 20.2161 27.0505 22.1988 27.0505H29.5058C30.4693 24.2676 32.7777 23.2487 34.866 23.2487C35.3336 23.2487 35.7591 23.3176 36.1458 23.4449C38.7063 23.948 38.8413 23.2987 38.846 23.1914V23.1765C38.846 23.1765 38.8467 23.1827 38.846 23.1914V24.3478L38.8464 27.0505H44.8606L46.6808 22.517L48.5003 27.0505H62.3036C64.2871 27.0505 65.894 25.4429 65.894 23.4605V21.7585L18.6084 21.7582ZM31.0612 30.0965C31.0612 31.7974 31.28 33.076 31.6587 34.0191H37.6207V31.7175H36.5934V31.2565H40.5759V31.7175H39.4587V34.0191H42.0646L44.1881 28.7264H31.1363C31.0855 29.1813 31.0604 29.6387 31.0612 30.0965ZM43.5406 32.1583H48.8043L47.4277 28.7268H44.9172L43.5406 32.1583ZM42.7933 34.0195H49.5515L48.9896 32.6197H43.3552L42.7933 34.0195ZM57.5224 28.7268H49.1721L51.2956 34.0195H57.5158C59.0205 33.3183 60.0641 31.7937 60.0641 30.0243V28.7268H57.5224ZM29.1242 28.7268H24.4369V30.0243C24.4369 31.7937 25.4801 33.3183 26.9851 34.0195H29.9926C29.4111 32.9951 29.0426 31.6958 29.0426 30.0968C29.043 29.6097 29.0713 29.1537 29.1242 28.7268ZM36.9159 35.6467H32.7955C33.4658 36.1938 34.2849 36.4034 35.1696 36.4034C35.8762 36.4034 36.4545 36.1292 36.9159 35.6467Z" fill="#202223"/>
<path d="M51.9483 35.6467L52.2048 36.2873H53.4946V36.748H48.7489V36.2873H50.4614L50.205 35.6467H42.1398L41.8834 36.2873H43.0274V36.748H40.0174V36.2873H41.1546L41.4111 35.6467H39.4588V36.9442C39.4588 36.9442 38.918 35.4665 36.9309 36.4165L36.9316 36.4146C36.3407 36.8137 35.6508 37.0367 34.8658 37.0367C33.7333 37.0367 32.4166 36.5909 31.3215 35.6467H30.1183C30.1009 35.8241 30.0918 36.0051 30.0918 36.1868C30.0918 38.2552 31.2417 40.0486 32.9237 40.9395H51.5772C53.2596 40.0486 54.4095 38.2555 54.4095 36.1868C54.4095 36.0051 54.4011 35.8241 54.3834 35.6467H51.9483Z" fill="#202223"/>
</svg>
