<svg width="116" height="17" viewBox="0 0 116 17" fill="none" xmlns="http://www.w3.org/2000/svg">
<path d="M10.375 6.25122L15.8438 7.06372L11.9062 10.9075L12.8125 16.3762L7.9375 13.8137L3.03125 16.3762L3.96875 10.9075L0 7.06372L5.46875 6.25122L7.9375 1.28247L10.375 6.25122Z" fill="#202223"/>
<path d="M10.375 6.25122L9.47721 6.69165L9.70853 7.16318L10.228 7.24036L10.375 6.25122ZM15.8438 7.06372L16.5423 7.77929L17.9851 6.37088L15.9907 6.07458L15.8438 7.06372ZM11.9062 10.9075L11.2077 10.1919L10.8344 10.5563L10.9197 11.071L11.9062 10.9075ZM12.8125 16.3762L12.3472 17.2614L14.1279 18.1974L13.799 16.2127L12.8125 16.3762ZM7.9375 13.8137L8.40278 12.9286L7.93898 12.6848L7.47455 12.9273L7.9375 13.8137ZM3.03125 16.3762L2.04563 16.2073L1.70447 18.1974L3.4942 17.2626L3.03125 16.3762ZM3.96875 10.9075L4.95437 11.0764L5.04354 10.5563L4.66445 10.1891L3.96875 10.9075ZM0 7.06372L-0.146958 6.07458L-2.15124 6.37236L-0.695704 7.78205L0 7.06372ZM5.46875 6.25122L5.61571 7.24036L6.13203 7.16365L6.3643 6.69618L5.46875 6.25122ZM7.9375 1.28247L8.83529 0.842046L7.94321 -0.976421L7.04195 0.837511L7.9375 1.28247ZM10.228 7.24036L15.6968 8.05286L15.9907 6.07458L10.522 5.26208L10.228 7.24036ZM15.1452 6.34815L11.2077 10.1919L12.6048 11.623L16.5423 7.77929L15.1452 6.34815ZM10.9197 11.071L11.826 16.5397L13.799 16.2127L12.8928 10.744L10.9197 11.071ZM13.2778 15.4911L8.40278 12.9286L7.47222 14.6989L12.3472 17.2614L13.2778 15.4911ZM7.47455 12.9273L2.5683 15.4898L3.4942 17.2626L8.40045 14.7001L7.47455 12.9273ZM4.01687 16.5452L4.95437 11.0764L2.98313 10.7385L2.04563 16.2073L4.01687 16.5452ZM4.66445 10.1891L0.695704 6.34539L-0.695704 7.78205L3.27305 11.6258L4.66445 10.1891ZM0.146958 8.05286L5.61571 7.24036L5.32179 5.26208L-0.146958 6.07458L0.146958 8.05286ZM6.3643 6.69618L8.83305 1.72743L7.04195 0.837511L4.5732 5.80626L6.3643 6.69618ZM7.03971 1.7229L9.47721 6.69165L11.2728 5.8108L8.83529 0.842046L7.03971 1.7229Z" fill="#202223"/>
<path d="M35.375 6.25122L40.8438 7.06372L36.9062 10.9075L37.8125 16.3762L32.9375 13.8137L28.0312 16.3762L28.9688 10.9075L25 7.06372L30.4688 6.25122L32.9375 1.28247L35.375 6.25122Z" fill="#202223"/>
<path d="M35.375 6.25122L34.4772 6.69165L34.7085 7.16318L35.228 7.24036L35.375 6.25122ZM40.8438 7.06372L41.5423 7.77929L42.9851 6.37088L40.9907 6.07458L40.8438 7.06372ZM36.9062 10.9075L36.2077 10.1919L35.8344 10.5563L35.9197 11.071L36.9062 10.9075ZM37.8125 16.3762L37.3472 17.2614L39.1279 18.1974L38.799 16.2127L37.8125 16.3762ZM32.9375 13.8137L33.4028 12.9286L32.939 12.6848L32.4745 12.9273L32.9375 13.8137ZM28.0312 16.3762L27.0456 16.2073L26.7045 18.1974L28.4942 17.2626L28.0312 16.3762ZM28.9688 10.9075L29.9544 11.0764L30.0435 10.5563L29.6645 10.1891L28.9688 10.9075ZM25 7.06372L24.853 6.07458L22.8488 6.37236L24.3043 7.78205L25 7.06372ZM30.4688 6.25122L30.6157 7.24036L31.132 7.16365L31.3643 6.69618L30.4688 6.25122ZM32.9375 1.28247L33.8353 0.842046L32.9432 -0.976421L32.0419 0.837511L32.9375 1.28247ZM35.228 7.24036L40.6968 8.05286L40.9907 6.07458L35.522 5.26208L35.228 7.24036ZM40.1452 6.34815L36.2077 10.1919L37.6048 11.623L41.5423 7.77929L40.1452 6.34815ZM35.9197 11.071L36.826 16.5397L38.799 16.2127L37.8928 10.744L35.9197 11.071ZM38.2778 15.4911L33.4028 12.9286L32.4722 14.6989L37.3472 17.2614L38.2778 15.4911ZM32.4745 12.9273L27.5683 15.4898L28.4942 17.2626L33.4005 14.7001L32.4745 12.9273ZM29.0169 16.5452L29.9544 11.0764L27.9831 10.7385L27.0456 16.2073L29.0169 16.5452ZM29.6645 10.1891L25.6957 6.34539L24.3043 7.78205L28.273 11.6258L29.6645 10.1891ZM25.147 8.05286L30.6157 7.24036L30.3218 5.26208L24.853 6.07458L25.147 8.05286ZM31.3643 6.69618L33.8331 1.72743L32.0419 0.837511L29.5732 5.80626L31.3643 6.69618ZM32.0397 1.7229L34.4772 6.69165L36.2728 5.8108L33.8353 0.842046L32.0397 1.7229Z" fill="#202223"/>
<path d="M60.375 6.25122L65.8438 7.06372L61.9062 10.9075L62.8125 16.3762L57.9375 13.8137L53.0312 16.3762L53.9688 10.9075L50 7.06372L55.4688 6.25122L57.9375 1.28247L60.375 6.25122Z" fill="#202223"/>
<path d="M60.375 6.25122L59.4772 6.69165L59.7085 7.16318L60.228 7.24036L60.375 6.25122ZM65.8438 7.06372L66.5423 7.77929L67.9851 6.37088L65.9907 6.07458L65.8438 7.06372ZM61.9062 10.9075L61.2077 10.1919L60.8344 10.5563L60.9197 11.071L61.9062 10.9075ZM62.8125 16.3762L62.3472 17.2614L64.1279 18.1974L63.799 16.2127L62.8125 16.3762ZM57.9375 13.8137L58.4028 12.9286L57.939 12.6848L57.4745 12.9273L57.9375 13.8137ZM53.0312 16.3762L52.0456 16.2073L51.7045 18.1974L53.4942 17.2626L53.0312 16.3762ZM53.9688 10.9075L54.9544 11.0764L55.0435 10.5563L54.6645 10.1891L53.9688 10.9075ZM50 7.06372L49.853 6.07458L47.8488 6.37236L49.3043 7.78205L50 7.06372ZM55.4688 6.25122L55.6157 7.24036L56.132 7.16365L56.3643 6.69618L55.4688 6.25122ZM57.9375 1.28247L58.8353 0.842046L57.9432 -0.976421L57.0419 0.837511L57.9375 1.28247ZM60.228 7.24036L65.6968 8.05286L65.9907 6.07458L60.522 5.26208L60.228 7.24036ZM65.1452 6.34815L61.2077 10.1919L62.6048 11.623L66.5423 7.77929L65.1452 6.34815ZM60.9197 11.071L61.826 16.5397L63.799 16.2127L62.8928 10.744L60.9197 11.071ZM63.2778 15.4911L58.4028 12.9286L57.4722 14.6989L62.3472 17.2614L63.2778 15.4911ZM57.4745 12.9273L52.5683 15.4898L53.4942 17.2626L58.4005 14.7001L57.4745 12.9273ZM54.0169 16.5452L54.9544 11.0764L52.9831 10.7385L52.0456 16.2073L54.0169 16.5452ZM54.6645 10.1891L50.6957 6.34539L49.3043 7.78205L53.273 11.6258L54.6645 10.1891ZM50.147 8.05286L55.6157 7.24036L55.3218 5.26208L49.853 6.07458L50.147 8.05286ZM56.3643 6.69618L58.8331 1.72743L57.0419 0.837511L54.5732 5.80626L56.3643 6.69618ZM57.0397 1.7229L59.4772 6.69165L61.2728 5.8108L58.8353 0.842046L57.0397 1.7229Z" fill="#202223"/>
<path d="M85.375 6.25122L90.8438 7.06372L86.9062 10.9075L87.8125 16.3762L82.9375 13.8137L78.0312 16.3762L78.9688 10.9075L75 7.06372L80.4688 6.25122L82.9375 1.28247L85.375 6.25122Z" fill="#202223"/>
<path d="M85.375 6.25122L84.4772 6.69165L84.7085 7.16318L85.228 7.24036L85.375 6.25122ZM90.8438 7.06372L91.5423 7.77929L92.9851 6.37088L90.9907 6.07458L90.8438 7.06372ZM86.9062 10.9075L86.2077 10.1919L85.8344 10.5563L85.9197 11.071L86.9062 10.9075ZM87.8125 16.3762L87.3472 17.2614L89.1279 18.1974L88.799 16.2127L87.8125 16.3762ZM82.9375 13.8137L83.4028 12.9286L82.939 12.6848L82.4745 12.9273L82.9375 13.8137ZM78.0312 16.3762L77.0456 16.2073L76.7045 18.1974L78.4942 17.2626L78.0312 16.3762ZM78.9688 10.9075L79.9544 11.0764L80.0435 10.5563L79.6645 10.1891L78.9688 10.9075ZM75 7.06372L74.853 6.07458L72.8488 6.37236L74.3043 7.78205L75 7.06372ZM80.4688 6.25122L80.6157 7.24036L81.132 7.16365L81.3643 6.69618L80.4688 6.25122ZM82.9375 1.28247L83.8353 0.842046L82.9432 -0.976421L82.0419 0.837511L82.9375 1.28247ZM85.228 7.24036L90.6968 8.05286L90.9907 6.07458L85.522 5.26208L85.228 7.24036ZM90.1452 6.34815L86.2077 10.1919L87.6048 11.623L91.5423 7.77929L90.1452 6.34815ZM85.9197 11.071L86.826 16.5397L88.799 16.2127L87.8928 10.744L85.9197 11.071ZM88.2778 15.4911L83.4028 12.9286L82.4722 14.6989L87.3472 17.2614L88.2778 15.4911ZM82.4745 12.9273L77.5683 15.4898L78.4942 17.2626L83.4005 14.7001L82.4745 12.9273ZM79.0169 16.5452L79.9544 11.0764L77.9831 10.7385L77.0456 16.2073L79.0169 16.5452ZM79.6645 10.1891L75.6957 6.34539L74.3043 7.78205L78.273 11.6258L79.6645 10.1891ZM75.147 8.05286L80.6157 7.24036L80.3218 5.26208L74.853 6.07458L75.147 8.05286ZM81.3643 6.69618L83.8331 1.72743L82.0419 0.837511L79.5732 5.80626L81.3643 6.69618ZM82.0397 1.7229L84.4772 6.69165L86.2728 5.8108L83.8353 0.842046L82.0397 1.7229Z" fill="#202223"/>
<path d="M110.375 6.25122L109.477 6.69165L109.709 7.16318L110.228 7.24036L110.375 6.25122ZM115.844 7.06372L116.542 7.77929L117.985 6.37088L115.991 6.07458L115.844 7.06372ZM111.906 10.9075L111.208 10.1919L110.834 10.5563L110.92 11.071L111.906 10.9075ZM112.812 16.3762L112.347 17.2614L114.128 18.1974L113.799 16.2127L112.812 16.3762ZM107.938 13.8137L108.403 12.9286L107.939 12.6848L107.475 12.9273L107.938 13.8137ZM103.031 16.3762L102.046 16.2073L101.704 18.1974L103.494 17.2626L103.031 16.3762ZM103.969 10.9075L104.954 11.0764L105.044 10.5563L104.664 10.1891L103.969 10.9075ZM100 7.06372L99.853 6.07458L97.8488 6.37236L99.3043 7.78205L100 7.06372ZM105.469 6.25122L105.616 7.24036L106.132 7.16365L106.364 6.69618L105.469 6.25122ZM107.938 1.28247L108.835 0.842046L107.943 -0.976421L107.042 0.837511L107.938 1.28247ZM110.228 7.24036L115.697 8.05286L115.991 6.07458L110.522 5.26208L110.228 7.24036ZM115.145 6.34815L111.208 10.1919L112.605 11.623L116.542 7.77929L115.145 6.34815ZM110.92 11.071L111.826 16.5397L113.799 16.2127L112.893 10.744L110.92 11.071ZM113.278 15.4911L108.403 12.9286L107.472 14.6989L112.347 17.2614L113.278 15.4911ZM107.475 12.9273L102.568 15.4898L103.494 17.2626L108.4 14.7001L107.475 12.9273ZM104.017 16.5452L104.954 11.0764L102.983 10.7385L102.046 16.2073L104.017 16.5452ZM104.664 10.1891L100.696 6.34539L99.3043 7.78205L103.273 11.6258L104.664 10.1891ZM100.147 8.05286L105.616 7.24036L105.322 5.26208L99.853 6.07458L100.147 8.05286ZM106.364 6.69618L108.833 1.72743L107.042 0.837511L104.573 5.80626L106.364 6.69618ZM107.04 1.7229L109.477 6.69165L111.273 5.8108L108.835 0.842046L107.04 1.7229Z" fill="#202223"/>
</svg>
