<svg width="18" height="19" viewBox="0 0 18 19" fill="none" xmlns="http://www.w3.org/2000/svg">
<path d="M12.9446 10.1484C12.7735 10.1484 12.6357 10.01 12.6357 9.83896C12.6377 7.852 11.0332 6.23169 9.02788 6.23169C8.85732 6.23169 8.71893 6.0933 8.71893 5.92274C8.71893 5.75575 8.85221 5.61328 9.03197 5.61328C11.3529 5.61328 13.2561 7.49148 13.2541 9.83948C13.2536 10.0105 13.1152 10.1484 12.9446 10.1484Z" fill="#6D7175"/>
<path d="M15.0286 10.1484C14.8575 10.1484 14.7196 10.01 14.7196 9.83897C14.7217 6.70303 12.1878 4.1477 9.02837 4.1477C8.85781 4.1477 8.71942 4.00931 8.71942 3.83875C8.71942 3.67228 8.8527 3.5293 9.03194 3.5293C12.5294 3.5293 15.3401 6.36702 15.338 9.83948C15.3375 10.0105 15.1991 10.1484 15.0286 10.1484Z" fill="#6D7175"/>
<path d="M16.9691 10.1485C16.7985 10.1485 16.6602 10.0101 16.6602 9.83952C16.6622 5.62916 13.2571 2.20725 9.02788 2.20725C8.85732 2.20725 8.71893 2.06886 8.71893 1.8983C8.71893 1.73183 8.8517 1.58936 9.03094 1.58936C13.5865 1.58936 17.2801 5.28038 17.278 9.84003C17.278 10.0101 17.1397 10.1485 16.9691 10.1485Z" fill="#6D7175"/>
<path d="M13.5436 18.8672C13.2837 18.8672 12.5162 18.8156 11.3217 18.304C9.07331 17.3409 6.88719 15.4489 5.1862 13.681C3.95194 12.4932 2.91224 11.3167 2.09621 10.1845C1.43798 9.27147 0.922214 8.38344 0.563222 7.54545C-0.0270967 6.16821 -0.00462779 5.35831 0.00201075 5.24035C0.0382674 3.43722 0.982982 2.02219 2.50014 1.10454C3.24366 0.654653 4.21084 0.86198 4.70158 1.5769L6.57978 4.31147C6.81008 4.64697 6.90711 5.05396 6.85298 5.45738C6.79885 5.8608 6.59765 6.22745 6.28666 6.49044L5.68664 6.99752C5.68715 6.99956 5.68715 7.00211 5.68766 7.00416C5.98895 8.90942 9.95777 12.8782 11.863 13.1795C11.8651 13.18 11.8676 13.18 11.8697 13.1805L12.3768 12.5805C12.9191 11.9381 13.8612 11.811 14.5557 12.2874L17.2903 14.1656C18.0052 14.6563 18.2125 15.6235 17.7626 16.367C16.7454 18.0466 15.2216 18.8672 13.5436 18.8672ZM0.618884 5.27916C0.616841 5.31235 0.583138 6.05025 1.15967 7.36826C1.70505 8.61477 2.92143 10.6451 5.61872 13.2398C5.73158 13.3337 8.50189 16.3962 11.4989 17.7075C12.1281 17.9828 12.9165 18.2473 13.6079 18.2473C15.5265 18.2115 16.6387 17.0309 17.2341 16.0474C17.5145 15.5837 17.3858 14.9811 16.9405 14.6752L14.2059 12.797C13.7719 12.4988 13.1887 12.5775 12.8491 12.9794L12.2338 13.7075C12.1684 13.7852 12.0688 13.8255 11.9682 13.8158C11.9018 13.8092 11.8339 13.8005 11.7665 13.7903C10.0579 13.5191 7.31921 11.0128 5.98129 9.04729C5.46604 8.29101 5.16168 7.63584 5.07692 7.10118C5.06619 7.03378 5.05751 6.96637 5.05138 6.89947C5.04168 6.79836 5.08202 6.6993 5.15964 6.63393L5.88784 6.01859C6.28973 5.679 6.36837 5.09583 6.07014 4.66178L4.19246 1.9267C3.88658 1.48141 3.284 1.35272 2.82032 1.63307C1.83629 2.2285 0.656162 3.34071 0.620416 5.25924C0.619905 5.26741 0.619905 5.2715 0.618884 5.27916Z" fill="#6D7175"/>
</svg>
