<svg width="20" height="21" viewBox="0 0 20 21" fill="none" xmlns="http://www.w3.org/2000/svg">
<path d="M10 12.1092L1.95402 20.1552C1.72414 20.3851 1.45594 20.5 1.14943 20.5C0.842912 20.5 0.574713 20.3851 0.344828 20.1552C0.114943 19.9253 0 19.6571 0 19.3506C0 19.0441 0.114943 18.7759 0.344828 18.546L8.3908 10.5L0.344828 2.45402C0.114943 2.22414 0 1.95594 0 1.64943C0 1.34291 0.114943 1.07471 0.344828 0.844828C0.574713 0.614943 0.842912 0.5 1.14943 0.5C1.45594 0.5 1.72414 0.614943 1.95402 0.844828L10 8.8908L18.046 0.844828C18.2759 0.614943 18.5441 0.5 18.8506 0.5C19.1571 0.5 19.4253 0.614943 19.6552 0.844828C19.8851 1.07471 20 1.34291 20 1.64943C20 1.95594 19.8851 2.22414 19.6552 2.45402L11.6092 10.5L19.6552 18.546C19.8851 18.7759 20 19.0441 20 19.3506C20 19.6571 19.8851 19.9253 19.6552 20.1552C19.4253 20.3851 19.1571 20.5 18.8506 20.5C18.5441 20.5 18.2759 20.3851 18.046 20.1552L10 12.1092Z" fill="white"/>
</svg>
