<svg width="81" height="20" viewBox="0 0 81 20" fill="none" xmlns="http://www.w3.org/2000/svg">
<path d="M2.12891 18.833V2.83299H6.01462V18.833H2.12891ZM3.93462 12.7073V9.46156H12.2089V12.7073H3.93462ZM3.93462 6.26156V2.83299H13.1461V6.26156H3.93462Z" fill="#282525"/>
<path d="M17.0355 18.833V1.9187H20.6927V18.833H17.0355Z" fill="#282525"/>
<path d="M29.123 19.0844C28.224 19.0844 27.4544 18.8939 26.8144 18.513C26.1897 18.1168 25.7021 17.553 25.3516 16.8216C25.0163 16.0901 24.8487 15.2139 24.8487 14.193V6.69584H28.5287V13.6901C28.5287 14.1777 28.6049 14.5968 28.7573 14.9473C28.9097 15.2977 29.1383 15.572 29.443 15.7701C29.7478 15.953 30.1135 16.0444 30.5402 16.0444C30.8602 16.0444 31.1497 15.9911 31.4087 15.8844C31.683 15.7777 31.9116 15.633 32.0944 15.4501C32.2925 15.252 32.4449 15.0311 32.5516 14.7873C32.6583 14.5282 32.7116 14.2463 32.7116 13.9416V6.69584H36.3916V18.833H32.9402L32.7802 16.3416L33.4659 16.0673C33.283 16.6463 32.9783 17.1644 32.5516 17.6216C32.1249 18.0635 31.6144 18.4216 31.0202 18.6958C30.4259 18.9549 29.7935 19.0844 29.123 19.0844Z" fill="#282525"/>
<path d="M48.2682 18.833L45.6853 14.9244L44.4968 13.2558L39.6968 6.69584H44.0853L46.5768 10.4216L47.8796 12.2044L52.611 18.833H48.2682ZM39.5825 18.833L44.4739 12.0216L46.4396 14.3758L43.9025 18.833H39.5825ZM47.6053 13.553L45.6625 11.2216L48.0625 6.69584H52.3825L47.6053 13.553Z" fill="#282525"/>
<path d="M59.5864 19.0387C58.5655 19.0387 57.6512 18.772 56.8436 18.2387C56.0512 17.6901 55.4188 16.9435 54.9464 15.9987C54.474 15.0387 54.2378 13.9568 54.2378 12.753C54.2378 11.5187 54.474 10.4292 54.9464 9.48441C55.4188 8.53965 56.0664 7.80061 56.8893 7.26727C57.7121 6.7187 58.6493 6.44441 59.7007 6.44441C60.2797 6.44441 60.8055 6.52822 61.2778 6.69584C61.7655 6.86346 62.1921 7.09965 62.5578 7.40442C62.9235 7.69394 63.2359 8.0368 63.495 8.43299C63.754 8.81394 63.9445 9.22537 64.0664 9.66727L63.3121 9.57584V6.69584H66.9464V18.833H63.2436V15.9073L64.0664 15.8844C63.9445 16.3111 63.7464 16.7149 63.4721 17.0958C63.1978 17.4768 62.8626 17.812 62.4664 18.1016C62.0702 18.3911 61.6283 18.6197 61.1407 18.7873C60.6531 18.9549 60.135 19.0387 59.5864 19.0387ZM60.5921 15.953C61.1559 15.953 61.6436 15.8235 62.055 15.5644C62.4664 15.3054 62.7864 14.9397 63.015 14.4673C63.2435 13.9797 63.3578 13.4082 63.3578 12.753C63.3578 12.0977 63.2435 11.5339 63.015 11.0616C62.7864 10.5739 62.4664 10.2006 62.055 9.94156C61.6436 9.66727 61.1559 9.53013 60.5921 9.53013C60.0436 9.53013 59.5636 9.66727 59.1521 9.94156C58.7559 10.2006 58.4436 10.5739 58.215 11.0616C57.9864 11.5339 57.8721 12.0977 57.8721 12.753C57.8721 13.4082 57.9864 13.9797 58.215 14.4673C58.4436 14.9397 58.7559 15.3054 59.1521 15.5644C59.5636 15.8235 60.0436 15.953 60.5921 15.953Z" fill="#282525"/>
<path d="M71.3162 18.833V6.69584H74.7905L74.9505 10.6501L74.2648 9.89584C74.4477 9.24061 74.7448 8.65394 75.1562 8.13584C75.5829 7.61775 76.0781 7.20632 76.6419 6.90156C77.2058 6.5968 77.8077 6.44441 78.4477 6.44441C78.7219 6.44441 78.9734 6.46727 79.2019 6.51299C79.4458 6.5587 79.6667 6.61203 79.8648 6.67299L78.8591 10.7187C78.6915 10.612 78.4629 10.5282 78.1734 10.4673C77.8991 10.3911 77.6096 10.353 77.3048 10.353C76.9696 10.353 76.6572 10.4139 76.3677 10.5358C76.0781 10.6425 75.8343 10.8025 75.6362 11.0158C75.4381 11.2292 75.2781 11.4806 75.1562 11.7701C75.0496 12.0597 74.9962 12.3873 74.9962 12.753V18.833H71.3162Z" fill="#282525"/>
<path d="M78.0634 4.09143C77.4386 4.09143 76.951 3.91619 76.6005 3.56571C76.2653 3.21524 76.0977 2.71238 76.0977 2.05714C76.0977 1.44762 76.2805 0.952381 76.6462 0.571429C77.0119 0.190476 77.4843 0 78.0634 0C78.6881 0 79.1758 0.182857 79.5262 0.548571C79.8767 0.899048 80.0519 1.4019 80.0519 2.05714C80.0519 2.65143 79.8691 3.13905 79.5034 3.52C79.1377 3.90095 78.6577 4.09143 78.0634 4.09143Z" fill="#FF5449"/>
</svg>
