<svg width="84" height="41" viewBox="0 0 84 41" fill="none" xmlns="http://www.w3.org/2000/svg">
<path fill-rule="evenodd" clip-rule="evenodd" d="M0.437012 2.09219H9.24574C11.355 2.09219 13.4254 2.24852 15.4762 2.58066C17.5076 2.89331 19.4216 3.79141 21.2182 5.23687C22.8979 6.66285 24.2066 8.47898 25.1441 10.6861C26.1011 12.8929 26.6285 15.1585 26.7064 17.5025C26.7454 17.6588 26.7649 17.8346 26.7649 18.0104V18.8696C26.7064 21.3114 26.1985 23.6546 25.2415 25.9397C24.304 28.2057 22.917 30.0613 21.0809 31.5253C19.4601 32.7171 17.7409 33.4792 15.8858 33.8304C14.0498 34.2015 12.1553 34.3968 10.2413 34.4747H0.437012V2.09219ZM6.8827 28.6349C7.09748 28.6349 7.33175 28.6349 7.5855 28.6548C7.83925 28.6747 8.11293 28.6747 8.38617 28.6747H8.91361C9.09994 28.7133 9.28973 28.7327 9.48001 28.7327H10.0074C10.3201 28.7327 10.6323 28.7137 10.945 28.6938C11.2576 28.6938 11.5698 28.6548 11.902 28.6349C12.8468 28.5531 13.7818 28.3832 14.695 28.1274C15.5936 27.8541 16.3942 27.444 17.0581 26.8976C18.0934 26.0189 18.8746 24.8268 19.4016 23.3428C19.9286 21.8588 20.2023 20.3155 20.2222 18.7137V18.5968V18.4015V18.2257V18.0499C20.2038 16.4869 19.9334 14.9371 19.4216 13.4602C18.9136 11.9757 18.1519 10.765 17.1559 9.82746C16.449 9.15273 15.582 8.66889 14.6366 8.42141C13.699 8.16765 12.7226 8.03081 11.7071 7.99184C11.4923 7.95287 11.2576 7.93339 11.0428 7.93339H6.8827V28.6349ZM44.9098 33.9482L42.9369 31.6232C42.0798 32.418 41.0965 33.0648 40.0274 33.5372C38.9686 34.0307 37.8316 34.3348 36.6679 34.4358C36.552 34.4586 36.4344 34.4716 36.3163 34.4747H35.9651C35.7109 34.4747 35.4766 34.4557 35.2229 34.4358C34.9691 34.4158 34.7344 34.3769 34.4807 34.3578C33.9829 34.2575 33.4933 34.1204 33.0157 33.9477C32.5322 33.774 32.0676 33.5514 31.6292 33.2835C30.8285 32.737 30.2036 32.0138 29.7152 31.1348C29.2267 30.2362 28.9335 29.3182 28.8361 28.3807C28.8166 28.2629 28.8166 28.1464 28.8166 28.0485V27.7554V27.502C28.8361 27.4042 28.8361 27.3068 28.8361 27.2089C28.8361 27.1699 28.8556 27.15 28.8556 27.1309C28.8751 27.092 28.8751 27.072 28.8751 27.0131C28.8751 26.9742 28.8946 26.9153 28.8946 26.8378C28.9141 26.7789 28.914 26.7209 28.914 26.681C29.1678 25.2944 29.7537 24.1426 30.6917 23.2246C31.6292 22.3061 32.6645 21.505 33.7774 20.7827C33.0957 20.0611 32.5114 19.2534 32.0392 18.3802C31.5707 17.5406 31.3364 16.642 31.3364 15.7435C31.3364 15.5677 31.3364 15.3919 31.3754 15.1966C31.3949 15.0208 31.4144 14.8255 31.4339 14.6696C31.4728 14.5327 31.4923 14.4154 31.5317 14.2985C31.5707 14.1616 31.6097 14.0447 31.6292 13.9274C32.0198 12.6967 32.7815 11.8181 33.8952 11.2517C35.0086 10.6853 36.1803 10.3921 37.4495 10.3921C39.0314 10.3921 40.4769 10.8221 41.7855 11.6812C43.0941 12.5209 43.7584 13.7905 43.7584 15.4313V15.8414C43.6605 16.8763 43.2695 17.7748 42.6061 18.5171C41.9479 19.2471 41.2291 19.9202 40.4574 20.5289C40.2816 20.6264 40.1058 20.7242 39.9494 20.8606C39.7931 20.9784 39.6368 21.0949 39.4809 21.1928L43.4462 25.8219C43.6605 25.6266 43.8563 25.4308 44.0516 25.2355C44.2468 25.0411 44.4227 24.8454 44.598 24.6302C45.0081 24.24 45.3991 23.8299 45.7889 23.4194C46.1799 22.9903 46.551 22.5798 46.9022 22.1506L49.5394 24.9437C49.2462 25.2559 48.934 25.5681 48.6408 25.8812C48.343 26.1955 48.0501 26.5144 47.7622 26.8378C47.4301 27.15 47.1178 27.4631 46.8247 27.7753L45.9461 28.7128L50.282 33.9473H44.9098V33.9482ZM33.6596 29.0848C33.9138 29.4169 34.1676 29.6902 34.4018 29.905C34.6556 30.1392 34.9094 30.296 35.183 30.4324C35.4372 30.5692 35.6715 30.6866 35.9253 30.7446C36.179 30.8035 36.4137 30.8425 36.6675 30.8425C37.1721 30.8409 37.671 30.7346 38.1324 30.5303C38.5712 30.3223 38.9896 30.0738 39.3821 29.788C39.7143 29.5538 40.1049 29.2216 40.515 28.7916L36.0811 23.4991C35.9837 23.558 35.8858 23.636 35.7685 23.6944C35.6706 23.7524 35.5931 23.8313 35.5147 23.8888C35.0335 24.3056 34.5891 24.7631 34.1866 25.2564C33.7566 25.7639 33.4639 26.2917 33.2881 26.8382C33.2491 26.9751 33.2101 27.1115 33.1902 27.2483C33.1512 27.3851 33.1512 27.5415 33.1512 27.6783C33.1512 27.9325 33.1902 28.1672 33.2881 28.4015C33.3864 28.6349 33.5232 28.8691 33.6596 29.0848ZM37.2144 18.928C37.2534 18.9085 37.2728 18.8891 37.2928 18.8696C37.3317 18.8501 37.3512 18.8501 37.4097 18.8111C37.4292 18.7916 37.4681 18.7721 37.4881 18.7332C37.5076 18.7137 37.527 18.7137 37.566 18.7137C38.0545 18.3625 38.5035 17.991 38.9331 17.6198C39.3432 17.2293 39.6164 16.7213 39.7533 16.1159V15.6664C39.7533 15.0216 39.519 14.4947 39.0699 14.1041C38.6404 13.7135 38.1519 13.4792 37.6245 13.4008H37.1161C36.7255 13.4398 36.3349 13.6156 35.9833 13.9088C35.6316 14.1824 35.4169 14.6116 35.3779 15.1784C35.3779 15.1979 35.3584 15.2369 35.3584 15.2763C35.3389 15.3153 35.3389 15.3542 35.3389 15.4131C35.3389 15.4326 35.3194 15.4521 35.3194 15.4911C35.2999 15.53 35.2999 15.569 35.2999 15.6279C35.2999 16.1164 35.4368 16.5849 35.71 16.995C35.9837 17.4246 36.2764 17.8346 36.5891 18.2252C36.7259 18.3426 36.8234 18.4595 36.9212 18.5768L37.2144 18.928ZM83.289 16.8387V17.9126C83.289 20.8425 82.8001 23.5766 81.8236 26.135C80.8471 28.6933 78.9721 30.7641 76.14 32.3459C75.2415 32.9314 74.265 33.3614 73.1716 33.6935C72.0973 34.0057 71.0229 34.24 69.949 34.3769C69.558 34.3968 69.1868 34.4358 68.8357 34.4557C68.4646 34.4557 68.1125 34.4747 67.7613 34.4747H67.136C66.9217 34.4747 66.7259 34.4557 66.5116 34.4158C63.8943 34.2599 61.3945 33.5372 58.953 32.2671C56.5311 31.0174 54.5582 29.3186 53.0742 27.1898C52.332 26.0566 51.7465 24.8259 51.2966 23.5372C50.8545 22.2654 50.5534 20.9489 50.3989 19.6113C50.379 19.3576 50.34 19.0644 50.3201 18.7912C50.3201 18.498 50.3011 18.2053 50.3011 17.9121C50.3011 14.8069 51.1013 11.8575 52.723 9.04494C54.3438 6.2324 56.6289 4.10362 59.5779 2.65815C60.1986 2.34732 60.8458 2.09241 61.5118 1.89645C62.1761 1.68167 62.8395 1.50586 63.5427 1.33005C64.1941 1.19421 64.8529 1.09647 65.5156 1.03732C66.1799 0.958939 66.8242 0.939453 67.4495 0.939453H67.9181C70.4565 0.997909 72.9174 1.60373 75.3203 2.71661C77.7033 3.84942 79.7732 5.4118 81.5114 7.40418L76.8242 10.8221C75.5347 9.55245 74.1871 8.57596 72.7416 7.87272C71.3017 7.18806 69.7268 6.83443 68.1324 6.83777C67.5908 6.84167 67.0498 6.87419 66.5116 6.9352C65.9342 7.01274 65.3606 7.11707 64.7929 7.24785C62.39 7.99007 60.5938 9.37708 59.3627 11.4084C58.1519 13.4588 57.5461 15.6075 57.5461 17.9121C57.5461 18.0685 57.5461 18.2443 57.566 18.4396C57.5851 18.6154 57.624 18.7912 57.644 18.967C57.644 19.0644 57.6639 19.1623 57.6829 19.2402C57.7029 19.3182 57.7029 19.416 57.7029 19.5139C57.7418 19.5919 57.7618 19.6702 57.7808 19.7677C57.8007 19.8655 57.8007 19.963 57.8007 20.0214C58.2298 22.5408 59.3042 24.5336 61.0623 25.9592C62.82 27.3847 64.7141 28.2633 66.7649 28.5565C67.0381 28.6344 67.3512 28.6743 67.6634 28.6933C67.9756 28.7132 68.2688 28.7132 68.5421 28.7132C70.495 28.7132 72.2137 28.1858 73.7566 27.1504C75.2805 26.096 76.0417 24.612 76.0417 22.6586L76.1396 22.4434H68.1709V16.8387H83.289ZM22.9763 37.3856H24.2066C25.0661 37.3856 25.7889 38.1468 25.7889 39.1043C25.7889 40.0418 25.0661 40.8031 24.2066 40.823H22.9763V37.3856ZM23.5037 37.7952V40.4125H24.0702C24.8518 40.3925 25.2419 39.7681 25.2419 39.1229C25.2419 38.4595 24.8513 37.9121 24.2066 37.8151L23.5037 37.7952ZM27.8592 37.3068C28.9136 37.3068 29.7537 38.1079 29.7537 39.1043C29.7537 40.1007 28.914 40.9009 27.8592 40.9009C26.8242 40.9009 25.9647 40.1007 25.9647 39.1043C25.9647 38.1079 26.8238 37.3068 27.8592 37.3068ZM27.8592 37.7368C28.6209 37.7368 29.2457 38.3421 29.2457 39.1043C29.2457 39.8465 28.6209 40.4519 27.8592 40.4519C27.117 40.4519 26.4921 39.8465 26.4921 39.1043C26.4929 38.7419 26.6372 38.3946 26.8934 38.1384C27.1496 37.8821 27.4968 37.7377 27.8592 37.7368ZM29.91 37.3856H30.418V40.4129H31.3945V40.823H29.91V37.3856ZM33.0348 37.2877C33.4254 37.2877 33.7965 37.4046 34.1091 37.5999V38.2252C33.9791 38.066 33.8151 37.9379 33.6293 37.8501C33.4434 37.7623 33.2403 37.7171 33.0348 37.7177C32.2731 37.7177 31.6677 38.3421 31.6677 39.1043C31.6687 39.4666 31.8131 39.8137 32.0692 40.07C32.3254 40.3262 32.6725 40.4706 33.0348 40.4718C33.4643 40.4718 33.8549 40.2765 34.1091 39.9643V40.6086C33.7871 40.8108 33.415 40.9189 33.0348 40.9209C31.9998 40.9209 31.1403 40.1007 31.1403 39.1043C31.1403 38.1079 31.9998 37.2877 33.0348 37.2877ZM34.7929 40.4129H36.0236V40.823H34.2659V37.3856H36.0236V37.7757H34.7929V38.7921H36.0236V39.2022H34.7929V40.4129ZM37.9566 40.5883C37.8999 40.6448 37.8338 40.6911 37.7613 40.7251C37.7029 40.7641 37.6245 40.784 37.5465 40.8031C37.527 40.8031 37.5076 40.8031 37.4881 40.823H37.4296C37.3712 40.823 37.3317 40.8031 37.2733 40.8031C37.2175 40.7851 37.1648 40.7588 37.117 40.7251C37.078 40.6861 37.039 40.6272 37.0001 40.5683L36.9416 40.393V40.3739V40.354V40.335V40.2951H36.9611V40.2761V40.2561C36.9806 40.1583 37.0195 40.0808 37.0979 40.0028L37.3322 39.8266L37.2148 39.6512C37.1759 39.6122 37.1564 39.5343 37.1564 39.4758V39.4559V39.4169V39.3979C37.1759 39.3979 37.1759 39.378 37.1759 39.378C37.1954 39.3029 37.2361 39.2351 37.2932 39.1827C37.3712 39.1437 37.4301 39.1238 37.508 39.1238H37.5665C37.6444 39.1238 37.7423 39.1636 37.8202 39.2216C37.8532 39.2549 37.879 39.2947 37.8958 39.3385C37.9127 39.3822 37.9202 39.429 37.9181 39.4758C37.9181 39.5737 37.8986 39.6512 37.8397 39.7101C37.7618 39.788 37.7029 39.8469 37.6249 39.8855L37.996 40.3354C38.0155 40.2956 38.0545 40.2566 38.0939 40.1977C38.1329 40.1587 38.1523 40.1197 38.1913 40.0808L38.3087 40.1977C38.2892 40.2375 38.2502 40.2765 38.2307 40.3155C38.2112 40.3545 38.1723 40.3934 38.1333 40.4324L38.1138 40.4523C38.1138 40.4523 38.1138 40.4722 38.0943 40.4722L38.3676 40.7845H38.1333L37.9566 40.5883ZM37.5076 40.6472C37.5707 40.6455 37.632 40.625 37.6834 40.5883C37.7223 40.5493 37.7808 40.5103 37.8202 40.4714H37.8397L37.8592 40.4514L37.4296 39.9634C37.4296 39.9825 37.4296 39.9825 37.4101 39.9825L37.3906 40.0024C37.3517 40.0214 37.3322 40.0414 37.2932 40.0604C37.2538 40.1003 37.2343 40.1193 37.2148 40.1583C37.1954 40.1583 37.1953 40.1782 37.1953 40.1972C37.1759 40.2172 37.1759 40.2371 37.1759 40.2561C37.1564 40.2761 37.1564 40.2951 37.1564 40.2951V40.354C37.1564 40.4319 37.1759 40.4908 37.2343 40.5683C37.2998 40.623 37.3834 40.6511 37.4686 40.6472H37.5076ZM37.3512 39.4364V39.4754C37.3512 39.5144 37.3512 39.5533 37.3707 39.5923C37.3902 39.6322 37.4292 39.6711 37.4487 39.6902L37.4876 39.73L37.5071 39.7491H37.5266C37.5266 39.7491 37.5461 39.7491 37.5461 39.73C37.5851 39.7101 37.624 39.6902 37.6634 39.6512C37.7007 39.613 37.7275 39.5659 37.7414 39.5144V39.4953V39.4754C37.7421 39.4497 37.7373 39.4242 37.7272 39.4005C37.7171 39.3769 37.702 39.3558 37.6829 39.3385C37.6473 39.3167 37.6072 39.3034 37.5656 39.2996H37.5461H37.5266C37.4876 39.2996 37.4482 39.2996 37.4092 39.3385C37.3914 39.3478 37.3765 39.3619 37.3662 39.3792C37.356 39.3965 37.3508 39.4163 37.3512 39.4364ZM41.1208 37.2678C41.4431 37.2687 41.7605 37.3473 42.0461 37.497C42.3316 37.6466 42.5769 37.8628 42.7611 38.1274L42.312 38.3616C42.1864 38.1646 42.0132 38.0023 41.8085 37.8897C41.6037 37.7771 41.3739 37.7178 41.1403 37.7173C40.3591 37.7173 39.7537 38.3417 39.7537 39.1038C39.7537 39.866 40.3591 40.4714 41.1403 40.4714C41.785 40.4714 42.2926 40.1583 42.332 39.4949H41.2182V39.0839H42.8784V39.1038C42.8784 40.1782 42.2921 40.9395 41.1203 40.9395C39.9485 40.9395 39.2063 40.1193 39.2063 39.1038C39.2063 38.0884 40.0663 37.2678 41.1208 37.2678ZM42.5857 40.8225L44.0121 37.3851H44.3434L45.7698 40.8225H45.2233L44.8323 39.8461H43.5237L43.1326 40.8225H42.5857ZM43.7185 39.4165L44.1875 38.1867L44.6366 39.4165H43.7185ZM50.7696 40.8225L52.1752 37.3851H52.5073L53.9338 40.8225H53.3864L52.9962 39.8461H51.6876L51.2966 40.8225H50.7696ZM51.8829 39.4165L52.3519 38.1867L52.82 39.4165H51.8829ZM57.5665 40.8225L58.992 37.3851H59.3241L60.7497 40.8225H60.2032L59.7931 39.8461H58.5044L58.1134 40.8225H57.5665ZM58.6988 39.4165L59.1488 38.1867L59.6177 39.4165H58.6988ZM46.9996 37.7757C47.3517 37.8156 47.4686 37.952 47.4686 38.3032C47.4686 38.6353 47.2343 38.8107 46.942 38.8107H46.4921V37.7753H46.9996V37.7757ZM47.039 39.2208H47.0581C47.3123 39.2208 47.7613 39.2797 47.7613 39.8461C47.7613 40.2951 47.3703 40.4125 46.9992 40.4125H47.078H46.4917V39.2208H47.039ZM46.3747 40.8225H47.2538C47.8592 40.8225 48.3082 40.4125 48.3082 39.8461C48.3082 39.397 48.035 39.0649 47.6448 38.9285C47.8592 38.7916 47.9761 38.5374 47.9761 38.2252C47.9761 37.7177 47.6448 37.3856 47.1174 37.3856C46.8442 37.3657 46.551 37.3856 46.2778 37.3856H46.2578H45.9656V40.823H46.3747V40.8225ZM49.6169 37.7757C49.949 37.8156 50.0668 37.952 50.0858 38.3032C50.0858 38.6353 49.8516 38.8107 49.5584 38.8107H49.1093V37.7753H49.6169V37.7757ZM49.6368 39.2208H49.6558C49.91 39.2208 50.3591 39.2797 50.3591 39.8461C50.3591 40.2951 49.9689 40.4125 49.5978 40.4125H49.6948H49.1093V39.2208H49.6368ZM48.9725 40.8225H49.8715C50.4769 40.8225 50.9069 40.4125 50.9069 39.8461C50.9069 39.397 50.6328 39.0649 50.2426 38.9285C50.4769 38.7916 50.5938 38.5374 50.5938 38.2252C50.5938 37.7177 50.2426 37.3856 49.7351 37.3856C49.4419 37.3657 49.1687 37.3856 48.8755 37.3856H48.5633V40.823H48.9725V40.8225ZM54.168 37.3856H54.4993L56.9022 39.924V37.3856H57.3712V40.823H57.0191L54.656 38.3036V40.823H54.168V37.3856Z" fill="#202223"/>
</svg>
