<svg width="28" height="31" viewBox="0 0 28 31" fill="none" xmlns="http://www.w3.org/2000/svg">
<path d="M15.7403 2.31348L7.14725 6.78178L4.35547 8.23332V8.56838V17.4264L7.74238 18.8779V10.1687L7.77988 10.1487L14.0324 6.78178L19.1575 4.02205L15.7403 2.31348Z" fill="#6D7175"/>
<path d="M24.6785 19.9811C23.6863 19.3354 22.5072 19.0389 21.3277 19.1385C20.1481 19.2381 19.0354 19.7281 18.1655 20.531C17.2957 21.3339 16.7183 22.4038 16.5248 23.5717C16.3312 24.7395 16.5325 25.9385 17.0968 26.9791C17.6611 28.0197 18.5563 28.8425 19.6406 29.3173C20.725 29.7921 21.9367 29.8919 23.0841 29.6008C24.2315 29.3097 25.2492 28.6445 25.9761 27.7102C26.703 26.7759 27.0977 25.6259 27.0977 24.4421C27.1005 23.5554 26.8804 22.6822 26.4577 21.9027C26.035 21.1232 25.4232 20.4625 24.6785 19.9811Z" fill="#6D7175"/>
<path d="M25.1599 19.7289V6.53988C25.1599 6.45001 25.1349 6.36191 25.0877 6.28543C25.0405 6.20896 24.9729 6.14712 24.8926 6.10684L13.2803 0.3007C13.2154 0.268406 13.144 0.251097 13.0715 0.25005C12.9989 0.249004 12.9271 0.264245 12.8612 0.294652L0.281235 6.10079C0.197223 6.13935 0.126055 6.20123 0.0761977 6.27907C0.0263406 6.35692 -0.000107202 6.44744 3.26584e-07 6.53988V22.0229C-0.000107202 22.1154 0.0263406 22.2059 0.0761977 22.2837C0.126055 22.3616 0.197223 22.4234 0.281235 22.462L12.8612 28.2681C12.927 28.2986 12.9989 28.3139 13.0715 28.3129C13.144 28.3118 13.2154 28.2945 13.2803 28.2621L16.4205 26.6914C16.7677 27.5186 17.3019 28.2541 17.9811 28.8401C18.6604 29.4262 19.4662 29.8468 20.3354 30.069C21.2045 30.2913 22.1133 30.3091 22.9905 30.121C23.8677 29.933 24.6894 29.5442 25.391 28.9852C26.0927 28.4262 26.6553 27.7122 27.0346 26.8992C27.4139 26.0862 27.5997 25.1964 27.5773 24.2996C27.5549 23.4027 27.325 22.5233 26.9055 21.7302C26.4861 20.9372 25.8886 20.2522 25.1599 19.7289ZM18.1067 3.79587L7.76208 9.36614L5.11182 8.14322L15.7437 2.61469L18.1067 3.79587ZM7.25767 10.199V17.9024L4.83845 16.8651V9.08248L7.25767 10.199ZM13.0553 1.27081L14.6744 2.08004L4.13143 7.562C4.09154 7.58288 4.05471 7.60913 4.02196 7.64002L1.63842 6.53988L13.0553 1.27081ZM12.58 27.073L0.96769 21.7133V7.29589L3.87076 8.63614V17.1845C3.8708 17.2791 3.89862 17.3717 3.95076 17.4507C4.0029 17.5297 4.07707 17.5917 4.16409 17.629L7.551 19.0805C7.61112 19.1066 7.67598 19.12 7.74152 19.1198C7.86984 19.1198 7.99291 19.0689 8.08365 18.9781C8.17439 18.8874 8.22536 18.7643 8.22536 18.636V10.6459L12.58 12.6557V27.073ZM13.0553 11.8089L8.86101 9.87357L19.1651 4.32508L23.5941 6.53988L13.0553 11.8089ZM16.1181 25.7612L13.5477 27.0464V12.6448L24.1922 7.3225V19.1646C23.2051 18.7126 22.111 18.5463 21.0342 18.6847C19.9573 18.823 18.9408 19.2605 18.1 19.9474C17.2592 20.6343 16.6278 21.5432 16.2775 22.5709C15.9272 23.5985 15.872 24.7038 16.1181 25.7612ZM21.773 29.2806C20.8161 29.2806 19.8806 28.9968 19.0849 28.4652C18.2892 27.9335 17.6691 27.1778 17.3029 26.2937C16.9367 25.4096 16.8408 24.4368 17.0275 23.4982C17.2142 22.5596 17.675 21.6975 18.3517 21.0208C19.0284 20.3442 19.8905 19.8834 20.8291 19.6967C21.7676 19.51 22.7405 19.6058 23.6246 19.972C24.5087 20.3382 25.2644 20.9584 25.796 21.754C26.3277 22.5497 26.6115 23.4852 26.6115 24.4421C26.61 25.7249 26.0997 26.9547 25.1927 27.8618C24.2856 28.7689 23.0558 29.2791 21.773 29.2806Z" fill="#202223"/>
<path d="M23.8518 23.1322L21.2909 25.6932L20.1815 24.5837C20.0907 24.493 19.9677 24.442 19.8393 24.442C19.711 24.442 19.5879 24.493 19.4972 24.5837C19.4064 24.6745 19.3555 24.7975 19.3555 24.9259C19.3555 25.0542 19.4064 25.1773 19.4972 25.268L20.9487 26.7195C20.9937 26.7645 21.047 26.8001 21.1057 26.8244C21.1644 26.8488 21.2273 26.8613 21.2909 26.8613C21.3544 26.8613 21.4173 26.8488 21.476 26.8244C21.5347 26.8001 21.5881 26.7645 21.633 26.7195L24.5361 23.8165C24.581 23.7715 24.6166 23.7182 24.641 23.6595C24.6653 23.6008 24.6778 23.5379 24.6778 23.4743C24.6778 23.4108 24.6653 23.3479 24.641 23.2892C24.6166 23.2305 24.581 23.1771 24.5361 23.1322C24.4911 23.0873 24.4378 23.0516 24.3791 23.0273C24.3204 23.003 24.2575 22.9905 24.1939 22.9905C24.1304 22.9905 24.0675 23.003 24.0088 23.0273C23.9501 23.0516 23.8967 23.0873 23.8518 23.1322Z" fill="#202223"/>
</svg>
