<svg width="17" height="22" viewBox="0 0 17 22" fill="none" xmlns="http://www.w3.org/2000/svg">
<path d="M15.1941 0.696289H1.04026C0.795531 0.696556 0.560898 0.793894 0.387846 0.966947C0.214793 1.14 0.117455 1.37463 0.117188 1.61937V20.0809C0.117455 20.3256 0.214793 20.5603 0.387846 20.7333C0.560898 20.9064 0.795531 21.0037 1.04026 21.004H15.1941C15.4388 21.0037 15.6735 20.9064 15.8465 20.7333C16.0196 20.5603 16.1169 20.3256 16.1172 20.0809V1.61937C16.1169 1.37463 16.0196 1.14 15.8465 0.966947C15.6735 0.793894 15.4388 0.696556 15.1941 0.696289ZM15.5018 20.0809C15.5017 20.1625 15.4692 20.2407 15.4116 20.2984C15.3539 20.356 15.2757 20.3885 15.1941 20.3886H1.04026C0.958692 20.3885 0.880491 20.356 0.82281 20.2984C0.765129 20.2407 0.732678 20.1625 0.732572 20.0809V1.61937C0.732678 1.53779 0.765129 1.45959 0.82281 1.40191C0.880491 1.34423 0.958692 1.31178 1.04026 1.31167H15.1941C15.2757 1.31178 15.3539 1.34423 15.4116 1.40191C15.4692 1.45959 15.5017 1.53779 15.5018 1.61937V20.0809Z" fill="#6D7175"/>
<path d="M6.723 9.00394H9.51116C9.72754 9.00397 9.94149 8.95834 10.139 8.87005C10.3366 8.78176 10.5133 8.65278 10.6576 8.49155C10.8019 8.33032 10.9105 8.14046 10.9765 7.93437C11.0424 7.72829 11.0641 7.51061 11.0402 7.29556L10.5767 3.12384C10.5683 3.04858 10.5325 2.97903 10.4761 2.92853C10.4197 2.87802 10.3466 2.85009 10.2709 2.8501H5.96324C5.88752 2.85009 5.81446 2.87802 5.75804 2.92853C5.70163 2.97903 5.66583 3.04858 5.6575 3.12384L5.19401 7.29556C5.17008 7.51061 5.19178 7.72829 5.25771 7.93437C5.32364 8.14046 5.4323 8.33032 5.5766 8.49155C5.7209 8.65278 5.8976 8.78176 6.09514 8.87005C6.29268 8.95834 6.50663 9.00397 6.723 9.00394ZM5.80548 7.36347L6.23862 3.46548H9.99555L10.4287 7.36347C10.4429 7.49252 10.4298 7.62312 10.3902 7.74677C10.3506 7.87042 10.2855 7.98436 10.199 8.08117C10.1128 8.17843 10.0069 8.25617 9.88828 8.30919C9.76966 8.3622 9.64109 8.38926 9.51116 8.38856H6.723C6.59308 8.38926 6.46451 8.3622 6.34589 8.30919C6.22727 8.25618 6.12134 8.17844 6.0352 8.08117C5.94869 7.98437 5.88352 7.87043 5.84395 7.74678C5.80437 7.62312 5.79126 7.49252 5.80548 7.36347Z" fill="#6D7175"/>
<path d="M8.11756 5.61935C8.52544 5.61887 8.91648 5.45663 9.20489 5.16821C9.4933 4.8798 9.65555 4.48876 9.65602 4.08089C9.65602 3.99928 9.62361 3.92102 9.5659 3.86331C9.5082 3.80561 9.42994 3.77319 9.34833 3.77319C9.26673 3.77319 9.18846 3.80561 9.13076 3.86331C9.07306 3.92102 9.04064 3.99928 9.04064 4.08089C9.04064 4.3257 8.94339 4.56049 8.77028 4.7336C8.59717 4.90671 8.36238 5.00396 8.11756 5.00396C7.87275 5.00396 7.63796 4.90671 7.46485 4.7336C7.29174 4.56049 7.19449 4.3257 7.19449 4.08089C7.19449 3.99928 7.16207 3.92102 7.10437 3.86331C7.04666 3.80561 6.9684 3.77319 6.88679 3.77319C6.80519 3.77319 6.72693 3.80561 6.66922 3.86331C6.61152 3.92102 6.5791 3.99928 6.5791 4.08089C6.57958 4.48876 6.74182 4.8798 7.03024 5.16821C7.31865 5.45663 7.70968 5.61887 8.11756 5.61935Z" fill="#6D7175"/>
<path d="M6.57918 10.5425C6.49757 10.5425 6.41931 10.5749 6.36161 10.6326C6.3039 10.6903 6.27148 10.7686 6.27148 10.8502C6.27148 10.9318 6.3039 11.01 6.36161 11.0677C6.41931 11.1254 6.49757 11.1579 6.57918 11.1579H9.6561C9.7377 11.1579 9.81597 11.1254 9.87367 11.0677C9.93138 11.01 9.96379 10.9318 9.96379 10.8502C9.96379 10.7686 9.93138 10.6903 9.87367 10.6326C9.81597 10.5749 9.7377 10.5425 9.6561 10.5425H6.57918Z" fill="#6D7175"/>
<path d="M13.0406 12.0809H3.19441C3.11281 12.0809 3.03454 12.1133 2.97684 12.1711C2.91914 12.2288 2.88672 12.307 2.88672 12.3886C2.88672 12.4702 2.91914 12.5485 2.97684 12.6062C3.03454 12.6639 3.11281 12.6963 3.19441 12.6963H13.0406C13.1222 12.6963 13.2004 12.6639 13.2581 12.6062C13.3158 12.5485 13.3483 12.4702 13.3483 12.3886C13.3483 12.307 13.3158 12.2288 13.2581 12.1711C13.2004 12.1133 13.1222 12.0809 13.0406 12.0809Z" fill="#6D7175"/>
<path d="M13.0406 13.6194H3.19441C3.11281 13.6194 3.03454 13.6518 2.97684 13.7095C2.91914 13.7672 2.88672 13.8455 2.88672 13.9271C2.88672 14.0087 2.91914 14.0869 2.97684 14.1446C3.03454 14.2024 3.11281 14.2348 3.19441 14.2348H13.0406C13.1222 14.2348 13.2004 14.2024 13.2581 14.1446C13.3158 14.0869 13.3483 14.0087 13.3483 13.9271C13.3483 13.8455 13.3158 13.7672 13.2581 13.7095C13.2004 13.6518 13.1222 13.6194 13.0406 13.6194Z" fill="#6D7175"/>
<path d="M13.0406 15.1578H3.19441C3.11281 15.1578 3.03454 15.1903 2.97684 15.248C2.91914 15.3057 2.88672 15.3839 2.88672 15.4655C2.88672 15.5471 2.91914 15.6254 2.97684 15.6831C3.03454 15.7408 3.11281 15.7732 3.19441 15.7732H13.0406C13.1222 15.7732 13.2004 15.7408 13.2581 15.6831C13.3158 15.6254 13.3483 15.5471 13.3483 15.4655C13.3483 15.3839 13.3158 15.3057 13.2581 15.248C13.2004 15.1903 13.1222 15.1578 13.0406 15.1578Z" fill="#6D7175"/>
<path d="M13.0406 16.6963H3.19441C3.11281 16.6963 3.03454 16.7287 2.97684 16.7864C2.91914 16.8441 2.88672 16.9224 2.88672 17.004C2.88672 17.0856 2.91914 17.1638 2.97684 17.2216C3.03454 17.2793 3.11281 17.3117 3.19441 17.3117H13.0406C13.1222 17.3117 13.2004 17.2793 13.2581 17.2216C13.3158 17.1638 13.3483 17.0856 13.3483 17.004C13.3483 16.9224 13.3158 16.8441 13.2581 16.7864C13.2004 16.7287 13.1222 16.6963 13.0406 16.6963Z" fill="#6D7175"/>
<path d="M13.0406 18.2347H3.19441C3.11281 18.2347 3.03454 18.2672 2.97684 18.3249C2.91914 18.3826 2.88672 18.4608 2.88672 18.5424C2.88672 18.624 2.91914 18.7023 2.97684 18.76C3.03454 18.8177 3.11281 18.8501 3.19441 18.8501H13.0406C13.1222 18.8501 13.2004 18.8177 13.2581 18.76C13.3158 18.7023 13.3483 18.624 13.3483 18.5424C13.3483 18.4608 13.3158 18.3826 13.2581 18.3249C13.2004 18.2672 13.1222 18.2347 13.0406 18.2347Z" fill="#6D7175"/>
</svg>
