<svg width="16" height="13" viewBox="0 0 16 13" fill="none" xmlns="http://www.w3.org/2000/svg">
<path d="M7.55967 5.25916L7.7474 5.38796L7.71523 5.16258C7.55585 4.04565 7.17469 3.05256 6.65439 2.33602C6.13503 1.62076 5.46709 1.16917 4.73526 1.16917C3.8804 1.16917 3.11231 1.78365 2.56372 2.71947C2.01318 3.65862 1.67014 4.94108 1.67014 6.32731C1.67014 7.71353 2.01318 8.996 2.56372 9.93515C3.11231 10.871 3.8804 11.4854 4.73526 11.4854C5.46709 11.4854 6.13503 11.0339 6.65439 10.3186C7.17469 9.60205 7.55585 8.60897 7.71523 7.49204L7.7474 7.26666L7.55967 7.39545C7.36513 7.52892 7.13783 7.60672 6.90231 7.62046C6.66679 7.6342 6.43199 7.58336 6.22325 7.47342C6.01451 7.36349 5.83976 7.19863 5.71785 6.99665C5.59595 6.79467 5.53152 6.56323 5.53152 6.32731C5.53152 6.09139 5.59595 5.85995 5.71785 5.65796C5.83976 5.45598 6.01451 5.29113 6.22325 5.18119C6.43199 5.07126 6.66679 5.02042 6.90231 5.03416C7.13783 5.0479 7.36513 5.1257 7.55967 5.25916ZM9.27061 11.0539C9.42537 10.7751 9.56403 10.4876 9.68589 10.1929C9.87751 10.5189 10.1372 10.8008 10.4483 11.0189C10.8194 11.279 11.2511 11.4395 11.702 11.4849L11.7019 11.4854H11.712C12.4438 11.4854 13.1118 11.0339 13.6311 10.3186C14.1514 9.60205 14.5326 8.60897 14.692 7.49204L14.7241 7.26666L14.5364 7.39545C14.3419 7.52892 14.1146 7.60672 13.8791 7.62046C13.6435 7.6342 13.4087 7.58336 13.2 7.47342C12.9913 7.36349 12.8165 7.19863 12.6946 6.99665C12.5727 6.79467 12.5083 6.56323 12.5083 6.32731C12.5083 6.09139 12.5727 5.85995 12.6946 5.65796C12.8165 5.45598 12.9913 5.29113 13.2 5.18119C13.4087 5.07126 13.6435 5.02042 13.8791 5.03416C14.1146 5.0479 14.3419 5.1257 14.5364 5.25916L14.7241 5.38796L14.692 5.16258C14.5326 4.04565 14.1514 3.05256 13.6311 2.33602C13.1118 1.62076 12.4438 1.16917 11.712 1.16917V1.16866L11.702 1.16967C11.2511 1.21512 10.8194 1.37561 10.4483 1.63574C10.1372 1.85377 9.87751 2.13568 9.68588 2.46167C9.56402 2.16702 9.42538 1.87957 9.27061 1.60071C9.55054 1.22765 9.90876 0.920037 10.3204 0.699648C10.7501 0.469561 11.2267 0.340624 11.7138 0.322657C12.7944 0.323376 13.7689 0.967272 14.4779 2.04617C15.1871 3.12545 15.6236 4.63174 15.6236 6.32731C15.6236 8.02288 15.1871 9.52916 14.4779 10.6084C13.7689 11.6873 12.7944 12.3312 11.7138 12.332C11.2267 12.314 10.7501 12.1851 10.3204 11.955C9.90876 11.7346 9.55054 11.427 9.27061 11.0539ZM8.64689 6.32731C8.64689 8.02288 8.21037 9.52916 7.50115 10.6084C6.79178 11.6879 5.81658 12.332 4.73526 12.332C3.65394 12.332 2.67874 11.6879 1.96937 10.6084C1.26015 9.52916 0.823633 8.02288 0.823633 6.32731C0.823633 4.63174 1.26015 3.12545 1.96937 2.04617C2.67874 0.966669 3.65394 0.322656 4.73526 0.322656C5.81658 0.322656 6.79178 0.966669 7.50115 2.04617C8.21037 3.12545 8.64689 4.63174 8.64689 6.32731Z" fill="#202223" stroke="white" stroke-width="0.2"/>
</svg>
