<svg width="36" height="43" viewBox="0 0 36 43" fill="none" xmlns="http://www.w3.org/2000/svg">
<path d="M11.6692 18.6102C11.7361 18.6249 11.803 18.6379 11.8698 18.6485C12.1724 18.6781 12.4541 18.816 12.6631 19.0368C12.8721 19.2577 12.9942 19.5465 13.0071 19.8503V19.9579C13.0073 20.1239 12.973 20.2881 12.9063 20.4401C12.8396 20.5921 12.7421 20.7286 12.6199 20.8409L11.7443 21.6488C11.4481 21.9222 11.2116 22.2539 11.0497 22.6231C10.8878 22.9922 10.8039 23.3908 10.8034 23.7939V25.8786C10.8036 25.9967 10.838 26.1123 10.9024 26.2113C10.9668 26.3103 11.0585 26.3886 11.1664 26.4367C11.2743 26.4848 11.3938 26.5006 11.5105 26.4823C11.6272 26.464 11.7361 26.4124 11.8241 26.3335L15.0788 23.405C15.6872 22.8574 16.1738 22.1881 16.5072 21.4405C16.8406 20.6929 17.0134 19.8837 17.0143 19.0652V14.8745C17.0143 11.959 15.2892 9.7895 12.8188 9.59872C11.9095 9.5234 10.9985 9.72437 10.2053 10.1753C9.41204 10.6263 8.77341 11.3062 8.37299 12.1261C8.08075 12.7284 7.9302 13.3896 7.93289 14.059C7.93557 14.7284 8.09141 15.3883 8.38848 15.9882C8.70285 16.6439 9.16113 17.2202 9.72917 17.6742C10.2972 18.1282 10.9604 18.4481 11.6692 18.6102ZM9.46794 12.6651C9.74269 12.1065 10.1687 11.6363 10.6976 11.3079C11.2264 10.9796 11.8368 10.8063 12.4593 10.8078C12.5473 10.8078 12.6354 10.8111 12.7234 10.8176C14.5293 10.957 15.7898 12.6251 15.7898 14.8745V19.0652C15.7889 19.7123 15.6523 20.352 15.3887 20.9429C15.1251 21.5339 14.7404 22.063 14.2594 22.4959L12.0247 24.5065V23.7939C12.0249 23.5598 12.0736 23.3283 12.1676 23.1139C12.2616 22.8995 12.3989 22.7069 12.571 22.5481L13.4474 21.741C13.6935 21.5136 13.8898 21.2379 14.0243 20.9311C14.1587 20.6242 14.2282 20.2929 14.2285 19.9579V19.8503C14.22 19.2552 13.9963 18.6833 13.5986 18.2405C13.2009 17.7977 12.6563 17.514 12.0655 17.4419L11.9293 17.4158C11.4016 17.2941 10.9082 17.055 10.4857 16.7162C10.0632 16.3774 9.72257 15.9477 9.48913 15.4591C9.27292 15.0257 9.15875 14.5486 9.15536 14.0643C9.15197 13.5801 9.25944 13.1014 9.46956 12.6651H9.46794Z" fill="#6D7175"/>
<path d="M22.7198 18.6103C22.7867 18.625 22.8535 18.638 22.9204 18.6486C23.2236 18.6775 23.5062 18.815 23.716 19.0359C23.9258 19.2568 24.0486 19.546 24.0618 19.8504V19.958C24.0617 20.1239 24.0273 20.2881 23.9607 20.4401C23.894 20.592 23.7966 20.7285 23.6745 20.841L22.7981 21.6489C22.502 21.9224 22.2657 22.2541 22.104 22.6232C21.9422 22.9924 21.8585 23.391 21.858 23.794V25.8787C21.8581 25.9968 21.8923 26.1124 21.9566 26.2115C22.0209 26.3106 22.1125 26.3889 22.2204 26.437C22.3283 26.4852 22.4478 26.501 22.5645 26.4827C22.6812 26.4643 22.7901 26.4125 22.878 26.3336L26.1335 23.4051C26.7418 22.8574 27.2285 22.1882 27.5619 21.4406C27.8953 20.693 28.068 19.8838 28.069 19.0652V14.8746C28.069 11.9591 26.3438 9.78959 23.8735 9.59881C22.9643 9.5252 22.0541 9.7269 21.2612 10.1777C20.4683 10.6284 19.8294 11.3074 19.4276 12.1262C19.1351 12.7284 18.9845 13.3896 18.9872 14.0591C18.9898 14.7285 19.1458 15.3885 19.4431 15.9883C19.757 16.6436 20.2146 17.2197 20.7819 17.6736C21.3492 18.1276 22.0116 18.4478 22.7198 18.6103ZM20.5185 12.6651C20.7932 12.1064 21.2194 11.6361 21.7484 11.3077C22.2774 10.9793 22.888 10.8062 23.5106 10.8079C23.5979 10.8079 23.6859 10.8079 23.774 10.8177C25.5799 10.9571 26.8411 12.6252 26.8411 14.8746V19.0652C26.8403 19.7123 26.7037 20.3521 26.44 20.943C26.1764 21.534 25.7917 22.0631 25.3108 22.496L23.0761 24.5066V23.794C23.0763 23.5599 23.125 23.3284 23.219 23.114C23.313 22.8996 23.4503 22.707 23.6223 22.5482L24.4988 21.7411C24.7448 21.5137 24.9412 21.238 25.0756 20.9311C25.21 20.6243 25.2796 20.293 25.2798 19.958V19.8504C25.2714 19.2553 25.0476 18.6834 24.65 18.2406C24.2523 17.7978 23.7076 17.5141 23.1169 17.442L22.9807 17.4159C22.453 17.2942 21.9596 17.0551 21.5371 16.7163C21.1146 16.3775 20.774 15.9478 20.5405 15.4592C20.3242 15.0259 20.2099 14.5488 20.2063 14.0645C20.2028 13.5802 20.3101 13.1016 20.5201 12.6651H20.5185Z" fill="#6D7175"/>
<path d="M13.7776 35.425L17.4693 41.8178C17.5227 41.9111 17.5999 41.9887 17.6929 42.0426C17.786 42.0966 17.8917 42.125 17.9992 42.125C18.1068 42.125 18.2124 42.0966 18.3055 42.0426C18.3986 41.9887 18.4757 41.9111 18.5292 41.8178L22.2208 35.425C26.4773 34.3923 30.2075 31.8351 32.7055 28.2373C35.2034 24.6396 36.2958 20.2509 35.7758 15.9019C35.2558 11.553 33.1595 7.54551 29.8837 4.63809C26.6079 1.73067 22.38 0.125 18 0.125C13.6201 0.125 9.39214 1.73067 6.11636 4.63809C2.84059 7.54551 0.744319 11.553 0.224317 15.9019C-0.295685 20.2509 0.796663 24.6396 3.29461 28.2373C5.79256 31.8351 9.52278 34.3923 13.7792 35.425H13.7776ZM17.9984 1.35854C22.1032 1.35259 26.066 2.86108 29.1277 5.59514C32.1895 8.3292 34.1351 12.0966 34.5919 16.176C35.0487 20.2553 33.9846 24.3597 31.6034 27.7033C29.2222 31.0469 25.6913 33.3945 21.6868 34.2966C21.6046 34.3152 21.5271 34.3506 21.4592 34.4005C21.3913 34.4505 21.3344 34.5139 21.2922 34.5869L17.9984 40.2891L14.7046 34.582C14.6624 34.509 14.6055 34.4456 14.5376 34.3956C14.4697 34.3457 14.3922 34.3103 14.31 34.2917C10.3104 33.3851 6.78534 31.0362 4.4086 27.6941C2.03186 24.352 0.970231 20.2512 1.42668 16.1757C1.88313 12.1002 3.82563 8.3358 6.88281 5.6023C9.94 2.86881 13.8974 1.35793 17.9984 1.35854Z" fill="#6D7175"/>
</svg>
