<svg width="14" height="16" viewBox="0 0 14 16" fill="none" xmlns="http://www.w3.org/2000/svg">
<path d="M11.2857 14.8571L11.2857 5.42854M11.2857 3.71425L11.2857 1.14282M2.71429 14.8571L2.71429 5.42854M2.71429 3.71425L2.71429 1.14282M7 10.5714L7 1.14282M7 14.8571L7 12.2857M13 4.57139C13 4.79872 12.9097 5.01674 12.7489 5.17749C12.5882 5.33823 12.3702 5.42854 12.1429 5.42854L10.4286 5.42854C10.2012 5.42854 9.98323 5.33823 9.82248 5.17748C9.66173 5.01674 9.57143 4.79872 9.57143 4.57139C9.57143 4.34407 9.66173 4.12605 9.82248 3.9653C9.98323 3.80456 10.2012 3.71425 10.4286 3.71425L12.1429 3.71425C12.3702 3.71425 12.5882 3.80456 12.7489 3.9653C12.9097 4.12605 13 4.34407 13 4.57139ZM4.42857 4.57139C4.42857 4.79872 4.33827 5.01674 4.17752 5.17748C4.01677 5.33823 3.79876 5.42854 3.57143 5.42854L1.85714 5.42854C1.62981 5.42854 1.4118 5.33823 1.25105 5.17748C1.0903 5.01674 1 4.79872 1 4.57139C1 4.34406 1.0903 4.12605 1.25105 3.9653C1.4118 3.80456 1.62981 3.71425 1.85714 3.71425L3.57143 3.71425C3.79876 3.71425 4.01677 3.80456 4.17752 3.9653C4.33827 4.12605 4.42857 4.34406 4.42857 4.57139ZM8.71429 11.4285C8.71429 11.6559 8.62398 11.8739 8.46323 12.0346C8.30249 12.1954 8.08447 12.2857 7.85714 12.2857L6.14286 12.2857C5.91553 12.2857 5.69751 12.1954 5.53677 12.0346C5.37602 11.8739 5.28571 11.6559 5.28571 11.4285C5.28571 11.2012 5.37602 10.9832 5.53677 10.8224C5.69751 10.6617 5.91553 10.5714 6.14286 10.5714L7.85714 10.5714C8.08447 10.5714 8.30249 10.6617 8.46323 10.8224C8.62398 10.9832 8.71429 11.2012 8.71429 11.4285Z" stroke="#202223" stroke-linecap="round" stroke-linejoin="round"/>
</svg>
