<svg width="13" height="17" viewBox="0 0 13 17" fill="none" xmlns="http://www.w3.org/2000/svg">
<g id="Frame 10106">
<path id="Vector" d="M6.59682 16.2226C5.99183 16.2249 5.3912 16.1203 4.82256 15.9138C2.78407 15.1665 1.42424 13.9898 0.781236 12.4165C-0.274127 9.8335 0.978959 7.14172 1.03268 7.02857C1.05265 6.98647 1.08502 6.95148 1.12544 6.92829C1.16586 6.90509 1.2124 6.89481 1.25883 6.89882C1.30526 6.90282 1.34936 6.92092 1.38521 6.95069C1.42107 6.98046 1.44697 7.02047 1.45944 7.06538C1.64322 7.58776 1.9675 8.04935 2.39662 8.39938C2.91985 5.77343 5.21047 4.18433 5.31219 4.11461C6.7902 2.93147 5.58306 0.580736 5.57071 0.557192C5.54634 0.510611 5.53878 0.457053 5.54929 0.405544C5.5598 0.354034 5.58774 0.307722 5.62841 0.274409C5.66907 0.241096 5.71998 0.222819 5.77255 0.222657C5.82512 0.222496 5.87614 0.24046 5.91701 0.273522C9.98737 3.57653 9.7533 6.90331 9.42483 8.27023C9.73057 8.03087 9.9681 7.71541 10.1136 7.35542C10.2592 6.99543 10.3076 6.60353 10.2541 6.21894C10.247 6.16781 10.2573 6.11576 10.2835 6.07126C10.3097 6.02676 10.3502 5.99245 10.3984 5.97389C10.4465 5.95534 10.4996 5.95365 10.5489 5.96909C10.5981 5.98453 10.6407 6.0162 10.6697 6.05893C11.1114 6.74738 11.4701 7.48574 11.7381 8.25857C12.0916 9.2708 12.1786 10.357 11.9908 11.4126C11.803 12.4682 11.3466 13.4577 10.6656 14.2858L10.6167 14.3455C10.127 14.9361 9.51257 15.4107 8.81747 15.7353C8.12238 16.0599 7.36395 16.2263 6.59682 16.2226ZM4.97983 15.4845C5.49809 15.6726 6.04549 15.7677 6.59682 15.7654C7.29639 15.7689 7.98804 15.6173 8.62201 15.3215C9.25598 15.0257 9.81651 14.5931 10.2633 14.0547L10.309 13.9976C10.9406 13.23 11.3641 12.3128 11.5386 11.3342C11.7132 10.3556 11.6329 9.34851 11.3056 8.40989C11.1358 7.92684 10.9304 7.45704 10.6912 7.00434C10.4397 8.37972 9.12379 9.01929 9.10779 9.02684C9.0652 9.047 9.01742 9.0535 8.97099 9.04546C8.92457 9.03742 8.88176 9.01523 8.84843 8.98192C8.8151 8.94862 8.79287 8.90582 8.7848 8.8594C8.77672 8.81298 8.78319 8.7652 8.80332 8.72259C8.87555 8.56762 10.4491 5.04243 6.3072 1.21574C6.57144 2.13166 6.72939 3.56419 5.58237 4.48171C5.5442 4.50869 3.11666 6.19745 2.78521 8.84763C2.78025 8.88639 2.76543 8.92323 2.74217 8.95463C2.71891 8.98603 2.68799 9.01095 2.65236 9.027C2.61674 9.04305 2.57759 9.04969 2.53866 9.0463C2.49973 9.04291 2.46232 9.0296 2.43 9.00764C1.95222 8.66885 1.54977 8.23481 1.248 7.73284C0.947872 8.61082 0.484308 10.4852 1.20548 12.2453C1.79843 13.6933 3.0682 14.7825 4.9796 15.4834L4.97983 15.4845Z" fill="#FD5749"/>
<path id="Vector_2" d="M5.62296 16.1293C5.56909 16.1293 5.51696 16.1103 5.47575 16.0756C2.56293 13.6202 4.61514 10.4801 4.63617 10.4488C4.66276 10.4091 4.70114 10.3787 4.74591 10.362C4.79067 10.3452 4.83956 10.3429 4.88571 10.3553C4.93186 10.3678 4.97294 10.3944 5.00317 10.4314C5.0334 10.4685 5.05127 10.514 5.05425 10.5618C5.06002 10.9125 5.18588 11.2506 5.41083 11.5197C5.29227 10.6575 5.4183 9.77938 5.77455 8.98533C6.1308 8.19127 6.70294 7.51326 7.42578 7.02856C7.46852 7.0037 7.51816 6.99336 7.56726 6.9991C7.61637 7.00484 7.66229 7.02635 7.69814 7.06039C7.73399 7.09444 7.75783 7.13919 7.76609 7.18794C7.77436 7.23668 7.76659 7.28679 7.74397 7.33075C7.61787 7.56884 7.55446 7.83512 7.55973 8.1045C7.57156 8.41794 7.67103 8.72179 7.84683 8.98156L7.93826 9.12123C8.24116 9.57088 8.56932 10.003 8.92117 10.4155C9.19502 10.7467 9.4141 11.1197 9.57011 11.5202C10.7158 13.8821 8.74722 15.7439 8.72801 15.7627C8.68337 15.8027 8.62481 15.8235 8.56495 15.8207C8.50509 15.8179 8.44871 15.7918 8.40796 15.7478C8.3672 15.7039 8.34533 15.6457 8.34705 15.5858C8.34876 15.5259 8.37394 15.4691 8.41714 15.4276C8.48869 15.3608 10.1601 13.7681 9.15386 11.7097C9.14993 11.7016 9.14649 11.6933 9.14358 11.6848C9.00506 11.3307 8.81125 11.0009 8.56938 10.7076C8.20624 10.2818 7.86762 9.83576 7.55516 9.37153L7.46373 9.23186C7.24104 8.90042 7.11576 8.51317 7.10211 8.1141C7.10029 8.02502 7.10426 7.93591 7.114 7.84734C6.45568 8.46977 5.49107 9.79486 5.94594 11.9618C5.95413 12.0007 5.95205 12.041 5.93991 12.0788C5.92777 12.1166 5.90599 12.1506 5.87671 12.1774C5.84743 12.2043 5.81167 12.223 5.77295 12.2318C5.73422 12.2406 5.69387 12.2392 5.65587 12.2277C5.43772 12.1442 5.24109 12.0128 5.08047 11.8432C4.91986 11.6736 4.79935 11.4701 4.72783 11.2477C4.32233 12.1712 3.83636 14.0961 5.76994 15.7266C5.80581 15.7568 5.83153 15.7973 5.8436 15.8426C5.85567 15.8879 5.85351 15.9358 5.83742 15.9799C5.82132 16.0239 5.79207 16.062 5.75362 16.0888C5.71517 16.1157 5.6694 16.1301 5.6225 16.13L5.62296 16.1293Z" fill="#FD5749"/>
</g>
</svg>
