<svg width="64" height="25" viewBox="0 0 64 25" fill="none" xmlns="http://www.w3.org/2000/svg">
<path fill-rule="evenodd" clip-rule="evenodd" d="M30.3134 18.7928V11.7579V11.7565H34.1146C35.6817 11.7574 36.9988 11.2644 38.0658 10.2774C39.1441 9.34072 39.7469 7.99394 39.7163 6.59014C39.7376 5.19414 39.1358 3.85733 38.0658 2.92365C37.0081 1.93127 35.5857 1.38982 34.1146 1.41963H28.0127V18.7928H30.3134ZM30.3133 9.62306V3.55845V3.55706H34.1716C35.0316 3.53362 35.8605 3.8693 36.448 4.47888C37.0392 5.03637 37.3727 5.8021 37.3727 6.60184C37.3727 7.40159 37.0392 8.16732 36.448 8.7248C35.8533 9.32156 35.0269 9.64765 34.1716 9.62306H30.3133Z" fill="#5F6368"/>
<path fill-rule="evenodd" clip-rule="evenodd" d="M49.0442 7.84025C48.0601 6.95863 46.7178 6.51782 45.0173 6.51782C42.8328 6.51782 41.1833 7.29409 40.0686 8.84663L42.095 10.0845C42.8438 9.03285 43.8608 8.50701 45.1459 8.50701C45.9653 8.49771 46.7582 8.78824 47.3666 9.32071C47.9732 9.80721 48.3221 10.5325 48.3169 11.296V11.8062C47.4328 11.321 46.3077 11.0784 44.9416 11.0784C43.3411 11.0803 42.0616 11.4444 41.1032 12.1707C40.1449 12.8971 39.6657 13.8753 39.6657 15.1053C39.6448 16.2253 40.1456 17.2948 41.0289 18.0163C41.9378 18.7926 43.0672 19.1807 44.4171 19.1807C45.9985 19.1807 47.2656 18.5015 48.2183 17.143H48.3183V18.7926H50.519V11.4665C50.5199 9.93064 50.0283 8.72187 49.0442 7.84025ZM42.8039 16.6092C42.322 16.2722 42.0377 15.73 42.0408 15.1537C42.0408 14.5063 42.3538 13.9671 42.984 13.5235C43.608 13.0864 44.3873 12.8678 45.3218 12.8678C46.6051 12.8678 47.6054 13.1451 48.3228 13.6995C48.3228 14.6366 47.9417 15.4531 47.1796 16.149C46.4931 16.8149 45.5625 17.1898 44.5916 17.1914C43.9443 17.2031 43.3128 16.9974 42.8039 16.6092Z" fill="#5F6368"/>
<path fill-rule="evenodd" clip-rule="evenodd" d="M63.1506 6.90601L55.4683 24.0325H53.0932L55.9441 18.0399L50.8926 6.90601H53.3933L57.0445 15.445H57.0945L60.6456 6.90601L63.1506 6.90601Z" fill="#5F6368"/>
<path fill-rule="evenodd" clip-rule="evenodd" d="M21.0159 10.2411C21.0168 9.56093 20.9575 8.88197 20.8387 8.21167H11.1357V12.0556H16.6931C16.4634 13.2962 15.721 14.3918 14.6382 15.0886V17.5837H17.955C19.897 15.8468 21.0159 13.2782 21.0159 10.2411Z" fill="#4285F4"/>
<path fill-rule="evenodd" clip-rule="evenodd" d="M11.1362 19.9943C13.9127 19.9943 16.2506 19.1099 17.9554 17.5851L14.6387 15.0899C13.7155 15.6971 12.5266 16.0436 11.1362 16.0436C8.45248 16.0436 6.17465 14.2887 5.36011 11.9238H1.94336V14.4952C3.68983 17.8664 7.24672 19.9941 11.1362 19.9943Z" fill="#34A853"/>
<path fill-rule="evenodd" clip-rule="evenodd" d="M5.35999 11.924C4.92938 10.6848 4.92938 9.34282 5.35999 8.10362V5.53223H1.94324C0.482463 8.35193 0.482463 11.6757 1.94324 14.4954L5.35999 11.924Z" fill="#FBBC04"/>
<path fill-rule="evenodd" clip-rule="evenodd" d="M11.1362 3.98379C12.6034 3.96053 14.0212 4.49831 15.0831 5.48088L18.0197 2.63224C16.1576 0.935645 13.6907 0.00418303 11.1362 0.0331255C7.24672 0.0332975 3.68983 2.161 1.94336 5.53217L5.36011 8.10356C6.17465 5.73871 8.45248 3.98379 11.1362 3.98379Z" fill="#EA4335"/>
</svg>
