<svg width="40" height="31" viewBox="0 0 40 31" fill="none" xmlns="http://www.w3.org/2000/svg">
<path d="M35.6068 0.510722H10.3401C10.1958 0.452806 10.0353 0.452806 9.89098 0.510722H4.393C2.14342 0.513093 0.320242 2.33627 0.317871 4.58586V26.3922C0.320242 28.6417 2.14342 30.4649 4.393 30.4673H35.6068C37.8564 30.4649 39.6796 28.6417 39.6819 26.3922V4.58586C39.6796 2.33627 37.8564 0.513093 35.6068 0.510722ZM38.4681 4.58586V19.976H14.9883C15.921 19.4192 16.4938 18.4143 16.4972 17.3281C16.4972 15.6187 15.0879 14.2281 13.3558 14.2281C12.2967 14.227 11.3081 14.7568 10.7225 15.639V1.72459H35.6068C37.1861 1.72629 38.4664 3.00654 38.4681 4.58586ZM4.94778 17.3281C4.96065 16.2754 5.82296 15.4318 6.87527 15.4419C7.21837 15.4419 7.55536 15.5317 7.85307 15.7027C8.3286 15.9743 8.66288 16.439 8.7689 16.9765L9.29793 19.703L6.51253 19.1804C5.61365 19.0195 4.95625 18.2415 4.94778 17.3281ZM10.9335 19.703L11.4622 16.9765C11.664 16.0167 12.5528 15.3603 13.5295 15.4504C14.506 15.5401 15.2603 16.3476 15.2833 17.3281C15.2748 18.2412 14.6178 19.0192 13.7189 19.1804L10.9335 19.703ZM4.393 1.72459H9.5086V15.6394C9.24069 15.2326 8.88134 14.8943 8.45933 14.6511C7.97771 14.3737 7.4314 14.2277 6.87561 14.2281C5.14321 14.2281 3.73425 15.6187 3.73425 17.3281C3.73764 18.4143 4.31036 19.4195 5.24312 19.976H1.53174V4.58586C1.53343 3.00654 2.81369 1.72629 4.393 1.72459ZM1.53174 26.3922V21.1899H8.65035L5.78469 24.0555C5.5476 24.2926 5.5476 24.6767 5.78469 24.9138C6.02177 25.1508 6.40585 25.1508 6.64293 24.9138L9.5086 22.0481V29.2534H4.393C2.81369 29.2517 1.53343 27.9715 1.53174 26.3922ZM35.6068 29.2534H10.7225V22.0481L14.5852 25.9109C14.8223 26.148 15.2064 26.148 15.4435 25.9109C15.6806 25.6738 15.6806 25.2897 15.4435 25.0526L11.5807 21.1899H38.4681V26.3922C38.4664 27.9715 37.1861 29.2517 35.6068 29.2534Z" fill="#202223"/>
</svg>
