<svg width="47" height="19" viewBox="0 0 47 19" fill="none" xmlns="http://www.w3.org/2000/svg">
<path fill-rule="evenodd" clip-rule="evenodd" d="M22.248 14.3857V9.10952V9.10848H25.0988C26.2742 9.10917 27.262 8.73941 28.0622 7.99918C28.871 7.29666 29.3231 6.28657 29.3001 5.23373C29.3161 4.18673 28.8648 3.18413 28.0622 2.48387C27.269 1.73959 26.2022 1.3335 25.0988 1.35586H20.5225V14.3857H22.248ZM22.248 7.50837V2.95993V2.95889H25.1417C25.7867 2.9413 26.4084 3.19306 26.849 3.65025C27.2923 4.06836 27.5425 4.64266 27.5425 5.24246C27.5425 5.84227 27.2923 6.41657 26.849 6.83468C26.403 7.28225 25.7832 7.52681 25.1417 7.50837H22.248Z" fill="#5F6368"/>
<path fill-rule="evenodd" clip-rule="evenodd" d="M36.2966 6.17126C35.5585 5.51005 34.5518 5.17944 33.2764 5.17944C31.638 5.17944 30.4009 5.76164 29.5649 6.92604L31.0847 7.85445C31.6463 7.0657 32.409 6.67133 33.3728 6.67133C33.9874 6.66435 34.582 6.88225 35.0383 7.2816C35.4933 7.64648 35.755 8.19047 35.7511 8.7631V9.14568C35.088 8.78181 34.2442 8.59987 33.2196 8.59987C32.0192 8.60126 31.0596 8.87434 30.3409 9.41911C29.6221 9.96388 29.2627 10.6975 29.2627 11.62C29.247 12.46 29.6226 13.2621 30.2851 13.8033C30.9668 14.3855 31.8138 14.6766 32.8262 14.6766C34.0123 14.6766 34.9626 14.1672 35.6771 13.1483H35.7521V14.3855H37.4026V8.89097C37.4033 7.73905 37.0347 6.83248 36.2966 6.17126ZM31.6163 12.7479C31.2549 12.4952 31.0417 12.0885 31.044 11.6563C31.044 11.1708 31.2787 10.7663 31.7514 10.4337C32.2194 10.1058 32.8038 9.94191 33.5048 9.94191C34.4672 9.94191 35.2174 10.1498 35.7554 10.5657C35.7554 11.2685 35.4696 11.8808 34.898 12.4027C34.3832 12.9022 33.6852 13.1834 32.9571 13.1846C32.4716 13.1934 31.998 13.0391 31.6163 12.7479Z" fill="#5F6368"/>
<path fill-rule="evenodd" clip-rule="evenodd" d="M46.8771 5.47046L41.1153 18.3153H39.3341L41.4722 13.8209L37.6836 5.47046H39.5592L42.2975 11.8747H42.335L44.9983 5.47046L46.8771 5.47046Z" fill="#5F6368"/>
<path fill-rule="evenodd" clip-rule="evenodd" d="M15.2753 7.97199C15.276 7.46189 15.2315 6.95268 15.1424 6.44995H7.86523V9.33288H12.0333C11.8609 10.2633 11.3042 11.0851 10.4921 11.6076V13.479H12.9796C14.4361 12.1763 15.2753 10.2499 15.2753 7.97199Z" fill="#4285F4"/>
<path fill-rule="evenodd" clip-rule="evenodd" d="M7.86528 15.2867C9.94769 15.2867 11.7011 14.6234 12.9797 13.4798L10.4921 11.6084C9.79979 12.0638 8.90809 12.3237 7.86528 12.3237C5.85253 12.3237 4.14416 11.0075 3.53326 9.23389H0.970703V11.1624C2.28055 13.6908 4.94821 15.2866 7.86528 15.2867Z" fill="#34A853"/>
<path fill-rule="evenodd" clip-rule="evenodd" d="M3.53316 9.23398C3.2102 8.30459 3.2102 7.29812 3.53316 6.36872V4.44019H0.970607C-0.124968 6.55495 -0.124968 9.04775 0.970607 11.1625L3.53316 9.23398Z" fill="#FBBC04"/>
<path fill-rule="evenodd" clip-rule="evenodd" d="M7.86528 3.27891C8.96574 3.26147 10.0291 3.6648 10.8255 4.40172L13.0279 2.26525C11.6313 0.992808 9.78116 0.294214 7.86528 0.315921C4.94821 0.31605 2.28055 1.91182 0.970703 4.44019L3.53326 6.36873C4.14416 4.5951 5.85253 3.27891 7.86528 3.27891Z" fill="#EA4335"/>
</svg>
