<svg width="25" height="25" viewBox="0 0 25 25" fill="none" xmlns="http://www.w3.org/2000/svg">
<g clip-path="url(#clip0_171_4281)">
<path d="M5.54053 15.1078L4.67031 18.3565L1.4897 18.4237C0.53916 16.6607 0 14.6436 0 12.5C0 10.4272 0.504102 8.47252 1.39766 6.75137H1.39834L4.22998 7.27051L5.47041 10.0852C5.21079 10.842 5.06929 11.6545 5.06929 12.5C5.06938 13.4176 5.2356 14.2967 5.54053 15.1078Z" fill="#FBBB00"/>
<path d="M24.7812 10.1649C24.9248 10.921 24.9996 11.7019 24.9996 12.5C24.9996 13.3949 24.9055 14.2679 24.7263 15.1099C24.1178 17.9753 22.5278 20.4774 20.3252 22.248L20.3245 22.2473L16.7579 22.0653L16.2531 18.9142C17.7146 18.057 18.8568 16.7157 19.4585 15.1099H12.7744V10.1649H19.556H24.7812Z" fill="#518EF8"/>
<path d="M20.3244 22.2473L20.3251 22.2479C18.183 23.9698 15.4618 25 12.4996 25C7.73926 25 3.60054 22.3393 1.48926 18.4238L5.54009 15.1078C6.5957 17.9251 9.31343 19.9307 12.4996 19.9307C13.869 19.9307 15.1521 19.5604 16.253 18.9141L20.3244 22.2473Z" fill="#28B446"/>
<path d="M20.4785 2.87773L16.4291 6.19297C15.2896 5.48076 13.9428 5.06934 12.4998 5.06934C9.24155 5.06934 6.473 7.16685 5.47026 10.0852L1.39814 6.75137H1.39746C3.47783 2.74038 7.66875 0 12.4998 0C15.5328 0 18.3137 1.08037 20.4785 2.87773Z" fill="#F14336"/>
</g>
<defs>
<clipPath id="clip0_171_4281">
<rect width="25" height="25" fill="white"/>
</clipPath>
</defs>
</svg>
