<svg width="15" height="20" viewBox="0 0 15 20" fill="none" xmlns="http://www.w3.org/2000/svg">
<path d="M14.8665 4.99624L10.9776 1.10734C10.9047 1.03442 10.806 0.993408 10.7027 0.993408H2.536C1.6785 0.993408 0.980469 1.69104 0.980469 2.54898V18.1045C0.980469 18.9624 1.6785 19.6601 2.53604 19.6601H13.4249C14.2824 19.6601 14.9805 18.9624 14.9805 18.1045V5.27117C14.9805 5.16789 14.9395 5.06916 14.8665 4.99624ZM11.0916 2.32111L13.6528 4.88231H11.8693C11.4402 4.88231 11.0916 4.53329 11.0916 4.10454V2.32111ZM14.2027 18.1045C14.2027 18.5333 13.8541 18.8823 13.4249 18.8823H2.53604C2.10689 18.8823 1.75827 18.5333 1.75827 18.1045V2.54898C1.75827 2.12023 2.10692 1.77121 2.53604 1.77121H10.3138V4.10454C10.3138 4.96244 11.0118 5.66007 11.8694 5.66007H14.2027V18.1045Z" fill="#202223"/>
<path d="M12.2569 11.8823H3.7014C3.48644 11.8823 3.3125 12.0563 3.3125 12.2712C3.3125 12.4862 3.48644 12.6601 3.7014 12.6601H12.257C12.4719 12.6601 12.6459 12.4862 12.6459 12.2712C12.6458 12.0563 12.4719 11.8823 12.2569 11.8823Z" fill="#202223"/>
<path d="M12.2569 9.54907H3.7014C3.48644 9.54907 3.3125 9.72301 3.3125 9.93797C3.3125 10.1529 3.48644 10.3269 3.7014 10.3269H12.257C12.4719 10.3269 12.6459 10.1529 12.6459 9.93797C12.6458 9.72301 12.4719 9.54907 12.2569 9.54907Z" fill="#202223"/>
<path d="M12.2569 14.2156H3.7014C3.48644 14.2156 3.3125 14.3895 3.3125 14.6045C3.3125 14.8194 3.48644 14.9934 3.7014 14.9934H12.257C12.4719 14.9934 12.6459 14.8194 12.6459 14.6045C12.6458 14.3895 12.4719 14.2156 12.2569 14.2156Z" fill="#202223"/>
<path d="M8.36807 16.5491H3.7014C3.48644 16.5491 3.3125 16.723 3.3125 16.938C3.3125 17.1529 3.48644 17.3269 3.7014 17.3269H8.36807C8.58303 17.3269 8.75697 17.1529 8.75697 16.938C8.75693 16.723 8.58303 16.5491 8.36807 16.5491Z" fill="#202223"/>
<path d="M7.20312 7.60448C7.20312 7.81944 7.37707 7.99338 7.59203 7.99338H12.2587C12.4737 7.99338 12.6476 7.81944 12.6476 7.60448C12.6476 7.38952 12.4737 7.21558 12.2587 7.21558H7.59203C7.37707 7.21561 7.20312 7.38956 7.20312 7.60448Z" fill="#202223"/>
<path d="M4.47917 7.21565H3.7014C3.48644 7.21565 3.3125 7.38959 3.3125 7.60455C3.3125 7.81951 3.48644 7.99345 3.7014 7.99345H4.0903C4.0903 8.20841 4.26425 8.38235 4.4792 8.38235C4.69416 8.38235 4.8681 8.20841 4.8681 7.99345V7.92181C5.31975 7.7607 5.64583 7.33308 5.64583 6.82675C5.64583 6.1834 5.12251 5.66008 4.47917 5.66008C4.26497 5.66008 4.09027 5.48577 4.09027 5.27118C4.09027 5.05662 4.26497 4.88228 4.47917 4.88228H5.25693C5.47189 4.88228 5.64583 4.70834 5.64583 4.49338C5.64583 4.27842 5.47189 4.10448 5.25693 4.10448H4.86803C4.86803 3.88952 4.69409 3.71558 4.47913 3.71558C4.26417 3.71558 4.09023 3.88952 4.09023 4.10448V4.17612C3.63858 4.33723 3.3125 4.76485 3.3125 5.27118C3.3125 5.91452 3.83582 6.43785 4.47917 6.43785C4.69336 6.43785 4.86807 6.61215 4.86807 6.82675C4.86807 7.04134 4.69336 7.21565 4.47917 7.21565Z" fill="#202223"/>
</svg>
