<svg width="202" height="41" viewBox="0 0 202 41" fill="none" xmlns="http://www.w3.org/2000/svg">
<path fill-rule="evenodd" clip-rule="evenodd" d="M6.48341 2.03772H17.3413L17.5871 28.7922C17.5871 28.7922 17.6636 35.2561 13.7849 38.4233C10.7794 40.8759 7.3771 41.0548 4.58285 40.5708C1.81016 40.0932 0.289062 38.9753 0.289062 38.9753V29.7722C0.289062 29.7722 1.27007 30.5699 2.61868 31C3.96837 31.4291 4.85559 31.7687 6.05436 30.571C6.66776 29.9587 6.60739 27.9956 6.60739 27.9956L6.48341 2.03772ZM18.0442 27.8727C18.0442 27.8727 16.5317 40.9395 31.4193 40.9395C45.1674 40.9395 44.4214 28.5863 44.4214 27.38C44.4214 26.1759 44.2996 1.98059 44.2996 1.98059H33.4406L33.5031 26.8281C33.5031 26.8281 33.8082 30.6939 31.1713 30.6939C28.5345 30.6939 28.9032 27.0749 28.9032 27.0749L28.7188 2.04311H17.8598L18.0442 27.8727ZM65.2899 13.3344L65.222 3.57715C65.222 3.57715 60.65 1.23998 55.8032 1.23998C49.2035 1.23998 46.419 6.11913 46.419 6.11913C46.419 6.11913 43.891 9.63998 44.7653 14.3035C45.3442 17.3878 46.4998 19.063 49.0062 21.5317C50.149 22.6583 52.3309 24.423 52.9098 25.0019C53.4887 25.5808 55.4938 26.8291 55.1747 28.9054C54.9677 30.2616 54.212 31.1984 51.6571 31.1229C48.4284 31.0259 44.6693 27.8932 44.6693 27.8932L44.7178 37.8692C44.7178 37.8692 49.0073 40.9912 53.5846 40.905C58.6923 40.8079 61.1502 39.1219 62.8373 37.7722C65.3599 35.7552 67.3187 31.4118 66.645 26.6405C65.9701 21.8691 61.6817 18.7375 60.4765 17.7252C59.2712 16.7129 56.5729 14.738 56.091 13.6287C55.6092 12.5205 56.5244 10.7374 57.5367 10.593C58.549 10.4485 60.2296 9.62381 65.2899 13.3344ZM65.7071 11.6246H72.0955V40.0673H82.8984V11.6246H88.9752V2.02263H65.7071V11.6246ZM171.728 11.6246H178.116V40.0673H188.919V11.6246H194.996V2.02263H171.728V11.6246ZM96.4028 40.1374H108.257C110.716 40.1374 123.438 39.5607 123.438 20.4127C123.438 1.69922 109.415 2.06144 109.415 2.06144H96.4751L96.4028 40.1374ZM107.39 12.1744C107.39 12.1744 108.91 12.03 109.559 12.3922C110.211 12.7533 112.235 13.909 112.235 21.4951C112.235 29.0833 110.571 30.0244 109.487 30.6012C108.402 31.1779 107.318 30.8901 107.318 30.8901L107.39 12.1744ZM138.331 0.975865C138.331 0.975865 123.8 0.470271 123.8 20.5572C123.8 42.3053 138.331 40.8586 138.331 40.8586C138.331 40.8586 153.366 42.8109 153.366 20.9905C153.366 -0.829831 138.331 0.975865 138.331 0.975865ZM138.402 10.3687C139.414 10.3687 141.872 9.64753 141.872 20.9916C141.872 32.1169 138.981 31.1046 138.474 31.1046C137.968 31.1046 134.933 31.829 134.933 21.0638C134.932 10.0076 137.389 10.3687 138.402 10.3687ZM160.088 40.0652H171.003V2.06036H159.943L160.088 40.0652ZM189.804 34.7936C189.804 37.8002 192.278 40.8909 195.847 40.8909C198.969 40.8909 201.974 38.6713 201.974 34.7656C201.974 31.9552 199.614 28.7232 195.847 28.7232C193.036 28.7232 189.804 30.999 189.804 34.7936Z" fill="#202223"/>
</svg>
