<svg width="54" height="44" viewBox="0 0 54 44" fill="none" xmlns="http://www.w3.org/2000/svg">
<path fill-rule="evenodd" clip-rule="evenodd" d="M40.6606 18.7759C40.5022 18.7759 40.0733 18.8211 39.8249 18.8661C39.7791 19.0019 39.1245 19.2955 39.2824 20.1091C39.395 20.6064 39.6439 20.9679 39.5308 21.0582C39.2145 21.2389 38.763 20.9227 38.356 20.7645C37.9497 20.5611 37.3174 20.2899 36.9101 20.8098C36.5486 21.3068 37.7913 21.2389 38.8532 21.8038C39.6442 22.2109 40.1865 22.1204 41.4515 22.2562C42.7169 22.3461 42.7842 21.8038 42.9873 21.8267C43.1689 21.872 43.101 22.3688 43.6883 22.5498C43.9593 22.6177 44.5692 22.2782 44.6821 22.3235C44.8631 22.3461 44.8631 22.7082 45.292 22.8887C45.7666 23.0245 45.9024 22.7534 46.0603 22.6856C46.1961 22.6177 46.2187 22.9566 46.4897 23.0245C46.7607 23.0697 47.1675 23.0471 47.3709 23.0697C47.5287 23.1376 47.3709 23.3407 47.8229 23.4086C48.2292 23.4765 48.3649 23.2502 48.5681 23.3181C48.7265 23.386 48.9301 23.838 49.7881 23.7701C50.3307 23.7249 50.1954 23.386 50.0591 23.1376C49.9007 22.8887 48.7265 22.6856 46.8286 22.0075C43.6207 20.9003 42.7619 21.1716 42.0843 19.8607C41.8133 19.3184 41.6555 19.0245 41.6102 18.844C41.4289 18.7985 41.09 18.8214 40.6606 18.7759Z" fill="#CC2229"/>
<path d="M51.4596 22.4145C51.3232 22.324 50.8717 22.7539 50.6912 22.686C50.4876 22.6181 50.3297 22.3466 50.1713 22.2787C49.9682 22.2114 49.8551 22.324 49.6519 22.2787C49.4935 22.2566 49.6067 22.0077 49.4709 21.9398C49.2899 21.8725 49.1994 22.053 48.9962 21.9851C48.8378 21.9398 48.7252 21.6464 48.5895 21.5786C48.4316 21.5336 48.3863 21.7364 48.2058 21.6688C47.9569 21.5786 47.889 21.3975 47.7312 21.3299C47.5954 21.2394 47.3018 21.5104 47.0986 21.3975C46.895 21.3073 46.895 20.6066 46.7592 20.5387C46.6013 20.4711 46.104 21.036 45.9009 20.9005C45.7199 20.8102 45.7878 20.2901 45.6294 20.1998C45.4941 20.1093 44.8842 20.6292 44.7258 20.5613C44.5906 20.4934 44.5674 20.2224 44.3643 20.1998C44.1833 20.1772 43.867 20.4258 43.6639 20.3579C43.2571 20.1998 42.7601 20.2677 42.1502 18.8213C42.0823 18.6406 41.9471 18.5274 41.8113 18.5953C41.4498 18.7308 41.5855 18.8663 42.0823 19.8609C42.7601 21.1718 43.6186 20.9005 46.8265 22.0077C48.7244 22.686 49.8987 22.8889 50.0571 23.1378C50.1934 23.3862 50.3286 23.7251 49.7861 23.7703C48.9278 23.8382 48.7244 23.3862 48.566 23.3183C48.3629 23.2504 48.2271 23.4767 47.8209 23.4088C47.3688 23.3409 47.5267 23.1378 47.3688 23.0699C47.1652 23.0473 46.7584 23.0699 46.4877 23.0246C46.2166 22.9568 46.194 22.6179 46.0582 22.6858C45.9004 22.7536 45.7646 23.0246 45.2899 22.8889C44.8611 22.7084 44.8611 22.3463 44.68 22.3237C44.5669 22.2784 43.957 22.6179 43.6862 22.55C43.099 22.3689 43.1669 21.8722 42.9853 21.8269C42.7822 21.8043 42.7148 22.3463 41.4495 22.2563C40.1847 22.1206 39.6421 22.2111 38.8512 21.804C37.7895 21.2391 36.5466 21.307 36.9081 20.81C37.3154 20.2901 37.9477 20.5613 38.3539 20.7647C38.7612 20.9229 39.2127 21.2391 39.5287 21.0584C39.6419 20.9681 39.393 20.6066 39.2803 20.1093C39.1225 19.2281 39.8908 18.9568 39.8229 18.8213C39.7098 18.6629 39.2803 18.4372 38.2413 18.5953C37.5409 18.7082 36.185 19.7704 35.8461 19.9288C35.5072 20.1319 34.1072 20.8779 33.3384 19.7704C32.5706 18.6406 33.271 17.4881 33.5873 17.1266C33.8809 16.7651 34.3782 16.4938 34.5585 16.7651C34.8074 17.1945 34.2196 17.3073 33.9712 17.6013C33.7449 17.8952 33.3839 18.8895 33.7901 19.3415C34.2196 19.7933 35.0102 19.8386 35.9138 19.1608C36.6594 18.5958 37.8795 17.8046 39.0764 17.8954C40.2965 17.9628 40.9296 18.528 41.1101 18.5735C41.2911 18.5958 41.449 18.1893 41.6973 18.0988C41.8784 18.0309 42.1267 18.257 42.2846 18.1891C42.4204 18.0988 42.5788 17.737 42.7593 17.6691C42.9629 17.6013 43.4602 17.9401 43.6181 17.8273C43.7539 17.7594 43.7312 17.3302 43.957 17.3076C44.1827 17.2624 44.5669 17.6691 44.7253 17.6013C44.9284 17.4884 44.9284 17.2621 45.1315 17.2621C45.2899 17.2621 45.6515 17.8046 45.8325 17.7594C45.9677 17.737 45.923 17.1947 46.1261 17.1269C46.3293 17.059 46.8492 17.4884 47.0299 17.4205C47.1652 17.3529 47.1878 16.6972 47.4362 16.5617C47.6625 16.4714 47.8882 16.8329 48.024 16.7651C48.205 16.6972 48.3176 15.9512 48.5213 15.9289C48.7018 15.9062 49.0633 16.132 49.2212 16.087C49.3569 16.0644 49.2891 15.3866 49.5601 15.2508C49.8316 15.1606 50.1705 15.59 50.261 15.5676C50.3963 15.5224 50.4641 15.1606 50.5999 15.1379C50.7578 15.0927 51.1646 15.4316 51.3682 15.3866C51.5261 15.3187 51.4587 14.8217 51.6392 14.7988C51.775 14.7535 52.3397 14.8667 52.2944 14.2339C52.2718 13.6011 51.4587 12.9909 50.6907 12.9909C49.2896 12.9909 47.889 13.6011 46.6913 13.8271C45.4944 14.0305 43.0319 14.7535 42.4215 14.8669C41.8116 14.9572 41.224 14.6183 41.7663 14.1886C42.1957 13.7818 42.4215 14.0984 42.4215 13.9628C42.4215 13.8271 42.1504 13.6916 41.7663 13.6237C41.3595 13.5561 40.8854 13.9628 40.3657 13.895C39.8463 13.8271 39.3267 13.4206 38.762 13.5334C37.3841 13.6916 37.1804 14.302 36.48 14.5501C35.7796 14.8217 35.2599 14.6183 34.8758 14.6633C33.9273 14.7988 33.5884 15.364 32.888 15.2958C32.0518 15.2279 31.6452 14.7535 30.7417 14.5046C29.8829 14.2336 28.2339 13.9849 27.8495 13.8494C27.4433 13.691 25.6586 13.2616 25.2291 13.2166C24.7547 13.1487 24.5287 13.2843 24.3256 13.2843C24.0993 13.2843 23.8057 13.1487 23.4894 13.1261C23.1955 13.0809 22.7211 13.0585 22.5183 13.1261C22.3383 13.2172 22.2707 13.2172 22.022 13.1493C21.8189 13.1267 21.0732 12.9912 20.757 13.0364C20.3049 13.059 20.1242 13.3527 19.7855 13.3979C19.4693 13.4206 19.153 13.2622 18.7918 13.33C18.4305 13.3979 18.1366 13.5334 17.8203 13.6237C17.5267 13.7368 16.9844 13.6689 16.736 13.6913C16.0582 13.8497 15.9677 14.1886 15.7193 14.1886C15.4933 14.1886 14.6803 14.0531 14.4317 14.1886C14.1604 14.3017 13.9346 14.5049 13.7312 14.5275C13.4829 14.5499 12.579 14.6859 12.0141 14.618C11.6979 14.5954 11.1556 14.8667 10.9298 14.9343C10.6588 15.0022 10.026 15.0022 9.84526 14.6859C9.6645 14.3017 10.1615 13.7368 10.9977 13.0588C11.5624 12.6291 14.7479 10.3918 19.9213 9.55587C23.9654 8.87808 28.6868 7.18307 29.6811 6.14348C30.1105 5.71407 31.85 4.24508 32.2789 3.34127C32.7083 2.43719 32.8435 1.91753 32.6178 1.94016C32.392 2.00805 32.121 2.48245 31.6916 2.64058C31.2848 2.77609 30.9233 2.55034 30.6073 2.68584C30.3136 2.77609 29.9747 3.25075 29.6588 3.27338C29.3199 3.31837 29.1841 3.02473 28.9352 3.13761C28.6868 3.31837 28.2805 3.61255 28.009 3.67989C27.4444 3.77041 27.4217 3.11525 26.9021 3.38626C26.3598 3.65727 25.9759 4.10957 25.4339 4.22245C24.9366 4.29034 25.0042 3.90618 24.6656 3.90618C24.123 3.90618 23.6039 4.65213 23.3553 4.65213C23.1069 4.65213 22.9032 4.24508 22.5872 4.29061C22.2933 4.31297 21.3671 5.01365 21.0056 5.1268C20.6215 5.19468 20.5538 4.60714 20.2373 4.6524C19.8534 4.67503 19.153 5.35309 18.7689 5.4436C18.3623 5.51122 18.1363 5.24021 17.8653 5.24021C17.5943 5.24021 16.7584 5.9409 16.3516 6.05378C15.7643 6.18928 15.7191 5.44387 15.0865 5.48886C14.6348 5.51149 14.1601 6.12193 13.7991 6.14429C13.4147 6.18928 13.2566 5.89564 12.8274 5.98616C12.353 6.12166 11.4269 6.75419 11.1103 6.82235C10.8167 6.89024 10.5907 6.70947 10.2291 6.82235C9.55135 7.02574 8.91909 7.92982 8.48941 8.15584C8.01528 8.42685 7.67638 8.29134 7.42774 8.44948C6.97597 8.76574 6.90808 9.39854 6.47867 9.57958C6.09505 9.78297 6.11741 9.48906 5.75562 9.71481C5.14599 10.1666 5.37201 10.6641 5.19124 10.8902C5.01048 11.1159 4.51319 11.2967 4.21955 11.6585C3.92564 11.9974 3.92564 12.201 3.81277 12.427C3.67753 12.6531 3.15788 13.3309 3.04473 13.6248C2.97738 13.9176 3.11262 14.2339 2.97738 14.4599C2.88714 14.6633 2.68375 15.0024 2.57087 15.2508C2.39011 15.8386 2.63876 16.4262 2.61613 16.6522C2.57087 16.8553 2.34485 17.1945 2.34485 17.4658C2.34485 17.737 2.61613 18.2567 2.54824 18.6632C2.48062 19.0702 1.6447 21.7593 2.1191 22.9797C2.63876 24.245 3.40679 24.9233 3.6778 24.8102C3.97144 24.7197 3.79068 24.1771 4.08431 23.6806C4.37795 23.2054 4.71685 22.6184 4.98812 23.0249C5.21387 23.4091 4.44584 23.4091 4.37795 24.5165C4.2877 25.5782 4.42294 25.1264 4.37795 25.443C4.35532 25.7819 3.67753 26.4147 3.67753 26.7083C3.67753 27.0246 3.74542 27.8158 4.73921 28.652C5.34938 29.194 5.48488 29.5558 5.64275 29.5784C5.77825 29.6237 5.91402 28.9453 6.20766 28.8096C6.61444 28.6285 7.49535 29.42 7.65349 29.3974C7.85688 29.3295 7.92449 28.2447 8.28602 28.0415C8.64781 27.8831 9.52899 28.5841 9.70975 28.4936C9.89025 28.3578 9.68685 27.6797 9.77737 27.4087C9.89025 27.1604 10.3873 27.0925 10.2291 26.6404C10.0936 26.1884 10.0257 25.3072 8.42206 25.1941C7.94739 25.1488 7.2925 25.0815 7.72164 24.5842C8.21867 24.0869 8.76069 22.2563 7.58587 20.8329C7.08911 20.2224 5.95928 20.5613 5.64301 20.6971C5.07837 20.9005 4.51346 21.6464 4.2877 21.4431C4.08431 21.2397 4.73947 20.4035 5.75589 20.1096C6.74995 19.793 8.01528 19.8612 8.51231 21.1039C9.39322 23.273 8.51231 24.2903 8.62545 24.5163C8.76069 24.742 9.25771 24.4936 9.95813 24.9231C10.9522 25.5782 10.8167 26.1431 11.0651 26.3468C11.2908 26.5273 12.4883 26.6178 13.5955 26.6857C14.725 26.7536 15.9675 27.0472 16.4871 26.7536C17.323 26.3242 17.3907 24.7194 19.3335 23.544C20.3049 22.9568 21.5926 22.3692 23.0385 22.6179C24.6427 22.8436 24.6653 23.0699 24.5295 23.273C24.5069 23.3862 24.4622 23.544 24.4393 23.5219C23.671 23.1152 22.5643 23.0699 21.8863 23.2051C20.8922 23.3862 19.1977 23.6577 17.9553 25.8269C16.7352 27.9963 18.7007 28.0189 18.9041 28.0868C19.1301 28.1773 19.4916 28.2899 19.469 28.923C19.4238 29.5561 19.6271 29.9173 19.8532 30.3241C20.1242 30.6856 20.5536 30.9793 20.5536 30.9793C20.5536 30.9793 20.8696 30.2562 21.2314 30.0981C21.5929 29.8949 22.022 30.2565 22.2254 30.4828C22.858 31.2963 22.5872 29.7818 23.0387 29.6239C23.6941 29.4203 23.9423 30.3922 24.3041 30.2112C24.9592 29.9176 24.5977 29.4655 25.0724 29.2848C25.5691 29.149 25.863 29.5563 26.0661 29.4205C26.2919 29.2621 26.2695 27.8616 25.8401 27.2964C25.3657 26.7086 24.6656 25.7143 23.1742 25.7143C21.7058 25.7143 21.2314 25.5111 21.299 25.217C21.3669 24.9233 21.6605 24.7197 22.022 24.8554C22.5872 25.0586 22.6546 25.0133 23.5581 25.0586C24.8684 25.0817 24.5748 25.6464 25.6594 26.1208C26.4729 26.4597 27.5346 25.8945 28.8449 26.1208C30.1776 26.3471 31.2848 26.5954 32.5043 26.5275C34.8095 26.4597 37.3623 25.4432 37.859 25.3754C38.379 25.2848 38.65 25.3527 38.65 25.1943C38.65 25.0586 36.4132 24.7197 36.5484 24.1774C36.7295 23.658 37.7912 24.0874 39.2596 24.4263C40.7281 24.7426 43.8681 25.0136 45.0884 24.9462C46.399 24.9236 48.6352 25.5114 50.4652 25.082C51.3917 24.8557 52.2726 24.2905 52.3631 23.6583C52.4762 23.0246 51.64 22.5502 51.4596 22.4145ZM38.8528 14.6633C39.2143 14.5954 39.8471 14.7535 39.689 15.1603C39.5532 15.5673 39.4859 15.4992 39.1917 15.5673C38.8981 15.6347 38.2882 15.7026 38.13 15.4313C37.9943 15.1603 38.4463 14.7535 38.8528 14.6633ZM29.6585 4.24508C29.8842 4.35822 29.9069 4.67476 29.8842 4.87815C29.8163 5.05891 29.7037 5.23967 29.5906 5.23967C29.4096 5.23967 29.4096 4.99102 29.3422 4.74238C29.2738 4.53899 29.4096 4.10957 29.6585 4.24508ZM27.5801 4.87788C28.0543 4.99075 27.8738 5.42044 27.7832 5.91746C27.7154 6.25636 27.4217 6.34687 27.3765 6.41449C27.2183 6.7084 27.1733 5.42043 27.1733 5.42043C27.1733 5.42043 27.3088 4.80999 27.5801 4.87788ZM25.2755 5.23967C25.4562 5.21704 25.7728 5.91773 25.5917 6.5279C25.3886 7.11545 25.14 7.11545 25.14 7.11545C25.14 7.11545 25.0724 6.46002 25.0042 6.39213C24.9366 6.27899 24.8011 5.35255 25.2755 5.23967ZM23.1969 5.57857C23.6265 5.42044 23.7397 6.39213 23.536 6.88943C23.3553 7.40909 23.3553 7.72562 23.0387 7.52196C22.6546 7.3412 22.9711 6.70867 22.858 6.5279C22.7225 6.2111 22.8356 5.75933 23.1969 5.57857ZM20.8925 6.12112C21.4348 6.05324 21.3669 6.91179 21.2314 7.38673C21.0732 7.81587 20.9604 8.01926 20.7346 7.95164C20.486 7.86112 20.8022 7.29594 20.6667 7.04756C20.486 6.82154 20.5988 6.14348 20.8925 6.12112ZM18.5205 6.55026C18.8367 6.61788 19.0628 7.09255 18.9046 7.74798C18.7691 8.42604 18.5657 8.58417 18.385 8.58417C18.2042 8.58417 18.4526 7.52196 18.2945 7.52196C18.159 7.52196 18.1366 6.48238 18.5205 6.55026ZM16.1935 7.3412C16.3969 7.3412 16.8486 7.72535 16.6226 8.42604C16.3969 9.14909 16.3969 9.08147 16.1935 9.14909C15.9675 9.19434 16.1259 8.71968 15.9901 8.44867C15.8319 8.22238 15.6286 7.31857 16.1935 7.3412ZM14.0925 8.08714C14.4993 8.06452 14.6574 8.92334 14.5669 9.28459C14.4993 9.64611 14.3635 10.0984 14.1151 10.0305C13.8891 9.98555 14.1601 9.33012 13.957 9.33012C13.7989 9.32985 13.4826 8.10977 14.0925 8.08714ZM12.7595 10.5502C12.4885 11.0475 12.5109 11.0475 12.3304 11.0475C12.1496 11.0475 12.2625 10.3244 12.0594 10.3244C11.8786 10.3244 11.7205 9.26223 12.2851 9.21697C12.895 9.19434 12.9177 10.1887 12.7595 10.5502ZM11.856 7.16044C11.9915 7.16044 12.3304 7.38646 12.0141 7.72535C11.7205 8.06425 11.6979 8.29027 11.4269 8.15476C11.1556 8.06452 11.4266 7.18306 11.856 7.16044ZM4.17456 14.3017C4.35505 14.3017 4.58134 14.7535 4.55871 14.9345C4.51346 15.07 4.4911 15.2961 4.21982 15.364C3.97144 15.4313 3.88119 15.0251 3.88119 14.9572C3.85856 14.8669 3.79068 14.2565 4.17456 14.3017ZM4.44584 17.2618C4.31033 17.2618 4.15193 17.2618 4.03906 17.1718C3.97117 17.0587 3.5194 16.6069 3.85829 16.1546C3.88092 16.087 4.44584 16.4712 4.55871 16.7198C4.6266 16.9003 4.6266 17.2618 4.44584 17.2618ZM4.91997 13.4879C4.85208 13.6008 4.67159 13.6687 4.55871 13.6008C4.37795 13.4879 4.37795 13.1264 4.44584 13.0588C4.49083 13.0361 4.51346 12.4936 4.87471 12.5612C5.05547 12.5838 4.85208 13.0359 4.87471 13.0811C4.91997 13.1493 5.01048 13.3977 4.91997 13.4879ZM19.9663 15.7931C19.9889 15.635 20.2373 15.4995 20.486 15.5673C20.8022 15.5897 21.1638 15.861 21.0961 16.0644C21.0735 16.2678 20.7346 16.4259 20.3957 16.2678C20.1018 16.132 19.8987 15.9965 19.9663 15.7931ZM20.4181 17.2618C20.6215 17.2395 21.1638 17.1945 21.1185 17.4881C21.0961 17.7591 20.9604 17.827 20.5312 17.8949C20.1018 17.9622 19.8308 17.6915 19.8308 17.556C19.8534 17.33 20.1923 17.3073 20.4181 17.2618ZM19.2885 14.1662C19.5369 14.1662 19.7629 14.3694 19.695 14.5275C19.6274 14.6859 19.6048 14.889 19.153 14.7988C18.9949 14.7309 18.7915 14.5049 18.7915 14.3694C18.7918 14.0984 19.0628 14.121 19.2885 14.1662ZM16.8486 14.7309C16.8936 14.5049 17.323 14.4599 17.5264 14.5501C17.7524 14.6633 17.8879 14.9572 17.7524 15.0927C17.5943 15.2058 17.4362 15.1606 17.1649 15.0927C16.8939 15.0248 16.8263 14.9569 16.8486 14.7309ZM16.555 15.7707C16.8939 15.7707 17.3004 16.0191 17.1196 16.1999C16.9841 16.3354 16.8486 16.4259 16.4871 16.4259C16.1256 16.4259 15.9901 16.2904 15.9901 16.087C15.9901 15.9062 16.2161 15.7255 16.555 15.7707ZM15.9675 17.2618C16.3516 17.1945 16.6226 17.4202 16.6003 17.6236C16.6003 17.827 16.2614 18.0078 16.0353 18.0078C15.7643 18.0078 15.3802 17.9399 15.3349 17.6236C15.2899 17.3526 15.7643 17.3073 15.9675 17.2618ZM14.9284 19.07C14.8608 18.8666 15.3349 18.7761 15.5609 18.7308C15.7643 18.7082 16.1935 18.7987 16.1259 19.0021C16.0582 19.1602 15.9225 19.3636 15.5609 19.3636C15.1994 19.3413 14.996 19.2281 14.9284 19.07ZM15.4931 20.3353C15.4254 20.6292 15.1544 20.6742 14.951 20.6968C14.725 20.7421 14.3635 20.6968 14.3635 20.4711C14.3635 20.2224 14.68 20.0417 14.8608 19.9738C15.2223 19.9064 15.5609 20.1093 15.4931 20.3353ZM14.4993 14.7988C14.6345 14.8214 15.0639 14.9343 15.0865 15.1377C15.0865 15.2958 15.1994 15.5218 14.725 15.5218C14.2959 15.5218 14.1151 15.4539 14.0246 15.2279C13.8891 14.9569 14.3635 14.7535 14.4993 14.7988ZM14.4314 16.4033C14.8832 16.4938 14.951 16.4938 14.996 16.6969C15.0187 16.9003 14.68 17.0358 14.2956 17.1037C13.8888 17.1716 13.6631 16.9908 13.5499 16.7874C13.4826 16.6069 13.9796 16.3354 14.4314 16.4033ZM13.6633 18.2564C13.8891 18.2338 14.1601 18.324 14.1601 18.5729C14.1151 18.7761 13.9796 18.8666 13.7536 18.9571C13.5502 19.07 13.0984 18.8892 13.0305 18.7311C12.9627 18.573 13.4147 18.3017 13.6633 18.2564ZM13.2563 20.1319C13.2563 20.3353 12.8498 20.4934 12.6464 20.5387C12.4883 20.5613 12.3528 20.6968 12.2173 20.5613C12.0591 20.4258 12.0817 20.2901 12.1946 20.1998C12.2622 20.1093 12.6917 19.9062 12.7822 19.8609C12.9627 19.793 13.2792 19.9738 13.2563 20.1319ZM12.3304 15.3184C12.6919 15.3184 12.8501 15.5218 12.9179 15.7026C12.9629 15.8607 12.9179 15.951 12.8274 16.0188C12.7598 16.0867 12.353 16.0641 12.127 15.9286C11.8107 15.7707 11.9236 15.3184 12.3304 15.3184ZM10.523 10.3244C11.0201 10.2792 11.1103 10.9572 10.9974 11.5674C10.8167 12.1547 10.7488 12.1547 10.523 12.0873C10.3197 12.0195 10.523 11.6803 10.3873 11.5222C10.2291 11.3867 9.95813 10.3468 10.523 10.3244ZM10.1613 7.79324C10.6133 7.72562 10.4552 8.29053 10.3646 8.44867C10.2291 8.65206 10.3873 8.9457 10.0936 8.92307C9.77737 8.87808 9.82263 8.49366 9.77737 8.29027C9.75474 8.06451 9.89052 7.8156 10.1613 7.79324ZM8.55756 9.82715C8.64781 9.69164 8.7157 9.35275 9.00933 9.33012C9.21246 9.28486 9.14484 9.84977 9.12221 10.1211C9.12221 10.3921 9.1901 10.7312 8.82857 10.5957C8.44442 10.4599 8.44442 9.98528 8.55756 9.82715ZM7.15673 9.89476C7.22434 9.89476 7.22434 9.84951 7.22434 9.84951C7.22434 9.84951 7.54061 9.32985 7.85688 9.48798C7.99238 9.51061 7.65349 10.1658 7.6085 10.2792C7.54088 10.4599 7.31486 10.5955 7.11147 10.4147C6.90835 10.2113 7.08911 9.89476 7.15673 9.89476ZM6.20793 11.0925C6.38869 11.1604 6.20793 11.7479 6.14004 12.0189C6.11768 12.2902 5.91429 12.4257 5.7109 12.3578C5.50751 12.3355 5.62066 11.8605 5.5525 11.8605C5.50751 11.8158 5.77852 11.0249 6.20793 11.0925ZM5.5525 15.59C5.68827 15.635 5.7109 15.9062 5.7109 15.9512C5.7109 16.0644 5.84641 16.132 5.91429 16.3354C5.95928 16.4938 5.84641 16.6519 5.68854 16.6969C5.50778 16.6969 5.34965 16.358 5.34965 16.358C5.34965 16.4033 5.21387 15.5673 5.5525 15.59ZM6.11768 18.3693C5.98191 18.4598 5.82405 18.5274 5.62066 18.5048C5.41726 18.4372 5.19151 18.0983 5.37228 17.8949C5.5525 17.7368 5.82405 17.8723 5.95928 17.9622C6.09505 18.0759 6.25319 18.2564 6.11768 18.3693ZM6.1853 14.5501C5.91429 14.5049 6.02717 13.9852 5.98191 13.9852C5.98191 13.9852 6.25319 13.059 6.5242 13.2172C6.72759 13.3527 6.61471 13.9628 6.59208 14.2565C6.54682 14.5275 6.41132 14.6183 6.1853 14.5501ZM6.68206 16.2678C6.59208 16.2225 6.47867 15.6347 6.88545 15.5897C7.04358 15.5897 7.31486 15.906 7.31486 16.0867C7.29223 16.2901 7.35985 16.5614 6.97597 16.5385C6.61471 16.4938 6.74995 16.2904 6.68206 16.2678ZM7.65376 19.1605C7.51852 19.1605 7.24697 19.1381 7.08911 18.8892C6.95361 18.7085 6.90835 18.3922 7.08911 18.3017C7.22461 18.2338 7.58587 18.4598 7.74427 18.7761C7.92476 19.07 7.74427 19.1605 7.65376 19.1605ZM8.12815 18.0304C7.94739 18.008 7.74427 17.9399 7.58587 17.7368C7.428 17.556 7.428 17.1718 7.67638 17.1266C8.06027 17.0587 8.28602 17.3979 8.42206 17.6915C8.51231 18.0078 8.2413 18.0304 8.12815 18.0304ZM8.48941 16.4259C8.30865 16.4259 8.21867 16.358 8.12815 16.2225C7.99265 16.132 7.94739 15.7255 8.30865 15.7255C8.48941 15.7255 8.76069 15.861 8.78305 16.0644C8.82857 16.2904 8.64781 16.4033 8.48941 16.4259ZM8.82857 11.8608C9.07695 11.8608 9.52926 12.1321 9.39322 12.923C9.21246 13.6913 9.12221 13.4203 8.96408 13.4653C8.82857 13.5332 8.91909 13.0361 8.82857 12.923C8.64781 12.7196 8.21867 11.8608 8.82857 11.8608ZM9.28034 19.296C9.12221 19.2281 8.91909 19.1379 8.89619 18.8892C8.82857 18.6632 9.07695 18.5956 9.28034 18.6408C9.52899 18.6632 9.70975 18.8666 9.70975 19.025C9.70975 19.2281 9.41585 19.3413 9.28034 19.296ZM9.70975 17.7368C9.59661 17.7591 9.52899 17.827 9.28034 17.7591C9.05459 17.6689 8.57992 17.1718 9.00933 16.9003C9.14484 16.7874 9.6645 16.9229 9.77764 17.3071C9.95813 17.6236 9.84499 17.6689 9.70975 17.7368ZM9.75474 16.1999C9.68685 16.132 9.82236 15.7707 10.1839 15.861C10.523 15.9289 10.6133 16.1546 10.5907 16.358C10.523 16.5614 10.297 16.5614 10.116 16.5388C9.95813 16.4938 9.84499 16.2678 9.75474 16.1999ZM11.1103 20.1319C10.9974 20.1998 10.7488 20.2677 10.4099 20.2224C10.116 20.1998 10.0484 20.1093 10.1613 19.9288C10.297 19.7704 10.3873 19.7254 10.6586 19.6349C10.9296 19.522 11.2461 19.6573 11.314 19.7704C11.3813 19.8609 11.2458 20.1093 11.1103 20.1319ZM11.5621 18.6629C11.3813 18.7761 10.9974 18.6629 10.8843 18.3919C10.7941 18.0983 10.9522 18.0301 11.0877 17.9622C11.2458 17.9396 11.6297 18.1206 11.6979 18.3693C11.7205 18.5274 11.7205 18.5729 11.5621 18.6629ZM11.9236 17.3526C11.7655 17.3526 11.1779 17.2618 11.2911 16.9682C11.3587 16.6519 11.6979 16.6519 11.8786 16.6969C11.9915 16.6969 12.4659 16.855 12.353 17.1263C12.2851 17.4202 12.0817 17.33 11.9236 17.3526ZM17.1196 22.6858C17.1196 22.8436 17.0294 22.9568 16.8939 22.9568C16.7358 22.9568 16.284 22.8436 16.058 23.0246C15.832 23.1825 15.6964 23.4767 15.7191 23.6803C15.7643 23.8382 15.7643 24.0871 15.6515 24.1545C15.5612 24.245 15.1318 24.0871 14.951 24.1092C14.7929 24.1092 14.228 24.245 14.0925 24.5392C13.9344 24.8102 14.0475 25.0133 13.957 25.0817C13.8667 25.1943 13.731 25.2396 13.5955 25.2396C13.46 25.2848 12.8498 25.1943 12.7595 25.2848C12.624 25.3754 12.2851 25.7821 12.1946 25.6464C12.0817 25.5111 11.9236 25.5785 12.2173 25.0817C12.3528 24.8554 12.7143 24.6071 12.7595 24.6071C12.7822 24.6071 13.2339 24.6518 13.3245 24.5844C13.4147 24.4939 13.686 23.9514 13.7991 23.8382C14.2509 23.4767 14.2283 23.6125 14.3638 23.544C14.4995 23.5219 14.9513 23.6125 14.9963 23.5219C15.0642 23.3862 15.3352 22.8889 15.5612 22.6858C15.8548 22.4142 16.3295 22.3689 16.3971 22.3237C16.4195 22.2563 16.5326 22.0753 16.6005 21.9395C16.6908 21.804 17.0976 21.4651 17.3686 21.533C17.5041 21.578 17.0297 22.2111 17.0297 22.3463C16.9841 22.4824 17.1196 22.505 17.1196 22.6858ZM17.4585 20.765C17.1196 20.8329 16.7581 20.8102 16.7355 20.6295C16.6902 20.4937 16.8034 20.2903 17.0291 20.2001C17.2325 20.1096 17.4356 20.1774 17.5938 20.1774C17.7293 20.1774 18.0684 20.1774 18.0232 20.2903C18.0008 20.4032 17.7974 20.6971 17.4585 20.765ZM17.9332 19.2281C17.5491 19.2734 17.1878 19.1605 17.2328 19.0024C17.3004 18.8216 17.5264 18.6632 17.8653 18.6632C18.2042 18.6408 18.4302 18.7311 18.4302 18.8892C18.4302 19.025 18.2945 19.2058 17.9332 19.2281ZM18.7012 17.3979C18.6336 17.6689 18.4979 17.7368 18.2495 17.7591C18.0008 17.7591 17.5038 17.6915 17.5038 17.3073C17.5038 17.1266 18.0235 17.0361 18.1363 17.0361C18.2495 16.9908 18.7239 17.1266 18.7012 17.3979ZM19.0628 15.9512C19.0178 16.1546 18.7239 16.3354 18.4979 16.2678C18.2495 16.1999 17.9332 16.1546 17.9558 15.9289C17.9558 15.7931 18.159 15.59 18.5205 15.635C18.9046 15.635 19.0854 15.7931 19.0628 15.9512ZM20.2599 20.3353C20.1697 20.4258 20.0566 20.6742 19.7855 20.7421C19.5372 20.7647 19.2206 20.8776 19.0851 20.5613C19.0175 20.4032 19.1304 20.2677 19.3335 20.1319C19.4916 20.0417 20.0339 20.0417 20.0339 20.0417C20.0339 20.0417 20.1015 19.8609 20.237 19.9738C20.3728 20.0643 20.3728 20.2224 20.2599 20.3353ZM20.8925 19.1379C20.6665 19.1379 20.1242 19.1602 20.1015 18.8892C20.0339 18.7763 20.3954 18.6408 20.6212 18.5729C20.8922 18.5051 21.073 18.5051 21.1635 18.5277C21.2537 18.5729 21.5024 18.6632 21.5024 18.7763C21.5026 18.8892 21.0961 19.0926 20.8925 19.1379ZM21.1864 14.6183C21.0961 14.392 21.0735 14.1886 21.1638 14.0984C21.3219 13.9852 21.8642 14.1886 21.9544 14.4372C22.0902 14.6633 22.0902 14.9345 21.8642 15.0024C21.6382 15.0248 21.254 14.8217 21.1864 14.6183ZM21.9994 15.9289C21.9541 15.7255 22.3609 15.5673 22.6322 15.59C22.858 15.635 23.265 15.861 23.1969 16.087C23.1069 16.3354 23.0616 16.4033 22.858 16.4033C22.6546 16.4033 22.022 16.2678 21.9994 15.9289ZM22.2028 17.5331C22.1575 17.3526 22.5646 17.2618 22.7225 17.2618C22.858 17.2618 23.4684 17.3526 23.2876 17.601C23.1745 17.827 22.9258 17.9399 22.7225 17.9399C22.5646 17.9399 22.2707 17.6915 22.2028 17.5331ZM23.4229 19.4315C23.1969 19.5896 23.0387 19.5896 22.7677 19.5896C22.5193 19.5896 22.4738 19.4315 22.4738 19.2281C22.4738 19.07 22.7225 18.9571 22.8356 18.9345C22.9711 18.8892 23.1292 18.9345 23.265 18.8892C23.3553 18.8666 23.3553 18.8666 23.4908 18.8216C23.6039 18.799 23.6715 18.7763 23.6941 18.9571C23.7394 19.1379 23.6713 19.296 23.4229 19.4315ZM23.8746 14.8669C23.7615 14.9345 23.7615 15.0024 23.5357 14.9572C23.2647 14.9345 23.129 14.5278 23.0613 14.5049C22.9708 14.4599 22.7674 14.2339 22.8577 14.121C22.9708 14.0305 23.4681 14.0305 23.6939 14.2339C23.9652 14.4599 23.9652 14.7988 23.8746 14.8669ZM24.3717 15.7931C24.4396 15.7255 24.5977 15.635 24.8011 15.635C25.0042 15.635 25.2755 15.7707 25.366 15.9062C25.4339 16.0644 25.4339 16.1999 25.2981 16.3354C25.2076 16.4259 24.5977 16.2678 24.5072 16.1546C24.3717 16.0191 24.3267 15.9062 24.3717 15.7931ZM24.5298 17.827C24.4625 17.8949 24.4396 17.6689 24.5298 17.556C24.6656 17.4655 24.9592 17.3073 25.14 17.3073C25.2981 17.3073 25.5691 17.3526 25.5244 17.4881C25.5015 17.6236 25.4562 17.9625 25.095 17.9625C24.7332 18.0078 24.5977 17.8044 24.5298 17.827ZM25.2302 19.4994C24.9366 19.522 24.7332 19.4768 24.6882 19.2281C24.6656 19.0024 24.8916 18.9345 24.9366 18.9345C24.9592 18.9345 25.2076 18.8892 25.2755 18.8666C25.4339 18.8666 25.7046 18.6632 25.8404 18.8666C25.9077 19.0024 25.5241 19.4315 25.2302 19.4994ZM26.2016 14.9345C26.1564 15.0251 26.0661 15.2961 25.727 15.2058C25.3884 15.0927 25.23 14.9345 25.1397 14.799C25.0721 14.6635 24.8232 14.4601 25.0268 14.2568C25.1397 14.1665 25.6594 14.3696 25.9077 14.5504C26.1114 14.7535 26.2243 14.7988 26.2016 14.9345ZM26.4277 15.9062C26.4956 15.7707 26.7666 15.7028 26.9702 15.7028C27.1733 15.7255 27.4444 15.7931 27.4891 16.0191C27.5349 16.2225 27.4891 16.2904 27.4217 16.4033C27.3091 16.4938 26.9021 16.358 26.7439 16.2904C26.5632 16.2225 26.3598 15.9965 26.4277 15.9062ZM26.4729 17.4655C26.4729 17.3073 26.6989 17.33 26.8118 17.3073C26.8571 17.2621 26.9247 17.1945 27.1055 17.1718C27.241 17.1266 27.5349 17.1266 27.5349 17.2618C27.5801 17.3526 27.5349 17.556 27.1733 17.6689C26.7666 17.8044 26.4956 17.6236 26.4729 17.4655ZM27.7832 18.9571C27.7832 18.9571 27.4891 19.2281 27.4217 19.3413C27.3091 19.4089 27.1281 19.5896 26.8571 19.3639C26.6989 19.2058 26.8571 18.9345 26.9702 18.8666C27.0605 18.7763 27.738 18.3696 27.8738 18.5729C27.9864 18.7761 27.7832 18.9571 27.7832 18.9571ZM28.1892 14.9569C28.054 15.1603 27.8503 15.1377 27.6025 15.0924C27.3762 15.0698 26.97 14.7988 26.9923 14.5275C27.0376 14.3017 27.4441 14.3694 27.6698 14.4599C27.919 14.5501 28.3476 14.7535 28.1892 14.9569ZM30.878 18.0759C30.7428 18.0759 30.4039 17.7368 30.9459 17.6689C31.1496 17.6236 31.1722 17.7591 31.1722 17.9625C31.1722 18.1209 30.9912 18.0759 30.878 18.0759ZM31.1722 16.4938C30.9459 16.4259 30.8554 16.3354 30.9912 16.1546C31.1496 16.0191 31.2169 16.0644 31.42 16.132C31.5784 16.1999 31.6237 16.3354 31.5784 16.4712C31.5558 16.6296 31.42 16.5617 31.1722 16.4938ZM32.4596 21.3752C32.1428 21.3073 31.8497 20.9231 31.6913 20.6971C31.5555 20.4261 31.5108 19.9288 31.6234 19.703C31.7139 19.4318 31.8497 19.4091 31.985 19.4997C32.1428 19.5899 32.0528 20.2682 32.1428 20.2906C32.256 20.3585 32.3238 20.8334 32.6175 20.901C32.708 20.901 32.8211 21.1271 32.8211 21.1271C32.8211 21.1271 32.708 21.4428 32.4596 21.3752Z" stroke="#EAF2EE" stroke-width="2.80147" stroke-miterlimit="2.613"/>
<path fill-rule="evenodd" clip-rule="evenodd" d="M51.4596 22.4145C51.3232 22.324 50.8717 22.7539 50.6912 22.686C50.4876 22.6181 50.3297 22.3466 50.1713 22.2787C49.9682 22.2114 49.8551 22.324 49.6519 22.2787C49.4935 22.2566 49.6067 22.0077 49.4709 21.9398C49.2899 21.8725 49.1994 22.053 48.9962 21.9851C48.8378 21.9398 48.7252 21.6464 48.5895 21.5786C48.4316 21.5336 48.3863 21.7364 48.2058 21.6688C47.9569 21.5786 47.889 21.3975 47.7312 21.3299C47.5954 21.2394 47.3018 21.5104 47.0986 21.3975C46.895 21.3073 46.895 20.6066 46.7592 20.5387C46.6013 20.4711 46.104 21.036 45.9009 20.9005C45.7199 20.8102 45.7878 20.2901 45.6294 20.1998C45.4941 20.1093 44.8842 20.6292 44.7258 20.5613C44.5906 20.4934 44.5674 20.2224 44.3643 20.1998C44.1833 20.1772 43.867 20.4258 43.6639 20.3579C43.2571 20.1998 42.7601 20.2677 42.1502 18.8213C42.0823 18.6406 41.9471 18.5274 41.8113 18.5953C41.4498 18.7308 41.5855 18.8663 42.0823 19.8609C42.7601 21.1718 43.6186 20.9005 46.8265 22.0077C48.7244 22.686 49.8987 22.8889 50.0571 23.1378C50.1934 23.3862 50.3286 23.7251 49.7861 23.7703C48.9278 23.8382 48.7244 23.3862 48.566 23.3183C48.3629 23.2504 48.2271 23.4767 47.8209 23.4088C47.3688 23.3409 47.5267 23.1378 47.3688 23.0699C47.1652 23.0473 46.7584 23.0699 46.4877 23.0246C46.2166 22.9568 46.194 22.6179 46.0582 22.6858C45.9004 22.7536 45.7646 23.0246 45.2899 22.8889C44.8611 22.7084 44.8611 22.3463 44.68 22.3237C44.5669 22.2784 43.957 22.6179 43.6862 22.55C43.099 22.3689 43.1669 21.8722 42.9853 21.8269C42.7822 21.8043 42.7148 22.3463 41.4495 22.2563C40.1847 22.1206 39.6421 22.2111 38.8512 21.804C37.7895 21.2391 36.5466 21.307 36.9081 20.81C37.3154 20.2901 37.9477 20.5613 38.3539 20.7647C38.7612 20.9229 39.2127 21.2391 39.5287 21.0584C39.6419 20.9681 39.393 20.6066 39.2803 20.1093C39.1225 19.2281 39.8908 18.9568 39.8229 18.8213C39.7098 18.6629 39.2803 18.4372 38.2413 18.5953C37.5409 18.7082 36.185 19.7704 35.8461 19.9288C35.5072 20.1319 34.1072 20.8779 33.3384 19.7704C32.5706 18.6406 33.271 17.4881 33.5873 17.1266C33.8809 16.7651 34.3782 16.4938 34.5585 16.7651C34.8074 17.1945 34.2196 17.3073 33.9712 17.6013C33.7449 17.8952 33.3839 18.8895 33.7901 19.3415C34.2196 19.7933 35.0102 19.8386 35.9138 19.1608C36.6594 18.5958 37.8795 17.8046 39.0764 17.8954C40.2965 17.9628 40.9296 18.528 41.1101 18.5735C41.2911 18.5958 41.449 18.1893 41.6973 18.0988C41.8784 18.0309 42.1267 18.257 42.2846 18.1891C42.4204 18.0988 42.5788 17.737 42.7593 17.6691C42.9629 17.6013 43.4602 17.9401 43.6181 17.8273C43.7539 17.7594 43.7312 17.3302 43.957 17.3076C44.1827 17.2624 44.5669 17.6691 44.7253 17.6013C44.9284 17.4884 44.9284 17.2621 45.1315 17.2621C45.2899 17.2621 45.6515 17.8046 45.8325 17.7594C45.9677 17.737 45.923 17.1947 46.1261 17.1269C46.3293 17.059 46.8492 17.4884 47.0299 17.4205C47.1652 17.3529 47.1878 16.6972 47.4362 16.5617C47.6625 16.4714 47.8882 16.8329 48.024 16.7651C48.205 16.6972 48.3176 15.9512 48.5213 15.9289C48.7018 15.9062 49.0633 16.132 49.2212 16.087C49.3569 16.0644 49.2891 15.3866 49.5601 15.2508C49.8316 15.1606 50.1705 15.59 50.261 15.5676C50.3963 15.5224 50.4641 15.1606 50.5999 15.1379C50.7578 15.0927 51.1646 15.4316 51.3682 15.3866C51.5261 15.3187 51.4587 14.8217 51.6392 14.7988C51.775 14.7535 52.3397 14.8667 52.2944 14.2339C52.2718 13.6011 51.4587 12.9909 50.6907 12.9909C49.2896 12.9909 47.889 13.6011 46.6913 13.8271C45.4944 14.0305 43.0319 14.7535 42.4215 14.8669C41.8116 14.9572 41.224 14.6183 41.7663 14.1886C42.1957 13.7818 42.4215 14.0984 42.4215 13.9628C42.4215 13.8271 42.1504 13.6916 41.7663 13.6237C41.3595 13.5561 40.8854 13.9628 40.3657 13.895C39.8463 13.8271 39.3267 13.4206 38.762 13.5334C37.3841 13.6916 37.1804 14.302 36.48 14.5501C35.7796 14.8217 35.2599 14.6183 34.8758 14.6633C33.9273 14.7988 33.5884 15.364 32.888 15.2958C32.0518 15.2279 31.6452 14.7535 30.7417 14.5046C29.8829 14.2336 28.2339 13.9849 27.8495 13.8494C27.4433 13.691 25.6586 13.2616 25.2291 13.2166C24.7547 13.1487 24.5287 13.2843 24.3256 13.2843C24.0993 13.2843 23.8057 13.1487 23.4894 13.1261C23.1955 13.0809 22.7211 13.0585 22.5183 13.1261C22.3383 13.2172 22.2707 13.2172 22.022 13.1493C21.8189 13.1267 21.0732 12.9912 20.757 13.0364C20.3049 13.059 20.1242 13.3527 19.7855 13.3979C19.4693 13.4206 19.153 13.2622 18.7918 13.33C18.4305 13.3979 18.1366 13.5334 17.8203 13.6237C17.5267 13.7368 16.9844 13.6689 16.736 13.6913C16.0582 13.8497 15.9677 14.1886 15.7193 14.1886C15.4933 14.1886 14.6803 14.0531 14.4317 14.1886C14.1604 14.3017 13.9346 14.5049 13.7312 14.5275C13.4829 14.5499 12.579 14.6859 12.0141 14.618C11.6979 14.5954 11.1556 14.8667 10.9298 14.9343C10.6588 15.0022 10.026 15.0022 9.84526 14.6859C9.6645 14.3017 10.1615 13.7368 10.9977 13.0588C11.5624 12.6291 14.7479 10.3918 19.9213 9.55587C23.9654 8.87808 28.6868 7.18307 29.6811 6.14348C30.1105 5.71407 31.85 4.24508 32.2789 3.34127C32.7083 2.43719 32.8435 1.91753 32.6178 1.94016C32.392 2.00805 32.121 2.48245 31.6916 2.64058C31.2848 2.77609 30.9233 2.55034 30.6073 2.68584C30.3136 2.77609 29.9747 3.25075 29.6588 3.27338C29.3199 3.31837 29.1841 3.02473 28.9352 3.13761C28.6868 3.31837 28.2805 3.61255 28.009 3.67989C27.4444 3.77041 27.4217 3.11525 26.9021 3.38626C26.3598 3.65727 25.9759 4.10957 25.4339 4.22245C24.9366 4.29034 25.0042 3.90618 24.6656 3.90618C24.123 3.90618 23.6039 4.65213 23.3553 4.65213C23.1069 4.65213 22.9032 4.24508 22.5872 4.29061C22.2933 4.31297 21.3671 5.01365 21.0056 5.1268C20.6215 5.19468 20.5539 4.60714 20.2373 4.6524C19.8534 4.67503 19.153 5.35309 18.7689 5.4436C18.3623 5.51122 18.1363 5.24021 17.8653 5.24021C17.5943 5.24021 16.7584 5.9409 16.3516 6.05378C15.7643 6.18928 15.7191 5.44387 15.0865 5.48886C14.6348 5.51149 14.1601 6.12193 13.7991 6.14429C13.4147 6.18928 13.2566 5.89564 12.8274 5.98616C12.353 6.12166 11.4269 6.75419 11.1103 6.82235C10.8167 6.89024 10.5907 6.70948 10.2291 6.82235C9.55135 7.02574 8.91909 7.92982 8.48941 8.15584C8.01528 8.42685 7.67638 8.29134 7.42774 8.44948C6.97597 8.76574 6.90808 9.39854 6.47867 9.57958C6.09505 9.78297 6.11741 9.48906 5.75562 9.71481C5.14599 10.1666 5.37201 10.6641 5.19124 10.8902C5.01048 11.1159 4.51319 11.2967 4.21955 11.6585C3.92564 11.9974 3.92564 12.201 3.81277 12.427C3.67753 12.6531 3.15788 13.3309 3.04473 13.6248C2.97738 13.9176 3.11262 14.2339 2.97738 14.4599C2.88714 14.6633 2.68375 15.0024 2.57087 15.2508C2.39011 15.8386 2.63876 16.4262 2.61613 16.6522C2.57087 16.8553 2.34485 17.1945 2.34485 17.4658C2.34485 17.737 2.61613 18.2567 2.54824 18.6632C2.48062 19.0702 1.6447 21.7593 2.1191 22.9797C2.63876 24.245 3.40679 24.9233 3.6778 24.8102C3.97144 24.7197 3.79068 24.1771 4.08431 23.6806C4.37795 23.2054 4.71685 22.6184 4.98812 23.0249C5.21387 23.4091 4.44584 23.4091 4.37795 24.5165C4.2877 25.5782 4.42294 25.1264 4.37795 25.443C4.35532 25.7819 3.67753 26.4147 3.67753 26.7083C3.67753 27.0246 3.74542 27.8158 4.73921 28.652C5.34938 29.194 5.48488 29.5558 5.64275 29.5784C5.77825 29.6237 5.91402 28.9453 6.20766 28.8096C6.61444 28.6285 7.49535 29.42 7.65349 29.3974C7.85688 29.3295 7.92449 28.2447 8.28602 28.0415C8.64781 27.8831 9.52899 28.5841 9.70975 28.4936C9.89025 28.3578 9.68685 27.6797 9.77737 27.4087C9.89025 27.1604 10.3873 27.0925 10.2291 26.6404C10.0936 26.1884 10.0257 25.3072 8.42206 25.1941C7.94739 25.1488 7.2925 25.0815 7.72164 24.5842C8.21867 24.0869 8.76069 22.2563 7.58587 20.8329C7.08911 20.2224 5.95928 20.5613 5.64301 20.6971C5.07837 20.9005 4.51346 21.6464 4.2877 21.4431C4.08431 21.2397 4.73948 20.4035 5.75589 20.1096C6.74995 19.793 8.01528 19.8612 8.51231 21.1039C9.39322 23.273 8.51231 24.2903 8.62545 24.5163C8.76069 24.742 9.25771 24.4936 9.95813 24.9231C10.9522 25.5782 10.8167 26.1431 11.0651 26.3468C11.2908 26.5273 12.4883 26.6178 13.5955 26.6857C14.725 26.7536 15.9675 27.0472 16.4871 26.7536C17.323 26.3242 17.3907 24.7194 19.3335 23.544C20.3049 22.9568 21.5926 22.3692 23.0385 22.6179C24.6427 22.8436 24.6653 23.0699 24.5295 23.273C24.5069 23.3862 24.4622 23.544 24.4393 23.5219C23.671 23.1152 22.5643 23.0699 21.8863 23.2051C20.8922 23.3862 19.1977 23.6577 17.9553 25.8269C16.7352 27.9963 18.7007 28.0189 18.9041 28.0868C19.1301 28.1773 19.4916 28.2899 19.469 28.923C19.4238 29.5561 19.6271 29.9173 19.8532 30.3241C20.1242 30.6856 20.5536 30.9792 20.5536 30.9792C20.5536 30.9792 20.8696 30.2562 21.2314 30.0981C21.5929 29.8949 22.022 30.2565 22.2254 30.4828C22.858 31.2963 22.5872 29.7818 23.0387 29.6239C23.6941 29.4203 23.9423 30.3922 24.3041 30.2112C24.9592 29.9176 24.5977 29.4655 25.0724 29.2848C25.5691 29.149 25.863 29.5563 26.0661 29.4205C26.2919 29.2621 26.2695 27.8616 25.8401 27.2964C25.3657 26.7086 24.6656 25.7143 23.1742 25.7143C21.7058 25.7143 21.2314 25.5111 21.299 25.217C21.3669 24.9233 21.6605 24.7197 22.022 24.8554C22.5872 25.0586 22.6546 25.0133 23.5581 25.0586C24.8684 25.0817 24.5748 25.6464 25.6594 26.1208C26.4729 26.4597 27.5346 25.8945 28.8449 26.1208C30.1776 26.3471 31.2848 26.5954 32.5043 26.5275C34.8095 26.4597 37.3623 25.4432 37.859 25.3754C38.379 25.2848 38.65 25.3527 38.65 25.1943C38.65 25.0586 36.4132 24.7197 36.5484 24.1774C36.7295 23.658 37.7912 24.0874 39.2596 24.4263C40.7281 24.7426 43.8681 25.0136 45.0884 24.9462C46.399 24.9236 48.6352 25.5114 50.4652 25.082C51.3917 24.8557 52.2726 24.2905 52.3631 23.6583C52.4762 23.0246 51.64 22.5502 51.4596 22.4145ZM38.8528 14.6633C39.2143 14.5954 39.8471 14.7535 39.689 15.1603C39.5532 15.5673 39.4859 15.4992 39.1917 15.5673C38.8981 15.6347 38.2882 15.7026 38.13 15.4313C37.9943 15.1603 38.4463 14.7535 38.8528 14.6633ZM29.6585 4.24508C29.8842 4.35822 29.9069 4.67476 29.8842 4.87815C29.8163 5.05891 29.7037 5.23967 29.5906 5.23967C29.4096 5.23967 29.4096 4.99102 29.3422 4.74238C29.2738 4.53899 29.4096 4.10957 29.6585 4.24508ZM27.5801 4.87788C28.0543 4.99075 27.8738 5.42043 27.7832 5.91746C27.7154 6.25636 27.4217 6.34687 27.3765 6.41449C27.2183 6.7084 27.1733 5.42043 27.1733 5.42043C27.1733 5.42043 27.3088 4.80999 27.5801 4.87788ZM25.2755 5.23967C25.4562 5.21704 25.7728 5.91773 25.5917 6.5279C25.3886 7.11545 25.14 7.11545 25.14 7.11545C25.14 7.11545 25.0724 6.46002 25.0042 6.39213C24.9366 6.27899 24.8011 5.35255 25.2755 5.23967ZM23.1969 5.57857C23.6265 5.42044 23.7397 6.39213 23.536 6.88943C23.3553 7.40909 23.3553 7.72562 23.0387 7.52196C22.6546 7.3412 22.9711 6.70867 22.858 6.5279C22.7225 6.2111 22.8356 5.75933 23.1969 5.57857ZM20.8925 6.12112C21.4348 6.05324 21.3669 6.91179 21.2314 7.38673C21.0732 7.81587 20.9604 8.01926 20.7346 7.95164C20.486 7.86112 20.8022 7.29594 20.6667 7.04756C20.486 6.82154 20.5988 6.14348 20.8925 6.12112ZM18.5205 6.55026C18.8367 6.61788 19.0628 7.09255 18.9046 7.74798C18.7691 8.42604 18.5657 8.58417 18.385 8.58417C18.2042 8.58417 18.4526 7.52196 18.2945 7.52196C18.159 7.52196 18.1366 6.48238 18.5205 6.55026ZM16.1935 7.3412C16.3969 7.3412 16.8486 7.72535 16.6226 8.42604C16.3969 9.14909 16.3969 9.08147 16.1935 9.14909C15.9675 9.19434 16.1259 8.71968 15.9901 8.44867C15.8319 8.22238 15.6286 7.31857 16.1935 7.3412ZM14.0925 8.08714C14.4993 8.06452 14.6574 8.92334 14.5669 9.28459C14.4993 9.64611 14.3635 10.0984 14.1151 10.0305C13.8891 9.98555 14.1601 9.33012 13.957 9.33012C13.7989 9.32985 13.4826 8.10977 14.0925 8.08714ZM12.7595 10.5502C12.4885 11.0475 12.5109 11.0475 12.3304 11.0475C12.1496 11.0475 12.2625 10.3244 12.0594 10.3244C11.8786 10.3244 11.7205 9.26223 12.2851 9.21697C12.895 9.19434 12.9177 10.1887 12.7595 10.5502ZM11.856 7.16044C11.9915 7.16044 12.3304 7.38646 12.0141 7.72535C11.7205 8.06425 11.6979 8.29027 11.4269 8.15476C11.1556 8.06452 11.4266 7.18306 11.856 7.16044ZM4.17456 14.3017C4.35505 14.3017 4.58134 14.7535 4.55871 14.9345C4.51346 15.07 4.4911 15.2961 4.21982 15.364C3.97144 15.4313 3.88119 15.0251 3.88119 14.9572C3.85856 14.8669 3.79068 14.2565 4.17456 14.3017ZM4.44584 17.2618C4.31033 17.2618 4.15193 17.2618 4.03906 17.1718C3.97117 17.0587 3.5194 16.6069 3.85829 16.1546C3.88092 16.087 4.44584 16.4712 4.55871 16.7198C4.6266 16.9003 4.6266 17.2618 4.44584 17.2618ZM4.91997 13.4879C4.85208 13.6008 4.67159 13.6687 4.55871 13.6008C4.37795 13.4879 4.37795 13.1264 4.44584 13.0588C4.49083 13.0361 4.51346 12.4936 4.87471 12.5612C5.05547 12.5838 4.85208 13.0359 4.87471 13.0811C4.91997 13.1493 5.01048 13.3977 4.91997 13.4879ZM19.9663 15.7931C19.9889 15.635 20.2373 15.4995 20.486 15.5673C20.8022 15.5897 21.1638 15.861 21.0961 16.0644C21.0735 16.2678 20.7346 16.4259 20.3957 16.2678C20.1018 16.132 19.8987 15.9965 19.9663 15.7931ZM20.4181 17.2618C20.6215 17.2395 21.1638 17.1945 21.1185 17.4881C21.0961 17.7591 20.9604 17.827 20.5312 17.8949C20.1018 17.9622 19.8308 17.6915 19.8308 17.556C19.8534 17.33 20.1923 17.3073 20.4181 17.2618ZM19.2885 14.1662C19.5369 14.1662 19.7629 14.3694 19.695 14.5275C19.6274 14.6859 19.6048 14.889 19.153 14.7988C18.9949 14.7309 18.7915 14.5049 18.7915 14.3694C18.7918 14.0984 19.0628 14.121 19.2885 14.1662ZM16.8486 14.7309C16.8936 14.5049 17.323 14.4599 17.5264 14.5501C17.7524 14.6633 17.8879 14.9572 17.7524 15.0927C17.5943 15.2058 17.4362 15.1606 17.1649 15.0927C16.8939 15.0248 16.8263 14.9569 16.8486 14.7309ZM16.555 15.7707C16.8939 15.7707 17.3004 16.0191 17.1196 16.1999C16.9841 16.3354 16.8486 16.4259 16.4871 16.4259C16.1256 16.4259 15.9901 16.2904 15.9901 16.087C15.9901 15.9062 16.2161 15.7255 16.555 15.7707ZM15.9675 17.2618C16.3516 17.1945 16.6226 17.4202 16.6003 17.6236C16.6003 17.827 16.2614 18.0078 16.0353 18.0078C15.7643 18.0078 15.3802 17.9399 15.3349 17.6236C15.2899 17.3526 15.7643 17.3073 15.9675 17.2618ZM14.9284 19.07C14.8608 18.8666 15.3349 18.7761 15.5609 18.7308C15.7643 18.7082 16.1935 18.7987 16.1259 19.0021C16.0582 19.1602 15.9225 19.3636 15.5609 19.3636C15.1994 19.3413 14.996 19.2281 14.9284 19.07ZM15.4931 20.3353C15.4254 20.6292 15.1544 20.6742 14.951 20.6968C14.725 20.7421 14.3635 20.6968 14.3635 20.4711C14.3635 20.2224 14.68 20.0417 14.8608 19.9738C15.2223 19.9064 15.5609 20.1093 15.4931 20.3353ZM14.4993 14.7988C14.6345 14.8214 15.0639 14.9343 15.0865 15.1377C15.0865 15.2958 15.1994 15.5218 14.725 15.5218C14.2959 15.5218 14.1151 15.4539 14.0246 15.2279C13.8891 14.9569 14.3635 14.7535 14.4993 14.7988ZM14.4314 16.4033C14.8832 16.4938 14.951 16.4938 14.996 16.6969C15.0187 16.9003 14.68 17.0358 14.2956 17.1037C13.8888 17.1716 13.6631 16.9908 13.5499 16.7874C13.4826 16.6069 13.9796 16.3354 14.4314 16.4033ZM13.6633 18.2564C13.8891 18.2338 14.1601 18.324 14.1601 18.5729C14.1151 18.7761 13.9796 18.8666 13.7536 18.9571C13.5502 19.07 13.0984 18.8892 13.0305 18.7311C12.9627 18.573 13.4147 18.3017 13.6633 18.2564ZM13.2563 20.1319C13.2563 20.3353 12.8498 20.4934 12.6464 20.5387C12.4883 20.5613 12.3528 20.6968 12.2173 20.5613C12.0591 20.4258 12.0817 20.2901 12.1946 20.1998C12.2622 20.1093 12.6917 19.9062 12.7822 19.8609C12.9627 19.793 13.2792 19.9738 13.2563 20.1319ZM12.3304 15.3184C12.6919 15.3184 12.8501 15.5218 12.9179 15.7026C12.9629 15.8607 12.9179 15.951 12.8274 16.0188C12.7598 16.0867 12.353 16.0641 12.127 15.9286C11.8107 15.7707 11.9236 15.3184 12.3304 15.3184ZM10.523 10.3244C11.0201 10.2792 11.1103 10.9572 10.9974 11.5674C10.8167 12.1547 10.7488 12.1547 10.523 12.0873C10.3197 12.0195 10.523 11.6803 10.3873 11.5222C10.2291 11.3867 9.95813 10.3468 10.523 10.3244ZM10.1613 7.79324C10.6133 7.72562 10.4552 8.29053 10.3646 8.44867C10.2291 8.65206 10.3873 8.9457 10.0936 8.92307C9.77737 8.87808 9.82263 8.49366 9.77737 8.29027C9.75474 8.06452 9.89052 7.8156 10.1613 7.79324ZM8.55756 9.82715C8.64781 9.69164 8.7157 9.35275 9.00933 9.33012C9.21246 9.28486 9.14484 9.84977 9.12221 10.1211C9.12221 10.3921 9.1901 10.7312 8.82857 10.5957C8.44442 10.4599 8.44442 9.98528 8.55756 9.82715ZM7.15673 9.89476C7.22434 9.89476 7.22434 9.84951 7.22434 9.84951C7.22434 9.84951 7.54061 9.32985 7.85688 9.48798C7.99238 9.51061 7.65349 10.1658 7.6085 10.2792C7.54088 10.4599 7.31486 10.5955 7.11147 10.4147C6.90835 10.2113 7.08911 9.89476 7.15673 9.89476ZM6.20793 11.0925C6.38869 11.1604 6.20793 11.7479 6.14004 12.0189C6.11768 12.2902 5.91429 12.4257 5.7109 12.3578C5.50751 12.3355 5.62066 11.8605 5.5525 11.8605C5.50751 11.8158 5.77852 11.0249 6.20793 11.0925ZM5.5525 15.59C5.68827 15.635 5.7109 15.9062 5.7109 15.9512C5.7109 16.0644 5.84641 16.132 5.91429 16.3354C5.95928 16.4938 5.84641 16.6519 5.68854 16.6969C5.50778 16.6969 5.34965 16.358 5.34965 16.358C5.34965 16.4033 5.21387 15.5673 5.5525 15.59ZM6.11768 18.3693C5.98191 18.4598 5.82405 18.5274 5.62066 18.5048C5.41726 18.4372 5.19151 18.0983 5.37228 17.8949C5.5525 17.7368 5.82405 17.8723 5.95928 17.9622C6.09505 18.0759 6.25319 18.2564 6.11768 18.3693ZM6.1853 14.5501C5.91429 14.5049 6.02717 13.9852 5.98191 13.9852C5.98191 13.9852 6.25319 13.059 6.5242 13.2172C6.72759 13.3527 6.61471 13.9628 6.59208 14.2565C6.54682 14.5275 6.41132 14.6183 6.1853 14.5501ZM6.68206 16.2678C6.59208 16.2225 6.47867 15.6347 6.88545 15.5897C7.04358 15.5897 7.31486 15.906 7.31486 16.0867C7.29223 16.2901 7.35985 16.5614 6.97597 16.5385C6.61471 16.4938 6.74995 16.2904 6.68206 16.2678ZM7.65376 19.1605C7.51852 19.1605 7.24697 19.1381 7.08911 18.8892C6.95361 18.7085 6.90835 18.3922 7.08911 18.3017C7.22461 18.2338 7.58587 18.4598 7.74427 18.7761C7.92476 19.07 7.74427 19.1605 7.65376 19.1605ZM8.12815 18.0304C7.94739 18.008 7.74427 17.9399 7.58587 17.7368C7.428 17.556 7.428 17.1718 7.67638 17.1266C8.06027 17.0587 8.28602 17.3979 8.42206 17.6915C8.51231 18.0078 8.2413 18.0304 8.12815 18.0304ZM8.48941 16.4259C8.30865 16.4259 8.21867 16.358 8.12815 16.2225C7.99265 16.132 7.94739 15.7255 8.30865 15.7255C8.48941 15.7255 8.76069 15.861 8.78305 16.0644C8.82857 16.2904 8.64781 16.4033 8.48941 16.4259ZM8.82857 11.8608C9.07695 11.8608 9.52926 12.1321 9.39322 12.923C9.21246 13.6913 9.12221 13.4203 8.96408 13.4653C8.82857 13.5332 8.91909 13.0361 8.82857 12.923C8.64781 12.7196 8.21867 11.8608 8.82857 11.8608ZM9.28034 19.296C9.12221 19.2281 8.91909 19.1379 8.89619 18.8892C8.82857 18.6632 9.07695 18.5956 9.28034 18.6408C9.52899 18.6632 9.70975 18.8666 9.70975 19.025C9.70975 19.2281 9.41585 19.3413 9.28034 19.296ZM9.70975 17.7368C9.59661 17.7591 9.52899 17.827 9.28034 17.7591C9.05459 17.6689 8.57992 17.1718 9.00933 16.9003C9.14484 16.7874 9.66449 16.9229 9.77764 17.3071C9.95813 17.6236 9.84499 17.6689 9.70975 17.7368ZM9.75474 16.1999C9.68685 16.132 9.82236 15.7707 10.1839 15.861C10.523 15.9289 10.6133 16.1546 10.5907 16.358C10.523 16.5614 10.297 16.5614 10.116 16.5388C9.95813 16.4938 9.84499 16.2678 9.75474 16.1999ZM11.1103 20.1319C10.9974 20.1998 10.7488 20.2677 10.4099 20.2224C10.116 20.1998 10.0484 20.1093 10.1613 19.9288C10.297 19.7704 10.3873 19.7254 10.6586 19.6349C10.9296 19.522 11.2461 19.6572 11.314 19.7704C11.3813 19.8609 11.2458 20.1093 11.1103 20.1319ZM11.5621 18.6629C11.3813 18.7761 10.9974 18.6629 10.8843 18.3919C10.7941 18.0983 10.9522 18.0301 11.0877 17.9622C11.2458 17.9396 11.6297 18.1206 11.6979 18.3693C11.7205 18.5274 11.7205 18.5729 11.5621 18.6629ZM11.9236 17.3526C11.7655 17.3526 11.1779 17.2618 11.2911 16.9682C11.3587 16.6519 11.6979 16.6519 11.8786 16.6969C11.9915 16.6969 12.4659 16.855 12.353 17.1263C12.2851 17.4202 12.0817 17.33 11.9236 17.3526ZM17.1196 22.6858C17.1196 22.8436 17.0294 22.9568 16.8939 22.9568C16.7358 22.9568 16.284 22.8436 16.058 23.0246C15.832 23.1825 15.6964 23.4767 15.7191 23.6803C15.7643 23.8382 15.7643 24.0871 15.6515 24.1545C15.5612 24.245 15.1318 24.0871 14.951 24.1092C14.7929 24.1092 14.228 24.245 14.0925 24.5392C13.9344 24.8102 14.0475 25.0133 13.957 25.0817C13.8667 25.1943 13.731 25.2396 13.5955 25.2396C13.46 25.2848 12.8498 25.1943 12.7595 25.2848C12.624 25.3754 12.2851 25.7821 12.1946 25.6464C12.0817 25.5111 11.9236 25.5785 12.2173 25.0817C12.3528 24.8554 12.7143 24.6071 12.7595 24.6071C12.7822 24.6071 13.2339 24.6518 13.3245 24.5844C13.4147 24.4939 13.686 23.9514 13.7991 23.8382C14.2509 23.4767 14.2283 23.6125 14.3638 23.544C14.4995 23.5219 14.9513 23.6125 14.9963 23.5219C15.0642 23.3862 15.3352 22.8889 15.5612 22.6858C15.8548 22.4142 16.3295 22.3689 16.3971 22.3237C16.4195 22.2563 16.5326 22.0753 16.6005 21.9395C16.6908 21.804 17.0976 21.4651 17.3686 21.533C17.5041 21.578 17.0297 22.2111 17.0297 22.3463C16.9841 22.4824 17.1196 22.505 17.1196 22.6858ZM17.4585 20.765C17.1196 20.8329 16.7581 20.8102 16.7355 20.6295C16.6902 20.4937 16.8034 20.2903 17.0291 20.2001C17.2325 20.1096 17.4356 20.1774 17.5938 20.1774C17.7293 20.1774 18.0684 20.1774 18.0232 20.2903C18.0008 20.4032 17.7974 20.6971 17.4585 20.765ZM17.9332 19.2281C17.5491 19.2734 17.1878 19.1605 17.2328 19.0024C17.3004 18.8216 17.5264 18.6632 17.8653 18.6632C18.2042 18.6408 18.4302 18.7311 18.4302 18.8892C18.4302 19.025 18.2945 19.2058 17.9332 19.2281ZM18.7012 17.3979C18.6336 17.6689 18.4979 17.7368 18.2495 17.7591C18.0008 17.7591 17.5038 17.6915 17.5038 17.3073C17.5038 17.1266 18.0235 17.0361 18.1363 17.0361C18.2495 16.9908 18.7239 17.1266 18.7012 17.3979ZM19.0628 15.9512C19.0178 16.1546 18.7239 16.3354 18.4979 16.2678C18.2495 16.1999 17.9332 16.1546 17.9558 15.9289C17.9558 15.7931 18.159 15.59 18.5205 15.635C18.9046 15.635 19.0854 15.7931 19.0628 15.9512ZM20.2599 20.3353C20.1697 20.4258 20.0566 20.6742 19.7855 20.7421C19.5372 20.7647 19.2206 20.8776 19.0851 20.5613C19.0175 20.4032 19.1304 20.2677 19.3335 20.1319C19.4916 20.0417 20.0339 20.0417 20.0339 20.0417C20.0339 20.0417 20.1015 19.8609 20.237 19.9738C20.3728 20.0643 20.3728 20.2224 20.2599 20.3353ZM20.8925 19.1379C20.6665 19.1379 20.1242 19.1602 20.1015 18.8892C20.0339 18.7763 20.3954 18.6408 20.6212 18.5729C20.8922 18.5051 21.073 18.5051 21.1635 18.5277C21.2537 18.573 21.5024 18.6632 21.5024 18.7763C21.5026 18.8892 21.0961 19.0926 20.8925 19.1379ZM21.1864 14.6183C21.0961 14.392 21.0735 14.1886 21.1638 14.0984C21.3219 13.9852 21.8642 14.1886 21.9544 14.4372C22.0902 14.6633 22.0902 14.9345 21.8642 15.0024C21.6382 15.0248 21.254 14.8217 21.1864 14.6183ZM21.9994 15.9289C21.9541 15.7255 22.3609 15.5673 22.6322 15.59C22.858 15.635 23.265 15.861 23.1969 16.087C23.1069 16.3354 23.0616 16.4033 22.858 16.4033C22.6546 16.4033 22.022 16.2678 21.9994 15.9289ZM22.2028 17.5331C22.1575 17.3526 22.5646 17.2618 22.7225 17.2618C22.858 17.2618 23.4684 17.3526 23.2876 17.601C23.1745 17.827 22.9258 17.9399 22.7225 17.9399C22.5646 17.9399 22.2707 17.6915 22.2028 17.5331ZM23.4229 19.4315C23.1969 19.5896 23.0387 19.5896 22.7677 19.5896C22.5193 19.5896 22.4738 19.4315 22.4738 19.2281C22.4738 19.07 22.7225 18.9571 22.8356 18.9345C22.9711 18.8892 23.1292 18.9345 23.265 18.8892C23.3553 18.8666 23.3553 18.8666 23.4908 18.8216C23.6039 18.799 23.6715 18.7763 23.6941 18.9571C23.7394 19.1379 23.6713 19.296 23.4229 19.4315ZM23.8746 14.8669C23.7615 14.9345 23.7615 15.0024 23.5357 14.9572C23.2647 14.9345 23.129 14.5278 23.0613 14.5049C22.9708 14.4599 22.7674 14.2339 22.8577 14.121C22.9708 14.0305 23.4681 14.0305 23.6939 14.2339C23.9652 14.4599 23.9652 14.7988 23.8746 14.8669ZM24.3717 15.7931C24.4396 15.7255 24.5977 15.635 24.8011 15.635C25.0042 15.635 25.2755 15.7707 25.366 15.9062C25.4339 16.0644 25.4339 16.1999 25.2981 16.3354C25.2076 16.4259 24.5977 16.2678 24.5072 16.1546C24.3717 16.0191 24.3267 15.9062 24.3717 15.7931ZM24.5298 17.827C24.4625 17.8949 24.4396 17.6689 24.5298 17.556C24.6656 17.4655 24.9592 17.3073 25.14 17.3073C25.2981 17.3073 25.5691 17.3526 25.5244 17.4881C25.5015 17.6236 25.4562 17.9625 25.095 17.9625C24.7332 18.0078 24.5977 17.8044 24.5298 17.827ZM25.2302 19.4994C24.9366 19.522 24.7332 19.4768 24.6882 19.2281C24.6656 19.0024 24.8916 18.9345 24.9366 18.9345C24.9592 18.9345 25.2076 18.8892 25.2755 18.8666C25.4339 18.8666 25.7046 18.6632 25.8404 18.8666C25.9077 19.0024 25.5241 19.4315 25.2302 19.4994ZM26.2016 14.9345C26.1564 15.0251 26.0661 15.2961 25.727 15.2058C25.3884 15.0927 25.23 14.9345 25.1397 14.799C25.0721 14.6635 24.8232 14.4601 25.0268 14.2568C25.1397 14.1665 25.6594 14.3696 25.9077 14.5504C26.1114 14.7535 26.2243 14.7988 26.2016 14.9345ZM26.4277 15.9062C26.4956 15.7707 26.7666 15.7028 26.9702 15.7028C27.1733 15.7255 27.4444 15.7931 27.4891 16.0191C27.5349 16.2225 27.4891 16.2904 27.4217 16.4033C27.3091 16.4938 26.9021 16.358 26.7439 16.2904C26.5632 16.2225 26.3598 15.9965 26.4277 15.9062ZM26.4729 17.4655C26.4729 17.3073 26.6989 17.33 26.8118 17.3073C26.8571 17.2621 26.9247 17.1945 27.1055 17.1718C27.241 17.1266 27.5349 17.1266 27.5349 17.2618C27.5801 17.3526 27.5349 17.556 27.1733 17.6689C26.7666 17.8044 26.4956 17.6236 26.4729 17.4655ZM27.7832 18.9571C27.7832 18.9571 27.4891 19.2281 27.4217 19.3413C27.3091 19.4089 27.1281 19.5896 26.8571 19.3639C26.6989 19.2058 26.8571 18.9345 26.9702 18.8666C27.0605 18.7763 27.738 18.3696 27.8738 18.5729C27.9864 18.7761 27.7832 18.9571 27.7832 18.9571ZM28.1892 14.9569C28.054 15.1603 27.8503 15.1377 27.6025 15.0924C27.3762 15.0698 26.97 14.7988 26.9923 14.5275C27.0376 14.3017 27.4441 14.3694 27.6698 14.4599C27.919 14.5501 28.3476 14.7535 28.1892 14.9569ZM30.878 18.0759C30.7428 18.0759 30.4039 17.7368 30.9459 17.6689C31.1496 17.6236 31.1722 17.7591 31.1722 17.9625C31.1722 18.1209 30.9912 18.0759 30.878 18.0759ZM31.1722 16.4938C30.9459 16.4259 30.8554 16.3354 30.9912 16.1546C31.1496 16.0191 31.2169 16.0644 31.42 16.132C31.5784 16.1999 31.6237 16.3354 31.5784 16.4712C31.5558 16.6296 31.42 16.5617 31.1722 16.4938ZM32.4596 21.3752C32.1428 21.3073 31.8497 20.9231 31.6913 20.6971C31.5555 20.4261 31.5108 19.9288 31.6234 19.703C31.7139 19.4318 31.8497 19.4091 31.985 19.4997C32.1428 19.5899 32.0528 20.2682 32.1428 20.2906C32.256 20.3585 32.3238 20.8334 32.6175 20.901C32.708 20.901 32.8211 21.1271 32.8211 21.1271C32.8211 21.1271 32.708 21.4428 32.4596 21.3752Z" fill="#202223"/>
<path d="M8.60315 41.7244H9.69176C9.83663 41.7258 9.97772 41.6781 10.092 41.5891C10.2063 41.5 10.287 41.3749 10.3211 41.2341L10.5554 40.3084C10.5923 40.1616 10.719 40.0633 10.8701 40.0633H12.9096C13.0608 40.0633 13.1874 40.1616 13.2243 40.3084L13.4584 41.2341C13.4925 41.3749 13.5732 41.5 13.6875 41.589C13.8018 41.678 13.9428 41.7257 14.0877 41.7244H15.1763C15.2775 41.7243 15.3773 41.7007 15.4677 41.6552C15.5581 41.6098 15.6366 41.5438 15.697 41.4627C15.7574 41.3815 15.798 41.2873 15.8156 41.1877C15.8331 41.088 15.8271 40.9856 15.7981 40.8887L13.5125 33.2485C13.4739 33.1139 13.3921 32.9957 13.2798 32.912C13.1675 32.8284 13.0308 32.7839 12.8908 32.7854H10.8889C10.5969 32.7854 10.3507 32.9686 10.2672 33.2485L7.98167 40.8887C7.95256 40.9856 7.94651 41.088 7.96401 41.1876C7.98152 41.2873 8.02208 41.3815 8.08246 41.4627C8.14284 41.5439 8.22137 41.6098 8.31178 41.6552C8.40219 41.7007 8.50197 41.7243 8.60315 41.7244ZM12.5066 38.2465H11.2728C11.2497 38.2462 11.2269 38.2406 11.2061 38.2303C11.1854 38.22 11.1673 38.2051 11.153 38.1868C11.1388 38.1685 11.1289 38.1473 11.124 38.1247C11.1191 38.102 11.1193 38.0786 11.1247 38.056L11.8213 35.3004C11.8375 35.2374 11.9417 35.2374 11.9576 35.3004L12.6545 38.056C12.6599 38.0786 12.6601 38.102 12.6552 38.1246C12.6504 38.1472 12.6404 38.1685 12.6263 38.1867C12.6121 38.205 12.5939 38.2199 12.5732 38.2302C12.5525 38.2406 12.5298 38.2461 12.5066 38.2465ZM27.3202 41.9396C29.6723 41.9396 31.5785 39.8556 31.5785 37.2842C31.5785 34.7134 29.6723 32.6294 27.3202 32.6294C24.9684 32.6294 23.0617 34.7134 23.0617 37.2842C23.0619 39.8556 24.9684 41.9396 27.3202 41.9396ZM27.3202 39.8639C26.1845 39.8639 25.5767 38.709 25.5767 37.2842C25.5767 35.8594 26.1182 34.7045 27.3202 34.7045C28.522 34.7045 29.064 35.8594 29.064 37.2842C29.064 38.709 28.456 39.8639 27.3202 39.8639ZM36.3147 39.17C36.3147 39.7044 35.8947 39.9959 35.3239 39.9959C34.6035 39.9959 34.1375 39.5654 33.7059 39.1236C33.4774 38.8901 33.0949 38.8979 32.8535 39.118L32.3185 39.6053C32.1097 39.7958 31.9524 40.1153 32.1302 40.3346C32.7081 41.0495 33.5704 41.8615 35.6501 41.8615C37.496 41.8615 38.6492 40.5746 38.6492 39.1875C38.6492 38.0558 38.1711 37.3071 36.8193 36.6161L35.4198 35.9516C34.8247 35.7932 34.5712 35.5779 34.5712 35.1892C34.5712 34.7762 34.8605 34.5235 35.3346 34.5235C35.8923 34.5235 36.3626 34.8697 36.7864 35.2096C37.0348 35.409 37.4003 35.3621 37.6166 35.128L38.1759 34.5224C38.3701 34.312 38.4421 33.9621 38.2365 33.7622C37.5625 33.1076 36.555 32.6162 35.1765 32.6162C33.2261 32.6162 32.0763 33.8258 32.0763 35.2959C32.0763 36.5351 32.6787 37.1789 33.9874 37.7756L35.5954 38.4634C36.1046 38.6212 36.3147 38.8173 36.3147 39.17ZM15.797 37.2848C15.797 39.8556 17.7037 41.9396 20.0555 41.9396C21.1781 41.9396 22.1991 41.4649 22.9596 40.6888C23.0935 40.5525 23.0902 40.3316 22.9612 40.1904L22.1059 39.2564C21.9348 39.0703 21.6719 39.1239 21.4895 39.299C21.0733 39.6999 20.7438 39.8642 20.0553 39.8642C18.8532 39.8642 18.3118 38.7093 18.3118 37.2845V37.284C18.3118 35.8592 18.8532 34.7043 20.0553 34.7043C20.7438 34.7043 21.0733 34.8683 21.4895 35.2695C21.6719 35.4446 21.9348 35.4984 22.1059 35.312L22.9612 34.378C23.0902 34.2377 23.0935 34.016 22.9596 33.8797C22.1991 33.1035 21.1778 32.6289 20.0555 32.6289C17.7037 32.6289 15.797 34.7129 15.797 37.2837V37.2848ZM50.9076 36.1983H49.3212C49.2785 36.1984 49.2363 36.19 49.1969 36.1737C49.1575 36.1574 49.1217 36.1335 49.0916 36.1033C49.0614 36.0732 49.0375 36.0374 49.0212 35.998C49.0049 35.9586 48.9965 35.9163 48.9966 35.8737V35.2234C48.9966 35.044 49.1418 34.8988 49.3212 34.8988H51.659C51.7442 34.8988 51.8287 34.882 51.9075 34.8494C51.9862 34.8168 52.0578 34.769 52.1181 34.7087C52.1784 34.6484 52.2262 34.5768 52.2589 34.498C52.2915 34.4192 52.3082 34.3348 52.3082 34.2495V33.4352C52.3082 33.3499 52.2915 33.2655 52.2589 33.1867C52.2262 33.1079 52.1784 33.0363 52.1181 32.976C52.0578 32.9157 51.9862 32.8679 51.9075 32.8353C51.8287 32.8027 51.7442 32.7859 51.659 32.7859H47.1798C47.0946 32.7859 47.0102 32.8027 46.9314 32.8354C46.8527 32.868 46.7811 32.9158 46.7209 32.9761C46.6607 33.0364 46.6129 33.108 46.5803 33.1868C46.5478 33.2655 46.531 33.3499 46.5311 33.4352V41.0754C46.5311 41.2475 46.5994 41.4125 46.7211 41.5343C46.8427 41.656 47.0077 41.7245 47.1798 41.7246H51.659C51.8312 41.7246 51.9963 41.6562 52.118 41.5345C52.2398 41.4127 52.3082 41.2476 52.3082 41.0754V40.2605C52.3082 40.0883 52.2398 39.9231 52.118 39.8014C51.9963 39.6796 51.8312 39.6112 51.659 39.6112H49.3212C49.2785 39.6113 49.2363 39.6029 49.1969 39.5866C49.1575 39.5703 49.1217 39.5464 49.0916 39.5162C49.0614 39.4861 49.0375 39.4503 49.0212 39.4109C49.0049 39.3715 48.9965 39.3293 48.9966 39.2866V38.6363C48.9966 38.4574 49.1418 38.3117 49.3212 38.3117H50.9076C50.9929 38.3117 51.0773 38.295 51.1561 38.2623C51.2349 38.2297 51.3065 38.1819 51.3668 38.1216C51.4271 38.0613 51.4749 37.9897 51.5075 37.911C51.5401 37.8322 51.5569 37.7477 51.5569 37.6625V36.8481C51.5569 36.7628 51.5402 36.6783 51.5076 36.5995C51.475 36.5206 51.4272 36.449 51.3669 36.3887C51.3066 36.3283 51.235 36.2804 51.1562 36.2478C51.0774 36.2151 50.9929 36.1983 50.9076 36.1983ZM41.7855 41.7244H42.953C43.3113 41.7244 43.6023 41.4334 43.6023 41.0751V35.2231C43.6023 35.0437 43.7469 34.8985 43.9263 34.8985H45.2375C45.4097 34.8985 45.5748 34.8301 45.6966 34.7083C45.8183 34.5866 45.8867 34.4215 45.8867 34.2493V33.4349C45.8867 33.2627 45.8183 33.0976 45.6966 32.9758C45.5748 32.8541 45.4097 32.7857 45.2375 32.7857H39.5008C39.4155 32.7856 39.3311 32.8024 39.2523 32.835C39.1735 32.8676 39.1019 32.9154 39.0416 32.9757C38.9813 33.036 38.9335 33.1076 38.9009 33.1864C38.8683 33.2652 38.8515 33.3496 38.8515 33.4349V34.2493C38.8515 34.3345 38.8683 34.419 38.9009 34.4978C38.9335 34.5765 38.9813 34.6481 39.0416 34.7084C39.1019 34.7687 39.1735 34.8165 39.2523 34.8492C39.3311 34.8818 39.4155 34.8985 39.5008 34.8985H40.8114C40.9908 34.8985 41.136 35.0437 41.136 35.2231V41.0751C41.1362 41.2473 41.2047 41.4123 41.3265 41.5341C41.4482 41.6558 41.6133 41.7242 41.7855 41.7244ZM6.85857 39.6056H5.1148C5.0287 39.6056 4.94614 39.5714 4.88526 39.5105C4.82438 39.4496 4.79018 39.3671 4.79018 39.281V33.4349C4.79018 33.2628 4.72182 33.0977 4.60012 32.9759C4.47842 32.8542 4.31336 32.7857 4.14122 32.7857H2.97367C2.80153 32.7857 2.63646 32.8542 2.51477 32.9759C2.39307 33.0977 2.32471 33.2628 2.32471 33.4349V41.0746C2.32471 41.4334 2.61565 41.7238 2.97448 41.7233L6.34592 41.72L6.85938 41.719C7.03133 41.7188 7.19619 41.6504 7.31773 41.5288C7.43927 41.4071 7.50754 41.2422 7.50754 41.0703V40.2548C7.50757 40.1696 7.49081 40.0852 7.45821 40.0064C7.42562 39.9276 7.37782 39.856 7.31755 39.7958C7.25729 39.7355 7.18574 39.6876 7.10698 39.655C7.02823 39.6224 6.94382 39.6056 6.85857 39.6056Z" stroke="#EAF2EE" stroke-width="2.80147" stroke-miterlimit="2.613"/>
<path fill-rule="evenodd" clip-rule="evenodd" d="M27.3202 41.9396C29.6723 41.9396 31.5785 39.8556 31.5785 37.2842C31.5785 34.7134 29.6723 32.6294 27.3202 32.6294C24.9684 32.6294 23.0617 34.7134 23.0617 37.2842C23.0619 39.8556 24.9684 41.9396 27.3202 41.9396ZM27.3202 39.8639C26.1845 39.8639 25.5767 38.709 25.5767 37.2842C25.5767 35.8594 26.1182 34.7045 27.3202 34.7045C28.522 34.7045 29.064 35.8594 29.064 37.2842C29.064 38.709 28.456 39.8639 27.3202 39.8639ZM8.60315 41.7243H9.69176C9.83663 41.7258 9.97772 41.6781 10.092 41.5891C10.2063 41.5 10.287 41.3749 10.3211 41.2341L10.5554 40.3084C10.5923 40.1616 10.719 40.0633 10.8701 40.0633H12.9096C13.0608 40.0633 13.1874 40.1616 13.2243 40.3084L13.4584 41.2341C13.4925 41.3749 13.5732 41.5 13.6875 41.589C13.8018 41.678 13.9428 41.7257 14.0877 41.7243H15.1763C15.2775 41.7243 15.3773 41.7007 15.4677 41.6552C15.5581 41.6098 15.6366 41.5438 15.697 41.4627C15.7575 41.3815 15.798 41.2873 15.8156 41.1877C15.8331 41.088 15.8271 40.9856 15.7981 40.8887L13.5125 33.2485C13.4739 33.1139 13.3921 32.9957 13.2798 32.912C13.1675 32.8284 13.0308 32.7839 12.8908 32.7854H10.8889C10.5969 32.7854 10.3507 32.9686 10.2672 33.2485L7.98167 40.8887C7.95256 40.9856 7.94651 41.088 7.96401 41.1876C7.98151 41.2873 8.02208 41.3815 8.08246 41.4627C8.14284 41.5439 8.22137 41.6098 8.31178 41.6552C8.40219 41.7007 8.50197 41.7243 8.60315 41.7243ZM12.5066 38.2465H11.2728C11.2497 38.2462 11.2269 38.2406 11.2061 38.2303C11.1854 38.22 11.1673 38.2051 11.153 38.1868C11.1388 38.1685 11.1289 38.1473 11.124 38.1247C11.1191 38.102 11.1193 38.0786 11.1247 38.056L11.8213 35.3004C11.8375 35.2374 11.9417 35.2374 11.9576 35.3004L12.6545 38.056C12.6599 38.0786 12.6601 38.102 12.6552 38.1246C12.6504 38.1472 12.6404 38.1685 12.6263 38.1867C12.6121 38.205 12.5939 38.2199 12.5732 38.2302C12.5525 38.2406 12.5298 38.2461 12.5066 38.2465ZM15.797 37.2848C15.797 39.8556 17.7037 41.9396 20.0555 41.9396C21.1781 41.9396 22.1991 41.4649 22.9596 40.6888C23.0935 40.5525 23.0902 40.3316 22.9612 40.1904L22.1059 39.2564C21.9348 39.0703 21.6719 39.1239 21.4895 39.299C21.0733 39.6999 20.7438 39.8642 20.0553 39.8642C18.8532 39.8642 18.3118 38.7093 18.3118 37.2845V37.284C18.3118 35.8592 18.8532 34.7043 20.0553 34.7043C20.7438 34.7043 21.0733 34.8683 21.4895 35.2695C21.6719 35.4446 21.9348 35.4984 22.1059 35.312L22.9612 34.378C23.0902 34.2377 23.0935 34.016 22.9596 33.8797C22.1991 33.1035 21.1778 32.6289 20.0555 32.6289C17.7037 32.6289 15.797 34.7129 15.797 37.2837V37.2848ZM36.3147 39.17C36.3147 39.7044 35.8947 39.9959 35.3239 39.9959C34.6035 39.9959 34.1375 39.5654 33.7059 39.1236C33.4774 38.8901 33.0949 38.8979 32.8535 39.118L32.3185 39.6053C32.1097 39.7958 31.9524 40.1153 32.1302 40.3346C32.7081 41.0495 33.5704 41.8615 35.6501 41.8615C37.496 41.8615 38.6492 40.5746 38.6492 39.1875C38.6492 38.0558 38.1711 37.3071 36.8193 36.6161L35.4198 35.9516C34.8247 35.7932 34.5712 35.5779 34.5712 35.1892C34.5712 34.7762 34.8605 34.5235 35.3346 34.5235C35.8923 34.5235 36.3626 34.8697 36.7864 35.2096C37.0348 35.409 37.4003 35.3621 37.6166 35.128L38.1759 34.5224C38.3701 34.312 38.4421 33.9621 38.2365 33.7622C37.5625 33.1076 36.555 32.6162 35.1765 32.6162C33.2261 32.6162 32.0763 33.8258 32.0763 35.2959C32.0763 36.5351 32.6787 37.1789 33.9874 37.7756L35.5954 38.4634C36.1046 38.6212 36.3147 38.8173 36.3147 39.17ZM50.9076 36.1983H49.3212C49.2785 36.1984 49.2363 36.19 49.1969 36.1737C49.1575 36.1574 49.1217 36.1335 49.0916 36.1033C49.0614 36.0732 49.0375 36.0374 49.0212 35.998C49.0049 35.9586 48.9965 35.9163 48.9966 35.8737V35.2234C48.9966 35.044 49.1418 34.8988 49.3212 34.8988H51.659C51.7442 34.8988 51.8287 34.882 51.9075 34.8494C51.9862 34.8168 52.0578 34.769 52.1181 34.7087C52.1784 34.6484 52.2262 34.5768 52.2589 34.498C52.2915 34.4192 52.3082 34.3348 52.3082 34.2495V33.4352C52.3082 33.3499 52.2915 33.2655 52.2589 33.1867C52.2262 33.1079 52.1784 33.0363 52.1181 32.976C52.0578 32.9157 51.9862 32.8679 51.9075 32.8353C51.8287 32.8027 51.7442 32.7859 51.659 32.7859H47.1798C47.0946 32.7859 47.0102 32.8027 46.9314 32.8354C46.8527 32.868 46.7811 32.9158 46.7209 32.9761C46.6607 33.0364 46.6129 33.108 46.5803 33.1868C46.5477 33.2655 46.531 33.3499 46.5311 33.4352V41.0754C46.5311 41.2475 46.5994 41.4125 46.7211 41.5343C46.8427 41.656 47.0077 41.7245 47.1798 41.7246H51.659C51.8312 41.7246 51.9963 41.6562 52.118 41.5345C52.2398 41.4127 52.3082 41.2476 52.3082 41.0754V40.2605C52.3082 40.0883 52.2398 39.9231 52.118 39.8014C51.9963 39.6796 51.8312 39.6112 51.659 39.6112H49.3212C49.2785 39.6113 49.2363 39.6029 49.1969 39.5866C49.1575 39.5703 49.1217 39.5464 49.0916 39.5162C49.0614 39.4861 49.0375 39.4503 49.0212 39.4109C49.0049 39.3715 48.9965 39.3293 48.9966 39.2866V38.6363C48.9966 38.4574 49.1418 38.3117 49.3212 38.3117H50.9076C50.9929 38.3117 51.0773 38.295 51.1561 38.2623C51.2349 38.2297 51.3065 38.1819 51.3668 38.1216C51.4271 38.0613 51.4749 37.9897 51.5075 37.911C51.5401 37.8322 51.5569 37.7477 51.5569 37.6625V36.8481C51.5569 36.7628 51.5402 36.6783 51.5076 36.5995C51.475 36.5206 51.4272 36.449 51.3669 36.3887C51.3066 36.3283 51.235 36.2804 51.1562 36.2478C51.0774 36.2151 50.9929 36.1983 50.9076 36.1983ZM41.7855 41.7243H42.953C43.3113 41.7243 43.6023 41.4334 43.6023 41.0751V35.2231C43.6023 35.0437 43.7469 34.8985 43.9263 34.8985H45.2375C45.4097 34.8985 45.5748 34.8301 45.6966 34.7083C45.8183 34.5866 45.8867 34.4215 45.8867 34.2493V33.4349C45.8867 33.2627 45.8183 33.0976 45.6966 32.9758C45.5748 32.8541 45.4097 32.7857 45.2375 32.7857H39.5008C39.4155 32.7856 39.3311 32.8024 39.2523 32.835C39.1735 32.8676 39.1019 32.9154 39.0416 32.9757C38.9813 33.036 38.9335 33.1076 38.9009 33.1864C38.8683 33.2652 38.8515 33.3496 38.8515 33.4349V34.2493C38.8515 34.3345 38.8683 34.419 38.9009 34.4978C38.9335 34.5765 38.9813 34.6481 39.0416 34.7084C39.1019 34.7687 39.1735 34.8165 39.2523 34.8492C39.3311 34.8818 39.4155 34.8985 39.5008 34.8985H40.8114C40.9908 34.8985 41.136 35.0437 41.136 35.2231V41.0751C41.1362 41.2473 41.2047 41.4123 41.3265 41.534C41.4482 41.6558 41.6133 41.7242 41.7855 41.7243ZM6.85857 39.6056H5.1148C5.0287 39.6056 4.94614 39.5714 4.88526 39.5105C4.82438 39.4496 4.79018 39.3671 4.79018 39.281V33.4349C4.79018 33.2628 4.72182 33.0977 4.60012 32.9759C4.47842 32.8542 4.31336 32.7857 4.14122 32.7857H2.97367C2.80153 32.7857 2.63646 32.8542 2.51477 32.9759C2.39307 33.0977 2.32471 33.2628 2.32471 33.4349V41.0746C2.32471 41.4334 2.61565 41.7238 2.97448 41.7233L6.34592 41.72L6.85938 41.719C7.03133 41.7188 7.19619 41.6504 7.31773 41.5288C7.43927 41.4071 7.50754 41.2422 7.50754 41.0703V40.2548C7.50757 40.1696 7.49081 40.0852 7.45821 40.0064C7.42562 39.9276 7.37782 39.856 7.31755 39.7958C7.25729 39.7355 7.18574 39.6876 7.10698 39.655C7.02823 39.6224 6.94382 39.6056 6.85857 39.6056Z" fill="#202223"/>
</svg>
