<svg width="15" height="19" viewBox="0 0 15 19" fill="none" xmlns="http://www.w3.org/2000/svg">
<path d="M7.52133 16.9665C9.56749 15.1049 11.079 13.4165 12.056 11.9011C13.0329 10.3857 13.5213 9.05108 13.5213 7.89723C13.5213 6.08508 12.9422 4.60127 11.7838 3.44581C10.6255 2.29035 9.20467 1.71262 7.52133 1.71262C5.838 1.71262 4.41716 2.29035 3.25884 3.44581C2.1005 4.60127 1.52133 6.08508 1.52133 7.89723C1.52133 9.05108 2.02133 10.3857 3.02133 11.9011C4.02133 13.4165 5.52133 15.1049 7.52133 16.9665ZM7.51556 18.328C7.35018 18.328 7.18672 18.3011 7.02518 18.2472C6.86364 18.1934 6.72133 18.1049 6.59826 17.9818C5.9521 17.3972 5.2521 16.7242 4.49826 15.9626C3.74441 15.2011 3.04441 14.3818 2.39826 13.5049C1.7521 12.628 1.21364 11.7126 0.782873 10.7588C0.352103 9.80493 0.136719 8.85108 0.136719 7.89723C0.136719 5.58954 0.879026 3.75108 2.36364 2.38185C3.84826 1.01262 5.56749 0.328003 7.52133 0.328003C9.47518 0.328003 11.1944 1.01262 12.679 2.38185C14.1636 3.75108 14.9059 5.58954 14.9059 7.89723C14.9059 8.85108 14.6906 9.80493 14.2598 10.7588C13.829 11.7126 13.2906 12.628 12.6444 13.5049C11.9983 14.3818 11.2983 15.2011 10.5444 15.9626C9.79057 16.7242 9.09056 17.3972 8.44441 17.9818C8.32133 18.1049 8.1771 18.1934 8.01172 18.2472C7.84633 18.3011 7.68095 18.328 7.51556 18.328ZM7.52339 9.328C7.96817 9.328 8.34826 9.16963 8.66364 8.85287C8.97903 8.53613 9.13672 8.15536 9.13672 7.71057C9.13672 7.26578 8.97834 6.8857 8.66159 6.57031C8.34485 6.25493 7.96408 6.09723 7.51928 6.09723C7.0745 6.09723 6.69441 6.25561 6.37903 6.57236C6.06364 6.8891 5.90595 7.26987 5.90595 7.71467C5.90595 8.15946 6.06433 8.53954 6.38108 8.85493C6.69782 9.17031 7.07859 9.328 7.52339 9.328Z" fill="#202223"/>
</svg>
