<svg width="137" height="34" viewBox="0 0 137 34" fill="none" xmlns="http://www.w3.org/2000/svg">
<path d="M3.4939 32.7497V5.5635H10.0962V32.7497H3.4939ZM6.56205 22.3412V16.8263H20.6212V22.3412H6.56205ZM6.56205 11.3891V5.5635H22.2135V11.3891H6.56205Z" fill="#282525"/>
<path d="M28.8222 32.7497V4.01001H35.0362V32.7497H28.8222Z" fill="#282525"/>
<path d="M49.3605 33.1769C47.8329 33.1769 46.5254 32.8532 45.4379 32.2059C44.3764 31.5328 43.5479 30.5748 42.9524 29.332C42.3827 28.0892 42.0979 26.6004 42.0979 24.8657V12.127H48.3507V24.0112C48.3507 24.8398 48.4802 25.5518 48.7391 26.1473C48.998 26.7428 49.3864 27.2089 49.9042 27.5454C50.4221 27.8561 51.0435 28.0115 51.7684 28.0115C52.3122 28.0115 52.8041 27.9209 53.2443 27.7396C53.7103 27.5584 54.0987 27.3124 54.4094 27.0017C54.746 26.6651 55.0049 26.2897 55.1861 25.8754C55.3674 25.4353 55.458 24.9563 55.458 24.4385V12.127H61.7108V32.7497H55.8464L55.5745 28.5164L56.7396 28.0503C56.4289 29.0342 55.9111 29.9145 55.1861 30.6913C54.4612 31.4421 53.5938 32.0506 52.584 32.5166C51.5742 32.9568 50.4997 33.1769 49.3605 33.1769Z" fill="#282525"/>
<path d="M81.8907 32.7497L77.5021 26.1085L75.4826 23.2733L67.3267 12.127H74.7835L79.0168 18.4575L81.2305 21.4868L89.2699 32.7497H81.8907ZM67.1325 32.7497L75.4437 21.1761L78.7838 25.1764L74.4728 32.7497H67.1325ZM80.7645 23.7782L77.4633 19.8168L81.5412 12.127H88.8815L80.7645 23.7782Z" fill="#282525"/>
<path d="M101.122 33.0992C99.3872 33.0992 97.8337 32.6461 96.4614 31.7399C95.1151 30.8078 94.0406 29.5391 93.2379 27.9338C92.4353 26.3027 92.034 24.4644 92.034 22.4189C92.034 20.3217 92.4353 18.4705 93.2379 16.8652C94.0406 15.2599 95.141 14.0042 96.5391 13.0979C97.9373 12.1659 99.5296 11.6998 101.316 11.6998C102.3 11.6998 103.193 11.8422 103.996 12.127C104.824 12.4118 105.549 12.8131 106.171 13.331C106.792 13.8229 107.323 14.4055 107.763 15.0787C108.203 15.7259 108.527 16.425 108.734 17.1759L107.452 17.0205V12.127H113.628V32.7497H107.336V27.7785L108.734 27.7396C108.527 28.4646 108.19 29.1507 107.724 29.798C107.258 30.4453 106.689 31.0149 106.015 31.5069C105.342 31.9988 104.591 32.3872 103.763 32.672C102.934 32.9568 102.054 33.0992 101.122 33.0992ZM102.831 27.8561C103.789 27.8561 104.617 27.6361 105.316 27.1959C106.015 26.7558 106.559 26.1344 106.948 25.3317C107.336 24.5032 107.53 23.5323 107.53 22.4189C107.53 21.3056 107.336 20.3476 106.948 19.545C106.559 18.7164 106.015 18.0821 105.316 17.6419C104.617 17.1759 103.789 16.9429 102.831 16.9429C101.899 16.9429 101.083 17.1759 100.384 17.6419C99.7108 18.0821 99.1801 18.7164 98.7917 19.545C98.4033 20.3476 98.2091 21.3056 98.2091 22.4189C98.2091 23.5323 98.4033 24.5032 98.7917 25.3317C99.1801 26.1344 99.7108 26.7558 100.384 27.1959C101.083 27.6361 101.899 27.8561 102.831 27.8561Z" fill="#282525"/>
<path d="M121.052 32.7497V12.127H126.956L127.228 18.8459L126.062 17.5642C126.373 16.4509 126.878 15.4541 127.577 14.5738C128.302 13.6935 129.144 12.9944 130.102 12.4766C131.06 11.9587 132.082 11.6998 133.17 11.6998C133.636 11.6998 134.063 11.7386 134.451 11.8163C134.866 11.894 135.241 11.9846 135.578 12.0882L133.869 18.9624C133.584 18.7812 133.196 18.6387 132.704 18.5352C132.238 18.4057 131.746 18.341 131.228 18.341C130.658 18.341 130.127 18.4446 129.636 18.6517C129.144 18.8329 128.729 19.1048 128.393 19.4673C128.056 19.8298 127.784 20.257 127.577 20.7489C127.396 21.2409 127.305 21.7975 127.305 22.4189V32.7497H121.052Z" fill="#282525"/>
<path d="M132.517 7.70189C131.455 7.70189 130.627 7.40413 130.031 6.80863C129.462 6.21312 129.177 5.3587 129.177 4.24536C129.177 3.2097 129.488 2.36822 130.109 1.72093C130.73 1.07364 131.533 0.75 132.517 0.75C133.579 0.75 134.407 1.0607 135.003 1.6821C135.598 2.2776 135.896 3.13203 135.896 4.24536C135.896 5.25513 135.585 6.08366 134.964 6.73095C134.342 7.37824 133.527 7.70189 132.517 7.70189Z" fill="#FF5449"/>
</svg>
