<svg width="14" height="19" viewBox="0 0 14 19" fill="none" xmlns="http://www.w3.org/2000/svg">
<path d="M6.64928 0.867188C2.98279 0.867188 0 3.84998 0 7.51647C0 8.72351 0.54133 10.0217 0.564016 10.0764C0.738853 10.4914 1.08383 11.136 1.33259 11.5139L5.89166 18.4217C6.07823 18.7049 6.35437 18.8672 6.64928 18.8672C6.9442 18.8672 7.22034 18.7049 7.40691 18.4221L11.9664 11.5139C12.2155 11.136 12.5601 10.4914 12.7349 10.0764C12.7576 10.0221 13.2986 8.7239 13.2986 7.51647C13.2986 3.84998 10.3158 0.867188 6.64928 0.867188ZM12.0137 9.77292C11.8576 10.1449 11.5365 10.7445 11.3132 11.0832L6.75372 17.9914C6.66375 18.1279 6.6352 18.1279 6.54524 17.9914L1.98579 11.0832C1.76245 10.7445 1.44133 10.1445 1.28527 9.77253C1.27862 9.7565 0.782269 8.56158 0.782269 7.51647C0.782269 4.2814 3.41421 1.64946 6.64928 1.64946C9.88435 1.64946 12.5163 4.2814 12.5163 7.51647C12.5163 8.56315 12.0188 9.76119 12.0137 9.77292Z" fill="#6D7175"/>
<path d="M6.6493 3.99658C4.7081 3.99658 3.12909 5.57598 3.12909 7.51679C3.12909 9.4576 4.7081 11.037 6.6493 11.037C8.5905 11.037 10.1695 9.4576 10.1695 7.51679C10.1695 5.57598 8.5905 3.99658 6.6493 3.99658ZM6.6493 10.2547C5.13991 10.2547 3.91136 9.02657 3.91136 7.51679C3.91136 6.00701 5.13991 4.77885 6.6493 4.77885C8.15869 4.77885 9.38724 6.00701 9.38724 7.51679C9.38724 9.02657 8.15869 10.2547 6.6493 10.2547Z" fill="#6D7175"/>
</svg>
