<svg width="31" height="19" viewBox="0 0 31 19" fill="none" xmlns="http://www.w3.org/2000/svg">
<path d="M30.5786 9.31543C30.5786 14.2539 26.5632 18.3154 21.5786 18.3154C16.6402 18.3154 12.5786 14.2539 12.5786 9.31543C12.5786 4.37697 16.594 0.31543 21.5325 0.31543C26.5632 0.31543 30.5786 4.37697 30.5786 9.31543Z" fill="#F9B50B"/>
<path d="M18.5325 9.36158C18.5325 8.71543 18.4402 8.06928 18.3478 7.46928H12.8094C12.8555 7.1462 12.9478 6.86928 13.0402 6.50004H17.9786C17.8863 6.17697 17.7478 5.85389 17.6094 5.53081H13.4094C13.5478 5.20774 13.7325 4.93081 13.9171 4.56158H17.1017C16.9171 4.23851 16.6863 3.91543 16.4094 3.59235H14.6555C14.9325 3.26928 15.2094 2.99235 15.5786 2.66928C14.0094 1.19235 11.8863 0.31543 9.53246 0.31543C4.64015 0.453891 0.578613 4.37697 0.578613 9.31543C0.578613 14.2539 4.594 18.3154 9.57861 18.3154C11.9325 18.3154 14.0094 17.3924 15.6248 15.9616C15.9478 15.6847 16.2248 15.3616 16.5478 14.9924H14.7017C14.4709 14.7154 14.2402 14.3924 14.0555 14.0693H17.194C17.3786 13.7924 17.5632 13.4693 17.7017 13.1H13.5017C13.3632 12.8231 13.2248 12.5 13.1325 12.1308H18.0709C18.3478 11.3 18.5325 10.377 18.5325 9.36158Z" fill="#C8191C"/>
<path d="M12.7625 11.6231L12.901 10.7923C12.8549 10.7923 12.7625 10.8385 12.6702 10.8385C12.3472 10.8385 12.301 10.6539 12.3472 10.5616L12.6241 8.90002H13.1318L13.2702 7.97694H12.8087L12.901 7.4231H11.9318C11.9318 7.4231 11.3779 10.5616 11.3779 10.9308C11.3779 11.4846 11.701 11.7616 12.1625 11.7616C12.4395 11.7616 12.6702 11.6692 12.7625 11.6231Z" fill="white"/>
<path d="M13.0869 10.1001C13.0869 11.4386 14.01 11.7617 14.7485 11.7617C15.4408 11.7617 15.7638 11.6232 15.7638 11.6232L15.9485 10.7001C15.9485 10.7001 15.4408 10.9309 14.9331 10.9309C13.8715 10.9309 14.0561 10.1463 14.0561 10.1463H15.9946C15.9946 10.1463 16.1331 9.54629 16.1331 9.26937C16.1331 8.66937 15.81 7.88475 14.7485 7.88475C13.8254 7.8386 13.0869 8.90014 13.0869 10.1001ZM14.7485 8.71552C15.2561 8.71552 15.1638 9.31552 15.1638 9.36168H14.1023C14.1485 9.31552 14.2408 8.71552 14.7485 8.71552Z" fill="white"/>
<path d="M20.7948 11.6232L20.9794 10.5617C20.9794 10.5617 20.5179 10.7924 20.1487 10.7924C19.5025 10.7924 19.1794 10.2847 19.1794 9.68475C19.1794 8.5309 19.7333 7.9309 20.4256 7.9309C20.8871 7.9309 21.3025 8.20782 21.3025 8.20782L21.441 7.19244C21.441 7.19244 20.8871 6.96167 20.3333 6.96167C19.2256 6.96167 18.1641 7.9309 18.1641 9.7309C18.1641 10.9309 18.7179 11.7155 19.8718 11.7155C20.2871 11.7617 20.7948 11.6232 20.7948 11.6232Z" fill="white"/>
<path d="M7.54756 7.83838C6.9014 7.83838 6.39371 8.02299 6.39371 8.02299L6.25525 8.85376C6.25525 8.85376 6.67064 8.66915 7.31679 8.66915C7.63987 8.66915 7.91679 8.7153 7.91679 8.99223C7.91679 9.17684 7.87064 9.22299 7.87064 9.22299H7.45525C6.62448 9.22299 5.74756 9.54607 5.74756 10.6538C5.74756 11.5307 6.3014 11.7153 6.67064 11.7153C7.31679 11.7153 7.63987 11.2999 7.68602 11.2999L7.63987 11.6691H8.42448L8.79371 9.03838C8.79371 7.88453 7.87064 7.83838 7.54756 7.83838ZM7.73217 9.96146C7.73217 10.0999 7.63987 10.8845 7.08602 10.8845C6.8091 10.8845 6.71679 10.6538 6.71679 10.5153C6.71679 10.2845 6.85525 9.96146 7.59371 9.96146C7.68602 9.96146 7.73217 9.96146 7.73217 9.96146Z" fill="white"/>
<path d="M9.71732 11.7153C9.94809 11.7153 11.1481 11.7615 11.1481 10.4692C11.1481 9.26916 9.99425 9.49993 9.99425 9.03839C9.99425 8.80762 10.1789 8.71531 10.5019 8.71531C10.6404 8.71531 11.1481 8.76147 11.1481 8.76147L11.2866 7.88454C11.2866 7.88454 10.9635 7.79224 10.3635 7.79224C9.67117 7.79224 8.93271 8.06916 8.93271 9.03839C8.93271 10.1461 10.1327 10.0538 10.1327 10.4692C10.1327 10.7461 9.80963 10.7922 9.57886 10.7922C9.16348 10.7922 8.70194 10.6538 8.70194 10.6538L8.56348 11.5307C8.65578 11.623 8.93271 11.7153 9.71732 11.7153Z" fill="white"/>
<path d="M28.7333 7.1001L28.5487 8.39241C28.5487 8.39241 28.1795 7.93087 27.6256 7.93087C26.7487 7.93087 26.0103 8.99241 26.0103 10.2386C26.0103 11.0232 26.3795 11.8078 27.2103 11.8078C27.7641 11.8078 28.1333 11.4386 28.1333 11.4386L28.0872 11.7616H29.0564L29.7487 7.19241L28.7333 7.1001ZM28.2718 9.59241C28.2718 10.1001 28.041 10.7924 27.4872 10.7924C27.1641 10.7924 26.9795 10.5155 26.9795 10.0078C26.9795 9.22317 27.3026 8.76164 27.7641 8.76164C28.0872 8.80779 28.2718 9.03856 28.2718 9.59241Z" fill="white"/>
<path d="M2.33274 11.6693L2.88659 8.25394L2.9789 11.6693H3.62505L4.87121 8.25394L4.36351 11.6693H5.3789L6.16351 7.1001H4.59428L3.62505 9.91548L3.5789 7.1001H2.19428L1.40967 11.6693H2.33274Z" fill="white"/>
<path d="M17.1016 11.6691C17.3785 10.0999 17.4247 8.80759 18.117 9.03836C18.2093 8.43836 18.3477 8.16143 18.44 7.93066H18.2554C17.84 7.93066 17.4708 8.48451 17.4708 8.48451L17.5631 7.97682H16.64L16.04 11.6691H17.1016Z" fill="white"/>
<path d="M23.009 7.83838C22.3628 7.83838 21.8551 8.02299 21.8551 8.02299L21.7167 8.85376C21.7167 8.85376 22.1321 8.66915 22.7782 8.66915C23.1013 8.66915 23.3782 8.7153 23.3782 8.99223C23.3782 9.17684 23.3321 9.22299 23.3321 9.22299H22.9167C22.0859 9.22299 21.209 9.54607 21.209 10.6538C21.209 11.5307 21.7628 11.7153 22.1321 11.7153C22.7782 11.7153 23.1013 11.2999 23.1474 11.2999L23.1013 11.6691H23.9782L24.3474 9.03838C24.3474 7.88453 23.3321 7.83838 23.009 7.83838ZM23.2398 9.96146C23.2398 10.0999 23.1474 10.8845 22.5936 10.8845C22.3167 10.8845 22.2244 10.6538 22.2244 10.5153C22.2244 10.2845 22.3628 9.96146 23.1013 9.96146C23.1936 9.96146 23.1936 9.96146 23.2398 9.96146Z" fill="white"/>
<path d="M25.0864 11.6691C25.3634 10.0999 25.4095 8.80759 26.1018 9.03836C26.1941 8.43836 26.3326 8.16143 26.4249 7.93066H26.2403C25.8249 7.93066 25.4557 8.48451 25.4557 8.48451L25.548 7.97682H24.6249L24.0249 11.6691H25.0864Z" fill="white"/>
</svg>
