<svg width="17" height="17" viewBox="0 0 17 17" fill="none" xmlns="http://www.w3.org/2000/svg">
<g clip-path="url(#clip0_5472_6767)">
<path d="M14.3123 8.12585H15.0704C15.6476 8.12585 16.1172 7.65625 16.1172 7.07904C16.1172 6.50182 15.6476 6.03222 15.0704 6.03222H14.8153C14.7794 5.3176 14.5783 4.9125 14.4088 4.58369H15.0704C15.6476 4.58369 16.1172 4.1141 16.1172 3.53688C16.1172 2.95966 15.6476 2.49007 15.0704 2.49007H14.5445C14.7366 2.06975 14.7811 1.68329 14.5099 1.29732C14.3131 1.01729 13.9913 0.850098 13.6487 0.850098C13.1989 0.850098 12.7979 1.13885 12.651 1.56857C12.5507 1.86197 12.3682 2.0955 12.2252 2.49007H11.0023C11.035 2.41844 11.0671 2.342 11.0968 2.25957C11.2129 1.93729 11.1647 1.57757 10.9677 1.29732C10.771 1.01729 10.4492 0.850098 10.1066 0.850098C9.65678 0.850098 9.25581 1.13882 9.10888 1.56857C9.06138 1.70744 8.99378 1.83594 8.92219 1.97197C8.84366 2.12119 8.75681 2.28619 8.68262 2.4901H7.46019C7.49294 2.41847 7.52494 2.34204 7.55466 2.2596C7.67078 1.93732 7.62253 1.57757 7.42562 1.29732C7.22884 1.01729 6.90706 0.850098 6.56444 0.850098C6.11462 0.850098 5.71366 1.13882 5.56672 1.56857C5.51922 1.70744 5.45159 1.83594 5.38 1.97197C5.30156 2.121 5.21519 2.28513 5.14094 2.49007H3.91806C4.11019 2.06979 4.15472 1.68335 3.88347 1.29732C3.68672 1.01729 3.36494 0.850098 3.02228 0.850098C2.57247 0.850098 2.17153 1.13885 2.02459 1.56857C1.92422 1.86213 1.74137 2.09697 1.59831 2.49007H1.164C0.586781 2.49007 0.117188 2.95969 0.117188 3.53691C0.117188 4.11413 0.586781 4.58372 1.164 4.58372H3.25728C3.28872 4.64903 3.3215 4.71257 3.35363 4.77488C3.53656 5.12947 3.72575 5.49616 3.72575 6.26147V6.26472C3.72575 6.26538 3.72572 6.266 3.72572 6.26666C3.72572 6.26713 3.72572 6.26763 3.72575 6.2681C3.72384 7.6581 3.03831 7.81191 3.03831 8.84994C3.03831 9.14247 3.09191 9.36532 3.17509 9.57441H1.9545C1.90594 9.3576 1.88222 9.11888 1.88222 8.84994C1.88222 7.39857 2.56966 7.33957 2.56966 6.26147C2.56966 5.81975 2.44131 5.52835 2.30988 5.26775C2.25156 5.15216 2.11063 5.10575 1.99506 5.16407C1.8795 5.22238 1.83306 5.36332 1.89137 5.47888C1.97794 5.6505 2.05325 5.81557 2.08494 6.03229H1.164C0.586781 6.03222 0.117188 6.50182 0.117188 7.07904C0.117188 7.65625 0.586781 8.12585 1.164 8.12585H1.47484C1.39422 8.55979 1.39078 9.123 1.47594 9.57438H1.164C0.586781 9.57435 0.117188 10.044 0.117188 10.6212C0.117188 11.1983 0.586781 11.668 1.164 11.668H2.08556C2.01422 12.1734 1.68797 12.4315 1.51547 13.1165H1.164C0.586781 13.1165 0.117188 13.5861 0.117188 14.1633C0.117188 14.7405 0.586781 15.2101 1.164 15.2101H1.60147C1.74097 15.5951 1.92347 15.8455 2.02237 16.1318C2.17084 16.5614 2.57181 16.8501 3.02012 16.8501C3.36231 16.8501 3.68419 16.6829 3.88112 16.4029C4.07775 16.1233 4.12622 15.7644 4.01072 15.443C3.98091 15.36 3.94878 15.2827 3.91594 15.2101H5.14313C5.28134 15.59 5.46669 15.8487 5.5645 16.1318C5.71297 16.5614 6.11394 16.8501 6.56225 16.8501C6.90447 16.8501 7.22634 16.6829 7.42328 16.4029C7.61991 16.1233 7.66834 15.7644 7.55284 15.4431C7.52303 15.3601 7.49091 15.2828 7.45806 15.2101H8.68572C8.82534 15.5954 9.00762 15.8453 9.10662 16.1318C9.25506 16.5614 9.65603 16.8501 10.1043 16.8501C10.4466 16.8501 10.7684 16.6829 10.9654 16.4029C11.162 16.1233 11.2105 15.7645 11.095 15.4431C11.0652 15.3601 11.033 15.2828 11.0002 15.2101H12.2273C12.3677 15.5958 12.5496 15.845 12.6487 16.1318C12.7972 16.5614 13.1981 16.8501 13.6465 16.8501C13.9887 16.8501 14.3105 16.6829 14.5075 16.4029C14.7882 16.0038 14.7253 15.6148 14.5423 15.2101H15.0703C15.6475 15.2101 16.1171 14.7405 16.1171 14.1633C16.1171 13.5861 15.6475 13.1165 15.0703 13.1165H14.4086C14.5784 12.7934 14.78 12.3948 14.8154 11.6679H15.0703C15.6475 11.6679 16.1171 11.1983 16.1171 10.6211C16.1171 10.0439 15.6475 9.57432 15.0703 9.57432H14.3142C14.0647 9.06307 14.0765 8.6035 14.3123 8.12585ZM1.164 7.6571C0.84525 7.6571 0.585938 7.39779 0.585938 7.07904C0.585938 6.76029 0.84525 6.50097 1.164 6.50097H2.08413C2.02078 6.92775 1.782 7.16729 1.60244 7.6571H1.164ZM15.6484 7.07904C15.6484 7.39779 15.3891 7.6571 15.0704 7.6571C14.1213 7.6571 11.7951 7.6571 11.0067 7.6571C11.132 7.37972 11.246 7.02663 11.2728 6.50097H15.0704C15.3891 6.50097 15.6484 6.76029 15.6484 7.07904ZM7.7305 11.1992C7.70322 10.6798 7.58838 10.3246 7.46256 10.0431C7.56778 10.0431 12.123 10.0432 12.2316 10.0431C12.4083 10.5253 12.646 10.7849 12.7098 11.1992H7.7305ZM8.59978 13.1165H7.32438C7.49416 12.7934 7.69575 12.3948 7.73119 11.668H9.16988C9.09853 12.1734 8.77225 12.4315 8.59978 13.1165ZM5.5435 13.1165C5.73344 12.4979 6.11175 12.2247 6.11175 11.4384C6.11175 10.67 5.73181 10.3718 5.54266 9.75C5.54116 9.74416 5.53941 9.73838 5.53747 9.73272C5.39284 9.24416 5.39497 8.579 5.49456 8.12582H6.71513C6.44591 8.80763 6.60794 9.39397 6.89575 9.95185C7.07819 10.3055 7.26684 10.6711 7.26788 11.4321C7.26788 11.4326 7.26784 11.4331 7.26784 11.4336C7.26784 11.4343 7.26788 11.4349 7.26788 11.4356V11.4384C7.26788 12.2172 7.07953 12.5752 6.89738 12.9214C6.864 12.9848 6.82994 13.0496 6.79734 13.1165H5.5435V13.1165ZM3.78222 13.1165C3.952 12.7934 4.15359 12.3948 4.18903 11.668H5.62769C5.55625 12.1742 5.2285 12.4347 5.05688 13.1165H3.78222ZM5.37988 5.37438C5.49453 5.59657 5.59037 5.78238 5.62703 6.03222H4.18888C4.15303 5.3176 3.95191 4.9125 3.78244 4.58369H5.05978C5.14562 4.92035 5.2705 5.16238 5.37988 5.37438ZM4.18856 6.50097H9.16841C9.06831 7.17541 8.49775 7.43907 8.49775 8.84988C8.49775 9.11272 8.51831 9.35219 8.56025 9.57435H7.22994C6.98022 9.06275 6.99241 8.60319 7.22803 8.12582H7.75266C7.88209 8.12582 7.98703 8.02088 7.98703 7.89144C7.98703 7.762 7.88209 7.65707 7.75266 7.65707C7.37609 7.65707 4.34631 7.65707 3.92244 7.65707C4.04775 7.37972 4.16172 7.02663 4.18856 6.50097ZM12.7111 6.03222H11.2732C11.2373 5.3176 11.0362 4.9125 10.8667 4.58369H12.1441C12.3189 5.26963 12.6374 5.53047 12.7111 6.03222ZM10.3416 4.58369C10.373 4.649 10.4058 4.71254 10.4379 4.77485C10.7235 5.32841 10.8027 5.63588 10.81 6.2691C10.8088 7.04254 10.6211 7.39916 10.4396 7.7441C10.1204 8.3506 10.004 8.93257 10.2593 9.57438H9.03878C8.99022 9.35757 8.9665 9.11885 8.9665 8.84991C8.9665 8.07122 9.15484 7.71335 9.33697 7.36725C10.0786 5.95816 9.33288 5.37425 9.08834 4.58372L10.3416 4.58369ZM8.60137 4.58369C8.77372 5.25991 9.09622 5.53479 9.16919 6.03222H7.731C7.69513 5.3176 7.494 4.9125 7.32453 4.58369H8.60137ZM12.1028 9.57435H10.7723C10.5244 9.06472 10.5328 8.60494 10.77 8.12582H12.1007C12.0226 8.54785 12.0153 9.11225 12.1028 9.57435ZM15.6484 3.53691C15.6484 3.85566 15.3891 4.11497 15.0704 4.11497H14.1982C14.1578 3.98591 14.1335 3.84532 14.1335 3.67297C14.1335 3.36819 14.2052 3.16672 14.3073 2.95885H15.0704C15.3891 2.95882 15.6484 3.21816 15.6484 3.53691ZM13.0945 1.72025C13.1766 1.48016 13.3993 1.31885 13.6492 1.31885C13.8417 1.31885 14.0156 1.40922 14.1263 1.56682C14.5313 2.14319 13.6648 2.61435 13.6648 3.67294C13.6648 4.65991 14.2806 4.84125 14.3461 6.03222H13.1837C13.0862 5.15482 12.5086 4.99994 12.5086 3.67294C12.5086 2.5586 12.8954 2.30266 13.0945 1.72025ZM12.0618 4.11494H10.4976C10.4942 4.11488 10.4908 4.11488 10.4873 4.11494H8.79447C8.79166 4.11488 8.78884 4.11491 8.78603 4.11494H7.11384C7.07347 3.98588 7.04919 3.84529 7.04919 3.67294C7.04919 3.36816 7.12091 3.16669 7.22297 2.95882H8.84734C8.84903 2.95885 8.85069 2.95888 8.85238 2.95888C8.85409 2.95888 8.85584 2.95885 8.85756 2.95882H10.6181C10.6205 2.95885 10.6229 2.95885 10.6253 2.95882H12.0994C12.0313 3.33191 12.0256 3.76757 12.0618 4.11494ZM9.33697 2.19029C9.41375 2.04441 9.49312 1.89354 9.55241 1.72025C9.6345 1.48016 9.85722 1.31885 10.107 1.31885C10.2996 1.31885 10.4735 1.40922 10.5842 1.56682C10.6951 1.72463 10.7212 1.91919 10.6558 2.10069C10.6036 2.2456 10.5419 2.37091 10.48 2.49007H9.188C9.2355 2.38307 9.28669 2.28579 9.33697 2.19029ZM6.01025 1.72025C6.09234 1.48016 6.31506 1.31885 6.56488 1.31885C6.75741 1.31885 6.93134 1.40922 7.04203 1.56679C7.44797 2.1445 6.58044 2.61038 6.58044 3.67294C6.58044 4.65829 7.19616 4.83935 7.26178 6.03222H6.09937C6.00334 5.16779 5.42431 4.98272 5.42431 3.67294C5.42434 2.5586 5.81109 2.30266 6.01025 1.72025ZM2.46813 1.72022C2.55022 1.48016 2.77291 1.31885 3.02275 1.31885C3.21528 1.31885 3.38922 1.40922 3.49994 1.56682C3.71428 1.87185 3.56813 2.15835 3.39569 2.4901H2.10369C2.2245 2.218 2.37034 2.00616 2.46813 1.72022ZM0.585938 3.53691C0.585938 3.21816 0.84525 2.95885 1.164 2.95885H5.01512C4.94703 3.33191 4.94128 3.76757 4.97747 4.11497H1.164C0.84525 4.11494 0.585938 3.85563 0.585938 3.53691ZM3.68572 8.12585H5.01638C4.93831 8.54788 4.93103 9.11229 5.01853 9.57438H3.68797C3.44016 9.06469 3.44853 8.60497 3.68572 8.12585ZM0.585938 10.6212C0.585938 10.3024 0.84525 10.0431 1.164 10.0431H5.14731C5.32406 10.5253 5.56169 10.7849 5.62553 11.1992H1.164C0.84525 11.1992 0.585938 10.9399 0.585938 10.6212ZM1.164 14.7414C0.84525 14.7414 0.585938 14.4821 0.585938 14.1633C0.585938 13.8446 0.84525 13.5853 1.164 13.5853H1.43469C1.42106 13.7194 1.41344 13.866 1.41344 14.0271C1.41344 14.3036 1.43672 14.5382 1.4745 14.7413H1.164V14.7414ZM3.49772 16.1332C3.38684 16.2909 3.21275 16.3813 3.02012 16.3813C2.77156 16.3813 2.54869 16.2195 2.46544 15.9787C2.26556 15.4002 1.88219 15.1149 1.88219 14.0271C1.88219 12.6843 2.46256 12.554 2.55769 11.668H3.71984C3.65519 12.8825 3.03828 13.0149 3.03828 14.0271C3.03828 14.7433 3.37687 15.0653 3.56956 15.6016C3.6345 15.7822 3.60831 15.976 3.49772 16.1332ZM7.11175 15.6016C7.17666 15.7822 7.15047 15.976 7.03988 16.1332C6.929 16.2909 6.75491 16.3813 6.56228 16.3813C6.31372 16.3813 6.09081 16.2195 6.00759 15.9787C5.91103 15.6993 5.76678 15.4802 5.64816 15.2101H6.93741C6.99872 15.3305 7.05978 15.457 7.11175 15.6016ZM3.68281 14.7414C3.48194 14.3266 3.46519 13.9247 3.56966 13.5853H8.519C8.50537 13.7194 8.49775 13.866 8.49775 14.0271C8.49775 14.3036 8.52103 14.5382 8.55881 14.7413C7.85259 14.7414 4.36641 14.7414 3.68281 14.7414ZM10.582 16.1332C10.4711 16.2909 10.297 16.3813 10.1044 16.3813C9.85584 16.3813 9.63294 16.2195 9.54972 15.9787C9.35 15.4007 8.96647 15.1149 8.96647 14.0271C8.96647 12.6808 9.54672 12.555 9.64197 11.668H10.8041C10.7709 12.2914 10.6027 12.6111 10.4395 12.9213C9.72437 14.2805 10.397 14.8868 10.6539 15.6016C10.7188 15.7822 10.6926 15.976 10.582 16.1332ZM14.1241 16.1333C14.0132 16.2909 13.8392 16.3813 13.6465 16.3813C13.398 16.3813 13.1751 16.2195 13.0918 15.9787C12.9953 15.6994 12.851 15.48 12.7324 15.2101H14.0217C14.1917 15.5438 14.3383 15.8287 14.1241 16.1333ZM15.6484 14.1633C15.6484 14.482 15.3891 14.7413 15.0704 14.7413H10.7671C10.664 14.5284 10.5913 14.3253 10.5913 14.0271C10.5913 13.8529 10.6148 13.7124 10.6539 13.5853H14.0273C14.0289 13.5853 14.0306 13.5853 14.0323 13.5853C14.034 13.5853 14.0357 13.5853 14.0373 13.5853H15.0704C15.3891 13.5853 15.6484 13.8446 15.6484 14.1633ZM10.8665 13.1165C11.0363 12.7934 11.2379 12.3948 11.2733 11.668H12.7118C12.681 11.8863 12.6079 12.0465 12.5286 12.2024C12.4699 12.3178 12.5159 12.4589 12.6313 12.5175C12.7467 12.5763 12.8878 12.5301 12.9464 12.4148C13.0672 12.1774 13.196 11.8865 13.196 11.4384C13.196 10.67 12.8161 10.3718 12.6269 9.75C12.4731 9.1536 12.48 8.57554 12.5788 8.12582H13.7993C13.5451 8.76975 13.6662 9.34341 13.98 9.95185C14.1624 10.3055 14.3511 10.6711 14.3521 11.4321C14.3521 11.4326 14.3521 11.4331 14.3521 11.4336C14.3521 11.4343 14.3521 11.4349 14.3521 11.4356V11.4384C14.3521 12.2172 14.1638 12.5752 13.9816 12.9214C13.9482 12.9848 13.9142 13.0496 13.8816 13.1165H10.8665V13.1165ZM15.6484 10.6212C15.6484 10.9399 15.3891 11.1992 15.0704 11.1992H14.8148C14.7875 10.6798 14.6727 10.3246 14.5469 10.0431H15.0704C15.3891 10.0431 15.6484 10.3024 15.6484 10.6212Z" fill="#6D7175"/>
</g>
<defs>
<clipPath id="clip0_5472_6767">
<rect width="16" height="16" fill="white" transform="translate(0.117188 0.850098)"/>
</clipPath>
</defs>
</svg>
