<svg width="18" height="13" viewBox="0 0 18 13" fill="none" xmlns="http://www.w3.org/2000/svg">
<path d="M18 0.521084C18 0.518349 18 0.515919 17.9992 0.513185C17.9985 0.51045 17.9982 0.503615 17.9979 0.498906C17.9962 0.477815 17.9919 0.457006 17.9853 0.436929C17.9844 0.434195 17.9853 0.431308 17.9836 0.428574C17.9819 0.42584 17.9821 0.426296 17.9816 0.42508C17.973 0.403014 17.9614 0.382218 17.9471 0.363256C17.9439 0.359002 17.9406 0.355205 17.9371 0.351103C17.9233 0.334354 17.9075 0.319357 17.89 0.306443C17.8882 0.305076 17.8867 0.303405 17.8849 0.30219C17.8653 0.289332 17.8442 0.279117 17.822 0.271809C17.8168 0.269987 17.8116 0.268467 17.8068 0.266948C17.7834 0.259933 17.7592 0.256201 17.7348 0.255859H0.265224C0.240825 0.256201 0.216593 0.259933 0.193222 0.266948C0.187905 0.268467 0.182892 0.269987 0.178031 0.271809C0.15582 0.279117 0.134673 0.289332 0.115143 0.30219C0.11332 0.303405 0.111801 0.305076 0.109978 0.306443C0.0925215 0.319357 0.0767076 0.334354 0.0628882 0.351103C0.0595463 0.355205 0.0560525 0.359002 0.0528625 0.363256C0.0386389 0.382218 0.0270401 0.403014 0.0183803 0.42508C0.0183803 0.426296 0.0168613 0.427359 0.0164056 0.428574C0.0159499 0.429789 0.015646 0.434195 0.0147346 0.436929C0.00805795 0.457006 0.00382482 0.477815 0.00212664 0.498906C0.00212664 0.503766 0.000759464 0.508475 0.000759464 0.513185C0.000759464 0.517894 0 0.518349 0 0.521084V12.6149C0 12.6184 0.000911418 12.6217 0.00106332 12.6252C0.00150651 12.6348 0.00247 12.6443 0.0039495 12.6538C0.00516473 12.6615 0.00622805 12.669 0.0080509 12.6769C0.0103955 12.6861 0.0132352 12.6952 0.0165575 12.7041C0.0191398 12.7112 0.0215703 12.7184 0.0247603 12.7252C0.0289727 12.7342 0.0336893 12.7429 0.0388874 12.7513C0.0425331 12.7574 0.0461787 12.7636 0.0502802 12.7694C0.0561696 12.7774 0.062509 12.7852 0.0692681 12.7925C0.074281 12.798 0.0792938 12.8034 0.0844585 12.8086C0.0876485 12.8115 0.0900789 12.815 0.0934208 12.8179C0.0967627 12.8207 0.0988894 12.8204 0.10132 12.8224C0.122058 12.8391 0.145208 12.8526 0.16998 12.8624C0.175297 12.8645 0.180766 12.8657 0.186234 12.8674C0.210198 12.8752 0.235162 12.8796 0.260363 12.8803C0.262186 12.8803 0.263857 12.8812 0.26568 12.8812H0.269174H17.7308H17.7343C17.7361 12.8812 17.7378 12.8803 17.7395 12.8803C17.7647 12.8796 17.7898 12.8752 17.8138 12.8674C17.8191 12.8657 17.8244 12.8645 17.829 12.8624C17.8538 12.8526 17.877 12.8391 17.8978 12.8224C17.9002 12.8204 17.9032 12.8198 17.9057 12.8179C17.9081 12.8159 17.9114 12.8115 17.9146 12.8086C17.9201 12.8034 17.9251 12.7981 17.9298 12.7925C17.9366 12.7852 17.9429 12.7774 17.9488 12.7694C17.9529 12.7636 17.9566 12.7575 17.9602 12.7513C17.9654 12.7429 17.9701 12.7342 17.9743 12.7252C17.9775 12.7184 17.9799 12.7112 17.9825 12.7041C17.9859 12.6952 17.9887 12.6861 17.991 12.6769C17.9929 12.6693 17.9939 12.6617 17.9951 12.6538C17.9966 12.6443 17.9976 12.6348 17.998 12.6252C17.998 12.6217 17.9991 12.6184 17.9991 12.6149L18 0.521084ZM6.23504 6.00846L8.82622 8.23795C8.87447 8.27943 8.93599 8.30224 8.99962 8.30224C9.06325 8.30224 9.12477 8.27943 9.17302 8.23795L11.7643 6.00846L17.1588 12.3491H0.840788L6.23504 6.00846ZM0.531056 11.8926V1.1006L5.8325 5.66166L0.531056 11.8926ZM12.1669 5.66166L17.4683 1.1006V11.8926L12.1669 5.66166ZM17.0173 0.786915L11.624 5.42773C11.6231 5.42849 11.6219 5.42894 11.6209 5.42986C11.62 5.43077 11.6191 5.43198 11.6181 5.43289L8.9997 7.68578L6.38133 5.43289C6.38027 5.43198 6.37951 5.43077 6.37844 5.42986L6.3754 5.42773L0.981755 0.786915H17.0173Z" fill="#6D7175"/>
</svg>
