<svg width="130" height="130" viewBox="0 0 130 130" fill="none" xmlns="http://www.w3.org/2000/svg">
<g clip-path="url(#clip0_5252_6464)">
<path d="M1.30145 8.58307e-06C2.02021 8.58307e-06 2.60289 0.582688 2.60289 1.30146C2.60289 2.02023 2.02021 2.60291 1.30145 2.60291C0.582677 2.60291 0 2.02023 0 1.30146C0 0.582688 0.582677 8.58307e-06 1.30145 8.58307e-06Z" fill="#B5DECA"/>
<path d="M7.9533 6.65186C8.67207 6.65186 9.25475 7.23454 9.25475 7.95331C9.25475 8.67208 8.67207 9.25476 7.9533 9.25476C7.23453 9.25476 6.65186 8.67208 6.65186 7.95331C6.65186 7.23454 7.23453 6.65186 7.9533 6.65186Z" fill="#B5DECA"/>
<path d="M1.30145 6.65186C2.02021 6.65186 2.60289 7.23454 2.60289 7.95331C2.60289 8.67208 2.02021 9.25476 1.30145 9.25476C0.582677 9.25476 0 8.67208 0 7.95331C0 7.23454 0.582677 6.65186 1.30145 6.65186Z" fill="#B5DECA"/>
<path d="M14.7497 13.3036C15.4685 13.3036 16.0512 13.8863 16.0512 14.605C16.0512 15.3238 15.4685 15.9065 14.7497 15.9065C14.031 15.9065 13.4483 15.3238 13.4483 14.605C13.4483 13.8863 14.031 13.3036 14.7497 13.3036Z" fill="#B5DECA"/>
<path d="M7.9533 13.3036C8.67207 13.3036 9.25475 13.8863 9.25475 14.605C9.25475 15.3238 8.67207 15.9065 7.9533 15.9065C7.23453 15.9065 6.65186 15.3238 6.65186 14.605C6.65186 13.8863 7.23453 13.3036 7.9533 13.3036Z" fill="#B5DECA"/>
<path d="M1.30145 13.3036C2.02021 13.3036 2.60289 13.8863 2.60289 14.605C2.60289 15.3238 2.02021 15.9065 1.30145 15.9065C0.582677 15.9065 0 15.3238 0 14.605C0 13.8863 0.582677 13.3036 1.30145 13.3036Z" fill="#B5DECA"/>
<path d="M21.4015 20.1001C22.1203 20.1001 22.703 20.6828 22.703 21.4016C22.703 22.1203 22.1203 22.703 21.4015 22.703C20.6828 22.703 20.1001 22.1203 20.1001 21.4016C20.1001 20.6828 20.6828 20.1001 21.4015 20.1001Z" fill="#B5DECA"/>
<path d="M14.7497 20.1001C15.4685 20.1001 16.0512 20.6828 16.0512 21.4016C16.0512 22.1203 15.4685 22.703 14.7497 22.703C14.031 22.703 13.4483 22.1203 13.4483 21.4016C13.4483 20.6828 14.031 20.1001 14.7497 20.1001Z" fill="#B5DECA"/>
<path d="M7.9533 20.1001C8.67207 20.1001 9.25475 20.6828 9.25475 21.4016C9.25475 22.1203 8.67207 22.703 7.9533 22.703C7.23453 22.703 6.65186 22.1203 6.65186 21.4016C6.65186 20.6828 7.23453 20.1001 7.9533 20.1001Z" fill="#B5DECA"/>
<path d="M1.30145 20.1001C2.02021 20.1001 2.60289 20.6828 2.60289 21.4016C2.60289 22.1203 2.02021 22.703 1.30145 22.703C0.582677 22.703 0 22.1203 0 21.4016C0 20.6828 0.582677 20.1001 1.30145 20.1001Z" fill="#B5DECA"/>
<path d="M28.0534 26.752C28.7722 26.752 29.3548 27.3346 29.3548 28.0534C29.3548 28.7722 28.7722 29.3549 28.0534 29.3549C27.3346 29.3549 26.752 28.7722 26.752 28.0534C26.752 27.3346 27.3346 26.752 28.0534 26.752Z" fill="#B5DECA"/>
<path d="M21.4015 26.752C22.1203 26.752 22.703 27.3346 22.703 28.0534C22.703 28.7722 22.1203 29.3549 21.4015 29.3549C20.6828 29.3549 20.1001 28.7722 20.1001 28.0534C20.1001 27.3346 20.6828 26.752 21.4015 26.752Z" fill="#B5DECA"/>
<path d="M14.7497 26.752C15.4685 26.752 16.0512 27.3346 16.0512 28.0534C16.0512 28.7722 15.4685 29.3549 14.7497 29.3549C14.031 29.3549 13.4483 28.7722 13.4483 28.0534C13.4483 27.3346 14.031 26.752 14.7497 26.752Z" fill="#B5DECA"/>
<path d="M7.9533 26.752C8.67207 26.752 9.25475 27.3346 9.25475 28.0534C9.25475 28.7722 8.67207 29.3549 7.9533 29.3549C7.23453 29.3549 6.65186 28.7722 6.65186 28.0534C6.65186 27.3346 7.23453 26.752 7.9533 26.752Z" fill="#B5DECA"/>
<path d="M1.30145 26.752C2.02021 26.752 2.60289 27.3346 2.60289 28.0534C2.60289 28.7722 2.02021 29.3549 1.30145 29.3549C0.582677 29.3549 0 28.7722 0 28.0534C0 27.3346 0.582677 26.752 1.30145 26.752Z" fill="#B5DECA"/>
<path d="M34.8498 33.5484C35.5686 33.5484 36.1513 34.131 36.1513 34.8498C36.1513 35.5686 35.5686 36.1512 34.8498 36.1512C34.1311 36.1512 33.5484 35.5686 33.5484 34.8498C33.5484 34.131 34.1311 33.5484 34.8498 33.5484Z" fill="#B5DECA"/>
<path d="M28.0534 33.5484C28.7722 33.5484 29.3548 34.131 29.3548 34.8498C29.3548 35.5686 28.7722 36.1512 28.0534 36.1512C27.3346 36.1512 26.752 35.5686 26.752 34.8498C26.752 34.131 27.3346 33.5484 28.0534 33.5484Z" fill="#B5DECA"/>
<path d="M21.4015 33.5484C22.1203 33.5484 22.703 34.131 22.703 34.8498C22.703 35.5686 22.1203 36.1512 21.4015 36.1512C20.6828 36.1512 20.1001 35.5686 20.1001 34.8498C20.1001 34.131 20.6828 33.5484 21.4015 33.5484Z" fill="#B5DECA"/>
<path d="M14.7497 33.5484C15.4685 33.5484 16.0512 34.131 16.0512 34.8498C16.0512 35.5686 15.4685 36.1512 14.7497 36.1512C14.031 36.1512 13.4483 35.5686 13.4483 34.8498C13.4483 34.131 14.031 33.5484 14.7497 33.5484Z" fill="#B5DECA"/>
<path d="M7.9533 33.5484C8.67207 33.5484 9.25475 34.131 9.25475 34.8498C9.25475 35.5686 8.67207 36.1512 7.9533 36.1512C7.23453 36.1512 6.65186 35.5686 6.65186 34.8498C6.65186 34.131 7.23453 33.5484 7.9533 33.5484Z" fill="#B5DECA"/>
<path d="M1.30145 33.5484C2.02021 33.5484 2.60289 34.131 2.60289 34.8498C2.60289 35.5686 2.02021 36.1512 1.30145 36.1512C0.582677 36.1512 0 35.5686 0 34.8498C0 34.131 0.582677 33.5484 1.30145 33.5484Z" fill="#B5DECA"/>
<path d="M41.5016 40.2002C42.2204 40.2002 42.8031 40.7829 42.8031 41.5017C42.8031 42.2204 42.2204 42.8031 41.5016 42.8031C40.7829 42.8031 40.2002 42.2204 40.2002 41.5017C40.2002 40.7829 40.7829 40.2002 41.5016 40.2002Z" fill="#B5DECA"/>
<path d="M34.8498 40.2002C35.5686 40.2002 36.1513 40.7829 36.1513 41.5017C36.1513 42.2204 35.5686 42.8031 34.8498 42.8031C34.1311 42.8031 33.5484 42.2204 33.5484 41.5017C33.5484 40.7829 34.1311 40.2002 34.8498 40.2002Z" fill="#B5DECA"/>
<path d="M28.0534 40.2002C28.7722 40.2002 29.3548 40.7829 29.3548 41.5017C29.3548 42.2204 28.7722 42.8031 28.0534 42.8031C27.3346 42.8031 26.752 42.2204 26.752 41.5017C26.752 40.7829 27.3346 40.2002 28.0534 40.2002Z" fill="#B5DECA"/>
<path d="M21.4015 40.2002C22.1203 40.2002 22.703 40.7829 22.703 41.5017C22.703 42.2204 22.1203 42.8031 21.4015 42.8031C20.6828 42.8031 20.1001 42.2204 20.1001 41.5017C20.1001 40.7829 20.6828 40.2002 21.4015 40.2002Z" fill="#B5DECA"/>
<path d="M14.7497 40.2002C15.4685 40.2002 16.0512 40.7829 16.0512 41.5017C16.0512 42.2204 15.4685 42.8031 14.7497 42.8031C14.031 42.8031 13.4483 42.2204 13.4483 41.5017C13.4483 40.7829 14.031 40.2002 14.7497 40.2002Z" fill="#B5DECA"/>
<path d="M7.9533 40.2002C8.67207 40.2002 9.25475 40.7829 9.25475 41.5017C9.25475 42.2204 8.67207 42.8031 7.9533 42.8031C7.23453 42.8031 6.65186 42.2204 6.65186 41.5017C6.65186 40.7829 7.23453 40.2002 7.9533 40.2002Z" fill="#B5DECA"/>
<path d="M1.30145 40.2002C2.02021 40.2002 2.60289 40.7829 2.60289 41.5017C2.60289 42.2204 2.02021 42.8031 1.30145 42.8031C0.582677 42.8031 0 42.2204 0 41.5017C0 40.7829 0.582677 40.2002 1.30145 40.2002Z" fill="#B5DECA"/>
<path d="M48.2981 46.8521C49.0169 46.8521 49.5995 47.4347 49.5995 48.1535C49.5995 48.8723 49.0169 49.455 48.2981 49.455C47.5793 49.455 46.9966 48.8723 46.9966 48.1535C46.9966 47.4347 47.5793 46.8521 48.2981 46.8521Z" fill="#B5DECA"/>
<path d="M41.5016 46.8521C42.2204 46.8521 42.8031 47.4347 42.8031 48.1535C42.8031 48.8723 42.2204 49.455 41.5016 49.455C40.7829 49.455 40.2002 48.8723 40.2002 48.1535C40.2002 47.4347 40.7829 46.8521 41.5016 46.8521Z" fill="#B5DECA"/>
<path d="M34.8498 46.8521C35.5686 46.8521 36.1513 47.4347 36.1513 48.1535C36.1513 48.8723 35.5686 49.455 34.8498 49.455C34.1311 49.455 33.5484 48.8723 33.5484 48.1535C33.5484 47.4347 34.1311 46.8521 34.8498 46.8521Z" fill="#B5DECA"/>
<path d="M28.0534 46.8521C28.7722 46.8521 29.3548 47.4347 29.3548 48.1535C29.3548 48.8723 28.7722 49.455 28.0534 49.455C27.3346 49.455 26.752 48.8723 26.752 48.1535C26.752 47.4347 27.3346 46.8521 28.0534 46.8521Z" fill="#B5DECA"/>
<path d="M21.4015 46.8521C22.1203 46.8521 22.703 47.4347 22.703 48.1535C22.703 48.8723 22.1203 49.455 21.4015 49.455C20.6828 49.455 20.1001 48.8723 20.1001 48.1535C20.1001 47.4347 20.6828 46.8521 21.4015 46.8521Z" fill="#B5DECA"/>
<path d="M14.7497 46.8521C15.4685 46.8521 16.0512 47.4347 16.0512 48.1535C16.0512 48.8723 15.4685 49.455 14.7497 49.455C14.031 49.455 13.4483 48.8723 13.4483 48.1535C13.4483 47.4347 14.031 46.8521 14.7497 46.8521Z" fill="#B5DECA"/>
<path d="M7.9533 46.8521C8.67207 46.8521 9.25475 47.4347 9.25475 48.1535C9.25475 48.8723 8.67207 49.455 7.9533 49.455C7.23453 49.455 6.65186 48.8723 6.65186 48.1535C6.65186 47.4347 7.23453 46.8521 7.9533 46.8521Z" fill="#B5DECA"/>
<path d="M1.30145 46.8521C2.02021 46.8521 2.60289 47.4347 2.60289 48.1535C2.60289 48.8723 2.02021 49.455 1.30145 49.455C0.582677 49.455 0 48.8723 0 48.1535C0 47.4347 0.582677 46.8521 1.30145 46.8521Z" fill="#B5DECA"/>
<path d="M54.9499 53.6485C55.6687 53.6485 56.2514 54.2311 56.2514 54.9499C56.2514 55.6687 55.6687 56.2513 54.9499 56.2513C54.2312 56.2513 53.6485 55.6687 53.6485 54.9499C53.6485 54.2311 54.2312 53.6485 54.9499 53.6485Z" fill="#B5DECA"/>
<path d="M48.2981 53.6485C49.0169 53.6485 49.5995 54.2311 49.5995 54.9499C49.5995 55.6687 49.0169 56.2513 48.2981 56.2513C47.5793 56.2513 46.9966 55.6687 46.9966 54.9499C46.9966 54.2311 47.5793 53.6485 48.2981 53.6485Z" fill="#B5DECA"/>
<path d="M41.5016 53.6485C42.2204 53.6485 42.8031 54.2311 42.8031 54.9499C42.8031 55.6687 42.2204 56.2513 41.5016 56.2513C40.7829 56.2513 40.2002 55.6687 40.2002 54.9499C40.2002 54.2311 40.7829 53.6485 41.5016 53.6485Z" fill="#B5DECA"/>
<path d="M34.8498 53.6485C35.5686 53.6485 36.1513 54.2311 36.1513 54.9499C36.1513 55.6687 35.5686 56.2513 34.8498 56.2513C34.1311 56.2513 33.5484 55.6687 33.5484 54.9499C33.5484 54.2311 34.1311 53.6485 34.8498 53.6485Z" fill="#B5DECA"/>
<path d="M28.0534 53.6485C28.7722 53.6485 29.3548 54.2311 29.3548 54.9499C29.3548 55.6687 28.7722 56.2513 28.0534 56.2513C27.3346 56.2513 26.752 55.6687 26.752 54.9499C26.752 54.2311 27.3346 53.6485 28.0534 53.6485Z" fill="#B5DECA"/>
<path d="M21.4015 53.6485C22.1203 53.6485 22.703 54.2311 22.703 54.9499C22.703 55.6687 22.1203 56.2513 21.4015 56.2513C20.6828 56.2513 20.1001 55.6687 20.1001 54.9499C20.1001 54.2311 20.6828 53.6485 21.4015 53.6485Z" fill="#B5DECA"/>
<path d="M14.7497 53.6485C15.4685 53.6485 16.0512 54.2311 16.0512 54.9499C16.0512 55.6687 15.4685 56.2513 14.7497 56.2513C14.031 56.2513 13.4483 55.6687 13.4483 54.9499C13.4483 54.2311 14.031 53.6485 14.7497 53.6485Z" fill="#B5DECA"/>
<path d="M7.9533 53.6485C8.67207 53.6485 9.25475 54.2311 9.25475 54.9499C9.25475 55.6687 8.67207 56.2513 7.9533 56.2513C7.23453 56.2513 6.65186 55.6687 6.65186 54.9499C6.65186 54.2311 7.23453 53.6485 7.9533 53.6485Z" fill="#B5DECA"/>
<path d="M1.30145 53.6485C2.02021 53.6485 2.60289 54.2311 2.60289 54.9499C2.60289 55.6687 2.02021 56.2513 1.30145 56.2513C0.582677 56.2513 0 55.6687 0 54.9499C0 54.2311 0.582677 53.6485 1.30145 53.6485Z" fill="#B5DECA"/>
<path d="M61.6018 60.3003C62.3206 60.3003 62.9032 60.883 62.9032 61.6018C62.9032 62.3205 62.3206 62.9032 61.6018 62.9032C60.883 62.9032 60.3004 62.3205 60.3004 61.6018C60.3004 60.883 60.883 60.3003 61.6018 60.3003Z" fill="#B5DECA"/>
<path d="M54.9499 60.3003C55.6687 60.3003 56.2514 60.883 56.2514 61.6018C56.2514 62.3205 55.6687 62.9032 54.9499 62.9032C54.2312 62.9032 53.6485 62.3205 53.6485 61.6018C53.6485 60.883 54.2312 60.3003 54.9499 60.3003Z" fill="#B5DECA"/>
<path d="M48.2981 60.3003C49.0169 60.3003 49.5995 60.883 49.5995 61.6018C49.5995 62.3205 49.0169 62.9032 48.2981 62.9032C47.5793 62.9032 46.9966 62.3205 46.9966 61.6018C46.9966 60.883 47.5793 60.3003 48.2981 60.3003Z" fill="#B5DECA"/>
<path d="M41.5016 60.3003C42.2204 60.3003 42.8031 60.883 42.8031 61.6018C42.8031 62.3205 42.2204 62.9032 41.5016 62.9032C40.7829 62.9032 40.2002 62.3205 40.2002 61.6018C40.2002 60.883 40.7829 60.3003 41.5016 60.3003Z" fill="#B5DECA"/>
<path d="M34.8498 60.3003C35.5686 60.3003 36.1513 60.883 36.1513 61.6018C36.1513 62.3205 35.5686 62.9032 34.8498 62.9032C34.1311 62.9032 33.5484 62.3205 33.5484 61.6018C33.5484 60.883 34.1311 60.3003 34.8498 60.3003Z" fill="#B5DECA"/>
<path d="M28.0534 60.3003C28.7722 60.3003 29.3548 60.883 29.3548 61.6018C29.3548 62.3205 28.7722 62.9032 28.0534 62.9032C27.3346 62.9032 26.752 62.3205 26.752 61.6018C26.752 60.883 27.3346 60.3003 28.0534 60.3003Z" fill="#B5DECA"/>
<path d="M21.4015 60.3003C22.1203 60.3003 22.703 60.883 22.703 61.6018C22.703 62.3205 22.1203 62.9032 21.4015 62.9032C20.6828 62.9032 20.1001 62.3205 20.1001 61.6018C20.1001 60.883 20.6828 60.3003 21.4015 60.3003Z" fill="#B5DECA"/>
<path d="M14.7497 60.3003C15.4685 60.3003 16.0512 60.883 16.0512 61.6018C16.0512 62.3205 15.4685 62.9032 14.7497 62.9032C14.031 62.9032 13.4483 62.3205 13.4483 61.6018C13.4483 60.883 14.031 60.3003 14.7497 60.3003Z" fill="#B5DECA"/>
<path d="M7.9533 60.3003C8.67207 60.3003 9.25475 60.883 9.25475 61.6018C9.25475 62.3205 8.67207 62.9032 7.9533 62.9032C7.23453 62.9032 6.65186 62.3205 6.65186 61.6018C6.65186 60.883 7.23453 60.3003 7.9533 60.3003Z" fill="#B5DECA"/>
<path d="M1.30145 60.3003C2.02021 60.3003 2.60289 60.883 2.60289 61.6018C2.60289 62.3205 2.02021 62.9032 1.30145 62.9032C0.582677 62.9032 0 62.3205 0 61.6018C0 60.883 0.582677 60.3003 1.30145 60.3003Z" fill="#B5DECA"/>
<path d="M68.3982 67.0968C69.117 67.0968 69.6996 67.6795 69.6996 68.3983C69.6996 69.117 69.117 69.6997 68.3982 69.6997C67.6794 69.6997 67.0967 69.117 67.0967 68.3983C67.0967 67.6795 67.6794 67.0968 68.3982 67.0968Z" fill="#B5DECA"/>
<path d="M61.6018 67.0968C62.3206 67.0968 62.9032 67.6795 62.9032 68.3983C62.9032 69.117 62.3206 69.6997 61.6018 69.6997C60.883 69.6997 60.3004 69.117 60.3004 68.3983C60.3004 67.6795 60.883 67.0968 61.6018 67.0968Z" fill="#B5DECA"/>
<path d="M54.9499 67.0968C55.6687 67.0968 56.2514 67.6795 56.2514 68.3983C56.2514 69.117 55.6687 69.6997 54.9499 69.6997C54.2312 69.6997 53.6485 69.117 53.6485 68.3983C53.6485 67.6795 54.2312 67.0968 54.9499 67.0968Z" fill="#B5DECA"/>
<path d="M48.2981 67.0968C49.0169 67.0968 49.5995 67.6795 49.5995 68.3983C49.5995 69.117 49.0169 69.6997 48.2981 69.6997C47.5793 69.6997 46.9966 69.117 46.9966 68.3983C46.9966 67.6795 47.5793 67.0968 48.2981 67.0968Z" fill="#B5DECA"/>
<path d="M41.5016 67.0968C42.2204 67.0968 42.8031 67.6795 42.8031 68.3983C42.8031 69.117 42.2204 69.6997 41.5016 69.6997C40.7829 69.6997 40.2002 69.117 40.2002 68.3983C40.2002 67.6795 40.7829 67.0968 41.5016 67.0968Z" fill="#B5DECA"/>
<path d="M34.8498 67.0968C35.5686 67.0968 36.1513 67.6795 36.1513 68.3983C36.1513 69.117 35.5686 69.6997 34.8498 69.6997C34.1311 69.6997 33.5484 69.117 33.5484 68.3983C33.5484 67.6795 34.1311 67.0968 34.8498 67.0968Z" fill="#B5DECA"/>
<path d="M28.0534 67.0968C28.7722 67.0968 29.3548 67.6795 29.3548 68.3983C29.3548 69.117 28.7722 69.6997 28.0534 69.6997C27.3346 69.6997 26.752 69.117 26.752 68.3983C26.752 67.6795 27.3346 67.0968 28.0534 67.0968Z" fill="#B5DECA"/>
<path d="M21.4015 67.0968C22.1203 67.0968 22.703 67.6795 22.703 68.3983C22.703 69.117 22.1203 69.6997 21.4015 69.6997C20.6828 69.6997 20.1001 69.117 20.1001 68.3983C20.1001 67.6795 20.6828 67.0968 21.4015 67.0968Z" fill="#B5DECA"/>
<path d="M14.7497 67.0968C15.4685 67.0968 16.0512 67.6795 16.0512 68.3983C16.0512 69.117 15.4685 69.6997 14.7497 69.6997C14.031 69.6997 13.4483 69.117 13.4483 68.3983C13.4483 67.6795 14.031 67.0968 14.7497 67.0968Z" fill="#B5DECA"/>
<path d="M7.9533 67.0968C8.67207 67.0968 9.25475 67.6795 9.25475 68.3983C9.25475 69.117 8.67207 69.6997 7.9533 69.6997C7.23453 69.6997 6.65186 69.117 6.65186 68.3983C6.65186 67.6795 7.23453 67.0968 7.9533 67.0968Z" fill="#B5DECA"/>
<path d="M1.30145 67.0968C2.02021 67.0968 2.60289 67.6795 2.60289 68.3983C2.60289 69.117 2.02021 69.6997 1.30145 69.6997C0.582677 69.6997 0 69.117 0 68.3983C0 67.6795 0.582677 67.0968 1.30145 67.0968Z" fill="#B5DECA"/>
<path d="M75.05 76.3516C74.327 76.3516 73.7486 75.7731 73.7486 75.0501C73.7486 74.3271 74.327 73.7487 75.05 73.7487C75.7731 73.7487 76.3515 74.3271 76.3515 75.0501C76.3515 75.7731 75.7731 76.3516 75.05 76.3516Z" fill="#B5DECA"/>
<path d="M68.3982 76.3516C67.6752 76.3516 67.0967 75.7731 67.0967 75.0501C67.0967 74.3271 67.6752 73.7487 68.3982 73.7487C69.1212 73.7487 69.6996 74.3271 69.6996 75.0501C69.6996 75.7731 69.1212 76.3516 68.3982 76.3516Z" fill="#B5DECA"/>
<path d="M61.6018 76.3516C60.8788 76.3516 60.3004 75.7731 60.3004 75.0501C60.3004 74.3271 60.8788 73.7487 61.6018 73.7487C62.3248 73.7487 62.9032 74.3271 62.9032 75.0501C62.9032 75.7731 62.3248 76.3516 61.6018 76.3516Z" fill="#B5DECA"/>
<path d="M54.9499 76.3516C54.2269 76.3516 53.6485 75.7731 53.6485 75.0501C53.6485 74.3271 54.2269 73.7487 54.9499 73.7487C55.673 73.7487 56.2514 74.3271 56.2514 75.0501C56.2514 75.7731 55.673 76.3516 54.9499 76.3516Z" fill="#B5DECA"/>
<path d="M48.2981 76.3516C47.5751 76.3516 46.9966 75.7731 46.9966 75.0501C46.9966 74.3271 47.5751 73.7487 48.2981 73.7487C49.0211 73.7487 49.5995 74.3271 49.5995 75.0501C49.4549 75.7731 48.8765 76.3516 48.2981 76.3516Z" fill="#B5DECA"/>
<path d="M41.5016 76.3516C40.7786 76.3516 40.2002 75.7731 40.2002 75.0501C40.2002 74.3271 40.7786 73.7487 41.5016 73.7487C42.2247 73.7487 42.8031 74.3271 42.8031 75.0501C42.8031 75.7731 42.2247 76.3516 41.5016 76.3516Z" fill="#B5DECA"/>
<path d="M34.8498 76.3516C34.1268 76.3516 33.5484 75.7731 33.5484 75.0501C33.5484 74.3271 34.1268 73.7487 34.8498 73.7487C35.5729 73.7487 36.1513 74.3271 36.1513 75.0501C36.1513 75.7731 35.5729 76.3516 34.8498 76.3516Z" fill="#B5DECA"/>
<path d="M28.0534 76.3516C27.3304 76.3516 26.752 75.7731 26.752 75.0501C26.752 74.3271 27.3304 73.7487 28.0534 73.7487C28.7764 73.7487 29.3548 74.3271 29.3548 75.0501C29.3548 75.7731 28.7764 76.3516 28.0534 76.3516Z" fill="#B5DECA"/>
<path d="M21.4015 76.3516C20.6785 76.3516 20.1001 75.7731 20.1001 75.0501C20.1001 74.3271 20.6785 73.7487 21.4015 73.7487C22.1246 73.7487 22.703 74.3271 22.703 75.0501C22.703 75.7731 22.1246 76.3516 21.4015 76.3516Z" fill="#B5DECA"/>
<path d="M14.7497 76.3516C14.0267 76.3516 13.4483 75.7731 13.4483 75.0501C13.4483 74.3271 14.0267 73.7487 14.7497 73.7487C15.4728 73.7487 16.0512 74.3271 16.0512 75.0501C15.9066 75.7731 15.3282 76.3516 14.7497 76.3516Z" fill="#B5DECA"/>
<path d="M7.9533 76.3516C7.23028 76.3516 6.65186 75.7731 6.65186 75.0501C6.65186 74.3271 7.23028 73.7487 7.9533 73.7487C8.67633 73.7487 9.25475 74.3271 9.25475 75.0501C9.25475 75.7731 8.67633 76.3516 7.9533 76.3516Z" fill="#B5DECA"/>
<path d="M1.30145 76.3516C0.57842 76.3516 0 75.7731 0 75.0501C0 74.3271 0.57842 73.7487 1.30145 73.7487C2.02447 73.7487 2.60289 74.3271 2.60289 75.0501C2.60289 75.7731 2.02447 76.3516 1.30145 76.3516Z" fill="#B5DECA"/>
<path d="M81.8465 83.0033C81.1235 83.0033 80.545 82.4249 80.545 81.7018C80.545 80.9788 81.1235 80.4004 81.8465 80.4004C82.5695 80.4004 83.1479 80.9788 83.1479 81.7018C83.0033 82.4249 82.4249 83.0033 81.8465 83.0033Z" fill="#B5DECA"/>
<path d="M75.05 83.0033C74.327 83.0033 73.7486 82.4249 73.7486 81.7018C73.7486 80.9788 74.327 80.4004 75.05 80.4004C75.7731 80.4004 76.3515 80.9788 76.3515 81.7018C76.3515 82.4249 75.7731 83.0033 75.05 83.0033Z" fill="#B5DECA"/>
<path d="M68.3982 83.0033C67.6752 83.0033 67.0967 82.4249 67.0967 81.7018C67.0967 80.9788 67.6752 80.4004 68.3982 80.4004C69.1212 80.4004 69.6996 80.9788 69.6996 81.7018C69.6996 82.4249 69.1212 83.0033 68.3982 83.0033Z" fill="#B5DECA"/>
<path d="M61.6018 83.0033C60.8788 83.0033 60.3004 82.4249 60.3004 81.7018C60.3004 80.9788 60.8788 80.4004 61.6018 80.4004C62.3248 80.4004 62.9032 80.9788 62.9032 81.7018C62.9032 82.4249 62.3248 83.0033 61.6018 83.0033Z" fill="#B5DECA"/>
<path d="M54.9499 83.0033C54.2269 83.0033 53.6485 82.4249 53.6485 81.7018C53.6485 80.9788 54.2269 80.4004 54.9499 80.4004C55.673 80.4004 56.2514 80.9788 56.2514 81.7018C56.2514 82.4249 55.673 83.0033 54.9499 83.0033Z" fill="#B5DECA"/>
<path d="M48.2981 83.0033C47.5751 83.0033 46.9966 82.4249 46.9966 81.7018C46.9966 80.9788 47.5751 80.4004 48.2981 80.4004C49.0211 80.4004 49.5995 80.9788 49.5995 81.7018C49.4549 82.4249 48.8765 83.0033 48.2981 83.0033Z" fill="#B5DECA"/>
<path d="M41.5016 83.0033C40.7786 83.0033 40.2002 82.4249 40.2002 81.7018C40.2002 80.9788 40.7786 80.4004 41.5016 80.4004C42.2247 80.4004 42.8031 80.9788 42.8031 81.7018C42.8031 82.4249 42.2247 83.0033 41.5016 83.0033Z" fill="#B5DECA"/>
<path d="M34.8498 83.0033C34.1268 83.0033 33.5484 82.4249 33.5484 81.7018C33.5484 80.9788 34.1268 80.4004 34.8498 80.4004C35.5729 80.4004 36.1513 80.9788 36.1513 81.7018C36.1513 82.4249 35.5729 83.0033 34.8498 83.0033Z" fill="#B5DECA"/>
<path d="M28.0534 83.0033C27.3304 83.0033 26.752 82.4249 26.752 81.7018C26.752 80.9788 27.3304 80.4004 28.0534 80.4004C28.7764 80.4004 29.3548 80.9788 29.3548 81.7018C29.3548 82.4249 28.7764 83.0033 28.0534 83.0033Z" fill="#B5DECA"/>
<path d="M21.4015 83.0033C20.6785 83.0033 20.1001 82.4249 20.1001 81.7018C20.1001 80.9788 20.6785 80.4004 21.4015 80.4004C22.1246 80.4004 22.703 80.9788 22.703 81.7018C22.703 82.4249 22.1246 83.0033 21.4015 83.0033Z" fill="#B5DECA"/>
<path d="M14.7497 83.0033C14.0267 83.0033 13.4483 82.4249 13.4483 81.7018C13.4483 80.9788 14.0267 80.4004 14.7497 80.4004C15.4728 80.4004 16.0512 80.9788 16.0512 81.7018C15.9066 82.4249 15.3282 83.0033 14.7497 83.0033Z" fill="#B5DECA"/>
<path d="M7.9533 83.0033C7.23028 83.0033 6.65186 82.4249 6.65186 81.7018C6.65186 80.9788 7.23028 80.4004 7.9533 80.4004C8.67633 80.4004 9.25475 80.9788 9.25475 81.7018C9.25475 82.4249 8.67633 83.0033 7.9533 83.0033Z" fill="#B5DECA"/>
<path d="M1.30145 83.0033C0.57842 83.0033 0 82.4249 0 81.7018C0 80.9788 0.57842 80.4004 1.30145 80.4004C2.02447 80.4004 2.60289 80.9788 2.60289 81.7018C2.60289 82.4249 2.02447 83.0033 1.30145 83.0033Z" fill="#B5DECA"/>
<path d="M88.4983 89.7998C87.7753 89.7998 87.1969 89.2214 87.1969 88.4984C87.1969 87.7753 87.7753 87.1969 88.4983 87.1969C89.2214 87.1969 89.7998 87.7753 89.7998 88.4984C89.7998 89.2214 89.2214 89.7998 88.4983 89.7998Z" fill="#B5DECA"/>
<path d="M81.8465 89.7998C81.1235 89.7998 80.545 89.2214 80.545 88.4984C80.545 87.7753 81.1235 87.1969 81.8465 87.1969C82.5695 87.1969 83.1479 87.7753 83.1479 88.4984C83.0033 89.2214 82.4249 89.7998 81.8465 89.7998Z" fill="#B5DECA"/>
<path d="M75.05 89.7998C74.327 89.7998 73.7486 89.2214 73.7486 88.4984C73.7486 87.7753 74.327 87.1969 75.05 87.1969C75.7731 87.1969 76.3515 87.7753 76.3515 88.4984C76.3515 89.2214 75.7731 89.7998 75.05 89.7998Z" fill="#B5DECA"/>
<path d="M68.3982 89.7998C67.6752 89.7998 67.0967 89.2214 67.0967 88.4984C67.0967 87.7753 67.6752 87.1969 68.3982 87.1969C69.1212 87.1969 69.6996 87.7753 69.6996 88.4984C69.6996 89.2214 69.1212 89.7998 68.3982 89.7998Z" fill="#B5DECA"/>
<path d="M61.6018 89.7998C60.8788 89.7998 60.3004 89.2214 60.3004 88.4984C60.3004 87.7753 60.8788 87.1969 61.6018 87.1969C62.3248 87.1969 62.9032 87.7753 62.9032 88.4984C62.9032 89.2214 62.3248 89.7998 61.6018 89.7998Z" fill="#B5DECA"/>
<path d="M54.9499 89.7998C54.2269 89.7998 53.6485 89.2214 53.6485 88.4984C53.6485 87.7753 54.2269 87.1969 54.9499 87.1969C55.673 87.1969 56.2514 87.7753 56.2514 88.4984C56.2514 89.2214 55.673 89.7998 54.9499 89.7998Z" fill="#B5DECA"/>
<path d="M48.2981 89.7998C47.5751 89.7998 46.9966 89.2214 46.9966 88.4984C46.9966 87.7753 47.5751 87.1969 48.2981 87.1969C49.0211 87.1969 49.5995 87.7753 49.5995 88.4984C49.4549 89.2214 48.8765 89.7998 48.2981 89.7998Z" fill="#B5DECA"/>
<path d="M41.5016 89.7998C40.7786 89.7998 40.2002 89.2214 40.2002 88.4984C40.2002 87.7753 40.7786 87.1969 41.5016 87.1969C42.2247 87.1969 42.8031 87.7753 42.8031 88.4984C42.8031 89.2214 42.2247 89.7998 41.5016 89.7998Z" fill="#B5DECA"/>
<path d="M34.8498 89.7998C34.1268 89.7998 33.5484 89.2214 33.5484 88.4984C33.5484 87.7753 34.1268 87.1969 34.8498 87.1969C35.5729 87.1969 36.1513 87.7753 36.1513 88.4984C36.1513 89.2214 35.5729 89.7998 34.8498 89.7998Z" fill="#B5DECA"/>
<path d="M28.0534 89.7998C27.3304 89.7998 26.752 89.2214 26.752 88.4984C26.752 87.7753 27.3304 87.1969 28.0534 87.1969C28.7764 87.1969 29.3548 87.7753 29.3548 88.4984C29.3548 89.2214 28.7764 89.7998 28.0534 89.7998Z" fill="#B5DECA"/>
<path d="M21.4015 89.7998C20.6785 89.7998 20.1001 89.2214 20.1001 88.4984C20.1001 87.7753 20.6785 87.1969 21.4015 87.1969C22.1246 87.1969 22.703 87.7753 22.703 88.4984C22.703 89.2214 22.1246 89.7998 21.4015 89.7998Z" fill="#B5DECA"/>
<path d="M14.7497 89.7998C14.0267 89.7998 13.4483 89.2214 13.4483 88.4984C13.4483 87.7753 14.0267 87.1969 14.7497 87.1969C15.4728 87.1969 16.0512 87.7753 16.0512 88.4984C15.9066 89.2214 15.3282 89.7998 14.7497 89.7998Z" fill="#B5DECA"/>
<path d="M7.9533 89.7998C7.23028 89.7998 6.65186 89.2214 6.65186 88.4984C6.65186 87.7753 7.23028 87.1969 7.9533 87.1969C8.67633 87.1969 9.25475 87.7753 9.25475 88.4984C9.25475 89.2214 8.67633 89.7998 7.9533 89.7998Z" fill="#B5DECA"/>
<path d="M1.30145 89.7998C0.57842 89.7998 0 89.2214 0 88.4984C0 87.7753 0.57842 87.1969 1.30145 87.1969C2.02447 87.1969 2.60289 87.7753 2.60289 88.4984C2.60289 89.2214 2.02447 89.7998 1.30145 89.7998Z" fill="#B5DECA"/>
<path d="M95.1502 93.8488C95.869 93.8488 96.4516 94.4314 96.4516 95.1502C96.4516 95.869 95.869 96.4517 95.1502 96.4517C94.4314 96.4517 93.8488 95.869 93.8488 95.1502C93.8488 94.4314 94.4314 93.8488 95.1502 93.8488Z" fill="#B5DECA"/>
<path d="M88.4983 93.8488C89.2171 93.8488 89.7998 94.4314 89.7998 95.1502C89.7998 95.869 89.2171 96.4517 88.4983 96.4517C87.7796 96.4517 87.1969 95.869 87.1969 95.1502C87.1969 94.4314 87.7796 93.8488 88.4983 93.8488Z" fill="#B5DECA"/>
<path d="M81.8465 93.8488C82.5653 93.8488 83.1479 94.4314 83.1479 95.1502C83.1479 95.869 82.5653 96.4517 81.8465 96.4517C81.1277 96.4517 80.545 95.869 80.545 95.1502C80.545 94.4314 81.1277 93.8488 81.8465 93.8488Z" fill="#B5DECA"/>
<path d="M75.05 93.8488C75.7688 93.8488 76.3515 94.4314 76.3515 95.1502C76.3515 95.869 75.7688 96.4517 75.05 96.4517C74.3313 96.4517 73.7486 95.869 73.7486 95.1502C73.7486 94.4314 74.3313 93.8488 75.05 93.8488Z" fill="#B5DECA"/>
<path d="M68.3982 93.8488C69.117 93.8488 69.6996 94.4314 69.6996 95.1502C69.6996 95.869 69.117 96.4517 68.3982 96.4517C67.6794 96.4517 67.0967 95.869 67.0967 95.1502C67.0967 94.4314 67.6794 93.8488 68.3982 93.8488Z" fill="#B5DECA"/>
<path d="M61.6018 93.8488C62.3206 93.8488 62.9032 94.4314 62.9032 95.1502C62.9032 95.869 62.3206 96.4517 61.6018 96.4517C60.883 96.4517 60.3004 95.869 60.3004 95.1502C60.3004 94.4314 60.883 93.8488 61.6018 93.8488Z" fill="#B5DECA"/>
<path d="M54.9499 93.8488C55.6687 93.8488 56.2514 94.4314 56.2514 95.1502C56.2514 95.869 55.6687 96.4517 54.9499 96.4517C54.2312 96.4517 53.6485 95.869 53.6485 95.1502C53.6485 94.4314 54.2312 93.8488 54.9499 93.8488Z" fill="#B5DECA"/>
<path d="M48.2981 93.8488C49.0169 93.8488 49.5995 94.4314 49.5995 95.1502C49.5995 95.869 49.0169 96.4517 48.2981 96.4517C47.5793 96.4517 46.9966 95.869 46.9966 95.1502C46.9966 94.4314 47.5793 93.8488 48.2981 93.8488Z" fill="#B5DECA"/>
<path d="M41.5016 93.8488C42.2204 93.8488 42.8031 94.4314 42.8031 95.1502C42.8031 95.869 42.2204 96.4517 41.5016 96.4517C40.7829 96.4517 40.2002 95.869 40.2002 95.1502C40.2002 94.4314 40.7829 93.8488 41.5016 93.8488Z" fill="#B5DECA"/>
<path d="M34.8498 93.8488C35.5686 93.8488 36.1513 94.4314 36.1513 95.1502C36.1513 95.869 35.5686 96.4517 34.8498 96.4517C34.1311 96.4517 33.5484 95.869 33.5484 95.1502C33.5484 94.4314 34.1311 93.8488 34.8498 93.8488Z" fill="#B5DECA"/>
<path d="M28.0534 93.8488C28.7722 93.8488 29.3548 94.4314 29.3548 95.1502C29.3548 95.869 28.7722 96.4517 28.0534 96.4517C27.3346 96.4517 26.752 95.869 26.752 95.1502C26.752 94.4314 27.3346 93.8488 28.0534 93.8488Z" fill="#B5DECA"/>
<path d="M21.4015 93.8488C22.1203 93.8488 22.703 94.4314 22.703 95.1502C22.703 95.869 22.1203 96.4517 21.4015 96.4517C20.6828 96.4517 20.1001 95.869 20.1001 95.1502C20.1001 94.4314 20.6828 93.8488 21.4015 93.8488Z" fill="#B5DECA"/>
<path d="M14.7497 93.8488C15.4685 93.8488 16.0512 94.4314 16.0512 95.1502C16.0512 95.869 15.4685 96.4517 14.7497 96.4517C14.031 96.4517 13.4483 95.869 13.4483 95.1502C13.4483 94.4314 14.031 93.8488 14.7497 93.8488Z" fill="#B5DECA"/>
<path d="M7.9533 93.8488C8.67207 93.8488 9.25475 94.4314 9.25475 95.1502C9.25475 95.869 8.67207 96.4517 7.9533 96.4517C7.23453 96.4517 6.65186 95.869 6.65186 95.1502C6.65186 94.4314 7.23453 93.8488 7.9533 93.8488Z" fill="#B5DECA"/>
<path d="M1.30145 93.8488C2.02021 93.8488 2.60289 94.4314 2.60289 95.1502C2.60289 95.869 2.02021 96.4517 1.30145 96.4517C0.582677 96.4517 0 95.869 0 95.1502C0 94.4314 0.582677 93.8488 1.30145 93.8488Z" fill="#B5DECA"/>
<path d="M101.947 100.645C102.665 100.645 103.248 101.228 103.248 101.947C103.248 102.665 102.665 103.248 101.947 103.248C101.228 103.248 100.645 102.665 100.645 101.947C100.645 101.228 101.228 100.645 101.947 100.645Z" fill="#B5DECA"/>
<path d="M95.1502 100.645C95.869 100.645 96.4516 101.228 96.4516 101.947C96.4516 102.665 95.869 103.248 95.1502 103.248C94.4314 103.248 93.8488 102.665 93.8488 101.947C93.8488 101.228 94.4314 100.645 95.1502 100.645Z" fill="#B5DECA"/>
<path d="M88.4983 100.645C89.2171 100.645 89.7998 101.228 89.7998 101.947C89.7998 102.665 89.2171 103.248 88.4983 103.248C87.7796 103.248 87.1969 102.665 87.1969 101.947C87.1969 101.228 87.7796 100.645 88.4983 100.645Z" fill="#B5DECA"/>
<path d="M81.8465 100.645C82.5653 100.645 83.1479 101.228 83.1479 101.947C83.1479 102.665 82.5653 103.248 81.8465 103.248C81.1277 103.248 80.545 102.665 80.545 101.947C80.545 101.228 81.1277 100.645 81.8465 100.645Z" fill="#B5DECA"/>
<path d="M75.05 100.645C75.7688 100.645 76.3515 101.228 76.3515 101.947C76.3515 102.665 75.7688 103.248 75.05 103.248C74.3313 103.248 73.7486 102.665 73.7486 101.947C73.7486 101.228 74.3313 100.645 75.05 100.645Z" fill="#B5DECA"/>
<path d="M68.3982 100.645C69.117 100.645 69.6996 101.228 69.6996 101.947C69.6996 102.665 69.117 103.248 68.3982 103.248C67.6794 103.248 67.0967 102.665 67.0967 101.947C67.0967 101.228 67.6794 100.645 68.3982 100.645Z" fill="#B5DECA"/>
<path d="M61.6018 100.645C62.3206 100.645 62.9032 101.228 62.9032 101.947C62.9032 102.665 62.3206 103.248 61.6018 103.248C60.883 103.248 60.3004 102.665 60.3004 101.947C60.3004 101.228 60.883 100.645 61.6018 100.645Z" fill="#B5DECA"/>
<path d="M54.9499 100.645C55.6687 100.645 56.2514 101.228 56.2514 101.947C56.2514 102.665 55.6687 103.248 54.9499 103.248C54.2312 103.248 53.6485 102.665 53.6485 101.947C53.6485 101.228 54.2312 100.645 54.9499 100.645Z" fill="#B5DECA"/>
<path d="M48.2981 100.645C49.0169 100.645 49.5995 101.228 49.5995 101.947C49.5995 102.665 49.0169 103.248 48.2981 103.248C47.5793 103.248 46.9966 102.665 46.9966 101.947C46.9966 101.228 47.5793 100.645 48.2981 100.645Z" fill="#B5DECA"/>
<path d="M41.5016 100.645C42.2204 100.645 42.8031 101.228 42.8031 101.947C42.8031 102.665 42.2204 103.248 41.5016 103.248C40.7829 103.248 40.2002 102.665 40.2002 101.947C40.2002 101.228 40.7829 100.645 41.5016 100.645Z" fill="#B5DECA"/>
<path d="M34.8498 100.645C35.5686 100.645 36.1513 101.228 36.1513 101.947C36.1513 102.665 35.5686 103.248 34.8498 103.248C34.1311 103.248 33.5484 102.665 33.5484 101.947C33.5484 101.228 34.1311 100.645 34.8498 100.645Z" fill="#B5DECA"/>
<path d="M28.0534 100.645C28.7722 100.645 29.3548 101.228 29.3548 101.947C29.3548 102.665 28.7722 103.248 28.0534 103.248C27.3346 103.248 26.752 102.665 26.752 101.947C26.752 101.228 27.3346 100.645 28.0534 100.645Z" fill="#B5DECA"/>
<path d="M21.4015 100.645C22.1203 100.645 22.703 101.228 22.703 101.947C22.703 102.665 22.1203 103.248 21.4015 103.248C20.6828 103.248 20.1001 102.665 20.1001 101.947C20.1001 101.228 20.6828 100.645 21.4015 100.645Z" fill="#B5DECA"/>
<path d="M14.7497 100.645C15.4685 100.645 16.0512 101.228 16.0512 101.947C16.0512 102.665 15.4685 103.248 14.7497 103.248C14.031 103.248 13.4483 102.665 13.4483 101.947C13.4483 101.228 14.031 100.645 14.7497 100.645Z" fill="#B5DECA"/>
<path d="M7.9533 100.645C8.67207 100.645 9.25475 101.228 9.25475 101.947C9.25475 102.665 8.67207 103.248 7.9533 103.248C7.23453 103.248 6.65186 102.665 6.65186 101.947C6.65186 101.228 7.23453 100.645 7.9533 100.645Z" fill="#B5DECA"/>
<path d="M1.30145 100.645C2.02021 100.645 2.60289 101.228 2.60289 101.947C2.60289 102.665 2.02021 103.248 1.30145 103.248C0.582677 103.248 0 102.665 0 101.947C0 101.228 0.582677 100.645 1.30145 100.645Z" fill="#B5DECA"/>
<path d="M108.598 107.297C109.317 107.297 109.9 107.88 109.9 108.598C109.9 109.317 109.317 109.9 108.598 109.9C107.88 109.9 107.297 109.317 107.297 108.598C107.297 107.88 107.88 107.297 108.598 107.297Z" fill="#B5DECA"/>
<path d="M101.947 107.297C102.665 107.297 103.248 107.88 103.248 108.598C103.248 109.317 102.665 109.9 101.947 109.9C101.228 109.9 100.645 109.317 100.645 108.598C100.645 107.88 101.228 107.297 101.947 107.297Z" fill="#B5DECA"/>
<path d="M95.1502 107.297C95.869 107.297 96.4516 107.88 96.4516 108.598C96.4516 109.317 95.869 109.9 95.1502 109.9C94.4314 109.9 93.8488 109.317 93.8488 108.598C93.8488 107.88 94.4314 107.297 95.1502 107.297Z" fill="#B5DECA"/>
<path d="M88.4983 107.297C89.2171 107.297 89.7998 107.88 89.7998 108.598C89.7998 109.317 89.2171 109.9 88.4983 109.9C87.7796 109.9 87.1969 109.317 87.1969 108.598C87.1969 107.88 87.7796 107.297 88.4983 107.297Z" fill="#B5DECA"/>
<path d="M81.8465 107.297C82.5653 107.297 83.1479 107.88 83.1479 108.598C83.1479 109.317 82.5653 109.9 81.8465 109.9C81.1277 109.9 80.545 109.317 80.545 108.598C80.545 107.88 81.1277 107.297 81.8465 107.297Z" fill="#B5DECA"/>
<path d="M75.05 107.297C75.7688 107.297 76.3515 107.88 76.3515 108.598C76.3515 109.317 75.7688 109.9 75.05 109.9C74.3313 109.9 73.7486 109.317 73.7486 108.598C73.7486 107.88 74.3313 107.297 75.05 107.297Z" fill="#B5DECA"/>
<path d="M68.3982 107.297C69.117 107.297 69.6996 107.88 69.6996 108.598C69.6996 109.317 69.117 109.9 68.3982 109.9C67.6794 109.9 67.0967 109.317 67.0967 108.598C67.0967 107.88 67.6794 107.297 68.3982 107.297Z" fill="#B5DECA"/>
<path d="M61.6018 107.297C62.3206 107.297 62.9032 107.88 62.9032 108.598C62.9032 109.317 62.3206 109.9 61.6018 109.9C60.883 109.9 60.3004 109.317 60.3004 108.598C60.3004 107.88 60.883 107.297 61.6018 107.297Z" fill="#B5DECA"/>
<path d="M54.9499 107.297C55.6687 107.297 56.2514 107.88 56.2514 108.598C56.2514 109.317 55.6687 109.9 54.9499 109.9C54.2312 109.9 53.6485 109.317 53.6485 108.598C53.6485 107.88 54.2312 107.297 54.9499 107.297Z" fill="#B5DECA"/>
<path d="M48.2981 107.297C49.0169 107.297 49.5995 107.88 49.5995 108.598C49.5995 109.317 49.0169 109.9 48.2981 109.9C47.5793 109.9 46.9966 109.317 46.9966 108.598C46.9966 107.88 47.5793 107.297 48.2981 107.297Z" fill="#B5DECA"/>
<path d="M41.5016 107.297C42.2204 107.297 42.8031 107.88 42.8031 108.598C42.8031 109.317 42.2204 109.9 41.5016 109.9C40.7829 109.9 40.2002 109.317 40.2002 108.598C40.2002 107.88 40.7829 107.297 41.5016 107.297Z" fill="#B5DECA"/>
<path d="M34.8498 107.297C35.5686 107.297 36.1513 107.88 36.1513 108.598C36.1513 109.317 35.5686 109.9 34.8498 109.9C34.1311 109.9 33.5484 109.317 33.5484 108.598C33.5484 107.88 34.1311 107.297 34.8498 107.297Z" fill="#B5DECA"/>
<path d="M28.0534 107.297C28.7722 107.297 29.3548 107.88 29.3548 108.598C29.3548 109.317 28.7722 109.9 28.0534 109.9C27.3346 109.9 26.752 109.317 26.752 108.598C26.752 107.88 27.3346 107.297 28.0534 107.297Z" fill="#B5DECA"/>
<path d="M21.4015 107.297C22.1203 107.297 22.703 107.88 22.703 108.598C22.703 109.317 22.1203 109.9 21.4015 109.9C20.6828 109.9 20.1001 109.317 20.1001 108.598C20.1001 107.88 20.6828 107.297 21.4015 107.297Z" fill="#B5DECA"/>
<path d="M14.7497 107.297C15.4685 107.297 16.0512 107.88 16.0512 108.598C16.0512 109.317 15.4685 109.9 14.7497 109.9C14.031 109.9 13.4483 109.317 13.4483 108.598C13.4483 107.88 14.031 107.297 14.7497 107.297Z" fill="#B5DECA"/>
<path d="M7.9533 107.297C8.67207 107.297 9.25475 107.88 9.25475 108.598C9.25475 109.317 8.67207 109.9 7.9533 109.9C7.23453 109.9 6.65186 109.317 6.65186 108.598C6.65186 107.88 7.23453 107.297 7.9533 107.297Z" fill="#B5DECA"/>
<path d="M1.30145 107.297C2.02021 107.297 2.60289 107.88 2.60289 108.598C2.60289 109.317 2.02021 109.9 1.30145 109.9C0.582677 109.9 0 109.317 0 108.598C0 107.88 0.582677 107.297 1.30145 107.297Z" fill="#B5DECA"/>
<path d="M115.395 113.949C116.114 113.949 116.696 114.532 116.696 115.25C116.696 115.969 116.114 116.552 115.395 116.552C114.676 116.552 114.093 115.969 114.093 115.25C114.093 114.532 114.676 113.949 115.395 113.949Z" fill="#B5DECA"/>
<path d="M108.598 113.949C109.317 113.949 109.9 114.532 109.9 115.25C109.9 115.969 109.317 116.552 108.598 116.552C107.88 116.552 107.297 115.969 107.297 115.25C107.297 114.532 107.88 113.949 108.598 113.949Z" fill="#B5DECA"/>
<path d="M101.947 113.949C102.665 113.949 103.248 114.532 103.248 115.25C103.248 115.969 102.665 116.552 101.947 116.552C101.228 116.552 100.645 115.969 100.645 115.25C100.645 114.532 101.228 113.949 101.947 113.949Z" fill="#B5DECA"/>
<path d="M95.1502 113.949C95.869 113.949 96.4516 114.532 96.4516 115.25C96.4516 115.969 95.869 116.552 95.1502 116.552C94.4314 116.552 93.8488 115.969 93.8488 115.25C93.8488 114.532 94.4314 113.949 95.1502 113.949Z" fill="#B5DECA"/>
<path d="M88.4983 113.949C89.2171 113.949 89.7998 114.532 89.7998 115.25C89.7998 115.969 89.2171 116.552 88.4983 116.552C87.7796 116.552 87.1969 115.969 87.1969 115.25C87.1969 114.532 87.7796 113.949 88.4983 113.949Z" fill="#B5DECA"/>
<path d="M81.8465 113.949C82.5653 113.949 83.1479 114.532 83.1479 115.25C83.1479 115.969 82.5653 116.552 81.8465 116.552C81.1277 116.552 80.545 115.969 80.545 115.25C80.545 114.532 81.1277 113.949 81.8465 113.949Z" fill="#B5DECA"/>
<path d="M75.05 113.949C75.7688 113.949 76.3515 114.532 76.3515 115.25C76.3515 115.969 75.7688 116.552 75.05 116.552C74.3313 116.552 73.7486 115.969 73.7486 115.25C73.7486 114.532 74.3313 113.949 75.05 113.949Z" fill="#B5DECA"/>
<path d="M68.3982 113.949C69.117 113.949 69.6996 114.532 69.6996 115.25C69.6996 115.969 69.117 116.552 68.3982 116.552C67.6794 116.552 67.0967 115.969 67.0967 115.25C67.0967 114.532 67.6794 113.949 68.3982 113.949Z" fill="#B5DECA"/>
<path d="M61.6018 113.949C62.3206 113.949 62.9032 114.532 62.9032 115.25C62.9032 115.969 62.3206 116.552 61.6018 116.552C60.883 116.552 60.3004 115.969 60.3004 115.25C60.3004 114.532 60.883 113.949 61.6018 113.949Z" fill="#B5DECA"/>
<path d="M54.9499 113.949C55.6687 113.949 56.2514 114.532 56.2514 115.25C56.2514 115.969 55.6687 116.552 54.9499 116.552C54.2312 116.552 53.6485 115.969 53.6485 115.25C53.6485 114.532 54.2312 113.949 54.9499 113.949Z" fill="#B5DECA"/>
<path d="M48.2981 113.949C49.0169 113.949 49.5995 114.532 49.5995 115.25C49.5995 115.969 49.0169 116.552 48.2981 116.552C47.5793 116.552 46.9966 115.969 46.9966 115.25C46.9966 114.532 47.5793 113.949 48.2981 113.949Z" fill="#B5DECA"/>
<path d="M41.5016 113.949C42.2204 113.949 42.8031 114.532 42.8031 115.25C42.8031 115.969 42.2204 116.552 41.5016 116.552C40.7829 116.552 40.2002 115.969 40.2002 115.25C40.2002 114.532 40.7829 113.949 41.5016 113.949Z" fill="#B5DECA"/>
<path d="M34.8498 113.949C35.5686 113.949 36.1513 114.532 36.1513 115.25C36.1513 115.969 35.5686 116.552 34.8498 116.552C34.1311 116.552 33.5484 115.969 33.5484 115.25C33.5484 114.532 34.1311 113.949 34.8498 113.949Z" fill="#B5DECA"/>
<path d="M28.0534 113.949C28.7722 113.949 29.3548 114.532 29.3548 115.25C29.3548 115.969 28.7722 116.552 28.0534 116.552C27.3346 116.552 26.752 115.969 26.752 115.25C26.752 114.532 27.3346 113.949 28.0534 113.949Z" fill="#B5DECA"/>
<path d="M21.4015 113.949C22.1203 113.949 22.703 114.532 22.703 115.25C22.703 115.969 22.1203 116.552 21.4015 116.552C20.6828 116.552 20.1001 115.969 20.1001 115.25C20.1001 114.532 20.6828 113.949 21.4015 113.949Z" fill="#B5DECA"/>
<path d="M14.7497 113.949C15.4685 113.949 16.0512 114.532 16.0512 115.25C16.0512 115.969 15.4685 116.552 14.7497 116.552C14.031 116.552 13.4483 115.969 13.4483 115.25C13.4483 114.532 14.031 113.949 14.7497 113.949Z" fill="#B5DECA"/>
<path d="M7.9533 113.949C8.67207 113.949 9.25475 114.532 9.25475 115.25C9.25475 115.969 8.67207 116.552 7.9533 116.552C7.23453 116.552 6.65186 115.969 6.65186 115.25C6.65186 114.532 7.23453 113.949 7.9533 113.949Z" fill="#B5DECA"/>
<path d="M1.30145 113.949C2.02021 113.949 2.60289 114.532 2.60289 115.25C2.60289 115.969 2.02021 116.552 1.30145 116.552C0.582677 116.552 0 115.969 0 115.25C0 114.532 0.582677 113.949 1.30145 113.949Z" fill="#B5DECA"/>
<path d="M122.047 120.745C122.765 120.745 123.348 121.328 123.348 122.047C123.348 122.765 122.765 123.348 122.047 123.348C121.328 123.348 120.745 122.765 120.745 122.047C120.745 121.328 121.328 120.745 122.047 120.745Z" fill="#B5DECA"/>
<path d="M115.395 120.745C116.114 120.745 116.696 121.328 116.696 122.047C116.696 122.765 116.114 123.348 115.395 123.348C114.676 123.348 114.093 122.765 114.093 122.047C114.093 121.328 114.676 120.745 115.395 120.745Z" fill="#B5DECA"/>
<path d="M108.598 120.745C109.317 120.745 109.9 121.328 109.9 122.047C109.9 122.765 109.317 123.348 108.598 123.348C107.88 123.348 107.297 122.765 107.297 122.047C107.297 121.328 107.88 120.745 108.598 120.745Z" fill="#B5DECA"/>
<path d="M101.947 120.745C102.665 120.745 103.248 121.328 103.248 122.047C103.248 122.765 102.665 123.348 101.947 123.348C101.228 123.348 100.645 122.765 100.645 122.047C100.645 121.328 101.228 120.745 101.947 120.745Z" fill="#B5DECA"/>
<path d="M95.1502 120.745C95.869 120.745 96.4516 121.328 96.4516 122.047C96.4516 122.765 95.869 123.348 95.1502 123.348C94.4314 123.348 93.8488 122.765 93.8488 122.047C93.8488 121.328 94.4314 120.745 95.1502 120.745Z" fill="#B5DECA"/>
<path d="M88.4983 120.745C89.2171 120.745 89.7998 121.328 89.7998 122.047C89.7998 122.765 89.2171 123.348 88.4983 123.348C87.7796 123.348 87.1969 122.765 87.1969 122.047C87.1969 121.328 87.7796 120.745 88.4983 120.745Z" fill="#B5DECA"/>
<path d="M81.8465 120.745C82.5653 120.745 83.1479 121.328 83.1479 122.047C83.1479 122.765 82.5653 123.348 81.8465 123.348C81.1277 123.348 80.545 122.765 80.545 122.047C80.545 121.328 81.1277 120.745 81.8465 120.745Z" fill="#B5DECA"/>
<path d="M75.05 120.745C75.7688 120.745 76.3515 121.328 76.3515 122.047C76.3515 122.765 75.7688 123.348 75.05 123.348C74.3313 123.348 73.7486 122.765 73.7486 122.047C73.7486 121.328 74.3313 120.745 75.05 120.745Z" fill="#B5DECA"/>
<path d="M68.3982 120.745C69.117 120.745 69.6996 121.328 69.6996 122.047C69.6996 122.765 69.117 123.348 68.3982 123.348C67.6794 123.348 67.0967 122.765 67.0967 122.047C67.0967 121.328 67.6794 120.745 68.3982 120.745Z" fill="#B5DECA"/>
<path d="M61.6018 120.745C62.3206 120.745 62.9032 121.328 62.9032 122.047C62.9032 122.765 62.3206 123.348 61.6018 123.348C60.883 123.348 60.3004 122.765 60.3004 122.047C60.3004 121.328 60.883 120.745 61.6018 120.745Z" fill="#B5DECA"/>
<path d="M54.9499 120.745C55.6687 120.745 56.2514 121.328 56.2514 122.047C56.2514 122.765 55.6687 123.348 54.9499 123.348C54.2312 123.348 53.6485 122.765 53.6485 122.047C53.6485 121.328 54.2312 120.745 54.9499 120.745Z" fill="#B5DECA"/>
<path d="M48.2981 120.745C49.0169 120.745 49.5995 121.328 49.5995 122.047C49.5995 122.765 49.0169 123.348 48.2981 123.348C47.5793 123.348 46.9966 122.765 46.9966 122.047C46.9966 121.328 47.5793 120.745 48.2981 120.745Z" fill="#B5DECA"/>
<path d="M41.5016 120.745C42.2204 120.745 42.8031 121.328 42.8031 122.047C42.8031 122.765 42.2204 123.348 41.5016 123.348C40.7829 123.348 40.2002 122.765 40.2002 122.047C40.2002 121.328 40.7829 120.745 41.5016 120.745Z" fill="#B5DECA"/>
<path d="M34.8498 120.745C35.5686 120.745 36.1513 121.328 36.1513 122.047C36.1513 122.765 35.5686 123.348 34.8498 123.348C34.1311 123.348 33.5484 122.765 33.5484 122.047C33.5484 121.328 34.1311 120.745 34.8498 120.745Z" fill="#B5DECA"/>
<path d="M28.0534 120.745C28.7722 120.745 29.3548 121.328 29.3548 122.047C29.3548 122.765 28.7722 123.348 28.0534 123.348C27.3346 123.348 26.752 122.765 26.752 122.047C26.752 121.328 27.3346 120.745 28.0534 120.745Z" fill="#B5DECA"/>
<path d="M21.4015 120.745C22.1203 120.745 22.703 121.328 22.703 122.047C22.703 122.765 22.1203 123.348 21.4015 123.348C20.6828 123.348 20.1001 122.765 20.1001 122.047C20.1001 121.328 20.6828 120.745 21.4015 120.745Z" fill="#B5DECA"/>
<path d="M14.7497 120.745C15.4685 120.745 16.0512 121.328 16.0512 122.047C16.0512 122.765 15.4685 123.348 14.7497 123.348C14.031 123.348 13.4483 122.765 13.4483 122.047C13.4483 121.328 14.031 120.745 14.7497 120.745Z" fill="#B5DECA"/>
<path d="M7.9533 120.745C8.67207 120.745 9.25475 121.328 9.25475 122.047C9.25475 122.765 8.67207 123.348 7.9533 123.348C7.23453 123.348 6.65186 122.765 6.65186 122.047C6.65186 121.328 7.23453 120.745 7.9533 120.745Z" fill="#B5DECA"/>
<path d="M1.30145 120.745C2.02021 120.745 2.60289 121.328 2.60289 122.047C2.60289 122.765 2.02021 123.348 1.30145 123.348C0.582677 123.348 0 122.765 0 122.047C0 121.328 0.582677 120.745 1.30145 120.745Z" fill="#B5DECA"/>
<path d="M128.699 127.397C129.417 127.397 130 127.98 130 128.699C130 129.417 129.417 130 128.699 130C127.98 130 127.397 129.417 127.397 128.699C127.397 127.98 127.98 127.397 128.699 127.397Z" fill="#B5DECA"/>
<path d="M122.047 127.397C122.765 127.397 123.348 127.98 123.348 128.699C123.348 129.417 122.765 130 122.047 130C121.328 130 120.745 129.417 120.745 128.699C120.745 127.98 121.328 127.397 122.047 127.397Z" fill="#B5DECA"/>
<path d="M115.395 127.397C116.114 127.397 116.696 127.98 116.696 128.699C116.696 129.417 116.114 130 115.395 130C114.676 130 114.093 129.417 114.093 128.699C114.093 127.98 114.676 127.397 115.395 127.397Z" fill="#B5DECA"/>
<path d="M108.598 127.397C109.317 127.397 109.9 127.98 109.9 128.699C109.9 129.417 109.317 130 108.598 130C107.88 130 107.297 129.417 107.297 128.699C107.297 127.98 107.88 127.397 108.598 127.397Z" fill="#B5DECA"/>
<path d="M101.947 127.397C102.665 127.397 103.248 127.98 103.248 128.699C103.248 129.417 102.665 130 101.947 130C101.228 130 100.645 129.417 100.645 128.699C100.645 127.98 101.228 127.397 101.947 127.397Z" fill="#B5DECA"/>
<path d="M95.1502 127.397C95.869 127.397 96.4516 127.98 96.4516 128.699C96.4516 129.417 95.869 130 95.1502 130C94.4314 130 93.8488 129.417 93.8488 128.699C93.8488 127.98 94.4314 127.397 95.1502 127.397Z" fill="#B5DECA"/>
<path d="M88.4983 127.397C89.2171 127.397 89.7998 127.98 89.7998 128.699C89.7998 129.417 89.2171 130 88.4983 130C87.7796 130 87.1969 129.417 87.1969 128.699C87.1969 127.98 87.7796 127.397 88.4983 127.397Z" fill="#B5DECA"/>
<path d="M81.8465 127.397C82.5653 127.397 83.1479 127.98 83.1479 128.699C83.1479 129.417 82.5653 130 81.8465 130C81.1277 130 80.545 129.417 80.545 128.699C80.545 127.98 81.1277 127.397 81.8465 127.397Z" fill="#B5DECA"/>
<path d="M75.05 127.397C75.7688 127.397 76.3515 127.98 76.3515 128.699C76.3515 129.417 75.7688 130 75.05 130C74.3313 130 73.7486 129.417 73.7486 128.699C73.7486 127.98 74.3313 127.397 75.05 127.397Z" fill="#B5DECA"/>
<path d="M68.3982 127.397C69.117 127.397 69.6996 127.98 69.6996 128.699C69.6996 129.417 69.117 130 68.3982 130C67.6794 130 67.0967 129.417 67.0967 128.699C67.0967 127.98 67.6794 127.397 68.3982 127.397Z" fill="#B5DECA"/>
<path d="M61.6018 127.397C62.3206 127.397 62.9032 127.98 62.9032 128.699C62.9032 129.417 62.3206 130 61.6018 130C60.883 130 60.3004 129.417 60.3004 128.699C60.3004 127.98 60.883 127.397 61.6018 127.397Z" fill="#B5DECA"/>
<path d="M54.9499 127.397C55.6687 127.397 56.2514 127.98 56.2514 128.699C56.2514 129.417 55.6687 130 54.9499 130C54.2312 130 53.6485 129.417 53.6485 128.699C53.6485 127.98 54.2312 127.397 54.9499 127.397Z" fill="#B5DECA"/>
<path d="M48.2981 127.397C49.0169 127.397 49.5995 127.98 49.5995 128.699C49.5995 129.417 49.0169 130 48.2981 130C47.5793 130 46.9966 129.417 46.9966 128.699C46.9966 127.98 47.5793 127.397 48.2981 127.397Z" fill="#B5DECA"/>
<path d="M41.5016 127.397C42.2204 127.397 42.8031 127.98 42.8031 128.699C42.8031 129.417 42.2204 130 41.5016 130C40.7829 130 40.2002 129.417 40.2002 128.699C40.2002 127.98 40.7829 127.397 41.5016 127.397Z" fill="#B5DECA"/>
<path d="M34.8498 127.397C35.5686 127.397 36.1513 127.98 36.1513 128.699C36.1513 129.417 35.5686 130 34.8498 130C34.1311 130 33.5484 129.417 33.5484 128.699C33.5484 127.98 34.1311 127.397 34.8498 127.397Z" fill="#B5DECA"/>
<path d="M28.0534 127.397C28.7722 127.397 29.3548 127.98 29.3548 128.699C29.3548 129.417 28.7722 130 28.0534 130C27.3346 130 26.752 129.417 26.752 128.699C26.752 127.98 27.3346 127.397 28.0534 127.397Z" fill="#B5DECA"/>
<path d="M21.4015 127.397C22.1203 127.397 22.703 127.98 22.703 128.699C22.703 129.417 22.1203 130 21.4015 130C20.6828 130 20.1001 129.417 20.1001 128.699C20.1001 127.98 20.6828 127.397 21.4015 127.397Z" fill="#B5DECA"/>
<path d="M14.7497 127.397C15.4685 127.397 16.0512 127.98 16.0512 128.699C16.0512 129.417 15.4685 130 14.7497 130C14.031 130 13.4483 129.417 13.4483 128.699C13.4483 127.98 14.031 127.397 14.7497 127.397Z" fill="#B5DECA"/>
<path d="M7.9533 127.397C8.67207 127.397 9.25475 127.98 9.25475 128.699C9.25475 129.417 8.67207 130 7.9533 130C7.23453 130 6.65186 129.417 6.65186 128.699C6.65186 127.98 7.23453 127.397 7.9533 127.397Z" fill="#B5DECA"/>
<path d="M1.30145 127.397C2.02021 127.397 2.60289 127.98 2.60289 128.699C2.60289 129.417 2.02021 130 1.30145 130C0.582677 130 0 129.417 0 128.699C0 127.98 0.582677 127.397 1.30145 127.397Z" fill="#B5DECA"/>
</g>
<defs>
<clipPath id="clip0_5252_6464">
<rect width="130" height="130" fill="white" transform="matrix(1 0 0 -1 0 130)"/>
</clipPath>
</defs>
</svg>
