<svg width="86" height="50" viewBox="0 0 86 50" fill="none" xmlns="http://www.w3.org/2000/svg">
<path d="M10.804 12.5748C11.2761 12.5748 11.6588 12.1921 11.6588 11.72C11.6588 11.2479 11.2761 10.8652 10.804 10.8652C10.3319 10.8652 9.94922 11.2479 9.94922 11.72C9.94922 12.1921 10.3319 12.5748 10.804 12.5748Z" fill="#6D7175"/>
<path d="M75.1979 10.5995C74.7259 10.5995 74.3432 10.2168 74.3432 9.74468C74.3432 9.27259 74.7259 8.88989 75.1979 8.88989C75.67 8.88989 76.0527 9.27259 76.0527 9.74468C76.0527 10.2168 75.67 10.5995 75.1979 10.5995Z" fill="#6D7175"/>
<path d="M1.1165 21.6925C1.58859 21.6925 1.97129 21.3098 1.97129 20.8377C1.97129 20.3656 1.58859 19.9829 1.1165 19.9829C0.644419 19.9829 0.261719 20.3656 0.261719 20.8377C0.261719 21.3098 0.644419 21.6925 1.1165 21.6925Z" fill="#6D7175"/>
<path d="M84.8854 19.7171C84.4134 19.7171 84.0307 19.3344 84.0307 18.8624C84.0307 18.3903 84.4134 18.0076 84.8854 18.0076C85.3575 18.0076 85.7402 18.3903 85.7402 18.8624C85.7402 19.3344 85.3575 19.7171 84.8854 19.7171Z" fill="#6D7175"/>
<path d="M63.6296 11.3972H21.8401C19.7419 11.3972 18.041 13.0981 18.041 15.1963V45.5887C18.041 47.6868 19.7419 49.3877 21.8401 49.3877H63.6296C65.7278 49.3877 67.4286 47.6868 67.4286 45.5887V15.1963C67.4286 13.0981 65.7278 11.3972 63.6296 11.3972Z" fill="#202223"/>
<path d="M18.041 20.8948H67.4286V24.6938H18.041V20.8948Z" fill="white"/>
<path d="M42.735 22.7943C49.0295 22.7943 54.1322 17.6916 54.1322 11.3971C54.1322 5.10268 49.0295 0 42.735 0C36.4406 0 31.3379 5.10268 31.3379 11.3971C31.3379 17.6916 36.4406 22.7943 42.735 22.7943Z" fill="#202223"/>
<path d="M41.5546 16.5071C41.3046 16.5085 41.0568 16.4606 40.8254 16.3661C40.5939 16.2716 40.3834 16.1323 40.2059 15.9562L36.8438 12.5941C36.4861 12.2364 36.2852 11.7513 36.2852 11.2454C36.2852 10.7396 36.4861 10.2544 36.8438 9.89676C37.2015 9.53907 37.6866 9.33812 38.1925 9.33812C38.6983 9.33812 39.1834 9.53907 39.5411 9.89676L41.5546 11.9103L45.5436 7.92125C45.7202 7.74321 45.9303 7.6019 46.1618 7.50546C46.3932 7.40902 46.6415 7.35938 46.8923 7.35938C47.143 7.35938 47.3913 7.40902 47.6228 7.50546C47.8543 7.6019 48.0643 7.74321 48.2409 7.92125C48.5947 8.27715 48.7933 8.75859 48.7933 9.26042C48.7933 9.76224 48.5947 10.2437 48.2409 10.5996L42.8843 15.9562C42.5305 16.3072 42.0529 16.505 41.5546 16.5071Z" fill="white"/>
<path d="M37.0369 39.8901H25.6398C25.136 39.8901 24.6528 39.69 24.2966 39.3338C23.9404 38.9775 23.7402 38.4944 23.7402 37.9906C23.7402 37.4868 23.9404 37.0037 24.2966 36.6474C24.6528 36.2912 25.136 36.0911 25.6398 36.0911H37.0369C37.5407 36.0911 38.0238 36.2912 38.3801 36.6474C38.7363 37.0037 38.9364 37.4868 38.9364 37.9906C38.9364 38.4944 38.7363 38.9775 38.3801 39.3338C38.0238 39.69 37.5407 39.8901 37.0369 39.8901Z" fill="white"/>
<path d="M59.8303 39.8901H57.9308C57.427 39.8901 56.9438 39.69 56.5876 39.3338C56.2314 38.9775 56.0312 38.4944 56.0312 37.9906C56.0312 37.4868 56.2314 37.0037 56.5876 36.6474C56.9438 36.2912 57.427 36.0911 57.9308 36.0911H59.8303C60.3341 36.0911 60.8172 36.2912 61.1735 36.6474C61.5297 37.0037 61.7298 37.4868 61.7298 37.9906C61.7298 38.4944 61.5297 38.9775 61.1735 39.3338C60.8172 39.69 60.3341 39.8901 59.8303 39.8901Z" fill="#E0EAF0"/>
<path d="M52.2326 39.8901H50.3331C49.8293 39.8901 49.3462 39.69 48.99 39.3338C48.6337 38.9775 48.4336 38.4944 48.4336 37.9906C48.4336 37.4868 48.6337 37.0037 48.99 36.6474C49.3462 36.2912 49.8293 36.0911 50.3331 36.0911H52.2326C52.7364 36.0911 53.2196 36.2912 53.5758 36.6474C53.932 37.0037 54.1322 37.4868 54.1322 37.9906C54.1322 38.4944 53.932 38.9775 53.5758 39.3338C53.2196 39.69 52.7364 39.8901 52.2326 39.8901Z" fill="white"/>
</svg>
