<svg width="20" height="21" viewBox="0 0 20 21" fill="none" xmlns="http://www.w3.org/2000/svg">
<path d="M19.8073 5.62554L10.1531 0.798449C10.1052 0.774535 10.0525 0.762085 9.99898 0.762085C9.94548 0.762085 9.89272 0.774535 9.84486 0.798449L0.190675 5.62554C0.133359 5.65418 0.0851581 5.69823 0.051479 5.75274C0.0177998 5.80724 -2.47189e-05 5.87006 5.13859e-06 5.93413V15.5883C-0.000346214 15.6527 0.0173268 15.7159 0.0510239 15.7707C0.084721 15.8255 0.133097 15.8699 0.190675 15.8986L9.84486 20.7257C9.89272 20.7496 9.94548 20.7621 9.99898 20.7621C10.0525 20.7621 10.1052 20.7496 10.1531 20.7257L19.8073 15.8986C19.8649 15.8699 19.9132 15.8255 19.9469 15.7707C19.9806 15.7159 19.9983 15.6527 19.998 15.5883V5.93413C19.998 5.87006 19.9802 5.80724 19.9465 5.75274C19.9128 5.69823 19.8646 5.65418 19.8073 5.62554ZM9.99898 10.3757L7.30374 9.02795L15.9187 4.45152L18.8839 5.93413L9.99898 10.3757ZM4.5454 7.64878L13.1604 3.07235L15.1602 4.07225L6.54623 8.64937L4.5454 7.64878ZM4.13751 8.21597L6.20627 9.25034V11.9976L5.41566 11.207C5.35101 11.1424 5.26333 11.106 5.17189 11.106H4.13751V8.21597ZM9.99898 1.49252L12.4029 2.69308L3.78789 7.2702L1.11575 5.93413L9.99898 1.49252ZM0.68959 6.492L3.44793 7.87117V11.4508C3.44793 11.5423 3.48425 11.63 3.54892 11.6946C3.61358 11.7593 3.70128 11.7956 3.79272 11.7956H5.02915L6.30729 13.0737C6.35551 13.122 6.41694 13.1548 6.48381 13.1681C6.55069 13.1814 6.62 13.1745 6.683 13.1485C6.74599 13.1224 6.79983 13.0782 6.83772 13.0215C6.87561 12.9648 6.89584 12.8982 6.89585 12.83V9.59514L9.65419 10.9743V19.8575L0.68959 15.3752V6.492ZM10.3438 19.8575V10.9743L19.3084 6.492V15.3752L10.3438 19.8575Z" fill="#6D7175"/>
</svg>
