<svg width="100" height="25" viewBox="0 0 100 25" fill="none" xmlns="http://www.w3.org/2000/svg">
<g clip-path="url(#clip0_4629_1596)">
<mask id="mask0_4629_1596" style="mask-type:luminance" maskUnits="userSpaceOnUse" x="0" y="0" width="100" height="25">
<path d="M99.9793 0.0380859H0.0449219V24.0381H99.9793V0.0380859Z" fill="white"/>
</mask>
<g mask="url(#mask0_4629_1596)">
<path d="M25.647 7.58342C24.8456 5.90203 23.3261 4.81593 21.0363 4.81593C20.3335 4.82817 19.6429 5.00172 19.0178 5.32308C18.3927 5.64448 17.8497 6.10517 17.4308 6.66961L17.3472 6.77142V0.181683C17.3472 0.143598 17.3321 0.107076 17.3052 0.0801474C17.2782 0.0532177 17.2417 0.0380859 17.2036 0.0380859H13.9662C13.9286 0.0387702 13.8927 0.0541998 13.8664 0.0810553C13.8399 0.107911 13.8252 0.144047 13.8252 0.181683V19.0842C13.8252 19.1215 13.8401 19.1574 13.8665 19.1838C13.893 19.2103 13.9288 19.2251 13.9662 19.2251H17.4334C17.471 19.2251 17.5071 19.2104 17.534 19.184C17.5608 19.1576 17.5763 19.1218 17.577 19.0842V11.0245C17.577 9.458 18.6213 8.34838 20.2923 8.34838C22.1198 8.34838 22.582 9.85223 22.582 11.3848V19.0842C22.582 19.1215 22.5968 19.1574 22.6232 19.1838C22.6497 19.2103 22.6856 19.2251 22.7229 19.2251H26.1822C26.22 19.2251 26.2561 19.2104 26.2829 19.184C26.3098 19.1576 26.3253 19.1218 26.326 19.0842V10.9253C26.326 10.6459 26.326 10.3718 26.2894 10.1055C26.2299 9.23281 26.0123 8.37819 25.647 7.58342Z" fill="#5A31F4"/>
<path d="M8.33443 10.3848C8.33443 10.3848 6.5695 9.96968 5.91941 9.80259C5.26929 9.6355 4.13358 9.28042 4.13358 8.42145C4.13358 7.56248 5.04998 7.28833 5.97946 7.28833C6.90891 7.28833 7.94282 7.51287 8.02375 8.54416C8.02701 8.58134 8.04412 8.61588 8.07167 8.64106C8.09924 8.6662 8.13524 8.68005 8.17255 8.67993L11.5901 8.66687C11.6103 8.66692 11.6302 8.66282 11.6486 8.65484C11.6671 8.64685 11.6837 8.63514 11.6974 8.62041C11.7111 8.60574 11.7217 8.58835 11.7284 8.56939C11.7351 8.55041 11.7378 8.53027 11.7363 8.5102C11.5249 5.21012 8.62944 4.03003 5.95855 4.03003C2.7916 4.03003 0.4758 6.1187 0.4758 8.42145C0.4758 10.1028 0.950973 11.6798 4.68707 12.7763C5.3424 12.9669 6.23271 13.2149 7.01075 13.4317C7.94541 13.6928 8.4493 14.087 8.4493 14.7084C8.4493 15.4289 7.40498 15.9302 6.37892 15.9302C4.89335 15.9302 3.83856 15.3793 3.7524 14.3898C3.74791 14.3536 3.7303 14.3203 3.70284 14.2962C3.67541 14.2721 3.64008 14.259 3.60358 14.2593L0.193829 14.2749C0.173839 14.2749 0.154054 14.2789 0.135649 14.2868C0.117245 14.2946 0.100602 14.306 0.0867122 14.3204C0.0728227 14.3347 0.0619699 14.3518 0.0548058 14.3704C0.0476417 14.3891 0.0443121 14.409 0.0450135 14.429C0.201664 17.5437 3.20935 19.2225 6.01342 19.2225C10.1908 19.2225 12.0784 16.8727 12.0784 14.6718C12.0836 13.6379 11.846 11.2829 8.33443 10.3848Z" fill="#5A31F4"/>
<path d="M52.3022 4.81085C50.5662 4.81085 49.1118 5.77163 48.1745 6.93088V4.94662C48.1745 4.90967 48.1599 4.87419 48.134 4.84784C48.1085 4.82148 48.0731 4.80631 48.036 4.80566H44.7936C44.7563 4.80566 44.7202 4.82048 44.6938 4.84692C44.6674 4.87337 44.6523 4.90926 44.6523 4.94662V23.4836C44.6533 23.5204 44.6685 23.5558 44.6949 23.5815C44.7213 23.6074 44.7567 23.622 44.7936 23.622H48.2634C48.2999 23.622 48.3351 23.6074 48.3611 23.5815C48.387 23.5556 48.4016 23.5202 48.4016 23.4836V17.3899H48.4539C49.0046 18.2305 50.5111 19.2384 52.48 19.2384C56.1817 19.2384 59.268 16.168 59.268 12.0194C59.2707 8.03787 56.2002 4.81085 52.3022 4.81085ZM51.9811 15.7059C51.2505 15.724 50.5303 15.524 49.9139 15.1314C49.2974 14.7387 48.8115 14.1712 48.5187 13.5013C48.2261 12.8313 48.1395 12.0894 48.2705 11.3701C48.4011 10.6508 48.7435 9.98681 49.2532 9.46288C49.7632 8.93888 50.4176 8.57873 51.1332 8.42835C51.8485 8.27797 52.5925 8.34416 53.27 8.6185C53.9478 8.89281 54.5282 9.36285 54.9377 9.96859C55.347 10.5744 55.5664 11.2883 55.5685 12.0194C55.5759 12.4973 55.4889 12.972 55.3127 13.4162C55.1365 13.8604 54.874 14.2654 54.5407 14.608C54.2076 14.9505 53.8099 15.2238 53.3703 15.4122C52.9311 15.6007 52.4591 15.7004 51.9811 15.7059Z" fill="#5A31F4"/>
<path d="M34.3837 3.99646C31.1489 3.99646 29.5354 5.09562 28.2402 5.97549L28.2011 6.00158C28.1344 6.04728 28.0874 6.11654 28.0696 6.19543C28.0515 6.27435 28.064 6.35708 28.1045 6.42716L29.384 8.63067C29.4078 8.67192 29.4407 8.70736 29.4798 8.73442C29.5192 8.7615 29.5639 8.77958 29.6111 8.78734C29.6572 8.79565 29.7044 8.79364 29.7495 8.78144C29.7947 8.76924 29.8366 8.74722 29.8722 8.71683L29.9738 8.63331C30.6396 8.07458 31.7075 7.32786 34.2923 7.12422C35.7308 7.00938 36.9736 7.38532 37.8901 8.24167C38.8978 9.17115 39.5011 10.6724 39.5011 12.2571C39.5011 15.1735 37.7829 17.0062 35.0233 17.0428C32.7492 17.0298 31.2218 15.8444 31.2218 14.0926C31.2218 13.1631 31.6422 12.5574 32.4621 11.9517C32.5246 11.9069 32.5688 11.841 32.5867 11.7661C32.6045 11.6913 32.5945 11.6125 32.5587 11.5444L31.41 9.37215C31.3887 9.33329 31.36 9.29898 31.3255 9.2712C31.291 9.24342 31.2514 9.22273 31.2088 9.2103C31.1653 9.19735 31.1197 9.1937 31.0748 9.19951C31.0297 9.20536 30.9864 9.2206 30.9477 9.24425C29.6581 10.0092 28.0758 11.4086 28.162 14.0978C28.2664 17.5206 31.1123 20.134 34.8118 20.2411H34.9972H35.2504C39.6469 20.0975 42.8218 16.8339 42.8218 12.4086C42.8218 8.3461 39.861 3.99646 34.3837 3.99646Z" fill="#5A31F4"/>
<path d="M72.9392 6.08496H70.7354C70.684 6.08563 70.6345 6.10649 70.5979 6.14304C70.5611 6.17962 70.5403 6.22904 70.54 6.28078V10.9045C70.5403 10.9561 70.5613 11.0052 70.5981 11.0413C70.6347 11.0775 70.684 11.0978 70.7354 11.0978H72.9392C74.2812 11.0978 75.2708 10.0404 75.2708 8.59135C75.2708 7.14234 74.2812 6.08496 72.9392 6.08496Z" fill="#5A31F4"/>
<path d="M79.709 14.2645C79.709 14.9355 80.2754 15.3089 81.2623 15.3089C82.6042 15.3089 83.3978 14.583 83.3978 13.2959V12.9252L81.3878 13.0296C80.3275 13.0818 79.709 13.5231 79.709 14.2645Z" fill="#5A31F4"/>
<path d="M96.0263 0.0798571H66.4193C65.9339 0.0798566 65.4526 0.175569 65.0042 0.36152C64.5554 0.547472 64.1477 0.820022 63.8046 1.16359C63.4611 1.50716 63.1889 1.91502 63.0032 2.36386C62.8173 2.8127 62.7222 3.29371 62.7227 3.77943V19.9875C62.7227 20.9682 63.112 21.9088 63.8053 22.6025C64.4986 23.2963 65.439 23.6863 66.4193 23.687H96.0263C96.5126 23.6884 96.9946 23.594 97.4444 23.409C97.8939 23.224 98.3027 22.9521 98.6474 22.609C98.9916 22.2659 99.2655 21.8582 99.4525 21.4093C99.6394 20.9603 99.7357 20.479 99.7366 19.9927V3.78463C99.7373 3.29739 99.6421 2.81473 99.456 2.36444C99.2699 1.91415 98.9965 1.5051 98.6518 1.1608C98.3071 0.816508 97.8976 0.543765 97.4471 0.358258C96.9967 0.17275 96.5138 0.0781352 96.0263 0.0798571ZM73.0508 12.9174H70.722C70.6702 12.9174 70.6206 12.938 70.5836 12.9747C70.547 13.0114 70.5262 13.0612 70.5262 13.1132V16.4289C70.5262 16.4808 70.5056 16.5307 70.469 16.5674C70.4322 16.6041 70.3827 16.6247 70.3306 16.6247H68.6907C68.6393 16.6241 68.5895 16.6032 68.553 16.5666C68.5164 16.5301 68.496 16.4807 68.4951 16.4289V4.46867C68.4951 4.41676 68.5157 4.36695 68.5527 4.33021C68.5893 4.2935 68.6389 4.27287 68.6907 4.27287H73.0508C75.5208 4.27287 77.2883 6.07174 77.2883 8.59642C77.2883 11.1211 75.5338 12.9226 73.0643 12.9226L73.0508 12.9174ZM85.3219 16.4263C85.3224 16.4523 85.3177 16.478 85.3078 16.502C85.2981 16.5261 85.2837 16.548 85.2657 16.5665C85.2471 16.5849 85.2256 16.5996 85.2015 16.6096C85.1779 16.6196 85.152 16.6247 85.1261 16.6247H83.5779C83.5519 16.6247 83.5262 16.6196 83.5024 16.6096C83.4783 16.5996 83.4566 16.5849 83.4385 16.5665C83.4204 16.548 83.4059 16.5261 83.3964 16.502C83.3866 16.478 83.3818 16.4523 83.3822 16.4263V16.0686C83.3846 16.0372 83.3772 16.0058 83.3603 15.9792C83.3438 15.9525 83.3191 15.9318 83.2894 15.9204C83.2603 15.9089 83.2281 15.9073 83.1978 15.9157C83.1672 15.924 83.1403 15.942 83.1211 15.9668C82.6588 16.4707 81.907 16.8362 80.7085 16.8362C78.9439 16.8362 77.7765 15.9172 77.7765 14.3298C77.7596 13.9428 77.8394 13.5576 78.0091 13.2092C78.1786 12.8609 78.4327 12.5604 78.748 12.3351C79.3849 11.8574 80.3717 11.6093 81.8364 11.5519L83.3899 11.4997V11.0454C83.3899 10.129 82.7737 9.73996 81.784 9.73996C80.7946 9.73996 80.1705 10.0898 80.0247 10.6616C80.0129 10.702 79.9881 10.7373 79.9539 10.7619C79.9201 10.7865 79.8786 10.799 79.8365 10.7973H78.304C78.2758 10.7981 78.2478 10.7925 78.2219 10.7813C78.1964 10.77 78.173 10.7532 78.1543 10.732C78.1357 10.7108 78.1219 10.6859 78.114 10.6588C78.1059 10.6318 78.1038 10.6033 78.1082 10.5754C78.3381 9.21778 79.4606 8.18649 81.8549 8.18649C84.3978 8.18649 85.314 9.36922 85.314 11.6276L85.3219 16.4263ZM94.9665 8.66688L91.5203 17.8597C90.7369 19.9953 89.3663 20.5436 87.8648 20.5436C87.5822 20.5505 87.2998 20.5162 87.0268 20.4418C86.9842 20.4303 86.947 20.4053 86.9197 20.3703C86.893 20.3354 86.8785 20.2926 86.878 20.2486V18.8518C86.878 18.8226 86.8842 18.7937 86.8965 18.7672C86.909 18.7407 86.9268 18.7172 86.9493 18.6986C86.972 18.6798 86.9981 18.6663 87.0264 18.659C87.0546 18.6516 87.0842 18.6506 87.1129 18.6559C87.3498 18.7009 87.59 18.7236 87.831 18.7239C88.2461 18.7447 88.6563 18.6256 88.9959 18.3855C89.335 18.1455 89.5841 17.7985 89.7029 17.4002L89.805 17.079C89.8207 17.036 89.8207 16.9889 89.805 16.9459L86.5831 8.66952C86.5731 8.63994 86.5703 8.60841 86.5752 8.57757C86.5798 8.54672 86.5916 8.51739 86.6092 8.49197C86.6275 8.46655 86.6514 8.44574 86.6789 8.4312C86.7064 8.41669 86.7372 8.40886 86.7683 8.40842H88.335C88.375 8.40882 88.4139 8.42118 88.447 8.444C88.4801 8.46678 88.5056 8.49896 88.5202 8.53637L90.7082 14.3742C90.7228 14.4123 90.7483 14.4452 90.7818 14.4684C90.8156 14.4916 90.8555 14.504 90.8962 14.504C90.9367 14.504 90.977 14.4916 91.0103 14.4684C91.0439 14.4452 91.0698 14.4123 91.0839 14.3742L92.9824 8.55204C92.9949 8.51234 93.0201 8.47775 93.0539 8.45333C93.0877 8.42889 93.1282 8.4159 93.1699 8.41627H94.776C94.8068 8.41613 94.8373 8.42335 94.8653 8.4372C94.8929 8.45109 94.9172 8.47127 94.9357 8.49616C94.9542 8.52104 94.9665 8.54991 94.9718 8.58049C94.9774 8.61102 94.9755 8.64241 94.9665 8.67211V8.66688Z" fill="#5A31F4"/>
</g>
</g>
<defs>
<clipPath id="clip0_4629_1596">
<rect width="99.9113" height="24" fill="white" transform="translate(0.0449219 0.0324707)"/>
</clipPath>
</defs>
</svg>
