<svg width="28" height="19" viewBox="0 0 28 19" fill="none" xmlns="http://www.w3.org/2000/svg">
<path fill-rule="evenodd" clip-rule="evenodd" d="M12.1877 9.13889L12.3454 8.13354L11.9942 8.12532H10.3174L11.4827 0.706374C11.4864 0.683909 11.4981 0.663054 11.5152 0.648218C11.5325 0.633383 11.5544 0.625244 11.5774 0.625244H14.4048C15.3435 0.625244 15.9913 0.821329 16.3295 1.20841C16.488 1.39 16.589 1.57981 16.6379 1.78862C16.6891 2.00776 16.69 2.26955 16.64 2.58889L16.6364 2.61212V2.81677L16.7949 2.90697C16.9284 2.9781 17.0346 3.05948 17.1159 3.15265C17.2515 3.30796 17.3393 3.50532 17.3763 3.73921C17.4147 3.9798 17.402 4.26617 17.3393 4.59036C17.2669 4.9632 17.15 5.28797 16.992 5.55366C16.8468 5.79849 16.6617 6.00161 16.4419 6.15895C16.2321 6.3085 15.9829 6.42201 15.701 6.49466C15.4279 6.56604 15.1165 6.60207 14.775 6.60207H14.5549C14.3976 6.60207 14.2448 6.65896 14.1248 6.76094C14.0045 6.86505 13.925 7.0073 13.9006 7.16286L13.8839 7.2534L13.6054 9.02546L13.5928 9.09048C13.5894 9.11108 13.5837 9.12134 13.5752 9.12829C13.5677 9.13465 13.5569 9.13889 13.5464 9.13889H12.1877Z" fill="#28356A"/>
<path fill-rule="evenodd" clip-rule="evenodd" d="M16.9448 2.63623C16.9365 2.6904 16.9268 2.74576 16.9159 2.80264C16.5431 4.72484 15.2674 5.38889 13.6382 5.38889H12.8086C12.6093 5.38889 12.4414 5.53411 12.4104 5.73146L11.8654 9.20259C11.8452 9.33221 11.9447 9.44894 12.0749 9.44894H13.5462C13.7204 9.44894 13.8684 9.32187 13.8959 9.14935L13.9103 9.07432L14.1873 7.30922L14.2051 7.2124C14.2322 7.03929 14.3806 6.91213 14.5548 6.91213H14.7748C16.2003 6.91213 17.3162 6.33108 17.6424 4.64947C17.7786 3.94703 17.7081 3.36047 17.3476 2.94795C17.2385 2.82358 17.1031 2.72033 16.9448 2.63623Z" fill="#298FC2"/>
<path fill-rule="evenodd" clip-rule="evenodd" d="M16.5551 2.47958C16.4981 2.46288 16.4393 2.44779 16.379 2.43414C16.3184 2.42083 16.2563 2.40905 16.1924 2.39871C15.9687 2.36242 15.7236 2.34521 15.4611 2.34521H13.245C13.1904 2.34521 13.1385 2.35759 13.0922 2.37997C12.9899 2.42931 12.914 2.52646 12.8956 2.6454L12.4242 5.64357L12.4106 5.73097C12.4416 5.53361 12.6096 5.38839 12.8088 5.38839H13.6384C15.2676 5.38839 16.5433 4.72401 16.9162 2.80215C16.9273 2.74527 16.9367 2.68991 16.945 2.63574C16.8507 2.58547 16.7486 2.54249 16.6386 2.50586C16.6114 2.49679 16.5833 2.48806 16.5551 2.47958Z" fill="#22284F"/>
<path fill-rule="evenodd" clip-rule="evenodd" d="M12.8955 2.64556C12.9139 2.52662 12.9898 2.42947 13.0921 2.38047C13.1388 2.35801 13.1903 2.34563 13.2449 2.34563H15.461C15.7235 2.34563 15.9687 2.36292 16.1923 2.39921C16.2562 2.40946 16.3183 2.42133 16.3789 2.43464C16.4392 2.44821 16.498 2.46338 16.555 2.48C16.5832 2.48848 16.6113 2.49729 16.6387 2.50602C16.7487 2.54265 16.851 2.58597 16.9453 2.6359C17.0562 1.92557 16.9444 1.44192 16.5619 1.00397C16.1401 0.521773 15.3791 0.31543 14.4051 0.31543H11.5776C11.3787 0.31543 11.209 0.46065 11.1782 0.658346L10.0006 8.15358C9.97735 8.30186 10.0913 8.43563 10.2402 8.43563H11.9858L12.8955 2.64556Z" fill="#28356A"/>
<path fill-rule="evenodd" clip-rule="evenodd" d="M3.85683 11.1797H1.79531C1.65422 11.1797 1.53424 11.2826 1.5122 11.4225L0.678426 16.7301C0.661877 16.8349 0.74268 16.9292 0.848475 16.9292H1.83263C1.97372 16.9292 2.0937 16.8264 2.11573 16.6863L2.34058 15.2547C2.36228 15.1145 2.48251 15.0116 2.62335 15.0116H3.27593C4.63387 15.0116 5.41758 14.3518 5.62233 13.0444C5.71453 12.4723 5.62621 12.0229 5.35941 11.7082C5.06642 11.3625 4.54674 11.1797 3.85683 11.1797ZM4.09453 13.1178C3.98181 13.8605 3.41662 13.8605 2.87017 13.8605H2.55903L2.77729 12.4734C2.79029 12.3896 2.86257 12.3279 2.947 12.3279H3.08961C3.46188 12.3279 3.81303 12.3279 3.99448 12.5409C4.10272 12.668 4.13582 12.8569 4.09453 13.1178Z" fill="#28356A"/>
<path fill-rule="evenodd" clip-rule="evenodd" d="M10.0716 13.0537H9.08436C9.00027 13.0537 8.92757 13.1154 8.91465 13.1993L8.87091 13.4765L8.80193 13.376C8.58823 13.0646 8.11161 12.9604 7.63599 12.9604C6.54503 12.9604 5.61331 13.7901 5.43186 14.9538C5.33755 15.5342 5.47163 16.0893 5.79965 16.4764C6.10049 16.8323 6.53093 16.9807 7.04302 16.9807C7.92205 16.9807 8.4094 16.4132 8.4094 16.4132L8.36541 16.6886C8.34886 16.7939 8.42967 16.8883 8.53487 16.8883H9.42404C9.56546 16.8883 9.68485 16.7854 9.70714 16.6453L10.2407 13.2528C10.2576 13.1484 10.177 13.0537 10.0716 13.0537ZM8.69546 14.9829C8.60021 15.5491 8.15263 15.9292 7.5817 15.9292C7.29505 15.9292 7.06598 15.8369 6.91881 15.662C6.77291 15.4883 6.71752 15.241 6.76388 14.9656C6.85287 14.4042 7.30796 14.0116 7.8702 14.0116C8.15052 14.0116 8.37841 14.1052 8.52853 14.2815C8.67891 14.4598 8.7386 14.7086 8.69546 14.9829Z" fill="#28356A"/>
<path fill-rule="evenodd" clip-rule="evenodd" d="M15.2533 13.1392H14.2612C14.1666 13.1392 14.0777 13.1864 14.0241 13.2654L12.6558 15.2889L12.0759 13.3443C12.0394 13.2227 11.9276 13.1392 11.8009 13.1392H10.8262C10.7076 13.1392 10.6254 13.2554 10.663 13.3674L11.7558 16.587L10.7285 18.0431C10.6477 18.1578 10.7291 18.3155 10.8686 18.3155H11.8595C11.9535 18.3155 12.0415 18.2694 12.0949 18.192L15.3943 13.41C15.4734 13.2957 15.3922 13.1392 15.2533 13.1392Z" fill="#28356A"/>
<path fill-rule="evenodd" clip-rule="evenodd" d="M18.5604 11.1797H16.4986C16.3578 11.1797 16.2379 11.2826 16.2158 11.4225L15.382 16.7301C15.3655 16.8349 15.4463 16.9292 15.5515 16.9292H16.6095C16.7077 16.9292 16.7918 16.8573 16.8072 16.7592L17.0439 15.2547C17.0656 15.1145 17.1859 15.0116 17.3266 15.0116H17.979C19.3371 15.0116 20.1206 14.3518 20.3256 13.0444C20.4181 12.4723 20.3292 12.0229 20.0624 11.7082C19.7697 11.3625 19.2503 11.1797 18.5604 11.1797ZM18.7982 13.1178C18.6858 13.8605 18.1206 13.8605 17.5738 13.8605H17.2631L17.4816 12.4734C17.4945 12.3896 17.5663 12.3279 17.651 12.3279H17.7936C18.1655 12.3279 18.517 12.3279 18.6984 12.5409C18.8067 12.668 18.8395 12.8569 18.7982 13.1178Z" fill="#298FC2"/>
<path fill-rule="evenodd" clip-rule="evenodd" d="M24.7743 13.0537H23.7877C23.703 13.0537 23.631 13.1154 23.6184 13.1993L23.5746 13.4765L23.5053 13.376C23.2916 13.0646 22.8153 12.9604 22.3396 12.9604C21.2487 12.9604 20.3174 13.7901 20.1359 14.9538C20.0418 15.5342 20.1753 16.0893 20.5033 16.4764C20.8048 16.8323 21.2345 16.9807 21.7467 16.9807C22.6257 16.9807 23.1131 16.4132 23.1131 16.4132L23.0691 16.6886C23.0526 16.7939 23.1333 16.8883 23.2392 16.8883H24.1281C24.2688 16.8883 24.3888 16.7854 24.4108 16.6453L24.9446 13.2528C24.9609 13.1484 24.8801 13.0537 24.7743 13.0537ZM23.3983 14.9829C23.3036 15.5491 22.8554 15.9292 22.2844 15.9292C21.9984 15.9292 21.7687 15.8369 21.6215 15.662C21.4757 15.4883 21.4208 15.241 21.4666 14.9656C21.5562 14.4042 22.0107 14.0116 22.5729 14.0116C22.8533 14.0116 23.0811 14.1052 23.2313 14.2815C23.3822 14.4598 23.4419 14.7086 23.3983 14.9829Z" fill="#298FC2"/>
<path fill-rule="evenodd" clip-rule="evenodd" d="M25.8556 11.3256L25.0095 16.7304C24.9929 16.8351 25.0737 16.9295 25.1789 16.9295H26.0295C26.1709 16.9295 26.2908 16.8267 26.3125 16.6865L27.1469 11.3792C27.1635 11.2744 27.0827 11.1797 26.9775 11.1797H26.025C25.941 11.1799 25.8686 11.2417 25.8556 11.3256Z" fill="#298FC2"/>
</svg>
