<svg width="30" height="31" viewBox="0 0 30 31" fill="none" xmlns="http://www.w3.org/2000/svg">
<path d="M15 7.33984C10.6407 7.33984 7.08984 10.8907 7.08984 15.25C7.08984 19.6093 10.6407 23.1602 15 23.1602C19.3593 23.1602 22.9102 19.6093 22.9102 15.25C22.9102 10.8907 19.3593 7.33984 15 7.33984Z" fill="#6D7175"/>
<path d="M22.9102 15.25C22.9102 19.6093 19.3593 23.1602 15 23.1602V7.33984C19.3593 7.33984 22.9102 10.8907 22.9102 15.25Z" fill="#6D7175"/>
<path d="M26.4258 15.25C26.4258 21.543 21.293 26.6758 15 26.6758C8.70697 26.6758 3.57422 21.543 3.57422 15.25C3.57422 8.95697 8.70697 3.82422 15 3.82422C17.5665 3.82422 19.9395 4.66791 21.8379 6.10938L20.502 7.44531L26.707 8.67578L25.4766 2.47064L24.3516 3.59564C21.7852 1.53906 18.5332 0.25 15 0.25C6.75586 0.25 0 7.00586 0 15.25C0 23.4941 6.75586 30.25 15 30.25C23.2441 30.25 30 23.4941 30 15.25H26.4258Z" fill="#6D7175"/>
<path d="M21.8379 6.10938L20.502 7.44531L26.707 8.67578L25.4766 2.47064L24.3516 3.59564C21.7852 1.53906 18.5332 0.25 15 0.25V3.82422C17.5665 3.82422 19.9395 4.66791 21.8379 6.10938Z" fill="#202223"/>
<path d="M30 15.25H26.4258C26.4258 21.543 21.293 26.6758 15 26.6758V30.25C23.2441 30.25 30 23.4941 30 15.25Z" fill="#202223"/>
<path d="M17.8945 12.8708L15.0003 15.765L14.1214 16.6439L12.1061 14.6287L10.8633 15.8714L14.1214 19.1296L15.0003 18.2507L19.1373 14.1136L17.8945 12.8708Z" fill="#F9F5F3"/>
<path d="M19.137 14.1136L17.8942 12.8708L15 15.765V18.2507L19.137 14.1136Z" fill="#F0DBD8"/>
</svg>
