<svg width="39" height="45" viewBox="0 0 39 45" fill="none" xmlns="http://www.w3.org/2000/svg">
<path d="M37.3678 25.6572H32.156C31.8215 23.8888 30.2658 22.5469 28.4016 22.5469C28.1164 22.5469 27.8353 22.578 27.561 22.6396C26.8032 21.6709 25.6308 21.0882 24.383 21.0882C23.8313 21.0882 23.2908 21.2001 22.7909 21.4151C22.3115 20.8728 21.7106 20.4633 21.0431 20.2135C21.4036 18.8843 22.0152 17.6646 22.771 16.601C24.2067 17.4348 25.4707 17.8497 26.592 17.8497C27.0554 17.8497 27.4948 17.779 27.9117 17.6382C30.2113 16.8617 31.2071 14.2108 32.1701 11.6474C32.8602 9.81036 33.5737 7.91085 34.6584 7.30361C34.9379 7.14718 35.0783 6.8232 35.0015 6.5122C34.9246 6.2012 34.6495 5.97994 34.3292 5.97167C26.9296 5.77859 22.9023 8.45592 21.6 11.0243C20.8358 12.5314 20.8936 14.1626 21.739 15.5901C21.3583 16.1132 21.013 16.664 20.7096 17.2354C20.2421 15.0467 19.5418 13.0138 18.6454 11.2641C18.6397 11.2529 18.6339 11.2421 18.6282 11.2311C19.8266 9.85109 20.1483 8.10792 19.5058 6.40477C18.4894 3.71037 14.7752 0.613467 7.39903 0.00249922C7.07994 -0.0242696 6.7822 0.166224 6.67219 0.466995C6.56209 0.767855 6.66667 1.10509 6.92751 1.29096C7.93983 2.01211 8.44337 3.97779 8.93037 5.87873C9.60999 8.53151 10.3126 11.2746 12.5145 12.2958C13.062 12.5497 13.6653 12.677 14.33 12.677C15.2371 12.677 16.2586 12.4398 17.4084 11.9639C18.4986 14.1067 19.3073 16.7847 19.6983 19.7368C19.6795 19.8037 19.6618 19.8707 19.6441 19.9378C19.5956 19.9362 19.5473 19.9338 19.4985 19.9338C18.2061 19.9338 17.0065 20.4894 16.1775 21.4471C15.6579 21.2111 15.0926 21.0883 14.5127 21.0883C13.2649 21.0883 12.0925 21.671 11.3347 22.6397C11.0604 22.5781 10.7793 22.547 10.4941 22.547C8.62995 22.547 7.07416 23.889 6.73969 25.6573H1.52787C1.13496 25.6573 0.816406 25.9759 0.816406 26.3688C0.816406 36.642 9.1744 45 19.4478 45C29.7213 45 38.0792 36.642 38.0792 26.3686C38.0792 25.9757 37.7607 25.6572 37.3678 25.6572ZM13.1131 11.0049C11.5235 10.2677 10.906 7.85704 10.3087 5.52567C9.94029 4.08763 9.585 2.70054 9.00071 1.62001C14.5809 2.46309 17.4245 4.91897 18.1744 6.90706C18.5696 7.95487 18.4551 8.99183 17.8622 9.89085C16.7229 8.09521 15.3796 6.78407 13.9246 6.06007C13.5728 5.88505 13.1458 6.02841 12.9707 6.38014C12.7957 6.73195 12.9389 7.15901 13.2907 7.33403C14.5502 7.96065 15.7128 9.13616 16.7027 10.7129C15.1919 11.3101 13.9865 11.4098 13.1131 11.0049ZM22.8691 11.6678C23.8301 9.77257 26.9223 7.63925 32.5617 7.40598C31.8637 8.41687 31.3601 9.75727 30.8381 11.147C29.9917 13.3999 29.1166 15.7295 27.4565 16.2901C26.4926 16.6157 25.2213 16.3403 23.6725 15.4764C24.9029 14.1112 26.3487 13.1113 27.6777 12.6214C28.0464 12.4856 28.2351 12.0765 28.0992 11.7078C27.9634 11.3391 27.5545 11.1502 27.1856 11.2863C25.5445 11.8911 24.0035 12.9899 22.725 14.3843C22.3684 13.5061 22.4122 12.5689 22.8691 11.6678ZM10.4941 23.9697C10.7966 23.9697 11.0913 24.0252 11.3698 24.1346C11.6983 24.2635 12.0719 24.1323 12.2473 23.8258C12.7115 23.0148 13.5795 22.5111 14.5126 22.5111C15.0376 22.5111 15.5436 22.6664 15.9759 22.9601C16.1355 23.0686 16.3325 23.1073 16.5213 23.0679C16.7103 23.0284 16.8751 22.9138 16.9778 22.7504C17.527 21.8777 18.4692 21.3567 19.4984 21.3567C20.5094 21.3567 21.4425 21.8634 21.9945 22.7123C22.2079 23.0404 22.6463 23.1345 22.9755 22.923C23.3949 22.6535 23.8816 22.511 24.383 22.511C25.3161 22.511 26.184 23.0148 26.6483 23.8257C26.8236 24.1321 27.1973 24.2635 27.5258 24.1345C27.8044 24.0251 28.099 23.9696 28.4016 23.9696C29.4767 23.9696 30.3889 24.6805 30.6928 25.657H8.2029C8.50669 24.6807 9.41888 23.9697 10.4941 23.9697ZM19.1166 27.4288C19.3404 27.7839 19.5717 28.1511 19.843 28.5208C20.6537 29.6256 20.784 30.0609 20.8029 30.1947C20.6887 30.2611 20.4191 30.3449 20.2327 30.4029C19.248 30.7092 17.423 31.2768 17.4019 34.1534C17.1095 35.4377 16.8145 35.7544 16.5025 36.0892C16.0701 36.5532 15.7199 37.0037 15.4791 38.1975C15.424 38.3927 15.2184 38.6007 15.0325 38.6474C14.9557 38.6666 14.9253 38.6518 14.8786 38.6003C14.8688 38.5894 14.8585 38.5788 14.848 38.5686C14.4519 38.1826 14.3793 37.7396 14.2753 36.9252C14.1392 35.8598 13.9531 34.4016 12.5058 32.662C11.9151 31.8917 11.9098 31.2355 11.9042 30.5409C11.8966 29.6174 11.8873 28.468 10.3053 27.5536C10.0402 27.4004 9.78875 27.2428 9.54543 27.0801H18.8955C18.9678 27.1925 19.0411 27.309 19.1166 27.4288ZM19.4478 43.5771C10.197 43.5771 2.62779 36.2407 2.25392 27.08H7.22837C7.95575 27.73 8.71337 28.2769 9.59318 28.7854C10.471 29.2929 10.4745 29.7138 10.4813 30.5523C10.4879 31.3701 10.4962 32.3879 11.3873 33.5415C11.3928 33.5487 11.3984 33.5556 11.4041 33.5625C12.5935 34.9878 12.737 36.1127 12.8639 37.1052C12.9719 37.9512 13.0835 38.8258 13.8401 39.5729C14.1478 39.9036 14.5466 40.0785 14.9742 40.0785C15.1067 40.0785 15.242 40.0617 15.3782 40.0276C16.0753 39.853 16.6858 39.2374 16.8627 38.5307C16.8655 38.5195 16.8681 38.5082 16.8703 38.4968C17.0514 37.5872 17.2577 37.3657 17.5433 37.0593C17.9366 36.6373 18.4261 36.1121 18.8078 34.3864C18.8192 34.3349 18.8248 34.2823 18.8246 34.2295C18.8159 32.3337 19.6683 32.0686 20.6553 31.7616C21.2537 31.5754 21.9319 31.3645 22.1616 30.667C22.3892 29.9756 22.0608 29.1379 20.9901 27.6788C20.8465 27.4831 20.7118 27.2815 20.5815 27.08H29.3916C29.248 27.3468 29.0579 27.6271 28.8538 27.9279C28.1695 28.9367 27.3178 30.1922 27.5572 32.0216C27.7984 33.8655 29.1481 35.9771 31.6777 38.4632C28.5565 41.619 24.2266 43.5771 19.4478 43.5771ZM32.6365 37.4098C30.397 35.2004 29.1632 33.3275 28.9682 31.8371C28.799 30.5437 29.3976 29.6611 30.0315 28.7267C30.3842 28.2068 30.7451 27.6737 30.9365 27.08H36.6419C36.4817 31.0022 35.0018 34.5891 32.6365 37.4098Z" fill="#008060"/>
</svg>
