<svg width="57" height="45" viewBox="0 0 57 45" fill="none" xmlns="http://www.w3.org/2000/svg">
<path d="M10.2449 36.9254C8.88031 36.9247 7.66847 36.0539 7.23371 34.7609L0.839187 15.6067C0.285853 13.9468 1.18337 12.1517 2.84327 11.5985L37.1139 0.163262C38.7719 -0.388755 40.5643 0.504265 41.1227 2.16042L43.9272 10.5641L42.7306 10.9812L42.6356 10.7087L39.9204 2.56236C39.5857 1.56855 38.5101 1.03366 37.5157 1.36577L3.24454 12.8027C2.24821 13.1341 1.70882 14.2104 2.04027 15.2067L8.43732 34.3591C8.77129 35.3554 9.84821 35.8941 10.8457 35.5634L10.9655 35.5215L11.3801 36.7201L11.2533 36.7638C10.9282 36.8715 10.5879 36.9266 10.2449 36.9254Z" fill="#008060"/>
<path d="M27.1445 10.1711L27.5458 11.3741L41.3254 6.77638L41.5256 5.37317L27.1445 10.1711Z" fill="#008060"/>
<path d="M4.56094 22.7427L3.44856 19.412L8.91899 17.5847L8.51716 16.3829L2.44531 18.4112L4.36189 24.1452L8.91899 22.6234L8.51716 21.4218L4.56094 22.7427Z" fill="#008060"/>
<path d="M49.2812 22.8149H50.5489V29.7868H49.2812V22.8149Z" fill="#008060"/>
<path d="M38.5048 36.7606H11.2511C9.50182 36.7587 8.0839 35.3409 8.08203 33.5916V13.3097C8.0839 11.5604 9.50171 10.1425 11.2511 10.1406H47.3781C49.1273 10.1425 50.5453 11.5603 50.5471 13.3097V20.9154H49.2795V13.3097C49.2795 12.2594 48.4283 11.4082 47.3781 11.4082H11.2511C10.2008 11.4082 9.34965 12.2594 9.34965 13.3097V33.5916C9.34965 34.6418 10.2008 35.493 11.2511 35.493H38.5048V36.7606Z" fill="#008060"/>
<path d="M16.9562 27.8872H13.1533C12.8034 27.8872 12.5195 27.6033 12.5195 27.2534C12.5195 26.9035 12.8034 26.6196 13.1533 26.6196H16.9562C17.3061 26.6196 17.59 26.9035 17.59 27.2534C17.59 27.6033 17.3061 27.8872 16.9562 27.8872Z" fill="#008060"/>
<path d="M21.3929 31.6901H13.1533C12.8034 31.6901 12.5195 31.4062 12.5195 31.0563C12.5195 30.7064 12.8034 30.4225 13.1533 30.4225H21.3929C21.7428 30.4225 22.0267 30.7064 22.0267 31.0563C22.0267 31.4062 21.7428 31.6901 21.3929 31.6901Z" fill="#008060"/>
<path d="M21.3939 22.183H13.7881C12.7379 22.183 11.8867 21.3318 11.8867 20.2816V15.2111C11.8867 14.1609 12.7379 13.3097 13.7881 13.3097H21.3939C22.4441 13.3097 23.2953 14.1609 23.2953 15.2111V20.2816C23.2953 21.3318 22.4441 22.183 21.3939 22.183ZM13.7883 14.5773C13.4384 14.5773 13.1544 14.8612 13.1544 15.2111V20.2816C13.1544 20.6315 13.4384 20.9154 13.7883 20.9154H21.3939C21.7437 20.9154 22.0277 20.6315 22.0277 20.2816V15.2111C22.0277 14.8612 21.7437 14.5773 21.3939 14.5773H13.7883Z" fill="#008060"/>
<path d="M15.6885 15.843H19.4913C19.8412 15.843 20.1252 16.1269 20.1252 16.4768V19.0121C20.1252 19.362 19.8412 19.6459 19.4913 19.6459H15.6885C15.3386 19.6459 15.0547 19.362 15.0547 19.0121V16.4768C15.0548 16.1269 15.3387 15.843 15.6885 15.843Z" fill="#008060"/>
<path d="M22.6604 15.5261V14.8923H19.9939L17.9069 16.9795V14.5754H17.273V16.9795L15.186 14.8923H12.5195V15.5261H14.9236L16.8249 17.4275H12.5195V18.0613H16.8249L14.9236 19.9628H12.5195V20.5966H15.186L17.273 18.5095V20.9135H17.9069V18.5095L19.9939 20.5966H22.6604V19.9628H20.2563L18.3549 18.0613H22.6604V17.4275H18.3549L20.2563 15.5261H22.6604Z" fill="#008060"/>
<path d="M50.8089 22.8593C51.8686 23.8202 52.4657 25.1891 52.4498 26.6197V29.7887H51.1822V26.6197C51.2114 24.5446 49.5527 22.8396 47.4776 22.8104C47.3134 22.8079 47.1493 22.8168 46.9864 22.8358C45.0146 23.0804 43.5442 24.772 43.5765 26.7591V29.7887H42.3088V26.7591C42.2828 24.1212 44.2464 21.887 46.8659 21.5746C48.3035 21.4212 49.7378 21.8883 50.8089 22.8593Z" fill="#008060"/>
<path d="M54.3499 26.96V29.7887H53.0823V26.962C53.1153 24.8393 52.0327 22.8549 50.2302 21.7331C48.5367 20.6759 46.3983 20.6417 44.6718 21.6444C42.8629 22.6559 41.7226 24.5478 41.6739 26.6197V29.7888H40.4062V26.6197C40.4595 24.0946 41.8431 21.7856 44.0443 20.5479C46.1656 19.31 48.7973 19.3461 50.883 20.643C53.064 21.9973 54.3791 24.3925 54.3499 26.96Z" fill="#008060"/>
<path d="M53.7163 45H41.0401C39.2909 44.9981 37.873 43.5803 37.8711 41.831V32.3238C37.873 30.5746 39.2908 29.1567 41.0401 29.1548H53.7163C55.4656 29.1567 56.8835 30.5745 56.8854 32.3238V41.831C56.8835 43.5803 55.4657 44.9981 53.7163 45ZM41.0402 30.4225C39.99 30.4225 39.1388 31.2737 39.1388 32.3239V41.8311C39.1388 42.8813 39.99 43.7325 41.0402 43.7325H53.7164C54.7667 43.7325 55.6179 42.8813 55.6179 41.8311V32.3239C55.6179 31.2737 54.7667 30.4225 53.7164 30.4225H41.0402ZM47.3783 41.9641C46.1658 41.961 45.1848 40.9772 45.1853 39.7649C45.1885 39.1818 45.3995 38.6183 45.7811 38.1772V36.7606C45.7811 36.4107 46.0651 36.1268 46.4149 36.1268H48.3417C48.6916 36.1268 48.9755 36.4107 48.9755 36.7606V38.2551C49.3634 38.662 49.5796 39.2027 49.5776 39.7649C49.5751 40.9779 48.5914 41.961 47.3783 41.9623V41.9641ZM47.0488 37.3944V38.4465C47.0488 38.6405 46.96 38.823 46.8079 38.9434C46.5797 39.1564 46.4511 39.4549 46.4529 39.7674C46.4529 40.2801 46.8687 40.6959 47.3814 40.6959C47.8941 40.6959 48.3099 40.2801 48.3099 39.7674C48.3112 39.4821 48.1794 39.2128 47.9531 39.0385C47.7984 38.9187 47.7078 38.7336 47.7078 38.5377V37.3944H47.0488Z" fill="#008060"/>
</svg>
