<svg width="46" height="45" viewBox="0 0 46 45" fill="none" xmlns="http://www.w3.org/2000/svg">
<path d="M25.1019 22.7476C23.8433 22.1913 22.8002 21.8992 21.5832 21.8922L19.9491 20.4806C18.9408 19.215 18.4262 17.9494 18.4053 16.7116C19.8309 15.7242 20.8183 14.1109 20.9922 12.2681H21.5624C22.7445 12.2681 23.7111 11.3015 23.7111 10.1193C23.7111 9.4309 23.3843 8.82592 22.8767 8.4365C23.3982 7.67157 23.6346 6.74671 23.5581 5.70363C23.5025 4.95261 23.1131 4.26417 22.4942 3.82608C22.0492 3.51316 21.5276 3.3254 20.9922 3.35322C20.8809 2.64392 20.5054 1.99026 19.9213 1.5313C18.8295 0.669022 17.1258 0.550806 15.137 1.19056C11.8478 2.2406 10.5614 0.752468 10.5127 0.689883C10.4223 0.578621 10.2971 0.509083 10.1511 0.495175C10.019 0.481267 9.87293 0.522991 9.76862 0.613391C8.60037 1.59389 8.58646 2.79691 8.84375 3.62442C8.05101 3.83999 7.50166 4.26417 7.2235 4.87611C6.70196 6.0235 7.3139 7.46296 7.74504 8.2557C7.09138 8.62425 6.63937 9.31269 6.63937 10.1193C6.63937 11.3015 7.60596 12.2681 8.78812 12.2681H9.35139C9.44178 13.6797 10.0329 15.001 11.0481 16.0093C11.3263 16.2874 11.6253 16.5378 11.9452 16.7464C11.9243 17.9911 11.4236 19.215 10.4014 20.4806L8.76726 21.8922C7.55033 21.8992 6.61851 22.2121 5.2486 22.7476C2.63394 24.0688 0.839844 26.7669 0.839844 29.8892V44.4784C0.839844 44.7635 1.06932 45 1.36138 45H28.9961C29.2812 45 29.5176 44.7635 29.5176 44.4784V29.8892C29.5176 26.7669 27.7166 24.0688 25.1019 22.7476ZM21.7293 30.2995H22.9253C23.2105 30.2995 23.4469 30.063 23.4469 29.7779C23.4469 29.4859 23.2105 29.2564 22.9253 29.2564H21.9727C22.0422 28.9157 22.1117 28.5749 22.1674 28.2411H22.5637C22.8558 28.2411 23.0853 28.0047 23.0853 27.7196C23.0853 27.4275 22.8558 27.198 22.5637 27.198H22.3204C22.3551 26.8573 22.3829 26.5235 22.4038 26.1828H23.5025C23.7876 26.1828 24.0241 25.9463 24.0241 25.6612C24.0241 25.3692 23.7876 25.1397 23.5025 25.1397H22.4038C22.369 24.4165 22.2717 23.6863 22.0839 22.9562C22.8836 23.0257 23.6485 23.2274 24.3509 23.5403C24.942 26.2176 24.2396 28.8809 23.4886 31.6972C22.6263 34.9238 21.7362 38.2478 22.974 41.5995H20.8879C20.7418 41.2588 20.6306 40.925 20.5402 40.5843H20.7071C20.9991 40.5843 21.2286 40.3548 21.2286 40.0627C21.2286 39.7776 20.9991 39.5412 20.7071 39.5412H20.3176C20.262 39.2074 20.2272 38.8666 20.2133 38.5259H21.2842C21.5693 38.5259 21.8058 38.2964 21.8058 38.0044C21.8058 37.7193 21.5693 37.4828 21.2842 37.4828H20.2133C20.2342 37.149 20.262 36.8083 20.3037 36.4676H20.6862C20.9713 36.4676 21.2077 36.2381 21.2077 35.946C21.2077 35.6609 20.9713 35.4245 20.6862 35.4245H20.4637C20.5263 35.0907 20.5958 34.75 20.6723 34.4092H21.8614C22.1535 34.4092 22.3829 34.1797 22.3829 33.8877C22.3829 33.6026 22.1535 33.3661 21.8614 33.3661H20.9226C21.013 33.0323 21.0965 32.6916 21.1869 32.3578H21.625C21.917 32.3578 22.1465 32.1214 22.1465 31.8363C22.1465 31.5442 21.917 31.3147 21.625 31.3147H21.465C21.5554 30.974 21.6458 30.6333 21.7293 30.2995ZM20.7418 22.5459C19.8656 24.2496 18.6348 25.9324 18.0368 25.9324C18.0368 25.9324 18.0298 25.9324 18.0229 25.9324C17.696 25.8907 16.799 24.8963 15.9784 23.6933C17.4457 23.137 18.6557 22.4138 19.5875 21.5445L20.7418 22.5459ZM21.5624 11.225H21.02V9.01367H21.5624C22.1743 9.01367 22.6681 9.50739 22.6681 10.1193C22.6681 10.7243 22.1743 11.225 21.5624 11.225ZM9.33748 11.225H8.78812C8.18313 11.225 7.68246 10.7243 7.68246 10.1193C7.68246 9.50739 8.18313 9.01367 8.78812 9.01367H9.33748V11.225ZM9.33748 7.23348V7.97059H8.78812C8.78812 7.97059 8.78812 7.97059 8.78117 7.97059C8.3987 7.31692 7.82849 6.07218 8.17618 5.30726C8.37089 4.88307 8.86461 4.62578 9.6504 4.52842C9.8312 4.50756 9.98419 4.3963 10.0607 4.23636C10.1372 4.07642 10.1233 3.88171 10.0329 3.72873C9.95637 3.61051 9.38616 2.65783 10.1233 1.73992C10.8465 2.28927 12.5363 3.11679 15.4569 2.17801C17.105 1.64952 18.461 1.7121 19.2815 2.35186C19.7613 2.73432 20.0186 3.29759 19.9769 3.90953C19.963 4.07642 20.0325 4.23636 20.1647 4.34762C20.2898 4.45193 20.4706 4.49365 20.6306 4.45193C21.0617 4.33371 21.5276 4.41716 21.8892 4.67445C22.2578 4.9387 22.4873 5.33507 22.5151 5.78012C22.5846 6.67021 22.3621 7.40732 21.8892 8.00536C21.778 7.9845 21.6737 7.97059 21.5624 7.97059H20.9922C20.9783 7.66462 20.9783 7.35169 20.9504 7.04572C20.8948 6.39206 20.5263 5.79403 19.963 5.43938C19.4275 5.10559 18.7808 5.03605 18.2037 5.26553C17.9116 5.37679 17.6334 5.52283 17.397 5.70363C16.9172 6.04437 16.3887 6.2043 15.7768 6.2043C14.4416 6.2043 13.2456 5.61323 12.8631 4.7579C12.7657 4.54233 12.5502 4.42411 12.3068 4.45888C12.0703 4.49365 11.8965 4.68141 11.8687 4.91784C11.7574 5.94006 10.8882 6.71194 9.85902 6.71194C9.56696 6.71194 9.33748 6.94142 9.33748 7.23348ZM11.7852 15.2722C10.8743 14.3682 10.3806 13.1651 10.3806 11.8856V7.70634C11.3332 7.5464 12.1468 6.94142 12.578 6.10695C13.336 6.81625 14.5042 7.24739 15.7768 7.24739C16.5973 7.24739 17.3483 7.01791 18.002 6.552C18.1759 6.41987 18.3706 6.31557 18.5792 6.23212C18.9477 6.09304 19.2607 6.23212 19.4136 6.32252C19.6987 6.50332 19.8865 6.80929 19.9143 7.13612C19.956 7.62289 19.9769 11.677 19.9769 11.677C19.9769 13.4641 18.8712 16.5517 15.5403 16.6699C14.1357 16.7186 12.7796 16.2666 11.7852 15.2722ZM12.9535 17.2888C15.1787 18.1511 16.8407 17.5043 17.397 17.2679C17.5291 18.4431 18.0229 19.6253 18.8712 20.7866C17.9533 21.6419 16.7155 22.3373 15.1787 22.8658C13.6419 22.3373 12.3972 21.6419 11.4793 20.7866C12.3346 19.6322 12.8283 18.457 12.9535 17.2888ZM10.763 21.5445C11.6948 22.4138 12.9048 23.137 14.379 23.6933C13.5515 24.8963 12.6614 25.8907 12.3276 25.9324C12.3276 25.9324 12.3207 25.9324 12.3137 25.9324C11.7157 25.9324 10.4849 24.2496 9.60868 22.5459L10.763 21.5445ZM5.99962 23.5403C6.70196 23.2274 7.46689 23.0257 8.27354 22.9562C8.07883 23.6863 7.98147 24.4165 7.9467 25.1397H6.84799C6.56288 25.1397 6.32645 25.3692 6.32645 25.6612C6.32645 25.9463 6.56288 26.1828 6.84799 26.1828H7.9467C7.96756 26.5235 7.99538 26.8573 8.03015 27.198H7.78676C7.4947 27.198 7.26522 27.4275 7.26522 27.7196C7.26522 28.0047 7.4947 28.2411 7.78676 28.2411H8.18313C8.23876 28.5749 8.3083 28.9157 8.37784 29.2564H7.42516C7.14005 29.2564 6.91057 29.4859 6.91057 29.7779C6.91057 30.063 7.14005 30.2995 7.42516 30.2995H8.62123C8.70468 30.6333 8.79508 30.974 8.88548 31.3147H8.72554C8.44043 31.3147 8.204 31.5442 8.204 31.8363C8.204 32.1214 8.44043 32.3578 8.72554 32.3578H9.15668C9.24708 32.6916 9.33748 33.0323 9.42092 33.3661H8.4891C8.204 33.3661 7.96756 33.6026 7.96756 33.8877C7.96756 34.1797 8.204 34.4092 8.4891 34.4092H9.67126C9.74776 34.75 9.81034 35.0907 9.87293 35.4245H9.66431C9.3792 35.4245 9.14277 35.6609 9.14277 35.946C9.14277 36.2381 9.3792 36.4676 9.66431 36.4676H10.0329C10.0746 36.8222 10.1163 37.1699 10.1302 37.5176H7.97452C7.89107 35.5566 7.36953 33.5956 6.8619 31.7042C6.11088 28.8809 5.40854 26.2176 5.99962 23.5403ZM28.4745 43.9569H1.88292V29.8892C1.88292 27.5527 3.04422 25.4804 4.81746 24.2218C4.49063 26.8434 5.17906 29.4441 5.85359 31.9684C6.38904 33.9711 6.94535 36.0434 6.94535 38.0391C6.94535 38.3312 7.17482 38.5607 7.46689 38.5607H10.6657C10.8047 38.5607 10.9369 38.505 11.0342 38.4077C11.1316 38.3103 11.1872 38.1782 11.1872 38.0391C11.1872 37.3437 11.1246 36.6484 11.0203 35.953C11.0203 35.953 11.0203 35.953 11.0203 35.946C11.0203 35.9391 11.0134 35.9252 11.0134 35.9113C10.8047 34.4927 10.4362 33.081 10.0676 31.7042C9.34443 28.9991 8.66295 26.4262 9.13582 23.8532C9.91465 25.2092 11.1455 26.9755 12.3207 26.9755H12.3972C13.2803 26.9199 14.4416 25.4457 15.1787 24.3748C15.9089 25.4457 17.0702 26.9199 17.9603 26.9755H18.0298C19.205 26.9755 20.4428 25.2092 21.2147 23.8532C21.6876 26.4192 21.0061 28.9991 20.2829 31.7042C19.7335 33.7625 19.1772 35.8556 19.1633 37.9765V38.0322C19.1633 39.4647 19.4067 40.8972 20.0743 42.3436C20.1577 42.5244 20.3455 42.6426 20.5471 42.6426H23.7529C23.9337 42.6426 24.0936 42.5522 24.191 42.3992C24.2883 42.2532 24.3022 42.0654 24.2257 41.8985C22.7098 38.6441 23.579 35.4036 24.4969 31.9684C25.1714 29.4441 25.8668 26.8434 25.533 24.2218C27.3063 25.4804 28.4745 27.5527 28.4745 29.8892V43.9569Z" fill="#008060"/>
<path d="M44.5937 13.5963C45.2265 11.9274 45.7272 10.5992 45.1013 9.47962C44.545 8.47826 43.2099 7.83155 40.6647 7.32392C40.2753 7.22657 39.9833 6.97623 39.879 6.6633C39.8442 6.55204 39.8233 6.46164 39.8303 6.37819C39.8372 6.09308 39.7329 5.81493 39.5382 5.61327C39.3574 5.42551 39.114 5.3212 38.8498 5.3212H38.057V3.93043C39.121 3.68009 39.8581 2.58138 39.5034 1.38531C39.3226 0.787278 38.8498 0.293553 38.2517 0.105799C36.8818 -0.339249 35.6093 0.68297 35.6093 1.9903C35.6093 2.24064 35.8179 2.44925 36.0682 2.44925C36.3186 2.44925 36.5272 2.24064 36.5272 1.9903C36.5272 1.39227 37.007 0.905494 37.605 0.905494C38.2031 0.905494 38.6898 1.39227 38.6898 1.9903C38.6898 2.58833 38.2031 3.06815 37.605 3.06815C37.3547 3.06815 37.153 3.27676 37.153 3.52015V5.3212H36.1864C35.9222 5.3212 35.6788 5.42551 35.498 5.61327C35.3033 5.81493 35.199 6.09308 35.206 6.37819C35.2129 6.46164 35.192 6.55204 35.1642 6.6633C35.053 6.97623 34.7609 7.22657 34.3993 7.31697C31.8264 7.83155 30.4912 8.47826 29.9349 9.47962C29.316 10.5992 29.8167 11.9204 30.4495 13.5963C30.9363 14.8897 31.5482 16.51 31.7777 18.4293C32.0211 20.4528 31.5899 22.4208 31.2075 24.1523C31.0545 24.8546 30.9085 25.5153 30.825 26.1202C30.6929 26.9895 31.0893 27.8726 31.875 28.3733C32.2575 28.6167 32.7165 28.714 33.1685 28.714H35.644V40.2783C35.644 40.6817 35.3868 41.0293 35.0182 41.1267C33.245 41.5996 31.3674 42.6983 31.3674 43.797C31.3674 44.0473 31.4648 44.2768 31.6456 44.4506C32.2019 45 33.4258 45.007 35.9292 44.9791C36.9375 44.9652 38.1057 44.9652 39.114 44.9791C39.5799 44.9861 40.0041 44.993 40.3866 44.993C42.0486 44.993 42.9456 44.9027 43.3976 44.4576C43.5784 44.2768 43.6758 44.0543 43.6758 43.8039C43.6758 42.6983 41.7982 41.6065 40.025 41.1337C39.6564 41.0363 39.4061 40.6886 39.4061 40.2922V28.721H41.8747C42.3267 28.721 42.7857 28.6236 43.1681 28.3802C43.9539 27.8796 44.3503 26.9964 44.2182 26.1272C44.1347 25.5222 43.9887 24.8546 43.8357 24.1592C43.4532 22.4277 43.0221 20.4598 43.2724 18.4362C43.488 16.51 44.1 14.8897 44.5937 13.5963ZM39.7538 42.142C41.5409 42.6218 42.4797 43.4493 42.6118 43.7553C42.2085 43.9847 32.8277 43.9847 32.4244 43.7553C32.5635 43.4423 33.5023 42.6148 35.2894 42.142C36.11 41.9264 36.6871 41.1615 36.6871 40.2853V28.721H38.363V40.2922C38.363 41.1615 38.9332 41.9194 39.7538 42.142ZM38.2726 13.0678C38.2865 13.0956 39.2114 15.3696 41.9025 15.3696C42.2502 15.3696 42.6327 15.3278 43.043 15.2444C42.7509 16.1623 42.4867 17.1845 42.3615 18.318C42.0972 20.4946 42.5423 22.539 42.9456 24.354C43.0916 25.0354 43.2307 25.6821 43.3142 26.2524C43.3698 26.6418 43.2516 27.0381 43.0012 27.3372C42.737 27.6362 42.3545 27.81 41.9651 27.81H33.0781C32.6817 27.81 32.2992 27.6362 32.0419 27.3372C31.7846 27.0381 31.6734 26.6418 31.729 26.2524C31.8125 25.6821 31.9515 25.0354 32.1045 24.354C32.5009 22.5459 32.9459 20.4946 32.6887 18.318C32.5565 17.1845 32.2923 16.1623 32.0072 15.2444C32.4175 15.3278 32.7999 15.3696 33.1407 15.3696C35.8248 15.3696 36.7567 13.0956 36.7706 13.0678C36.861 12.8383 36.7497 12.5741 36.5133 12.4767C36.2838 12.3863 36.0126 12.5046 35.9222 12.734C35.8805 12.8383 34.8722 15.2027 31.6525 14.2083C31.5343 13.8814 31.4161 13.5685 31.3048 13.2695C30.7346 11.7605 30.3174 10.6687 30.7346 9.91771C31.1379 9.20147 32.3549 8.65211 34.6079 8.20706C35.2964 8.03321 35.8318 7.5534 36.0335 6.9345C36.103 6.72589 36.1308 6.52422 36.1239 6.33647C36.1239 6.28779 36.1447 6.25302 36.1934 6.21825L38.9054 6.23216C38.9193 6.25302 38.9332 6.28779 38.9332 6.33647C38.9263 6.52422 38.961 6.72589 39.0236 6.9345C39.2253 7.5534 39.7607 8.02626 40.47 8.21402C42.6953 8.65211 43.9192 9.20147 44.3155 9.91771C44.7258 10.6687 44.3155 11.7674 43.7453 13.2695C43.634 13.5615 43.5228 13.8745 43.3976 14.2083C40.178 15.1957 39.1697 12.8314 39.1279 12.734C39.0375 12.5046 38.7733 12.3863 38.5369 12.4767C38.3004 12.5671 38.1822 12.8383 38.2726 13.0678Z" fill="#008060"/>
</svg>
