<svg width="52" height="47" viewBox="0 0 52 47" fill="none" xmlns="http://www.w3.org/2000/svg">
<path d="M41.7961 18.5143L40.2165 20.0939L41.0853 22.1474C41.4802 23.0162 41.0063 24.043 40.1375 24.4379L38.0839 25.3067V27.5182C38.0839 28.466 37.2941 29.2558 36.3463 29.2558H34.1348L33.266 31.3093C32.8711 32.1781 31.8444 32.652 30.9756 32.2571H30.8176L28.843 31.4673L27.2634 33.0469C27.1054 33.2049 26.8685 33.3629 26.6315 33.4419H25.5258C25.2889 33.3629 24.9729 33.2049 24.815 33.0469L23.2353 31.4673L21.2608 32.2571L21.1028 32.3361C20.234 32.731 19.2072 32.2571 18.8123 31.3883L17.9435 29.3348H15.811C14.8632 29.3348 14.0734 28.545 14.0734 27.5972V25.3857L12.0199 24.5169C11.1511 24.122 10.6772 23.0952 11.0721 22.2264L11.9409 20.1729L10.3613 18.5932C9.65042 17.8824 9.65042 16.7767 10.3613 16.1448L11.9409 14.5652L11.0721 12.3537C10.6772 11.4849 11.1511 10.4581 12.0199 10.0632L14.0734 9.19438V6.98289C14.0734 6.0351 14.8632 5.24528 15.811 5.24528H18.0225L18.8913 3.19175C19.2862 2.32295 20.313 1.84906 21.1818 2.24397L23.2353 3.11277L24.815 1.53313C25.5258 0.82229 26.6315 0.82229 27.2634 1.53313L28.843 3.11277L30.8966 2.24397C31.7654 1.84906 32.7921 2.32295 33.1871 3.19175L34.0559 5.24528H36.3463C37.2941 5.24528 38.0839 6.0351 38.0839 6.98289V9.27337L40.1375 10.1422C41.0063 10.5371 41.4802 11.5638 41.0853 12.4326L40.2165 14.4862L41.7961 16.0658C42.5069 16.6977 42.5069 17.8034 41.7961 18.5143Z" stroke="#008060" stroke-miterlimit="10" stroke-linecap="round" stroke-linejoin="round"/>
<path d="M25.5278 33.4419L18.9723 46L17.5506 39.1286L10.3633 41.4981L16.7608 29.3348H18.0245L18.8933 31.3884C19.2882 32.2572 20.315 32.7311 21.1838 32.3362L21.3418 32.2572L23.3163 31.4674L24.896 33.047C25.0539 33.205 25.2909 33.3629 25.5278 33.4419Z" stroke="#008060" stroke-miterlimit="10" stroke-linecap="round" stroke-linejoin="round"/>
<path d="M41.9553 41.4191L34.768 39.0496L33.3463 45.9211L26.6328 33.3629C26.8698 33.2839 27.0277 33.126 27.2647 32.968L28.8443 31.3884L30.8189 32.1782L30.9768 32.2572C31.8456 32.6521 32.8724 32.1782 33.2673 31.3094L34.1361 29.2559H35.5578L41.9553 41.4191Z" stroke="#008060" stroke-miterlimit="10" stroke-linecap="round" stroke-linejoin="round"/>
<path d="M45.8242 12.9066L49.2994 11.011" stroke="#008060" stroke-miterlimit="10" stroke-linecap="round" stroke-linejoin="round"/>
<path d="M45.8242 17.0137H50.8001" stroke="#008060" stroke-miterlimit="10" stroke-linecap="round" stroke-linejoin="round"/>
<path d="M45.8242 21.1997L49.2994 23.0953" stroke="#008060" stroke-miterlimit="10" stroke-linecap="round" stroke-linejoin="round"/>
<path d="M6.33458 21.1997L2.85938 23.0953" stroke="#008060" stroke-miterlimit="10" stroke-linecap="round" stroke-linejoin="round"/>
<path d="M6.33439 17.0137H1.4375" stroke="#008060" stroke-miterlimit="10" stroke-linecap="round" stroke-linejoin="round"/>
<path d="M6.33458 12.9066L2.85938 11.011" stroke="#008060" stroke-miterlimit="10" stroke-linecap="round" stroke-linejoin="round"/>
<path d="M21.3398 17.8035L24.1042 20.5678L30.8177 13.8544" stroke="#008060" stroke-miterlimit="10" stroke-linecap="round" stroke-linejoin="round"/>
<path d="M26.0802 27.5182C31.7508 27.5182 36.3478 22.9212 36.3478 17.2506C36.3478 11.5799 31.7508 6.98291 26.0802 6.98291C20.4095 6.98291 15.8125 11.5799 15.8125 17.2506C15.8125 22.9212 20.4095 27.5182 26.0802 27.5182Z" stroke="#008060" stroke-miterlimit="10" stroke-linecap="round" stroke-linejoin="round"/>
</svg>
