<svg width="121" height="21" viewBox="0 0 121 21" fill="none" xmlns="http://www.w3.org/2000/svg">
<path d="M110.207 2.36875L111.986 8.11459C112.116 8.53327 112.503 8.81869 112.942 8.81869H118.748L114.011 12.4299C113.677 12.6843 113.537 13.1201 113.662 13.5211L115.462 19.3334L110.813 15.7888C110.455 15.5157 109.958 15.5158 109.6 15.7889L104.954 19.3328L106.755 13.5212C106.879 13.1201 106.739 12.6842 106.405 12.4298L101.666 8.81869H107.471C107.91 8.81869 108.297 8.53327 108.427 8.11459L110.207 2.36875Z" stroke="#202223"/>
<path d="M34.5941 2.22182C34.7395 1.75233 35.4041 1.75245 35.5493 2.22199L37.3265 7.96646C37.3913 8.17589 37.5849 8.31869 37.8041 8.31869H43.6127C44.0913 8.31869 44.2964 8.92636 43.9157 9.2164L39.1761 12.8275C39.0091 12.9547 38.9394 13.1727 39.0015 13.3732L40.8018 19.1848C40.9459 19.6498 40.408 20.0255 40.021 19.7303L35.3752 16.1865C35.1961 16.0499 34.9478 16.0499 34.7688 16.1864L30.1196 19.731C29.7325 20.0261 29.1948 19.6504 29.3388 19.1854L31.1393 13.3732C31.2014 13.1727 31.1317 12.9547 30.9647 12.8275L26.2251 9.2164C25.8444 8.92636 26.0496 8.31869 26.5281 8.31869H32.3368C32.556 8.31869 32.7496 8.17598 32.8144 7.96664L34.5941 2.22182Z" fill="#202223"/>
<path d="M59.6381 2.22079C59.7835 1.7514 60.4479 1.7514 60.5933 2.22079L62.3733 7.96664C62.4381 8.17598 62.6317 8.31869 62.8509 8.31869H68.657C69.1355 8.31869 69.3407 8.92623 68.9601 9.21633L64.2229 12.8275C64.056 12.9547 63.9863 13.1726 64.0484 13.3731L65.8489 19.1854C65.9929 19.6504 65.4552 20.0261 65.0681 19.731L60.4189 16.1863C60.2398 16.0498 59.9916 16.0498 59.8126 16.1863L55.1633 19.731C54.7762 20.0261 54.2385 19.6504 54.3825 19.1854L56.1831 13.3731C56.2452 13.1726 56.1755 12.9547 56.0086 12.8275L51.2713 9.21633C50.8907 8.92623 51.0959 8.31869 51.5744 8.31869H57.3806C57.5997 8.31869 57.7933 8.17598 57.8582 7.96664L59.6381 2.22079Z" fill="#202223"/>
<path d="M84.6823 2.22199C84.8276 1.75245 85.4922 1.75233 85.6376 2.22182L87.4172 7.96664C87.4821 8.17598 87.6757 8.31869 87.8948 8.31869H93.7035C94.1821 8.31869 94.3872 8.92636 94.0065 9.2164L89.2669 12.8275C89.1 12.9547 89.0302 13.1727 89.0923 13.3732L90.8928 19.1854C91.0369 19.6504 90.4992 20.0261 90.1121 19.731L85.4629 16.1864C85.2838 16.0499 85.0355 16.0499 84.8565 16.1865L80.2107 19.7303C79.8236 20.0255 79.2858 19.6498 79.4298 19.1848L81.2301 13.3732C81.2922 13.1727 81.2225 12.9547 81.0555 12.8275L76.3159 9.2164C75.9353 8.92636 76.1404 8.31869 76.619 8.31869H82.4275C82.6467 8.31869 82.8404 8.17589 82.9052 7.96646L84.6823 2.22199Z" fill="#202223"/>
<path d="M9.54729 2.22079C9.6927 1.7514 10.3571 1.75139 10.5025 2.22079L12.2824 7.96664C12.3473 8.17598 12.5409 8.31869 12.7601 8.31869H18.5656C19.0442 8.31869 19.2493 8.92636 18.8686 9.2164L14.129 12.8275C13.9621 12.9547 13.8923 13.1727 13.9544 13.3732L15.7547 19.1848C15.8988 19.6498 15.3609 20.0255 14.9739 19.7303L10.3281 16.1865C10.149 16.0499 9.90075 16.0499 9.72167 16.1864L5.07248 19.731C4.68541 20.0261 4.14769 19.6504 4.29172 19.1854L6.09225 13.3731C6.15435 13.1726 6.08466 12.9547 5.91776 12.8275L1.18049 9.21633C0.799921 8.92623 1.00508 8.31869 1.48361 8.31869H7.28974C7.50889 8.31869 7.7025 8.17598 7.76735 7.96664L9.54729 2.22079Z" fill="#202223"/>
</svg>
