<svg width="122" height="21" viewBox="0 0 122 21" fill="none" xmlns="http://www.w3.org/2000/svg">
<path d="M10.9092 2.58621L12.6891 8.33206C12.8188 8.75074 13.206 9.03616 13.6443 9.03616H19.4505L14.7132 12.6473C14.3794 12.9018 14.24 13.3376 14.3642 13.7385L16.1647 19.5509L11.5156 16.0063C11.1574 15.7332 10.6609 15.7332 10.3028 16.0064L5.65694 19.5502L7.45725 13.7386C7.58147 13.3376 7.44201 12.9017 7.10808 12.6473L2.36848 9.03616H8.17402C8.61232 9.03616 8.99954 8.75074 9.12924 8.33206L10.9092 2.58621Z" stroke="#FFC96B"/>
<path d="M35.4783 2.43929C35.6238 1.9698 36.2883 1.96992 36.4336 2.43946L38.2108 8.18393C38.2756 8.39336 38.4692 8.53616 38.6884 8.53616H44.497C44.9755 8.53616 45.1807 9.14383 44.8 9.43387L40.0604 13.045C39.8934 13.1722 39.8237 13.3902 39.8858 13.5907L41.6861 19.4023C41.8302 19.8673 41.2923 20.243 40.9052 19.9478L36.2594 16.4039C36.0804 16.2674 35.8321 16.2673 35.653 16.4039L31.0038 19.9485C30.6168 20.2436 30.0791 19.8678 30.2231 19.4029L32.0236 13.5907C32.0857 13.3902 32.016 13.1722 31.849 13.045L27.1094 9.43387C26.7287 9.14383 26.9338 8.53616 27.4124 8.53616H33.2211C33.4403 8.53616 33.6339 8.39345 33.6987 8.18411L35.4783 2.43929Z" fill="#FFC96B"/>
<path d="M60.5224 2.43826C60.6678 1.96887 61.3322 1.96887 61.4776 2.43826L63.2575 8.18411C63.3224 8.39345 63.516 8.53616 63.7352 8.53616H69.5413C70.0198 8.53616 70.225 9.1437 69.8444 9.4338L65.1071 13.045C64.9402 13.1722 64.8705 13.3901 64.9326 13.5906L66.7332 19.4029C66.8772 19.8678 66.3395 20.2436 65.9524 19.9485L61.3031 16.4038C61.1241 16.2673 60.8759 16.2673 60.6968 16.4038L56.0476 19.9485C55.6605 20.2436 55.1228 19.8678 55.2668 19.4029L57.0673 13.5906C57.1294 13.3901 57.0598 13.1722 56.8929 13.045L52.1556 9.4338C51.775 9.1437 51.9802 8.53616 52.4587 8.53616H58.2648C58.484 8.53616 58.6776 8.39345 58.7425 8.18411L60.5224 2.43826Z" fill="#FFC96B"/>
<path d="M85.5666 2.43946C85.7119 1.96992 86.3764 1.9698 86.5219 2.43928L88.3015 8.18411C88.3663 8.39345 88.5599 8.53616 88.7791 8.53616H94.5878C95.0664 8.53616 95.2715 9.14383 94.8908 9.43387L90.1512 13.045C89.9842 13.1722 89.9145 13.3902 89.9766 13.5907L91.7771 19.4029C91.9212 19.8678 91.3834 20.2436 90.9964 19.9485L86.3472 16.4039C86.1681 16.2673 85.9198 16.2674 85.7408 16.4039L81.095 19.9478C80.7079 20.243 80.1701 19.8673 80.3141 19.4023L82.1144 13.5907C82.1765 13.3902 82.1068 13.1722 81.9398 13.045L77.2002 9.43387C76.8195 9.14383 77.0247 8.53616 77.5032 8.53616H83.3118C83.531 8.53616 83.7247 8.39336 83.7894 8.18393L85.5666 2.43946Z" fill="#FFC96B"/>
<path d="M110.614 2.43826C110.759 1.96886 111.424 1.96886 111.569 2.43826L113.349 8.18411C113.414 8.39345 113.607 8.53616 113.826 8.53616H119.632C120.111 8.53616 120.316 9.14383 119.935 9.43387L115.195 13.045C115.028 13.1722 114.959 13.3902 115.021 13.5907L116.821 19.4023C116.965 19.8673 116.427 20.243 116.04 19.9478L111.394 16.4039C111.215 16.2674 110.967 16.2673 110.788 16.4039L106.139 19.9485C105.752 20.2436 105.214 19.8678 105.358 19.4029L107.159 13.5906C107.221 13.3901 107.151 13.1722 106.984 13.045L102.247 9.4338C101.866 9.1437 102.071 8.53616 102.55 8.53616H108.356C108.575 8.53616 108.769 8.39345 108.834 8.18411L110.614 2.43826Z" fill="#FFC96B"/>
</svg>
