<svg width="15" height="15" viewBox="0 0 15 15" fill="none" xmlns="http://www.w3.org/2000/svg">
<path d="M14.3456 3.73108L7.58764 0.352115C7.55414 0.335375 7.51721 0.32666 7.47976 0.32666C7.44231 0.32666 7.40537 0.335375 7.37187 0.352115L0.613941 3.73108C0.57382 3.75113 0.540079 3.78196 0.516504 3.82012C0.492929 3.85827 0.480451 3.90224 0.480472 3.94709V10.705C0.480226 10.7501 0.492598 10.7943 0.516185 10.8327C0.539773 10.8711 0.573636 10.9021 0.613941 10.9222L7.37187 14.3012C7.40537 14.3179 7.44231 14.3267 7.47976 14.3267C7.51721 14.3267 7.55414 14.3179 7.58764 14.3012L14.3456 10.9222C14.3859 10.9021 14.4197 10.8711 14.4433 10.8327C14.4669 10.7943 14.4793 10.7501 14.479 10.705V3.94709C14.4791 3.90224 14.4666 3.85827 14.443 3.82012C14.4194 3.78196 14.3857 3.75113 14.3456 3.73108ZM7.47976 7.05622L5.59309 6.11277L11.6236 2.90927L13.6992 3.94709L7.47976 7.05622ZM3.66225 5.14735L9.69274 1.94385L11.0926 2.64378L5.06283 5.84776L3.66225 5.14735ZM3.37673 5.54438L4.82486 6.26844V8.19155L4.27143 7.63813C4.22618 7.59286 4.1648 7.56743 4.10079 7.56741H3.37673V5.54438ZM7.47976 0.837962L9.16248 1.67836L3.13199 4.88234L1.2615 3.94709L7.47976 0.837962ZM0.963182 4.3376L2.89402 5.30302V7.80877C2.89402 7.87278 2.91945 7.93417 2.96471 7.97943C3.00997 8.02469 3.07136 8.05012 3.13537 8.05012H4.00087L4.89557 8.94482C4.92933 8.97857 4.97233 9.00154 5.01914 9.01085C5.06595 9.02016 5.11447 9.01538 5.15857 8.99712C5.20266 8.97886 5.24035 8.94793 5.26687 8.90825C5.29339 8.86857 5.30755 8.82191 5.30756 8.77418V6.5098L7.2384 7.47521V13.6935L0.963182 10.5559V4.3376ZM7.72111 13.6935V7.47521L13.9963 4.3376V10.5559L7.72111 13.6935Z" fill="#6D7175"/>
</svg>
