<svg width="15" height="15" viewBox="0 0 15 15" fill="none" xmlns="http://www.w3.org/2000/svg">
<path d="M7.48556 11.4097C7.45427 11.4097 7.42336 11.4028 7.39498 11.3896L3.55882 9.5445C3.52379 9.52712 3.49426 9.50035 3.47353 9.46718C3.4528 9.43402 3.44168 9.39574 3.44141 9.35663V5.22694C3.4413 5.19166 3.45017 5.15693 3.46718 5.12603C3.48418 5.09512 3.50877 5.06905 3.53863 5.05026C3.56849 5.03147 3.60264 5.02059 3.63786 5.01863C3.67308 5.01667 3.70822 5.02371 3.73998 5.03907L7.57614 6.88418C7.61118 6.90157 7.6407 6.92833 7.66143 6.9615C7.68216 6.99467 7.69328 7.03294 7.69355 7.07205V11.2017C7.69356 11.2369 7.68464 11.2716 7.66762 11.3024C7.65061 11.3332 7.62606 11.3591 7.59626 11.3779C7.56322 11.399 7.52476 11.41 7.48556 11.4097ZM3.8574 9.22915L7.27756 10.8763V7.20456L3.8574 5.55738V9.22915Z" fill="#6D7175"/>
<path d="M7.48623 7.27841C7.4572 7.28047 7.42807 7.27648 7.40068 7.26667L3.56452 5.42156C3.52891 5.40497 3.49877 5.37856 3.47765 5.34542C3.45653 5.31229 3.44531 5.27382 3.44531 5.23453C3.44531 5.19524 3.45653 5.15677 3.47765 5.12364C3.49877 5.0905 3.52891 5.06409 3.56452 5.0475L7.40068 3.194C7.42873 3.18072 7.45938 3.17383 7.49042 3.17383C7.52146 3.17383 7.55211 3.18072 7.58016 3.194L11.4163 5.03912C11.4516 5.05618 11.4813 5.08288 11.5021 5.11611C11.5229 5.14935 11.5339 5.18779 11.5337 5.22698C11.5337 5.26594 11.5227 5.30409 11.5019 5.33704C11.4811 5.36999 11.4515 5.39639 11.4163 5.41317L7.56842 7.26667C7.54209 7.27607 7.51413 7.28006 7.48623 7.27841ZM4.13148 5.2253L7.48623 6.84062L10.841 5.22866L7.48623 3.61167L4.13148 5.2253Z" fill="#6D7175"/>
<path d="M7.48534 11.4098C7.44613 11.4101 7.40768 11.399 7.37463 11.3779C7.34484 11.3592 7.32029 11.3332 7.30327 11.3024C7.28626 11.2716 7.27734 11.237 7.27734 11.2018V7.07376C7.27723 7.03456 7.28819 6.99613 7.30896 6.96289C7.32973 6.92965 7.35948 6.90296 7.39476 6.88589L11.2309 5.04078C11.2627 5.02542 11.2978 5.01838 11.333 5.02034C11.3683 5.0223 11.4024 5.03318 11.4323 5.05197C11.4621 5.07076 11.4867 5.09683 11.5037 5.12774C11.5207 5.15864 11.5296 5.19337 11.5295 5.22864V9.35499C11.5296 9.39418 11.5186 9.43261 11.4979 9.46585C11.4771 9.49909 11.4474 9.52578 11.4121 9.54285L7.56753 11.3896C7.5418 11.4019 7.51383 11.4088 7.48534 11.4098ZM7.69333 7.20459V10.8713L11.1135 9.22415V5.55741L7.69333 7.20459Z" fill="#6D7175"/>
<path d="M5.56526 6.35572C5.51855 6.35524 5.47337 6.33907 5.43698 6.30979C5.40059 6.28051 5.37512 6.23983 5.36466 6.19432C5.3542 6.1488 5.35936 6.10108 5.37932 6.05886C5.39928 6.01663 5.43287 5.98235 5.47468 5.96154L9.31251 4.11642C9.36214 4.09277 9.41911 4.08973 9.47097 4.10796C9.52283 4.12619 9.56537 4.16421 9.58928 4.21371C9.60122 4.23824 9.60817 4.2649 9.60974 4.29214C9.6113 4.31938 9.60745 4.34666 9.5984 4.3724C9.58935 4.39814 9.57529 4.42183 9.55702 4.4421C9.53876 4.46237 9.51665 4.47881 9.49199 4.49048L5.65584 6.33559C5.6274 6.34862 5.59653 6.35548 5.56526 6.35572Z" fill="#6D7175"/>
<path d="M6.08308 8.16733C6.05176 8.16746 6.02081 8.16059 5.9925 8.1472L4.86027 7.60205C4.83561 7.59038 4.8135 7.57394 4.79524 7.55367C4.77697 7.5334 4.76291 7.50971 4.75386 7.48397C4.74481 7.45823 4.74096 7.43095 4.74253 7.40371C4.74409 7.37648 4.75105 7.34982 4.76298 7.32528C4.7869 7.27578 4.82943 7.23776 4.88129 7.21953C4.93315 7.2013 4.99012 7.20435 5.03975 7.228L6.17198 7.76979C6.21367 7.79053 6.2472 7.82467 6.26719 7.86673C6.28718 7.90879 6.29248 7.95634 6.28223 8.00177C6.27199 8.0472 6.24679 8.08787 6.21068 8.11728C6.17457 8.14669 6.12964 8.16313 6.08308 8.16397V8.16733Z" fill="#6D7175"/>
<path d="M1.18382 10.0728C1.14322 10.0735 1.10333 10.0622 1.06905 10.0404C1.03477 10.0187 1.00761 9.98738 0.990918 9.95037C0.36133 8.39338 0.312539 6.66193 0.853448 5.07195C1.39436 3.48198 2.4889 2.13949 3.93736 1.28946C5.38582 0.43942 7.09162 0.138508 8.7435 0.441628C10.3954 0.744749 11.8832 1.63169 12.9355 2.94062C12.955 2.96145 12.97 2.98608 12.9796 3.01297C12.9892 3.03986 12.9932 3.06843 12.9912 3.09691C12.9893 3.12539 12.9815 3.15317 12.9684 3.17851C12.9552 3.20386 12.937 3.22623 12.9149 3.24423C12.8927 3.26223 12.8671 3.27548 12.8396 3.28315C12.8121 3.29082 12.7833 3.29275 12.755 3.28881C12.7268 3.28488 12.6996 3.27516 12.6752 3.26028C12.6509 3.24539 12.6298 3.22565 12.6135 3.20229C11.6236 1.97482 10.226 1.14342 8.67494 0.859275C7.12388 0.575133 5.52235 0.857132 4.16162 1.65398C2.8009 2.45084 1.77138 3.70961 1.2603 5.20136C0.749217 6.69312 0.790527 8.31876 1.37671 9.78263C1.38931 9.81417 1.394 9.84831 1.39036 9.88208C1.38672 9.91584 1.37487 9.9482 1.35584 9.97633C1.33681 10.0045 1.31118 10.0275 1.2812 10.0434C1.25121 10.0594 1.21778 10.0677 1.18382 10.0678V10.0728Z" fill="#6D7175"/>
<path d="M7.49481 14.3267C6.44749 14.3292 5.41299 14.0964 4.4677 13.6456C3.5224 13.1947 2.69045 12.5373 2.03327 11.7218C1.99857 11.6773 1.98297 11.6208 1.98989 11.5649C1.99681 11.5089 2.02569 11.4579 2.07018 11.4232C2.11466 11.3885 2.17111 11.3729 2.22711 11.3798C2.2831 11.3867 2.33405 11.4156 2.36875 11.4601C3.36468 12.6861 4.7682 13.5132 6.32323 13.7905C7.87827 14.0677 9.48115 13.7767 10.8394 12.9704C12.1977 12.1642 13.2209 10.8964 13.7222 9.39853C14.2235 7.90064 14.1696 6.27244 13.5703 4.811C13.559 4.78564 13.5529 4.75828 13.5524 4.73054C13.5518 4.70279 13.5569 4.67522 13.5672 4.64945C13.5774 4.62368 13.5928 4.60023 13.6123 4.58047C13.6318 4.56072 13.655 4.54506 13.6806 4.53443C13.7063 4.5238 13.7338 4.5184 13.7615 4.51856C13.7893 4.51872 13.8167 4.52442 13.8422 4.53535C13.8677 4.54627 13.8908 4.56219 13.9101 4.58216C13.9293 4.60214 13.9444 4.62576 13.9544 4.65165C14.5259 6.05035 14.6325 7.59572 14.2586 9.05967C13.8847 10.5236 13.05 11.8286 11.8778 12.7819C10.6368 13.7835 9.08959 14.3288 7.49481 14.3267Z" fill="#6D7175"/>
<path d="M12.7929 3.29465H12.7695L10.8321 3.08497C10.7801 3.07582 10.7335 3.0472 10.7018 3.00494C10.6701 2.96269 10.6556 2.90995 10.6614 2.85744C10.6672 2.80493 10.6927 2.75657 10.7328 2.7222C10.7729 2.68782 10.8246 2.67 10.8774 2.67234L12.6017 2.85853L12.7946 1.12748C12.7959 1.09905 12.803 1.07119 12.8154 1.04561C12.8279 1.02004 12.8455 0.997288 12.8671 0.978774C12.8887 0.96026 12.9138 0.946374 12.941 0.937977C12.9682 0.92958 12.9968 0.926848 13.0251 0.929953C13.0534 0.933057 13.0807 0.94193 13.1054 0.956023C13.1302 0.970117 13.1517 0.989131 13.1688 1.01189C13.1859 1.03465 13.1981 1.06067 13.2047 1.08834C13.2113 1.11601 13.2122 1.14475 13.2073 1.17277L12.9993 3.11013C12.993 3.16494 12.9653 3.21502 12.9221 3.24936C12.8856 3.27895 12.8399 3.29496 12.7929 3.29465Z" fill="#6D7175"/>
<path d="M1.97472 13.7195H1.95123C1.89657 13.7136 1.84648 13.6862 1.8119 13.6435C1.77733 13.6007 1.76108 13.546 1.76672 13.4914L1.97639 11.554C1.979 11.5269 1.98703 11.5006 2 11.4767C2.01296 11.4528 2.03061 11.4317 2.05188 11.4148C2.09482 11.3802 2.14966 11.3639 2.20452 11.3695L4.14189 11.5775C4.19367 11.5867 4.24002 11.6152 4.27162 11.6573C4.30322 11.6993 4.31772 11.7518 4.31219 11.8041C4.30666 11.8564 4.28152 11.9047 4.24183 11.9392C4.20214 11.9737 4.15084 11.9919 4.09827 11.9901L2.3689 11.8039L2.17936 13.535C2.17398 13.5855 2.15012 13.6323 2.11235 13.6664C2.07459 13.7004 2.02557 13.7194 1.97472 13.7195Z" fill="#6D7175"/>
</svg>
