<svg width="16" height="15" viewBox="0 0 16 15" fill="none" xmlns="http://www.w3.org/2000/svg">
<path d="M14.7179 0.402616L8.32138 0.402589C8.07233 0.383322 7.85479 0.569588 7.83555 0.818658C7.81628 1.0677 8.00255 1.28524 8.25162 1.30448C8.27484 1.30627 8.29818 1.3063 8.32138 1.30448L13.6273 1.3077L0.965351 13.9696C0.788732 14.1463 0.788731 14.4327 0.965378 14.6093C1.14202 14.7859 1.42839 14.7859 1.60501 14.6093L14.267 1.94736L14.267 7.25006C14.2477 7.4991 14.4339 7.71664 14.683 7.73588C14.9321 7.75512 15.1496 7.56888 15.1688 7.31982C15.1706 7.29659 15.1707 7.27326 15.1688 7.25006L15.1688 0.853508C15.1681 0.604824 14.9667 0.403358 14.7179 0.402616Z" fill="white"/>
</svg>
