<svg width="23" height="22" viewBox="0 0 23 22" fill="none" xmlns="http://www.w3.org/2000/svg">
<path d="M18.9681 4.6006L12.5644 4.04033C12.3168 3.99923 12.0827 4.16665 12.0416 4.41431C12.0005 4.66194 12.1679 4.89605 12.4156 4.93712C12.4387 4.94094 12.4621 4.94302 12.4854 4.94323L17.797 5.41118L4.0119 16.9782C3.81962 17.1396 3.79453 17.4263 3.95591 17.6186C4.11728 17.8109 4.40397 17.836 4.59625 17.6746L18.3813 6.10758L17.9169 11.4162C17.8758 11.6638 18.0432 11.8979 18.2909 11.939C18.5385 11.9801 18.7726 11.8127 18.8137 11.565C18.8175 11.5419 18.8196 11.5186 18.8198 11.4952L19.38 5.0915C19.4011 4.84247 19.2171 4.62314 18.9681 4.6006Z" fill="#202223"/>
</svg>
