<svg width="15" height="15" viewBox="0 0 15 15" fill="none" xmlns="http://www.w3.org/2000/svg">
<g id="Frame 10140">
<path id="Vector" d="M7.35986 14.2227C3.48928 14.2227 0.359863 11.0932 0.359863 7.22266C0.359863 3.35207 3.48928 0.222656 7.35986 0.222656C11.2305 0.222656 14.3599 3.35207 14.3599 7.22266C14.3599 11.0932 11.2305 14.2227 7.35986 14.2227ZM7.35986 1.04619C3.94222 1.04619 1.18339 3.80501 1.18339 7.22266C1.18339 10.6403 3.94222 13.3991 7.35986 13.3991C10.7775 13.3991 13.5363 10.6403 13.5363 7.22266C13.5363 3.80501 10.7775 1.04619 7.35986 1.04619Z" fill="#202223"/>
<path id="Vector_2" d="M5.21842 4.99916C5.34195 4.66975 5.46548 4.42269 5.71253 4.21681C5.91842 4.01092 6.16548 3.84622 6.49489 3.72269C6.8243 3.59916 7.15371 3.55798 7.5243 3.55798C7.81253 3.55798 8.10077 3.59916 8.34783 3.68151C8.59489 3.76387 8.84195 3.88739 9.04783 4.0521C9.25371 4.21681 9.41842 4.42269 9.50077 4.66975C9.6243 4.91681 9.66548 5.20504 9.66548 5.49328C9.66548 5.90504 9.58312 6.23445 9.41842 6.52269C9.25371 6.81092 9.00665 7.05798 8.75959 7.34622L8.2243 7.88151C8.10077 8.00504 7.97724 8.12857 7.93606 8.2521C7.85371 8.37563 7.81253 8.54034 7.81253 8.70504C7.77136 8.86975 7.77136 8.99328 7.77136 9.32269H7.11253C7.11253 8.99328 7.11253 8.86975 7.15371 8.62269C7.19489 8.41681 7.27724 8.21092 7.35959 8.00504C7.44195 7.84034 7.56548 7.67563 7.73018 7.51092C7.89489 7.34622 8.10077 7.18151 8.30665 6.93445C8.51253 6.72857 8.67724 6.52269 8.80077 6.31681C8.9243 6.11092 9.00665 5.82269 9.00665 5.57563C9.00665 5.36975 8.96548 5.16387 8.88312 4.99916C8.80077 4.83445 8.67724 4.66975 8.55371 4.54622C8.43018 4.42269 8.26548 4.34034 8.05959 4.25798C7.85371 4.17563 7.689 4.13445 7.48312 4.13445C7.19489 4.13445 6.94783 4.17563 6.74195 4.29916C6.53606 4.38151 6.33018 4.54622 6.20665 4.71092C6.08312 4.87563 5.95959 5.08151 5.87724 5.32857C5.79489 5.57563 5.71253 5.69916 5.71253 5.9874H5.05371C5.05371 5.61681 5.09489 5.32857 5.21842 4.99916ZM7.77136 10.105V10.9286H6.94783V10.105H7.77136Z" fill="#202223"/>
</g>
</svg>
