<svg width="14" height="16" viewBox="0 0 14 16" fill="none" xmlns="http://www.w3.org/2000/svg">
<g id="Frame 10134">
<path id="Vector" d="M5.05344 8.22276C5.05344 8.73846 4.84858 9.23304 4.48393 9.59769C4.11927 9.96235 3.62469 10.1672 3.109 10.1672C2.5933 10.1672 2.09872 9.96235 1.73407 9.59769C1.36941 9.23304 1.16455 8.73846 1.16455 8.22276C1.16455 7.70707 1.36941 7.21249 1.73407 6.84783C2.09872 6.48318 2.5933 6.27832 3.109 6.27832C3.62469 6.27832 4.11927 6.48318 4.48393 6.84783C4.84858 7.21249 5.05344 7.70707 5.05344 8.22276Z" stroke="#202223"/>
<path id="Vector_2" d="M8.94211 3.94482L5.05322 6.66705M8.94211 12.5004L5.05322 9.77816" stroke="#202223" stroke-linecap="round"/>
<path id="Vector_3" d="M12.8313 13.2782C12.8313 13.7939 12.6264 14.2885 12.2618 14.6531C11.8971 15.0178 11.4025 15.2227 10.8868 15.2227C10.3711 15.2227 9.87655 15.0178 9.5119 14.6531C9.14724 14.2885 8.94238 13.7939 8.94238 13.2782C8.94238 12.7625 9.14724 12.2679 9.5119 11.9033C9.87655 11.5386 10.3711 11.3338 10.8868 11.3338C11.4025 11.3338 11.8971 11.5386 12.2618 11.9033C12.6264 12.2679 12.8313 12.7625 12.8313 13.2782ZM12.8313 3.1671C12.8313 3.6828 12.6264 4.17738 12.2618 4.54203C11.8971 4.90668 11.4025 5.11155 10.8868 5.11155C10.3711 5.11155 9.87655 4.90668 9.5119 4.54203C9.14724 4.17738 8.94238 3.6828 8.94238 3.1671C8.94238 2.6514 9.14724 2.15682 9.5119 1.79217C9.87655 1.42752 10.3711 1.22266 10.8868 1.22266C11.4025 1.22266 11.8971 1.42752 12.2618 1.79217C12.6264 2.15682 12.8313 2.6514 12.8313 3.1671Z" stroke="#202223"/>
</g>
</svg>
