<svg width="48" height="31" viewBox="0 0 48 31" fill="none" xmlns="http://www.w3.org/2000/svg">
<path d="M43.5167 13.666H34.0117V24.7551H46.685V16.8343C46.685 15.0845 45.2665 13.666 43.5167 13.666Z" fill="#F1F2F3"/>
<path d="M34.0117 16.0422H42.5926C43.4676 16.0422 44.1768 16.7514 44.1768 17.6264V24.7551H34.0117V16.0422Z" fill="#6D7175"/>
<path d="M40.3483 4.16089H34.0117V7.32925H42.7246V6.53718C42.7246 5.22473 41.6607 4.16089 40.3483 4.16089Z" fill="#F1F2F3"/>
<path d="M43.5167 13.666L41.9325 7.32935H34.0117V13.666H43.5167Z" fill="#F1F2F3"/>
<path d="M43.5156 16.8342H46.684V20.0026H45.0999C44.2249 20.0026 43.5157 19.2934 43.5157 18.4185V16.8342H43.5156Z" fill="#F1F4FB"/>
<path d="M39.5563 19.2104C37.1691 19.2104 35.0921 20.5318 34.0117 22.4818V24.755H45.8382C45.4476 21.63 42.7871 19.2104 39.5563 19.2104Z" fill="#F6F6F7"/>
<path d="M44.1758 21.2166V24.7552H45.8373C45.6672 23.3945 45.0663 22.1682 44.1758 21.2166Z" fill="#6D7175"/>
<path d="M39.5542 29.5075C41.7415 29.5075 43.5146 27.7344 43.5146 25.5471C43.5146 23.3598 41.7415 21.5867 39.5542 21.5867C37.3669 21.5867 35.5938 23.3598 35.5938 25.5471C35.5938 27.7344 37.3669 29.5075 39.5542 29.5075Z" fill="white"/>
<path d="M37.18 9.70555H42.5265L41.9325 7.32935H34.0117V13.666H36.3879V10.4976C36.3878 10.0602 36.7425 9.70555 37.18 9.70555Z" fill="#F1F2F3"/>
<path d="M13.4175 29.5075C15.6047 29.5075 17.3779 27.7344 17.3779 25.5471C17.3779 23.3598 15.6047 21.5867 13.4175 21.5867C11.2302 21.5867 9.45703 23.3598 9.45703 25.5471C9.45703 27.7344 11.2302 29.5075 13.4175 29.5075Z" fill="white"/>
<path d="M44.1059 12.968L42.8777 8.05544C43.2135 7.98412 43.4654 7.68622 43.4654 7.32933V6.53726C43.4654 4.81752 42.0663 3.41845 40.3466 3.41845H34.7526V1.78467C34.7526 0.938416 34.0642 0.25 33.2179 0.25H4.70294C3.85668 0.25 3.16827 0.938416 3.16827 1.78467V15.2501C3.16827 15.6602 3.50071 15.9927 3.91087 15.9927C4.32103 15.9927 4.65348 15.6603 4.65348 15.2501V1.78467C4.65348 1.75735 4.67561 1.73521 4.70294 1.73521H33.2178C33.2452 1.73521 33.2673 1.75735 33.2673 1.78467V15.2503C33.2673 15.6603 33.5997 15.9929 34.0099 15.9929C34.42 15.9929 34.7525 15.6604 34.7525 15.2503V14.4085H43.5123C43.5129 14.4085 43.5136 14.4087 43.5142 14.4087C43.5149 14.4087 43.5156 14.4086 43.5163 14.4086C44.5942 14.4092 45.5095 15.1168 45.8238 16.0917H43.5148C43.1047 16.0917 42.7722 16.4242 42.7722 16.8343V18.4185C42.7722 19.7015 43.8159 20.7452 45.0989 20.7452H45.9405V24.0125H43.9989C43.361 22.1708 41.6103 20.8441 39.5544 20.8441C37.4985 20.8441 35.7476 22.1707 35.1099 24.0125H34.7523V18.4185C34.7523 18.0084 34.4199 17.6758 34.0097 17.6758C33.5996 17.6758 33.2671 18.0083 33.2671 18.4185V24.0124H17.8604C17.2225 22.1707 15.4718 20.844 13.4159 20.844C11.36 20.844 9.60911 22.1707 8.97136 24.0124H4.70294C4.67561 24.0124 4.65348 23.9902 4.65348 23.9629V22.3292H7.8713C8.28137 22.3292 8.61391 21.9968 8.61391 21.5866C8.61391 21.1766 8.28146 20.844 7.8713 20.844H0.742604C0.332537 20.844 0 21.1765 0 21.5866C0 21.9967 0.332444 22.3292 0.742604 22.3292H3.16836V23.9629C3.16836 24.8092 3.85678 25.4976 4.70303 25.4976H8.71422C8.71404 25.5141 8.71293 25.5305 8.71293 25.5471C8.71293 28.1403 10.8227 30.25 13.4159 30.25C16.009 30.25 18.1188 28.1403 18.1188 25.5471C18.1188 25.5304 18.1177 25.5141 18.1175 25.4976H34.8527C34.8525 25.5141 34.8514 25.5305 34.8514 25.5471C34.8514 28.1403 36.9612 30.25 39.5544 30.25C42.1475 30.25 44.2573 28.1403 44.2573 25.5471C44.2573 25.5304 44.2562 25.5141 44.256 25.4976H46.6832C47.0932 25.4976 47.4258 25.1652 47.4258 24.755V16.8341C47.4258 14.8787 45.983 13.2538 44.1059 12.968ZM34.7526 8.07184H41.351L42.5639 12.9234H34.7526V8.07184ZM40.3466 4.90357C41.2474 4.90357 41.9803 5.63645 41.9803 6.53726V6.58672H34.7526V4.90357H40.3466ZM13.4159 28.765C11.6416 28.765 10.198 27.3215 10.198 25.5472C10.198 23.7728 11.6416 22.3293 13.4159 22.3293C15.1902 22.3293 16.6337 23.7728 16.6337 25.5472C16.6337 27.3215 15.1902 28.765 13.4159 28.765ZM39.5546 28.765C37.7802 28.765 36.3367 27.3215 36.3367 25.5472C36.3367 23.7728 37.7802 22.3293 39.5546 22.3293C41.3288 22.3293 42.7724 23.7728 42.7724 25.5472C42.7724 27.3215 41.3288 28.765 39.5546 28.765ZM45.0991 19.26C44.635 19.26 44.2575 18.8824 44.2575 18.4184V17.5767H45.9406V19.2599H45.0991V19.26Z" fill="#202223"/>
<path d="M13.4175 24.0125C12.5712 24.0125 11.8828 24.7009 11.8828 25.5471C11.8828 26.3934 12.5712 27.0818 13.4175 27.0818C14.2637 27.0818 14.9522 26.3934 14.9522 25.5471C14.9522 24.7009 14.2637 24.0125 13.4175 24.0125Z" fill="#202223"/>
<path d="M39.5542 24.0125C38.7079 24.0125 38.0195 24.7009 38.0195 25.5471C38.0195 26.3934 38.7079 27.0818 39.5542 27.0818C40.4005 27.0818 41.0889 26.3934 41.0889 25.5471C41.0889 24.7009 40.4005 24.0125 39.5542 24.0125Z" fill="#202223"/>
<path d="M19.0117 21.5866C19.0117 21.9967 19.3442 22.3292 19.7543 22.3292H30.8434C31.2534 22.3292 31.586 21.9968 31.586 21.5866C31.586 21.1765 31.2535 20.844 30.8434 20.844H19.7542C19.3442 20.844 19.0117 21.1765 19.0117 21.5866Z" fill="#202223"/>
<path d="M2.32463 19.161H11.8296C12.2397 19.161 12.5722 18.8285 12.5722 18.4184C12.5722 18.0083 12.2398 17.6758 11.8296 17.6758H2.32463C1.91457 17.6758 1.58203 18.0082 1.58203 18.4184C1.58203 18.8285 1.91457 19.161 2.32463 19.161Z" fill="#202223"/>
<path d="M24.7715 7.59635L18.1678 14.1999L14.7325 10.7646C14.4425 10.4746 13.9723 10.4746 13.6824 10.7646C13.3923 11.0546 13.3923 11.5247 13.6824 11.8148L17.6428 15.7752C17.7878 15.9202 17.9778 15.9927 18.1678 15.9927C18.3578 15.9927 18.5479 15.9202 18.6928 15.7752L25.8215 8.64648C26.1115 8.35646 26.1115 7.88637 25.8215 7.59635C25.5317 7.30642 25.0614 7.30642 24.7715 7.59635Z" fill="#202223"/>
</svg>
