<svg width="57" height="31" viewBox="0 0 57 31" fill="none" xmlns="http://www.w3.org/2000/svg">
<path d="M48.4773 30.4674C47.5381 30.468 46.6198 30.1902 45.8386 29.6689C45.0574 29.1476 44.4483 28.4064 44.0885 27.5389C43.7286 26.6714 43.6341 25.7167 43.8169 24.7955C43.9997 23.8743 44.4516 23.0281 45.1154 22.3637C45.7793 21.6994 46.6252 21.2469 47.5463 21.0634C48.4674 20.8799 49.4221 20.9738 50.2899 21.333C51.1576 21.6922 51.8993 22.3008 52.4211 23.0816C52.943 23.8624 53.2215 24.7805 53.2215 25.7196C53.2209 26.978 52.721 28.1848 51.8315 29.0749C50.942 29.965 49.7356 30.4658 48.4773 30.4674ZM48.4773 22.7038C47.8806 22.7031 47.2972 22.8794 46.8008 23.2104C46.3044 23.5414 45.9173 24.0121 45.6885 24.5631C45.4597 25.1141 45.3995 25.7206 45.5155 26.3059C45.6315 26.8911 45.9184 27.4288 46.3401 27.8509C46.7617 28.273 47.2991 28.5606 47.8842 28.6773C48.4693 28.7939 49.0758 28.7344 49.6271 28.5062C50.1784 28.2781 50.6496 27.8915 50.9811 27.3955C51.3127 26.8995 51.4896 26.3163 51.4896 25.7196C51.4893 24.9205 51.172 24.1541 50.6072 23.5887C50.0424 23.0233 49.2764 22.705 48.4773 22.7038Z" fill="#202223"/>
<path d="M23.4584 30.4674C22.5192 30.4683 21.6008 30.1906 20.8194 29.6695C20.0381 29.1483 19.4288 28.4072 19.0688 27.5397C18.7087 26.6723 18.6141 25.7175 18.7967 24.7962C18.9794 23.875 19.4312 23.0286 20.095 22.3641C20.7588 21.6997 21.6047 21.2471 22.5258 21.0635C23.4469 20.8799 24.4018 20.9737 25.2696 21.3329C26.1374 21.6921 26.8791 22.3006 27.401 23.0815C27.9229 23.8623 28.2015 24.7804 28.2015 25.7196C28.2006 26.9777 27.7007 28.1841 26.8115 29.0741C25.9224 29.9642 24.7165 30.4652 23.4584 30.4674ZM23.4584 22.7038C22.8617 22.7029 22.2782 22.879 21.7816 23.2098C21.2851 23.5407 20.8978 24.0113 20.6689 24.5623C20.4399 25.1133 20.3795 25.7198 20.4953 26.3052C20.6112 26.8905 20.8981 27.4283 21.3196 27.8505C21.7412 28.2727 22.2786 28.5604 22.8637 28.6772C23.4489 28.7939 24.0555 28.7345 24.6068 28.5063C25.1582 28.2782 25.6294 27.8917 25.961 27.3956C26.2926 26.8996 26.4696 26.3163 26.4696 25.7196C26.469 24.9208 26.1517 24.1548 25.5872 23.5894C25.0228 23.0241 24.2573 22.7057 23.4584 22.7038Z" fill="#202223"/>
<path d="M54.7237 26.5856H52.3556C52.126 26.5856 51.9057 26.4944 51.7433 26.332C51.5809 26.1696 51.4897 25.9493 51.4897 25.7197C51.4897 25.49 51.5809 25.2698 51.7433 25.1074C51.9057 24.945 52.126 24.8537 52.3556 24.8537H54.4789V20.2619C54.4784 19.6411 54.3194 19.0307 54.0171 18.4884L49.3294 10.0841C49.2894 10.0123 49.2309 9.9526 49.1601 9.911C49.0893 9.86939 49.0086 9.84743 48.9265 9.84738H42.5381V24.8572H44.6002C44.8298 24.8572 45.0501 24.9484 45.2125 25.1108C45.3749 25.2732 45.4661 25.4935 45.4661 25.7231C45.4661 25.9528 45.3749 26.1731 45.2125 26.3355C45.0501 26.4979 44.8298 26.5891 44.6002 26.5891H41.6721C41.4424 26.5891 41.2222 26.4979 41.0598 26.3355C40.8974 26.1731 40.8062 25.9528 40.8062 25.7231V8.98143C40.8062 8.75177 40.8974 8.53151 41.0598 8.36911C41.2222 8.20671 41.4424 8.11548 41.6721 8.11548H48.9265C49.3171 8.11529 49.7008 8.21943 50.0377 8.41713C50.3747 8.61483 50.6527 8.89893 50.8431 9.24006L55.5296 17.6456C55.9752 18.4456 56.2092 19.3461 56.2097 20.2619V25.0997C56.2091 25.4936 56.0523 25.8712 55.7738 26.1497C55.4952 26.4283 55.1176 26.585 54.7237 26.5856Z" fill="#202223"/>
<path d="M19.5798 26.5855H11.2771C11.0474 26.5855 10.8272 26.4943 10.6648 26.3319C10.5024 26.1695 10.4111 25.9492 10.4111 25.7195V19.0598C10.4111 18.8301 10.5024 18.6099 10.6648 18.4475C10.8272 18.2851 11.0474 18.1938 11.2771 18.1938C11.5067 18.1938 11.727 18.2851 11.8894 18.4475C12.0518 18.6099 12.143 18.8301 12.143 19.0598V24.8536H19.5798C19.8095 24.8536 20.0297 24.9448 20.1921 25.1072C20.3545 25.2696 20.4458 25.4899 20.4458 25.7195C20.4458 25.9492 20.3545 26.1695 20.1921 26.3319C20.0297 26.4943 19.8095 26.5855 19.5798 26.5855Z" fill="#202223"/>
<path d="M11.2771 15.9874C11.0474 15.9874 10.8272 15.8962 10.6648 15.7338C10.5024 15.5714 10.4111 15.3511 10.4111 15.1214V9.30687C10.4111 9.0772 10.5024 8.85695 10.6648 8.69455C10.8272 8.53215 11.0474 8.44092 11.2771 8.44092C11.5067 8.44092 11.727 8.53215 11.8894 8.69455C12.0518 8.85695 12.143 9.0772 12.143 9.30687V15.1249C12.1421 15.354 12.0505 15.5733 11.8882 15.735C11.7259 15.8966 11.5061 15.9874 11.2771 15.9874Z" fill="#202223"/>
<path d="M41.672 26.5855H27.3353C27.1056 26.5855 26.8854 26.4943 26.723 26.3319C26.5606 26.1695 26.4693 25.9492 26.4693 25.7196C26.4693 25.4899 26.5606 25.2696 26.723 25.1072C26.8854 24.9448 27.1056 24.8536 27.3353 24.8536H40.806V2.19919H12.143V5.76575C12.143 5.99541 12.0518 6.21567 11.8894 6.37807C11.727 6.54047 11.5067 6.6317 11.2771 6.6317C11.0474 6.6317 10.8272 6.54047 10.6648 6.37807C10.5024 6.21567 10.4111 5.99541 10.4111 5.76575V2.03985C10.4117 1.62277 10.5778 1.22296 10.8728 0.928146C11.1678 0.633332 11.5678 0.46759 11.9849 0.467285H40.9653C41.3822 0.467896 41.7819 0.633773 42.0766 0.928554C42.3714 1.22333 42.5373 1.62297 42.5379 2.03985V25.7196C42.5379 25.9492 42.4467 26.1695 42.2843 26.3319C42.1219 26.4943 41.9016 26.5855 41.672 26.5855Z" fill="#202223"/>
<path d="M14.7008 19.9257H3.71019C3.48052 19.9257 3.26027 19.8345 3.09787 19.6721C2.93547 19.5097 2.84424 19.2895 2.84424 19.0598C2.84424 18.8301 2.93547 18.6099 3.09787 18.4475C3.26027 18.2851 3.48052 18.1938 3.71019 18.1938H14.7008C14.9305 18.1938 15.1508 18.2851 15.3132 18.4475C15.4756 18.6099 15.5668 18.8301 15.5668 19.0598C15.5668 19.2895 15.4756 19.5097 15.3132 19.6721C15.1508 19.8345 14.9305 19.9257 14.7008 19.9257Z" fill="#202223"/>
<path d="M23.4584 15.9875H8.12181C7.89215 15.9875 7.67189 15.8963 7.50949 15.7339C7.34709 15.5715 7.25586 15.3512 7.25586 15.1216C7.25586 14.8919 7.34709 14.6716 7.50949 14.5092C7.67189 14.3468 7.89215 14.2556 8.12181 14.2556H23.4584C23.688 14.2556 23.9083 14.3468 24.0707 14.5092C24.2331 14.6716 24.3243 14.8919 24.3243 15.1216C24.3243 15.3512 24.2331 15.5715 24.0707 15.7339C23.9083 15.8963 23.688 15.9875 23.4584 15.9875Z" fill="#202223"/>
<path d="M7.64491 11.4153H1.65599C1.42633 11.4153 1.20607 11.324 1.04367 11.1616C0.881273 10.9992 0.790039 10.779 0.790039 10.5493C0.790039 10.3196 0.881273 10.0994 1.04367 9.93698C1.20607 9.77458 1.42633 9.68335 1.65599 9.68335H7.64491C7.87457 9.68335 8.09483 9.77458 8.25723 9.93698C8.41962 10.0994 8.51086 10.3196 8.51086 10.5493C8.51086 10.779 8.41962 10.9992 8.25723 11.1616C8.09483 11.324 7.87457 11.4153 7.64491 11.4153Z" fill="#202223"/>
<path d="M17.2475 6.6318H6.67601C6.44634 6.6318 6.22609 6.54057 6.06369 6.37817C5.90129 6.21578 5.81006 5.99552 5.81006 5.76585C5.81006 5.53619 5.90129 5.31593 6.06369 5.15353C6.22609 4.99114 6.44634 4.8999 6.67601 4.8999H17.2475C17.4772 4.8999 17.6975 4.99114 17.8599 5.15353C18.0223 5.31593 18.1135 5.53619 18.1135 5.76585C18.1135 5.99552 18.0223 6.21578 17.8599 6.37817C17.6975 6.54057 17.4772 6.6318 17.2475 6.6318Z" fill="#202223"/>
</svg>
