<svg width="17" height="17" viewBox="0 0 17 17" fill="none" xmlns="http://www.w3.org/2000/svg">
<g clip-path="url(#clip0_5472_6723)">
<path d="M13.8541 13.2794C13.583 13.2796 13.3179 13.1994 13.0923 13.0489C12.8668 12.8984 12.6909 12.6844 12.587 12.434C12.4832 12.1835 12.4559 11.9079 12.5086 11.642C12.5614 11.376 12.6919 11.1317 12.8835 10.9399C13.0752 10.7481 13.3194 10.6175 13.5853 10.5645C13.8512 10.5115 14.1269 10.5386 14.3774 10.6423C14.6279 10.746 14.842 10.9217 14.9927 11.1471C15.1433 11.3726 15.2238 11.6376 15.2238 11.9088C15.2236 12.272 15.0793 12.6204 14.8225 12.8774C14.5657 13.1344 14.2174 13.279 13.8541 13.2794ZM13.8541 11.0381C13.6818 11.0379 13.5134 11.0888 13.3701 11.1843C13.2268 11.2799 13.115 11.4158 13.049 11.5749C12.9829 11.7339 12.9655 11.909 12.999 12.078C13.0325 12.247 13.1154 12.4022 13.2371 12.5241C13.3588 12.6459 13.5139 12.7289 13.6829 12.7626C13.8518 12.7963 14.0269 12.7791 14.186 12.7132C14.3452 12.6474 14.4812 12.5358 14.577 12.3926C14.6727 12.2494 14.7238 12.081 14.7238 11.9088C14.7237 11.678 14.632 11.4568 14.469 11.2935C14.306 11.1303 14.0848 11.0384 13.8541 11.0381Z" fill="#6D7175"/>
<path d="M6.63079 13.2794C6.35964 13.2797 6.09451 13.1995 5.86893 13.0491C5.64334 12.8986 5.46746 12.6846 5.36351 12.4342C5.25956 12.1838 5.23223 11.9081 5.28496 11.6422C5.3377 11.3762 5.46814 11.1318 5.65978 10.94C5.85141 10.7482 6.09564 10.6175 6.36156 10.5645C6.62748 10.5115 6.90314 10.5386 7.15368 10.6423C7.40421 10.746 7.61836 10.9217 7.76903 11.1471C7.9197 11.3725 8.00012 11.6376 8.00012 11.9088C7.99986 12.272 7.85555 12.6202 7.59884 12.8772C7.34214 13.1342 6.994 13.2788 6.63079 13.2794ZM6.63079 11.0381C6.45853 11.0378 6.29007 11.0887 6.14671 11.1842C6.00335 11.2797 5.89155 11.4156 5.82545 11.5746C5.75935 11.7337 5.74191 11.9088 5.77536 12.0778C5.8088 12.2468 5.89162 12.402 6.01333 12.5239C6.13504 12.6458 6.29018 12.7289 6.45911 12.7626C6.62804 12.7963 6.80317 12.7791 6.96234 12.7133C7.12151 12.6474 7.25757 12.5358 7.3533 12.3926C7.44902 12.2494 7.50012 12.081 7.50012 11.9088C7.49995 11.6781 7.40834 11.457 7.24539 11.2938C7.08243 11.1306 6.86142 11.0386 6.63079 11.0381Z" fill="#6D7175"/>
<path d="M15.6576 12.1587H14.974C14.9077 12.1587 14.8441 12.1324 14.7972 12.0855C14.7503 12.0386 14.724 11.9751 14.724 11.9087C14.724 11.8424 14.7503 11.7789 14.7972 11.732C14.8441 11.6851 14.9077 11.6587 14.974 11.6587H15.587V10.3331C15.5868 10.1539 15.5409 9.97763 15.4536 9.82108L14.1003 7.39475C14.0888 7.37404 14.0719 7.35679 14.0514 7.34478C14.031 7.33277 14.0077 7.32643 13.984 7.32642H12.1396V11.6597H12.735C12.8013 11.6597 12.8649 11.6861 12.9118 11.733C12.9586 11.7799 12.985 11.8434 12.985 11.9097C12.985 11.9761 12.9586 12.0396 12.9118 12.0865C12.8649 12.1334 12.8013 12.1597 12.735 12.1597H11.8896C11.8233 12.1597 11.7598 12.1334 11.7129 12.0865C11.666 12.0396 11.6396 11.9761 11.6396 11.9097V7.07642C11.6396 7.01011 11.666 6.94652 11.7129 6.89964C11.7598 6.85276 11.8233 6.82642 11.8896 6.82642H13.984C14.0968 6.82636 14.2075 6.85643 14.3048 6.9135C14.4021 6.97058 14.4823 7.0526 14.5373 7.15108L15.8903 9.57775C16.0189 9.80873 16.0865 10.0687 16.0866 10.3331V11.7297C16.0865 11.8435 16.0412 11.9525 15.9608 12.0329C15.8804 12.1133 15.7714 12.1586 15.6576 12.1587Z" fill="#6D7175"/>
<path d="M5.51126 12.1588H3.11426C3.04795 12.1588 2.98437 12.1324 2.93748 12.0855C2.8906 12.0386 2.86426 11.9751 2.86426 11.9088V9.98608C2.86426 9.91978 2.8906 9.85619 2.93748 9.80931C2.98437 9.76242 3.04795 9.73608 3.11426 9.73608C3.18056 9.73608 3.24415 9.76242 3.29103 9.80931C3.33792 9.85619 3.36426 9.91978 3.36426 9.98608V11.6587H5.51126C5.57756 11.6587 5.64115 11.6851 5.68803 11.732C5.73492 11.7789 5.76126 11.8424 5.76126 11.9088C5.76126 11.9751 5.73492 12.0386 5.68803 12.0855C5.64115 12.1324 5.57756 12.1588 5.51126 12.1588Z" fill="#6D7175"/>
<path d="M3.11426 9.09908C3.04795 9.09908 2.98437 9.07274 2.93748 9.02585C2.8906 8.97897 2.86426 8.91538 2.86426 8.84908V7.17041C2.86426 7.10411 2.8906 7.04052 2.93748 6.99363C2.98437 6.94675 3.04795 6.92041 3.11426 6.92041C3.18056 6.92041 3.24415 6.94675 3.29103 6.99363C3.33792 7.04052 3.36426 7.10411 3.36426 7.17041V8.85008C3.36399 8.91621 3.33754 8.97954 3.29068 9.02621C3.24383 9.07288 3.18039 9.09908 3.11426 9.09908Z" fill="#6D7175"/>
<path d="M11.8893 12.1587H7.75026C7.68395 12.1587 7.62037 12.1324 7.57348 12.0855C7.5266 12.0386 7.50026 11.975 7.50026 11.9087C7.50026 11.8424 7.5266 11.7788 7.57348 11.732C7.62037 11.6851 7.68395 11.6587 7.75026 11.6587H11.6393V5.11841H3.36426V6.14807C3.36426 6.21438 3.33792 6.27797 3.29103 6.32485C3.24415 6.37174 3.18056 6.39807 3.11426 6.39807C3.04795 6.39807 2.98437 6.37174 2.93748 6.32485C2.8906 6.27797 2.86426 6.21438 2.86426 6.14807V5.07241C2.86443 4.952 2.91237 4.83657 2.99754 4.75146C3.08272 4.66635 3.19818 4.6185 3.31859 4.61841H11.6853C11.8056 4.61858 11.921 4.66647 12.0061 4.75158C12.0912 4.83668 12.1391 4.95205 12.1393 5.07241V11.9087C12.1393 11.975 12.1129 12.0386 12.066 12.0855C12.0191 12.1324 11.9556 12.1587 11.8893 12.1587Z" fill="#6D7175"/>
<path d="M4.10269 10.2361H0.929687C0.863383 10.2361 0.799795 10.2097 0.752911 10.1629C0.706027 10.116 0.679688 10.0524 0.679688 9.98608C0.679688 9.91978 0.706027 9.85619 0.752911 9.80931C0.799795 9.76242 0.863383 9.73608 0.929687 9.73608H4.10269C4.16899 9.73608 4.23258 9.76242 4.27946 9.80931C4.32635 9.85619 4.35269 9.91978 4.35269 9.98608C4.35269 10.0524 4.32635 10.116 4.27946 10.1629C4.23258 10.2097 4.16899 10.2361 4.10269 10.2361Z" fill="#6D7175"/>
<path d="M6.63079 9.09912H2.20312C2.13682 9.09912 2.07323 9.07278 2.02635 9.0259C1.97946 8.97901 1.95312 8.91543 1.95313 8.84912C1.95312 8.78282 1.97946 8.71923 2.02635 8.67234C2.07323 8.62546 2.13682 8.59912 2.20312 8.59912H6.63079C6.6971 8.59912 6.76068 8.62546 6.80757 8.67234C6.85445 8.71923 6.88079 8.78282 6.88079 8.84912C6.88079 8.91543 6.85445 8.97901 6.80757 9.0259C6.76068 9.07278 6.6971 9.09912 6.63079 9.09912Z" fill="#6D7175"/>
<path d="M2.06591 7.77905H0.336914C0.27061 7.77905 0.207021 7.75271 0.160137 7.70583C0.113253 7.65894 0.0869141 7.59536 0.0869141 7.52905C0.0869141 7.46275 0.113253 7.39916 0.160137 7.35228C0.207021 7.30539 0.27061 7.27905 0.336914 7.27905H2.06591C2.13222 7.27905 2.19581 7.30539 2.24269 7.35228C2.28957 7.39916 2.31591 7.46275 2.31591 7.52905C2.31591 7.59536 2.28957 7.65894 2.24269 7.70583C2.19581 7.75271 2.13222 7.77905 2.06591 7.77905Z" fill="#6D7175"/>
<path d="M4.83813 6.39807H1.78613C1.71983 6.39807 1.65624 6.37173 1.60936 6.32485C1.56247 6.27796 1.53613 6.21438 1.53613 6.14807C1.53613 6.08177 1.56247 6.01818 1.60936 5.97129C1.65624 5.92441 1.71983 5.89807 1.78613 5.89807H4.83813C4.90444 5.89807 4.96803 5.92441 5.01491 5.97129C5.06179 6.01818 5.08813 6.08177 5.08813 6.14807C5.08813 6.21438 5.06179 6.27796 5.01491 6.32485C4.96803 6.37173 4.90444 6.39807 4.83813 6.39807Z" fill="#6D7175"/>
</g>
<defs>
<clipPath id="clip0_5472_6723">
<rect width="16" height="16" fill="white" transform="translate(0.117188 0.850098)"/>
</clipPath>
</defs>
</svg>
