<svg width="76" height="19" viewBox="0 0 76 19" fill="none" xmlns="http://www.w3.org/2000/svg">
<mask id="mask0_4903_150" style="mask-type:luminance" maskUnits="userSpaceOnUse" x="0" y="0" width="76" height="19">
<path d="M75.2438 0.31543H0.292969V18.3154H75.2438V0.31543Z" fill="white"/>
</mask>
<g mask="url(#mask0_4903_150)">
<path d="M19.4948 5.97443C18.8937 4.71339 17.7541 3.89881 16.0368 3.89881C15.5097 3.90799 14.9917 4.03816 14.5229 4.27917C14.054 4.52022 13.6468 4.86574 13.3326 5.28907L13.2699 5.36543V0.423127C13.2699 0.394564 13.2586 0.367173 13.2384 0.346976C13.2182 0.326778 13.1908 0.31543 13.1622 0.31543H10.7342C10.7059 0.315943 10.6791 0.327515 10.6593 0.347657C10.6395 0.367798 10.6284 0.3949 10.6284 0.423127V14.6C10.6284 14.628 10.6396 14.6549 10.6594 14.6747C10.6792 14.6946 10.7061 14.7057 10.7342 14.7057H13.3346C13.3628 14.7057 13.3899 14.6947 13.41 14.6749C13.4302 14.6551 13.4417 14.6282 13.4423 14.6V8.55524C13.4423 7.38037 14.2255 6.54815 15.4787 6.54815C16.8494 6.54815 17.196 7.67604 17.196 8.82544V14.6C17.196 14.628 17.2071 14.6549 17.227 14.6747C17.2468 14.6946 17.2737 14.7057 17.3017 14.7057H19.8962C19.9245 14.7057 19.9516 14.6947 19.9717 14.6749C19.9919 14.6551 20.0035 14.6282 20.004 14.6V8.48083C20.004 8.27131 20.004 8.06569 19.9766 7.86598C19.932 7.21147 19.7688 6.57051 19.4948 5.97443Z" fill="#5A31F4"/>
<path d="M6.5101 8.07541C6.5101 8.07541 5.18641 7.76406 4.69883 7.63875C4.21125 7.51343 3.35946 7.24712 3.35946 6.60289C3.35946 5.95866 4.04676 5.75305 4.74387 5.75305C5.44096 5.75305 6.21639 5.92146 6.27709 6.69493C6.27954 6.72281 6.29237 6.74871 6.31303 6.7676C6.33371 6.78646 6.3607 6.79684 6.38869 6.79675L8.95188 6.78696C8.96697 6.78699 8.9819 6.78392 8.99574 6.77793C9.00957 6.77194 9.02202 6.76316 9.03232 6.75212C9.04261 6.74111 9.05053 6.72807 9.05555 6.71385C9.06056 6.69961 9.06263 6.68451 9.06154 6.66946C8.90294 4.1944 6.73136 3.30933 4.72819 3.30933C2.35298 3.30933 0.616127 4.87583 0.616127 6.60289C0.616127 7.86393 0.972507 9.04665 3.77458 9.86906C4.26607 10.012 4.93381 10.198 5.51734 10.3606C6.21834 10.5564 6.59625 10.852 6.59625 11.3181C6.59625 11.8585 5.81301 12.2345 5.04347 12.2345C3.92929 12.2345 3.1382 11.8213 3.07358 11.0792C3.07021 11.052 3.057 11.027 3.03641 11.009C3.01583 10.9909 2.98934 10.981 2.96196 10.9813L0.404649 10.993C0.389657 10.993 0.374818 10.996 0.361014 11.0019C0.347211 11.0077 0.334729 11.0163 0.324311 11.0271C0.313894 11.0379 0.305755 11.0506 0.300382 11.0646C0.295009 11.0786 0.292511 11.0936 0.293038 11.1086C0.410525 13.4446 2.66629 14.7037 4.76934 14.7037C7.90234 14.7037 9.31806 12.9414 9.31806 11.2907C9.32198 10.5152 9.14378 8.749 6.5101 8.07541Z" fill="#5A31F4"/>
<path d="M39.4859 3.895C38.184 3.895 37.0931 4.61559 36.3901 5.48503V3.99683C36.3901 3.96912 36.3792 3.9425 36.3597 3.92275C36.3406 3.90297 36.3141 3.8916 36.2863 3.89111H33.8544C33.8265 3.89111 33.7994 3.90222 33.7796 3.92205C33.7598 3.9419 33.7485 3.96881 33.7485 3.99683V17.8996C33.7492 17.9272 33.7607 17.9537 33.7805 17.973C33.8003 17.9924 33.8268 18.0034 33.8544 18.0034H36.4568C36.4842 18.0034 36.5106 17.9924 36.5301 17.973C36.5495 17.9535 36.5605 17.927 36.5605 17.8996V13.3293H36.5997C37.0127 13.9598 38.1426 14.7156 39.6192 14.7156C42.3956 14.7156 44.7102 12.4129 44.7102 9.30141C44.7123 6.31527 42.4095 3.895 39.4859 3.895ZM39.2451 12.0663C38.6972 12.0799 38.157 11.9299 37.6947 11.6354C37.2323 11.3409 36.8679 10.9152 36.6483 10.4128C36.4288 9.91036 36.3639 9.35389 36.4622 8.81443C36.5601 8.27496 36.8169 7.77697 37.1992 7.38403C37.5817 6.99102 38.0725 6.72091 38.6091 6.60813C39.1456 6.49535 39.7036 6.54498 40.2118 6.75074C40.7202 6.95647 41.1554 7.30901 41.4625 7.76331C41.7695 8.21763 41.9341 8.75309 41.9357 9.30141C41.9412 9.65981 41.8759 10.0158 41.7438 10.349C41.6117 10.6822 41.4148 10.9859 41.1648 11.2428C40.915 11.4997 40.6167 11.7047 40.287 11.846C39.9576 11.9874 39.6036 12.0622 39.2451 12.0663Z" fill="#5A31F4"/>
<path d="M26.0468 3.28418C23.6207 3.28418 22.4106 4.10855 21.4392 4.76846L21.4098 4.78802C21.3598 4.82229 21.3246 4.87424 21.3112 4.93341C21.2977 4.9926 21.3071 5.05465 21.3374 5.1072L22.297 6.75983C22.3149 6.79077 22.3396 6.81735 22.3689 6.83765C22.3984 6.85796 22.4319 6.87152 22.4674 6.87734C22.5019 6.88357 22.5373 6.88206 22.5712 6.87291C22.605 6.86376 22.6365 6.84725 22.6632 6.82445L22.7394 6.76181C23.2387 6.34277 24.0396 5.78273 25.9782 5.63C27.0571 5.54387 27.9893 5.82582 28.6766 6.46809C29.4324 7.1652 29.8848 8.29111 29.8848 9.4797C29.8848 11.6669 28.5962 13.0415 26.5265 13.0689C24.8209 13.0592 23.6754 12.1702 23.6754 10.8563C23.6754 10.1591 23.9907 9.70488 24.6056 9.25059C24.6525 9.21701 24.6857 9.16758 24.699 9.11143C24.7124 9.05529 24.7049 8.9962 24.678 8.94513L23.8165 7.31595C23.8006 7.2868 23.779 7.26107 23.7532 7.24023C23.7273 7.2194 23.6976 7.20388 23.6657 7.19456C23.633 7.18485 23.5988 7.18211 23.5651 7.18647C23.5313 7.19086 23.4988 7.20228 23.4698 7.22003C22.5026 7.79375 21.3159 8.8433 21.3805 10.8602C21.4588 13.4273 23.5933 15.3874 26.3678 15.4677H26.5069H26.6969C29.9942 15.3599 32.3754 12.9123 32.3754 9.59328C32.3754 6.54641 30.1548 3.28418 26.0468 3.28418Z" fill="#5A31F4"/>
<path d="M54.9634 4.85059H53.3106C53.2721 4.85109 53.2349 4.86673 53.2075 4.89415C53.1799 4.92158 53.1642 4.95865 53.1641 4.99745V8.46527C53.1642 8.5039 53.18 8.54073 53.2076 8.56785C53.2351 8.59497 53.2721 8.61019 53.3106 8.61019H54.9634C55.9699 8.61019 56.7121 7.81714 56.7121 6.73038C56.7121 5.64362 55.9699 4.85059 54.9634 4.85059Z" fill="#5A31F4"/>
<path d="M60.0405 10.9852C60.0405 11.4885 60.4654 11.7685 61.2055 11.7685C62.212 11.7685 62.8071 11.2241 62.8071 10.2587V9.98071L61.2996 10.059C60.5044 10.0982 60.0405 10.4291 60.0405 10.9852Z" fill="#5A31F4"/>
<path d="M72.279 0.346697H50.0738C49.7097 0.346697 49.3487 0.418481 49.0124 0.557944C48.6758 0.697408 48.3701 0.90182 48.1128 1.1595C47.8551 1.41718 47.6509 1.72307 47.5117 2.0597C47.3723 2.39633 47.3009 2.75709 47.3013 3.12137V15.2774C47.3013 16.013 47.5933 16.7184 48.1133 17.2387C48.6333 17.759 49.3385 18.0515 50.0738 18.0521H72.279C72.6437 18.0531 73.0052 17.9823 73.3425 17.8436C73.6797 17.7048 73.9863 17.5009 74.2448 17.2436C74.503 16.9862 74.7084 16.6805 74.8487 16.3438C74.9888 16.0071 75.061 15.646 75.0617 15.2813V3.12528C75.0622 2.75985 74.9909 2.39786 74.8513 2.06013C74.7117 1.72242 74.5067 1.41563 74.2481 1.1574C73.9896 0.899185 73.6825 0.694628 73.3446 0.555498C73.0068 0.416367 72.6446 0.345406 72.279 0.346697ZM55.0474 9.97483H53.3008C53.2619 9.97483 53.2248 9.99028 53.197 10.0178C53.1695 10.0454 53.1539 10.0827 53.1539 10.1217V12.6085C53.1539 12.6474 53.1385 12.6848 53.111 12.7123C53.0834 12.7399 53.0463 12.7554 53.0072 12.7554H51.7773C51.7388 12.7549 51.7014 12.7392 51.674 12.7118C51.6466 12.6844 51.6313 12.6473 51.6306 12.6085V3.6383C51.6306 3.59938 51.6461 3.56202 51.6738 3.53446C51.7013 3.50693 51.7384 3.49146 51.7773 3.49146H55.0474C56.8999 3.49146 58.2255 4.84061 58.2255 6.73412C58.2255 8.62763 56.9096 9.97872 55.0575 9.97872L55.0474 9.97483ZM64.2507 12.6065C64.2511 12.626 64.2476 12.6453 64.2401 12.6633C64.2328 12.6814 64.2221 12.6978 64.2085 12.7117C64.1946 12.7255 64.1785 12.7365 64.1604 12.744C64.1427 12.7515 64.1233 12.7554 64.1038 12.7554H62.9427C62.9232 12.7554 62.904 12.7515 62.8861 12.744C62.868 12.7365 62.8517 12.7255 62.8382 12.7117C62.8246 12.6978 62.8137 12.6814 62.8066 12.6633C62.7993 12.6453 62.7956 12.626 62.796 12.6065V12.3383C62.7977 12.3147 62.7921 12.2912 62.7795 12.2712C62.7671 12.2512 62.7486 12.2357 62.7263 12.2271C62.7045 12.2185 62.6803 12.2173 62.6576 12.2236C62.6347 12.2298 62.6145 12.2433 62.6001 12.2619C62.2534 12.6398 61.6895 12.914 60.7907 12.914C59.4672 12.914 58.5916 12.2247 58.5916 11.0342C58.579 10.7439 58.6389 10.455 58.7661 10.1937C58.8932 9.93249 59.0838 9.70713 59.3203 9.53817C59.7979 9.17982 60.5381 8.9938 61.6365 8.95071L62.8017 8.91156V8.57082C62.8017 7.88352 62.3395 7.59177 61.5973 7.59177C60.8553 7.59177 60.3872 7.85416 60.2778 8.283C60.269 8.31327 60.2504 8.33977 60.2247 8.35822C60.1993 8.3767 60.1683 8.38604 60.1367 8.38481H58.9873C58.9661 8.38534 58.9451 8.38121 58.9257 8.37277C58.9066 8.3643 58.889 8.3517 58.875 8.33583C58.8611 8.31994 58.8507 8.30124 58.8448 8.28093C58.8387 8.26063 58.8371 8.2393 58.8404 8.21838C59.0128 7.20014 59.8547 6.42667 61.6504 6.42667C63.5576 6.42667 64.2448 7.31372 64.2448 9.00749L64.2507 12.6065ZM71.4841 6.78697L68.8995 13.6816C68.312 15.2833 67.284 15.6945 66.1579 15.6945C65.9459 15.6997 65.7341 15.674 65.5294 15.6182C65.4975 15.6096 65.4695 15.5907 65.449 15.5645C65.429 15.5384 65.4181 15.5063 65.4178 15.4732V14.4256C65.4178 14.4037 65.4225 14.382 65.4317 14.3622C65.441 14.3423 65.4544 14.3247 65.4712 14.3107C65.4883 14.2967 65.5079 14.2866 65.5291 14.281C65.5502 14.2755 65.5725 14.2747 65.594 14.2788C65.7716 14.3124 65.9518 14.3295 66.1325 14.3297C66.4438 14.3453 66.7515 14.256 67.0062 14.076C67.2605 13.896 67.4474 13.6357 67.5364 13.3369L67.613 13.0961C67.6248 13.0638 67.6248 13.0285 67.613 12.9962L65.1966 6.78895C65.1891 6.76676 65.187 6.74311 65.1907 6.71998C65.1941 6.69684 65.203 6.67484 65.2162 6.65578C65.2299 6.63672 65.2478 6.62111 65.2685 6.61021C65.2891 6.59932 65.3122 6.59345 65.3355 6.59312H66.5105C66.5406 6.59342 66.5697 6.60269 66.5945 6.61981C66.6194 6.63689 66.6385 6.66102 66.6494 6.68908L68.2904 11.0675C68.3014 11.0961 68.3205 11.1207 68.3457 11.1381C68.371 11.1555 68.4009 11.1648 68.4314 11.1648C68.4618 11.1648 68.492 11.1555 68.517 11.1381C68.5422 11.1207 68.5616 11.0961 68.5722 11.0675L69.9961 6.70083C70.0054 6.67106 70.0244 6.64512 70.0497 6.6268C70.0751 6.60847 70.1054 6.59873 70.1367 6.59901H71.3413C71.3643 6.5989 71.3873 6.60432 71.4083 6.6147C71.4289 6.62512 71.4472 6.64026 71.4611 6.65892C71.4749 6.67759 71.4841 6.69924 71.4881 6.72217C71.4923 6.74507 71.4909 6.76861 71.4841 6.79089V6.78697Z" fill="#5A31F4"/>
</g>
</svg>
