<svg width="40" height="39" viewBox="0 0 40 39" fill="none" xmlns="http://www.w3.org/2000/svg">
<path d="M24.1607 12.6817L34.425 8.99648L28.5481 18.1834L28.2743 18.6114L28.7068 18.8783L37.9876 24.6056L27.1409 25.7388L26.6355 25.7916L26.6965 26.2961L28.0052 37.1231L20.3564 29.3493L20 28.9871L19.6436 29.3493L11.9948 37.1231L13.3035 26.2961L13.3645 25.7916L12.8591 25.7388L2.01238 24.6056L11.2932 18.8783L11.7257 18.6114L11.4519 18.1834L5.57505 8.99648L15.8393 12.6817L16.3176 12.8534L16.4815 12.3724L20 2.04979L23.5185 12.3724L23.6824 12.8534L24.1607 12.6817Z" stroke="#202223"/>
</svg>
