<svg width="40" height="39" viewBox="0 0 40 39" fill="none" xmlns="http://www.w3.org/2000/svg">
<path d="M24.0503 12.6817L34.3146 8.99648L28.4378 18.1834L28.164 18.6114L28.5964 18.8783L37.8773 24.6056L27.0305 25.7388L26.5251 25.7916L26.5861 26.2961L27.8949 37.1231L20.2461 29.3493L19.8896 28.9871L19.5332 29.3493L11.8844 37.1231L13.1932 26.2961L13.2542 25.7916L12.7488 25.7388L1.90202 24.6056L11.1829 18.8783L11.6153 18.6114L11.3415 18.1834L5.46469 8.99648L15.729 12.6817L16.2072 12.8534L16.3712 12.3724L19.8896 2.04979L23.4081 12.3724L23.5721 12.8534L24.0503 12.6817Z" fill="#202223" stroke="#202223"/>
</svg>
