<svg width="16" height="17" viewBox="0 0 16 17" fill="none" xmlns="http://www.w3.org/2000/svg">
<path d="M7.8211 15.4221L7.59007 15.5377L0.79999 12.5199V4.59535L7.43752 7.54537C7.48868 7.5681 7.54404 7.57985 7.60002 7.57985C7.65601 7.57985 7.71137 7.5681 7.76253 7.54537L14.4001 4.59535V7.97985C14.4011 8.08526 14.4437 8.18601 14.5186 8.26019C14.5935 8.33438 14.6946 8.37599 14.8 8.37599C14.9055 8.37599 15.0066 8.33438 15.0815 8.26019C15.1564 8.18601 15.199 8.08526 15.2 7.97985V3.97982C15.2 3.90246 15.1776 3.82676 15.1354 3.76188C15.0933 3.69701 15.0332 3.64575 14.9626 3.61431L7.76253 0.414309C7.71136 0.39161 7.656 0.379883 7.60002 0.379883C7.54404 0.379883 7.48869 0.39161 7.43752 0.414309L0.237488 3.61431C0.166802 3.64575 0.106747 3.69701 0.0645968 3.76188C0.0224465 3.82676 8.42714e-06 3.90246 0 3.97982V12.7799C1.13372e-05 12.8572 0.0224519 12.9329 0.0646033 12.9978C0.106755 13.0626 0.166808 13.1139 0.237488 13.1453L7.43752 16.3453C7.49143 16.3693 7.54998 16.3811 7.60898 16.3798C7.66798 16.3785 7.72596 16.3641 7.77877 16.3378L8.17878 16.1378C8.22607 16.1145 8.26828 16.082 8.30299 16.0423C8.3377 16.0027 8.36423 15.9565 8.38104 15.9065C8.39785 15.8566 8.40462 15.8038 8.40095 15.7512C8.39729 15.6986 8.38326 15.6472 8.35968 15.6001C8.3361 15.5529 8.30343 15.5109 8.26355 15.4764C8.22367 15.4419 8.17737 15.4156 8.12731 15.3991C8.07724 15.3826 8.0244 15.3761 7.97183 15.38C7.91925 15.384 7.86798 15.3983 7.82095 15.4222L7.8211 15.4221ZM7.59985 6.74212L4.77002 5.48433L10.9625 2.73215C10.9697 2.72897 10.9756 2.72432 10.9824 2.72091L13.8151 3.97982L7.59985 6.74212ZM7.59985 1.21749L10.0003 2.28429L3.8375 5.0233C3.82163 5.03101 3.8063 5.03978 3.7916 5.04955L1.38499 3.97982L7.59985 1.21749Z" fill="#00A47C"/>
<path d="M12.0001 8.37988C11.2089 8.37988 10.4356 8.61447 9.77776 9.05399C9.11995 9.49352 8.60725 10.1182 8.3045 10.8491C8.00174 11.58 7.92252 12.3843 8.07686 13.1603C8.23119 13.9362 8.61216 14.6489 9.17157 15.2083C9.73098 15.7678 10.4437 16.1487 11.2196 16.3031C11.9956 16.4574 12.7999 16.3782 13.5308 16.0755C14.2617 15.7727 14.8864 15.26 15.3259 14.6022C15.7655 13.9444 16.0001 13.171 16.0001 12.3799C15.9989 11.3194 15.5771 10.3027 14.8272 9.55278C14.0773 8.80289 13.0606 8.38107 12.0001 8.37988ZM12.0001 15.5799C11.3672 15.5799 10.7485 15.3922 10.2222 15.0406C9.696 14.689 9.28585 14.1892 9.04365 13.6045C8.80145 13.0198 8.73808 12.3764 8.86155 11.7556C8.98503 11.1349 9.2898 10.5647 9.73732 10.1172C10.1849 9.66964 10.755 9.36487 11.3758 9.2414C11.9965 9.11793 12.6399 9.1813 13.2247 9.4235C13.8094 9.6657 14.3091 10.0758 14.6608 10.6021C15.0124 11.1283 15.2001 11.747 15.2001 12.3799C15.1991 13.2283 14.8616 14.0417 14.2617 14.6416C13.6618 15.2415 12.8485 15.5789 12.0001 15.5799Z" fill="#00A47C"/>
<path d="M13.3172 11.297L11.6 13.0142L10.8828 12.297C10.8458 12.2591 10.8017 12.229 10.753 12.2083C10.7043 12.1877 10.652 12.1769 10.5991 12.1766C10.5461 12.1763 10.4937 12.1865 10.4448 12.2066C10.3958 12.2267 10.3513 12.2563 10.3139 12.2937C10.2765 12.3311 10.2469 12.3756 10.2268 12.4245C10.2067 12.4735 10.1965 12.5259 10.1968 12.5788C10.1971 12.6318 10.2079 12.6841 10.2286 12.7328C10.2492 12.7815 10.2794 12.8256 10.3172 12.8626L11.3172 13.8626C11.3544 13.8998 11.3984 13.9292 11.447 13.9493C11.4955 13.9695 11.5475 13.9798 11.6 13.9798C11.6526 13.9798 11.7046 13.9695 11.7531 13.9493C11.8016 13.9292 11.8457 13.8998 11.8828 13.8626L13.8828 11.8626C13.9564 11.7873 13.9973 11.6861 13.9967 11.5808C13.9961 11.4755 13.954 11.3747 13.8796 11.3003C13.8051 11.2258 13.7043 11.1837 13.5991 11.1831C13.4938 11.1825 13.3925 11.2234 13.3172 11.297V11.297Z" fill="#00A47C"/>
</svg>
