<svg width="31" height="31" viewBox="0 0 31 31" fill="none" xmlns="http://www.w3.org/2000/svg">
<path d="M28.9666 13.4617C28.8466 10.044 27.4626 6.84798 25.0323 4.41771C22.485 1.86993 19.0996 0.467285 15.5002 0.467285C8.23043 0.467285 2.29035 6.25363 2.0343 13.4617C0.924911 13.9547 0.148438 15.0651 0.148438 16.3556V19.911C0.148438 21.6568 1.56871 23.0776 3.31504 23.0776C4.44499 23.0776 5.36393 22.1586 5.36393 21.0287V15.2374C5.36393 14.1765 4.55025 13.3114 3.51577 13.2086C3.89764 6.92876 9.12538 1.93603 15.5002 1.93603C18.7079 1.93603 21.7242 3.18641 23.9944 5.4566C26.079 7.54123 27.2991 10.2584 27.4827 13.2091C26.4492 13.3129 25.637 14.1775 25.637 15.2374V21.0282C25.637 22.0979 26.4634 22.9684 27.5101 23.059V24.5223C27.5101 26.1702 26.1691 27.5107 24.5212 27.5107H22.3078C22.1991 27.2003 22.0288 26.9134 21.7898 26.6755C21.3712 26.2549 20.8131 26.0234 20.2188 26.0234H17.9373C17.6098 26.0234 17.2955 26.0929 17.0076 26.227C16.2223 26.5879 15.7151 27.38 15.7151 28.2451C15.7151 28.8394 15.9467 29.3976 16.3663 29.8152C16.7858 30.2357 17.344 30.4673 17.9373 30.4673H20.2188C21.1646 30.4673 21.9984 29.8558 22.3093 28.9795H24.5212C26.9794 28.9795 28.9788 26.98 28.9788 24.5223V22.7975C30.0814 22.3016 30.852 21.1951 30.852 19.91V16.3546C30.852 15.0651 30.0755 13.9547 28.9666 13.4617ZM3.8947 15.2374V21.0282C3.8947 21.3479 3.63474 21.6083 3.31455 21.6083C2.37847 21.6083 1.61669 20.8465 1.61669 19.9105V16.3551C1.61669 15.4186 2.37847 14.6573 3.31455 14.6573C3.63474 14.6573 3.8947 14.9177 3.8947 15.2374ZM20.9556 28.4027C20.8826 28.7484 20.5723 28.9995 20.2183 28.9995H17.9368C17.7361 28.9995 17.5476 28.9212 17.4037 28.7773C17.2617 28.6358 17.1834 28.4468 17.1834 28.2461C17.1834 27.9528 17.3552 27.685 17.6245 27.5611C17.7204 27.5161 17.8257 27.4931 17.9368 27.4931H20.2183C20.419 27.4931 20.6075 27.5709 20.7509 27.7149C20.8929 27.8564 20.9713 28.0453 20.9713 28.2461C20.9717 28.2999 20.9659 28.3538 20.9556 28.4027ZM29.3832 19.9105C29.3832 20.8465 28.6214 21.6083 27.6854 21.6083C27.3657 21.6083 27.1052 21.3484 27.1052 21.0282V15.2374C27.1052 14.9177 27.3652 14.6573 27.6854 14.6573C28.6214 14.6573 29.3832 15.4191 29.3832 16.3551V19.9105Z" fill="#202223"/>
<path d="M20.2557 20.1637C21.9716 20.1637 23.3674 18.7674 23.3674 17.0519V10.7114C23.3674 9.88203 23.0433 9.10066 22.4549 8.51219C21.8664 7.92371 21.0855 7.59961 20.2557 7.59961H10.7451C9.02909 7.59961 7.6333 8.9954 7.6333 10.7114V17.0519C7.6333 18.7679 9.02909 20.1637 10.7451 20.1637H10.8033V21.8067C10.8033 22.4334 11.1769 22.9896 11.7546 23.2241C11.9411 23.299 12.135 23.3362 12.3269 23.3362C12.7269 23.3362 13.1166 23.1776 13.402 22.8823L16.1354 20.1637H20.2557ZM15.3153 18.9084L12.3573 21.8503C12.344 21.864 12.3342 21.8743 12.3063 21.8621C12.2726 21.8483 12.2726 21.8263 12.2726 21.8067V19.4293C12.2726 19.024 11.9441 18.695 11.5382 18.695H10.7456C9.83935 18.695 9.10253 17.9577 9.10253 17.0519V10.7114C9.10253 9.80517 9.83935 9.06835 10.7456 9.06835H20.2561C20.6938 9.06835 21.1056 9.2397 21.4169 9.55059C21.7283 9.86196 21.8992 10.2742 21.8992 10.7114V17.0519C21.8992 17.9581 21.1619 18.695 20.2561 18.695H15.8333C15.6389 18.695 15.4529 18.7718 15.3153 18.9084Z" fill="#202223"/>
<path d="M11.9326 12.9155C11.3353 12.9155 10.8491 13.4022 10.8491 13.999C10.8491 14.5958 11.3358 15.0824 11.9326 15.0824C12.5303 15.0824 13.017 14.5958 13.017 13.999C13.017 13.4022 12.5308 12.9155 11.9326 12.9155Z" fill="#202223"/>
<path d="M15.4995 12.9155C14.9022 12.9155 14.416 13.4022 14.416 13.999C14.416 14.5958 14.9027 15.0824 15.4995 15.0824C16.0977 15.0824 16.5839 14.5958 16.5839 13.999C16.5839 13.4022 16.0977 12.9155 15.4995 12.9155Z" fill="#202223"/>
<path d="M19.0668 12.9155C18.4696 12.9155 17.9834 13.4022 17.9834 13.999C17.9834 14.5958 18.47 15.0824 19.0668 15.0824C19.6646 15.0824 20.1513 14.5958 20.1513 13.999C20.1513 13.4022 19.6646 12.9155 19.0668 12.9155Z" fill="#202223"/>
</svg>
