<svg width="39" height="31" viewBox="0 0 39 31" fill="none" xmlns="http://www.w3.org/2000/svg">
<path d="M24.569 4.25873C24.4956 4.03118 24.3517 3.83285 24.1583 3.69231C23.9648 3.55178 23.7317 3.4763 23.4926 3.47675H21.2866L20.6049 1.37865C20.531 1.15136 20.3871 0.953281 20.1937 0.812809C20.0004 0.672336 19.7675 0.59668 19.5285 0.59668C19.2895 0.59668 19.0567 0.672336 18.8633 0.812809C18.6699 0.953281 18.526 1.15136 18.4521 1.37865L17.7704 3.47675H15.5644C15.3254 3.47676 15.0925 3.55243 14.8992 3.69292C14.7058 3.8334 14.5619 4.03149 14.488 4.2588C14.4142 4.48611 14.4141 4.73096 14.488 4.95828C14.5618 5.18559 14.7057 5.38369 14.8991 5.52419L16.6838 6.8208L16.0021 8.91889C15.9279 9.14625 15.9277 9.39127 16.0015 9.61875C16.0753 9.84624 16.2192 10.0445 16.4127 10.1851C16.6062 10.3256 16.8393 10.4013 17.0784 10.4011C17.3176 10.4009 17.5505 10.325 17.7438 10.1842L19.5285 8.88759L21.3132 10.1843C21.5066 10.3248 21.7395 10.4004 21.9785 10.4004C22.2175 10.4004 22.4504 10.3248 22.6437 10.1843C22.8371 10.0438 22.981 9.8457 23.0549 9.61838C23.1288 9.39107 23.1288 9.14621 23.0549 8.91889L22.3732 6.8208L24.1579 5.52411C24.3517 5.38392 24.4958 5.18583 24.5697 4.95842C24.6436 4.731 24.6434 4.486 24.569 4.25873ZM21.2498 6.062C21.1409 6.14108 21.0599 6.25261 21.0183 6.38058C20.9767 6.50855 20.9767 6.6464 21.0183 6.77437L21.7076 8.8958L19.9028 7.5847C19.794 7.5057 19.663 7.46315 19.5285 7.46315C19.394 7.46315 19.263 7.5057 19.1542 7.5847L17.3496 8.8958L18.0389 6.77437C18.0805 6.6464 18.0805 6.50855 18.0389 6.38058C17.9973 6.25261 17.9163 6.14108 17.8074 6.062L16.003 4.75098H18.2334C18.368 4.75098 18.4991 4.70839 18.6079 4.62931C18.7168 4.55022 18.7978 4.4387 18.8394 4.31073L19.5285 2.18938L20.2178 4.31081C20.2594 4.43878 20.3404 4.5503 20.4493 4.62939C20.5581 4.70847 20.6892 4.75106 20.8238 4.75106H23.0542L21.2498 6.062Z" fill="#202223"/>
<path d="M11.6233 13.3379C11.7857 13.3377 11.9458 13.2992 12.0904 13.2253C12.235 13.1515 12.3602 13.0445 12.4556 12.9131C12.551 12.7817 12.614 12.6296 12.6394 12.4692C12.6649 12.3089 12.652 12.1447 12.6019 11.9903L12.0916 10.4198L13.4276 9.44913C13.6034 9.3214 13.7343 9.14129 13.8014 8.93462C13.8686 8.72795 13.8685 8.50533 13.8014 8.29867C13.7342 8.092 13.6034 7.9119 13.4276 7.78417C13.2518 7.65644 13.0401 7.58765 12.8228 7.58765H11.1714L10.6611 6.01716C10.594 5.8105 10.4631 5.63039 10.2873 5.50267C10.1115 5.37494 9.89977 5.30615 9.68247 5.30615C9.46517 5.30615 9.25344 5.37494 9.07764 5.50267C8.90183 5.63039 8.77098 5.8105 8.70382 6.01716L8.19349 7.58773H6.5421C6.32476 7.58764 6.11298 7.65638 5.93711 7.78408C5.76125 7.91177 5.63033 8.09187 5.56312 8.29856C5.49592 8.50524 5.49588 8.7279 5.56302 8.93461C5.63015 9.14131 5.76101 9.32146 5.93684 9.44921L7.27287 10.4199L6.7627 11.9903C6.69555 12.197 6.69555 12.4196 6.76269 12.6263C6.82983 12.8329 6.96067 13.013 7.13646 13.1408C7.31225 13.2685 7.52396 13.3373 7.74125 13.3373C7.95855 13.3374 8.17027 13.2686 8.34608 13.1409L9.68211 12.1702L11.0181 13.1409C11.1939 13.2689 11.4058 13.3379 11.6233 13.3379ZM9.30788 10.8672L8.20807 11.6667L8.62824 10.3737C8.66985 10.2457 8.66985 10.1078 8.62826 9.97982C8.58667 9.85183 8.50562 9.74029 8.39673 9.66121L7.29692 8.86219H8.65644C8.79097 8.86219 8.92204 8.8196 9.03088 8.74053C9.13973 8.66146 9.22074 8.54997 9.26233 8.42203L9.68243 7.129L10.1026 8.42203C10.1442 8.54997 10.2252 8.66146 10.3341 8.74053C10.4429 8.8196 10.574 8.86219 10.7085 8.86219H12.0679L10.9681 9.66129C10.8593 9.74038 10.7782 9.8519 10.7367 9.97988C10.6951 10.1078 10.6951 10.2457 10.7367 10.3737L11.1568 11.6667L10.0569 10.8675C9.94808 10.7884 9.81702 10.7457 9.68248 10.7457C9.54794 10.7456 9.41684 10.7882 9.30796 10.8672H9.30788Z" fill="#202223"/>
<path d="M7.66807 15.8699H6.01667L5.50634 14.2994C5.43921 14.0928 5.30836 13.9127 5.13256 13.7849C4.95677 13.6572 4.74504 13.5884 4.52773 13.5884C4.31043 13.5884 4.0987 13.6572 3.9229 13.7849C3.7471 13.9127 3.61626 14.0928 3.54913 14.2994L3.03872 15.87H1.3874C1.1701 15.87 0.958375 15.9388 0.782574 16.0665C0.606773 16.1943 0.475919 16.3744 0.408766 16.581C0.341613 16.7877 0.341609 17.0103 0.408754 17.217C0.475898 17.4237 0.606745 17.6038 0.782541 17.7315L2.11857 18.7021L1.60824 20.2727C1.54107 20.4794 1.54106 20.702 1.6082 20.9087C1.67535 21.1154 1.8062 21.2955 1.982 21.4232C2.1578 21.551 2.36954 21.6198 2.58685 21.6198C2.80416 21.6198 3.0159 21.551 3.19171 21.4232L4.52773 20.4525L5.86376 21.4232C6.03958 21.5511 6.25137 21.62 6.46876 21.62C6.68615 21.6201 6.89797 21.5513 7.07384 21.4235C7.24971 21.2957 7.38059 21.1155 7.44771 20.9087C7.51483 20.702 7.51475 20.4793 7.44746 20.2725L6.93722 18.7021L8.27324 17.7314C8.44907 17.6037 8.57993 17.4235 8.64706 17.2168C8.7142 17.0101 8.71416 16.7874 8.64696 16.5808C8.57975 16.3741 8.44884 16.194 8.27297 16.0663C8.0971 15.9386 7.8854 15.8698 7.66807 15.8699ZM5.81343 17.9432C5.70454 18.0223 5.62349 18.1338 5.5819 18.2618C5.54031 18.3898 5.54032 18.5276 5.58192 18.6556L6.00209 19.949L4.9022 19.1495C4.79338 19.0705 4.66236 19.0279 4.52789 19.0279C4.39342 19.0279 4.2624 19.0705 4.15359 19.1495L3.05337 19.949L3.47347 18.6556C3.51506 18.5277 3.51507 18.3898 3.4735 18.2618C3.43192 18.1339 3.3509 18.0223 3.24204 17.9433L2.14222 17.1442H3.50166C3.63619 17.1442 3.76727 17.1016 3.87611 17.0225C3.98495 16.9434 4.06597 16.8319 4.10756 16.704L4.52773 15.411L4.94783 16.704C4.98942 16.8319 5.07044 16.9434 5.17928 17.0225C5.28812 17.1016 5.41919 17.1442 5.55372 17.1442H6.91325L5.81343 17.9432Z" fill="#202223"/>
<path d="M37.6123 15.8699H35.9609L35.4506 14.2994C35.3835 14.0928 35.2526 13.9127 35.0768 13.7849C34.901 13.6572 34.6893 13.5884 34.472 13.5884C34.2547 13.5884 34.0429 13.6572 33.8671 13.7849C33.6913 13.9127 33.5605 14.0928 33.4934 14.2994L32.983 15.87H31.3316C31.1143 15.8699 30.9025 15.9387 30.7267 16.0664C30.5508 16.1941 30.4199 16.3742 30.3527 16.5808C30.2855 16.7875 30.2854 17.0102 30.3526 17.2169C30.4197 17.4236 30.5506 17.6037 30.7264 17.7315L32.0624 18.7021L31.5521 20.2727C31.4849 20.4794 31.4849 20.702 31.5521 20.9087C31.6192 21.1154 31.75 21.2955 31.9258 21.4232C32.1017 21.551 32.3134 21.6198 32.5307 21.6198C32.748 21.6198 32.9597 21.551 33.1356 21.4232L34.4716 20.4525L35.8076 21.4232C35.9834 21.5513 36.1953 21.6203 36.4127 21.6204C36.6302 21.6206 36.8422 21.5518 37.0181 21.424C37.1941 21.2961 37.325 21.1159 37.3921 20.909C37.4592 20.7021 37.4591 20.4793 37.3917 20.2725L36.8815 18.7021L38.2175 17.7314C38.3933 17.6037 38.5242 17.4235 38.5913 17.2168C38.6584 17.0101 38.6584 16.7874 38.5912 16.5808C38.524 16.3741 38.3931 16.194 38.2172 16.0663C38.0413 15.9386 37.8296 15.8698 37.6122 15.8699H37.6123ZM35.7577 17.9432C35.6488 18.0223 35.5677 18.1338 35.5261 18.2618C35.4846 18.3898 35.4846 18.5276 35.5262 18.6556L35.9463 19.949L34.8464 19.1495C34.7376 19.0705 34.6066 19.0279 34.4721 19.0279C34.3377 19.0279 34.2066 19.0705 34.0978 19.1495L32.9976 19.949L33.4177 18.6556C33.4593 18.5277 33.4593 18.3898 33.4177 18.2618C33.3762 18.1339 33.2951 18.0223 33.1863 17.9433L32.0865 17.1442H33.4459C33.5804 17.1442 33.7115 17.1016 33.8204 17.0225C33.9292 16.9434 34.0102 16.8319 34.0518 16.704L34.472 15.411L34.8921 16.704C34.9337 16.8319 35.0147 16.9434 35.1235 17.0225C35.2324 17.1016 35.3634 17.1442 35.498 17.1442H36.8575L35.7577 17.9432Z" fill="#202223"/>
<path d="M31.3161 13.3375C31.4785 13.3374 31.6386 13.2988 31.7833 13.225C31.928 13.1512 32.0532 13.0443 32.1486 12.9129C32.2441 12.7814 32.3071 12.6293 32.3326 12.4689C32.358 12.3085 32.3451 12.1443 32.295 11.9898L31.7848 10.4193L33.1208 9.4487C33.2966 9.32095 33.4275 9.1408 33.4946 8.9341C33.5618 8.72739 33.5617 8.50473 33.4945 8.29805C33.4273 8.09136 33.2964 7.91126 33.1205 7.78356C32.9447 7.65587 32.7329 7.58713 32.5156 7.58721H30.8642L30.3539 6.01673C30.2868 5.81005 30.1559 5.62994 29.9801 5.5022C29.8043 5.37446 29.5926 5.30566 29.3753 5.30566C29.158 5.30566 28.9463 5.37446 28.7705 5.5022C28.5947 5.62994 28.4638 5.81005 28.3967 6.01673L27.8863 7.58729H26.235C26.0176 7.58721 25.8058 7.65595 25.63 7.78364C25.4541 7.91134 25.3232 8.09144 25.256 8.29813C25.1888 8.50481 25.1888 8.72747 25.2559 8.93417C25.323 9.14088 25.4539 9.32103 25.6297 9.44878L26.9657 10.4194L26.4554 11.99C26.3882 12.1967 26.3882 12.4193 26.4554 12.626C26.5225 12.8326 26.6534 13.0128 26.8292 13.1405C27.005 13.2682 27.2167 13.337 27.434 13.3371C27.6513 13.3371 27.8631 13.2683 28.0389 13.1405L29.3749 12.1698L30.7109 13.1405C30.8867 13.2686 31.0986 13.3375 31.3161 13.3375ZM29.0008 10.8668L27.9009 11.6663L28.321 10.3729C28.3626 10.2449 28.3626 10.1071 28.3211 9.97913C28.2795 9.85115 28.1985 9.73963 28.0896 9.66054L26.9898 8.86144H28.3492C28.4838 8.86144 28.6148 8.81885 28.7237 8.73978C28.8325 8.66071 28.9135 8.54922 28.9551 8.42127L29.3753 7.12825L29.7954 8.42127C29.837 8.54922 29.918 8.66071 30.0268 8.73978C30.1357 8.81885 30.2668 8.86144 30.4013 8.86144H31.7608L30.661 9.66046C30.5521 9.73954 30.4711 9.85108 30.4295 9.97907C30.3879 10.1071 30.3879 10.2449 30.4295 10.3729L30.8497 11.6663L29.7498 10.8668C29.6409 10.7877 29.5098 10.7451 29.3753 10.7451C29.2408 10.7451 29.1097 10.7877 29.0008 10.8668H29.0008Z" fill="#202223"/>
<path d="M27.1742 19.1286H22.7144V15.943C22.7137 15.2673 22.4449 14.6196 21.9672 14.1418C21.4894 13.6641 20.8416 13.3953 20.166 13.3945H18.8918C18.7384 13.3945 18.5902 13.4499 18.4744 13.5503C18.3585 13.6508 18.2828 13.7897 18.2611 13.9415L18.0269 15.5808C17.9202 16.3251 17.6401 17.034 17.2092 17.6502C16.7783 18.2664 16.2086 18.7728 15.5461 19.1286H10.6093C10.4403 19.1286 10.2783 19.1957 10.1588 19.3152C10.0393 19.4346 9.97217 19.5967 9.97217 19.7657V28.6853C9.97217 28.8542 10.0393 29.0163 10.1588 29.1358C10.2783 29.2552 10.4403 29.3224 10.6093 29.3224H15.5133L15.9304 29.6005C16.9042 30.251 18.0493 30.5977 19.2205 30.5966H26.5371C26.9062 30.5968 27.2674 30.4901 27.5771 30.2894C27.8868 30.0887 28.1317 29.8025 28.2823 29.4656C28.4328 29.1287 28.4826 28.7553 28.4255 28.3907C28.3684 28.0261 28.2069 27.6858 27.9606 27.411C28.2747 27.0609 28.4484 26.6072 28.4484 26.1368C28.4484 25.6664 28.2747 25.2127 27.9606 24.8626C28.2271 24.5655 28.3938 24.1923 28.4372 23.7955C28.4805 23.3987 28.3983 22.9983 28.2022 22.6507C28.5506 22.4282 28.8174 22.0987 28.9627 21.7118C29.108 21.3248 29.1239 20.9012 29.0081 20.5044C28.8923 20.1076 28.651 19.759 28.3204 19.511C27.9897 19.2629 27.5876 19.1287 27.1742 19.1286ZM11.2464 20.4028H15.0691V28.0481H11.2464V20.4028ZM27.1742 21.677H26.5371C26.3681 21.677 26.2061 21.7441 26.0866 21.8636C25.9671 21.9831 25.9 22.1451 25.9 22.3141C25.9 22.4831 25.9671 22.6451 26.0866 22.7646C26.2061 22.8841 26.3681 22.9512 26.5371 22.9512C26.7061 22.9512 26.8681 23.0184 26.9876 23.1378C27.1071 23.2573 27.1742 23.4194 27.1742 23.5883C27.1742 23.7573 27.1071 23.9194 26.9876 24.0389C26.8681 24.1583 26.7061 24.2255 26.5371 24.2255C26.3681 24.2255 26.2061 24.2926 26.0866 24.4121C25.9671 24.5315 25.9 24.6936 25.9 24.8626C25.9 25.0315 25.9671 25.1936 26.0866 25.3131C26.2061 25.4326 26.3681 25.4997 26.5371 25.4997C26.7061 25.4997 26.8681 25.5668 26.9876 25.6863C27.1071 25.8058 27.1742 25.9678 27.1742 26.1368C27.1742 26.3058 27.1071 26.4678 26.9876 26.5873C26.8681 26.7068 26.7061 26.7739 26.5371 26.7739C26.3681 26.7739 26.2061 26.841 26.0866 26.9605C25.9671 27.08 25.9 27.2421 25.9 27.411C25.9 27.58 25.9671 27.7421 26.0866 27.8615C26.2061 27.981 26.3681 28.0481 26.5371 28.0481C26.7061 28.0481 26.8681 28.1153 26.9876 28.2347C27.1071 28.3542 27.1742 28.5163 27.1742 28.6853C27.1742 28.8542 27.1071 29.0163 26.9876 29.1358C26.8681 29.2552 26.7061 29.3224 26.5371 29.3224H19.2205C18.3009 29.3232 17.4018 29.051 16.6372 28.5402L16.3433 28.3443V20.1443C17.1324 19.6823 17.8071 19.0482 18.317 18.2891C18.8269 17.5301 19.1589 16.6658 19.2883 15.7606L19.4443 14.6684H20.166C20.5038 14.6688 20.8277 14.8031 21.0666 15.042C21.3054 15.2809 21.4398 15.6048 21.4402 15.9426V19.7653C21.4402 19.9342 21.5073 20.0963 21.6268 20.2158C21.7463 20.3353 21.9084 20.4024 22.0773 20.4024H27.1742C27.3432 20.4024 27.5053 20.4695 27.6247 20.589C27.7442 20.7085 27.8113 20.8705 27.8113 21.0395C27.8113 21.2085 27.7442 21.3705 27.6247 21.49C27.5053 21.6095 27.3432 21.6766 27.1742 21.6766V21.677Z" fill="#202223"/>
</svg>
