<svg width="57" height="19" viewBox="0 0 57 19" fill="none" xmlns="http://www.w3.org/2000/svg">
<path d="M52.5461 0.57251H49.0435C47.9846 0.57251 47.17 0.915367 46.6813 2.02965L40.002 18.0582H44.7264C44.7264 18.0582 45.5409 15.9154 45.7038 15.4011C46.1926 15.4011 50.8355 15.4011 51.4872 15.4011C51.6501 16.0011 52.0574 17.9725 52.0574 17.9725H56.2931L52.5461 0.57251ZM47.0071 11.8011C47.4144 10.7725 48.7991 6.91537 48.7991 6.91537C48.7991 7.00108 49.2064 5.8868 49.3693 5.2868L49.6952 6.82965C49.6952 6.82965 50.5912 11.0297 50.7541 11.8868H47.0071V11.8011Z" fill="#3362AB"/>
<path d="M40.3274 12.3154C40.3274 15.9154 37.2321 18.3154 32.4262 18.3154C30.3898 18.3154 28.4349 17.8869 27.376 17.3726L28.0276 13.4297L28.5978 13.6869C30.064 14.3726 31.0415 14.6297 32.8335 14.6297C34.1368 14.6297 35.5215 14.1154 35.5215 12.9154C35.5215 12.144 34.9513 11.6297 33.1593 10.7726C31.4487 9.91543 29.168 8.544 29.168 6.05829C29.168 2.62972 32.3448 0.31543 36.8248 0.31543C38.5354 0.31543 40.0016 0.658287 40.8976 1.08686L40.2459 4.85829L39.9201 4.51543C39.1056 4.17257 38.0466 3.82972 36.499 3.82972C34.7884 3.91543 33.9739 4.68686 33.9739 5.37257C33.9739 6.144 34.9513 6.744 36.499 7.51543C39.1056 8.80114 40.3274 10.2583 40.3274 12.3154Z" fill="#3362AB"/>
<path d="M0.578613 0.74398L0.660069 0.401123H7.66524C8.64271 0.401123 9.37581 0.74398 9.62017 1.85827L11.1678 9.57255C9.62017 5.45827 6.03613 2.11541 0.578613 0.74398Z" fill="#F9B50B"/>
<path d="M21.0239 0.572531L13.9372 17.9725H9.13137L5.05859 3.4011C7.99099 5.37253 10.4347 8.45824 11.3307 10.6011L11.8194 12.4011L16.218 0.486816H21.0239V0.572531Z" fill="#3362AB"/>
<path d="M22.8964 0.486816H27.3764L24.5255 17.9725H20.0454L22.8964 0.486816Z" fill="#3362AB"/>
</svg>
