<svg width="155" height="41" viewBox="0 0 155 41" fill="none" xmlns="http://www.w3.org/2000/svg">
<path fill-rule="evenodd" clip-rule="evenodd" d="M45.771 40.9395C41.2674 40.9395 36.9597 38.417 34.1706 34.9714C30.9924 31.0552 29.4441 25.9939 29.4441 20.9884C29.4441 16.1788 30.8666 11.3403 33.8078 7.50643C36.7079 3.74247 41.0716 1.05134 45.9241 1.05134C50.3857 1.05134 54.6655 3.60343 57.4126 7.00457C60.5776 10.9224 62.1531 15.9969 62.1531 21.0032C62.1531 25.798 60.7166 30.6365 57.7886 34.4704C54.9172 38.2055 50.5807 40.9395 45.771 40.9395ZM0.514648 1.87407H14.0805V2.26322H10.7485L20.8705 29.9799L29.4169 2.26322H26.0569V1.87407H33.3767V2.26322H30.1418L18.0963 40.5758L4.08445 2.26322H0.514648V1.87407ZM91.8501 1.20437V14.5193H91.5433C90.9715 11.8981 90.1627 9.34686 88.755 7.03254C87.0825 4.32743 84.4193 1.28911 80.9474 1.28911C72.9727 1.28911 72.2479 15.5798 72.2479 21.0312C72.2479 25.9116 72.6379 30.9442 74.4084 35.5169C75.6491 38.7239 77.4475 40.2985 80.7804 40.2985C83.4287 40.2985 86.2457 38.96 87.6534 36.6588C88.0162 36.0591 88.0442 35.391 88.0442 34.7081V24.4175H84.5592V24.0144H97.3163V24.4175H94.3323V39.8099H94.069C93.3154 38.5552 92.1299 37.7325 90.6111 37.7325C89.5087 37.7325 88.435 38.1233 87.4749 38.6531L86.6102 39.127C84.6579 39.9917 82.7887 40.6178 80.6282 40.6178C70.73 40.6178 65.4596 30.0639 65.4596 21.3093C65.4596 14.9093 67.8998 8.06341 73.0863 4.06251C75.4146 2.26321 78.2308 0.939453 81.228 0.939453C82.3995 0.939453 83.5563 1.30145 84.6439 1.73421L85.4395 2.04108C86.3461 2.37593 87.3358 2.69597 88.3108 2.69597C89.5243 2.69597 90.6119 1.90122 91.5457 1.20437H91.8501ZM95.6569 1.87407H109.264V2.26404H105.653V31.808C105.653 36.4359 110.421 39.2529 114.589 39.2529C119.078 39.2529 122.856 36.1306 122.856 31.5431V2.26322H118.591V1.87325H153.712V15.5782H153.447C153.042 11.9533 152.344 8.23043 149.849 5.40026C147.326 2.54212 143.896 2.26322 140.369 2.26322H136.564V19.8868C137.343 19.9699 138.138 20.0258 138.934 20.0258C143.715 20.0258 144.956 16.7357 145.165 12.6641H145.514V28.1255H145.165C144.565 24.4315 142.935 20.4717 138.598 20.4717C137.915 20.4717 137.246 20.5137 136.564 20.5696V39.4191H142.265C145.222 39.4191 148.162 38.1364 150.254 36.0739C152.038 34.3173 153.28 32.031 153.712 29.5628C153.949 28.1823 154.061 26.7746 154.13 25.3801H154.437V39.8099H126.985V39.4191H130.178V2.26322H123.43V31.6542C123.43 37.7317 117.657 40.4228 112.249 40.4228C106.129 40.4228 99.3789 37.4536 99.3789 30.4538V2.26322H95.6577L95.6569 1.87407Z" fill="#202223"/>
<path fill-rule="evenodd" clip-rule="evenodd" d="M55.2654 20.9884C55.2654 15.4531 53.2859 1.62231 45.7991 1.62231C38.2844 1.62231 36.332 15.4391 36.332 20.9884C36.332 26.5369 38.2983 40.3677 45.7991 40.3677C53.2859 40.3668 55.2654 26.5237 55.2654 20.9884Z" fill="#EAF2EE"/>
</svg>
