<svg width="172" height="41" viewBox="0 0 172 41" fill="none" xmlns="http://www.w3.org/2000/svg">
<path d="M34.1986 34.5587C34.1986 37.2551 31.9482 39.4437 30.2535 39.4437H11.0905L35.1934 0.939453H2.96702V7.32024H4.62053C4.62053 4.62384 6.36324 2.44203 8.06479 2.44203H24.6205L0.373535 40.9394H35.3375V34.5587H34.1986Z" fill="#202223"/>
<path d="M76.0172 37.8245L57.3688 0.939453L40.2779 37.852C39.976 38.6616 38.3293 39.6839 35.9966 39.6839V40.9326H45.0944V39.6839C43.4065 39.6839 41.5952 38.8468 42.0343 37.8451L46.1441 28.9326H61.9108L66.3911 37.8245C66.8988 38.7233 64.6278 39.6907 62.2882 39.6907V40.9394H81.2247L81.2316 39.6907C78.3637 39.6839 76.6141 38.7919 76.0172 37.8245ZM46.8302 27.4918L53.6501 12.5209L61.2659 27.4918H46.8302Z" fill="#202223"/>
<path d="M83.3989 2.48319C86.1708 2.48319 88.4624 3.19674 88.4624 4.06124C88.4624 10.9223 88.4487 37.7834 88.4624 37.7834C88.4624 38.7027 86.2051 39.725 83.4264 39.725L83.4195 40.9326H101.958V39.8074C99.2068 39.8074 96.977 38.7096 96.977 37.7902V2.147H102.322C107.468 2.147 111.639 6.42144 111.639 11.2722C111.639 16.123 107.468 20.0612 102.315 20.0612H98.6168C98.6168 20.0612 111.145 39.0321 111.166 39.0321C111.66 39.7525 111.907 40.9394 111.907 40.9394H125.416V39.8142C122.816 39.8142 121.457 38.737 120.703 37.7902L108.641 22.0509C114.432 21.6667 118.912 16.9875 118.912 11.43C118.912 5.62556 113.924 0.939453 107.769 0.939453H83.3989V2.48319Z" fill="#202223"/>
<path d="M166.693 37.8245L148.045 0.939453L130.954 37.852C130.652 38.6616 129.012 39.725 126.672 39.725V40.9326H135.77V39.8074C134.082 39.8074 132.278 38.8468 132.71 37.8451L136.82 28.9326H152.587L157.067 37.8245C157.581 38.7233 155.304 39.7319 152.964 39.7319V40.9394H171.9L171.907 39.7731C169.039 39.7731 167.29 38.7919 166.693 37.8245ZM137.499 27.4918L144.319 12.5209L151.935 27.4918H137.499Z" fill="#202223"/>
</svg>
